<svg width="22" height="20" fill="none" xmlns="http://www.w3.org/2000/svg"><path d="M3.938 20c-.931 0-1.757-.35-2.48-1.048-.764-.74-1.145-1.637-1.145-2.692 0-1.055.381-1.952 1.145-2.691L13.438 1.27A4.253 4.253 0 0115.552.1a4.544 4.544 0 012.427.142c.82.269 1.577.732 2.271 1.391a5.6 5.6 0 01.615.756c.187.276.34.565.458.867a5.51 5.51 0 01.365 1.966c-.028 1.425-.528 2.614-1.5 3.568l-9.063 9.315a.636.636 0 01-.458.212.633.633 0 01-.47-.172.625.625 0 01-.207-.453.635.635 0 01.177-.474l9.062-9.315c.736-.726 1.111-1.626 1.125-2.701.014-1.076-.34-1.956-1.062-2.642a4.637 4.637 0 00-1.48-1.008 3.329 3.329 0 00-1.75-.221c-.625.08-1.18.356-1.666.826L2.416 14.456c-.513.497-.77 1.095-.77 1.794 0 .699.257 1.297.77 1.794.237.229.494.4.772.514.277.115.569.158.874.131.612-.026 1.181-.302 1.709-.826l9.52-9.798a2.909 2.909 0 00.396-.474 1.546 1.546 0 00.25-.665.648.648 0 00-.062-.353 1.145 1.145 0 00-.25-.343c-.264-.269-.52-.39-.77-.363-.265.027-.563.195-.897.504L6.792 13.75a.71.71 0 01-.292.171.662.662 0 01-.646-.15.567.567 0 01-.208-.444c0-.175.062-.33.187-.464L13 5.463c.57-.537 1.146-.833 1.73-.886.666-.054 1.277.188 1.832.725.528.498.76 1.082.698 1.754-.062.673-.399 1.304-1.01 1.896L6.73 18.77c-.779.753-1.647 1.156-2.605 1.21a.5.5 0 00-.094.01.5.5 0 01-.093.01z" fill="#CDCDCD"/></svg>