<?xml version="1.0" standalone="no"?>
<!DOCTYPE svg PUBLIC "-//W3C//DTD SVG 1.1//EN" "http://www.w3.org/Graphics/SVG/1.1/DTD/svg11.dtd" >
<svg>
<metadata>
Created by FontForge 20090914 at Fri Aug 13 09:00:32 2021
 By www-data
Copyright (c) 2015, 2018 by Jakob Runge, under exclusive license to TypeMates. All rights reserved.
</metadata>
<defs>
<font id="CeraPro-Bold" horiz-adv-x="560" >
  <font-face 
    font-family="Cera Pro"
    font-weight="700"
    font-stretch="normal"
    units-per-em="1000"
    panose-1="0 0 8 0 0 0 0 0 0 0"
    ascent="808"
    descent="-192"
    x-height="495"
    cap-height="660"
    bbox="-475 -246 1372 1000"
    underline-thickness="87"
    underline-position="-186"
    unicode-range="U+0020-U+FB02"
  />
<missing-glyph horiz-adv-x="713" 
d="M637 660v-660h-561v660h561zM545 576h-379l379 -499v499z" />
    <glyph glyph-name="fi" unicode="fi" horiz-adv-x="626" 
d="M247 623.5c-14.667 -11.667 -21.999 -31.5 -21.999 -59.5v-69h109v-114h-109v-381h-135v381h-70v114h70v81c0 62 17 108.5 51 139.5s80.667 46.5 140 46.5c26 0 50.667 -3.66699 74 -11v-113c-14.667 2 -28 3 -40 3c-30.667 0 -53.334 -5.83301 -68.001 -17.5z
M424.001 495h135v-495h-135v495zM430.001 616c-16.667 16 -25 35.667 -25 59c0 24 8.33301 44 25 60s37 24 61 24s44.5 -8 61.5 -24s25.5 -36 25.5 -60c0 -23.333 -8.5 -43 -25.5 -59s-37.5 -24 -61.5 -24s-44.333 8 -61 24z" />
    <glyph glyph-name="fl" unicode="fl" horiz-adv-x="626" 
d="M247 623.5c-14.667 -11.667 -21.999 -31.5 -21.999 -59.5v-69h109v-114h-109v-381h-135v381h-70v114h70v81c0 62 17 108.5 51 139.5s80.667 46.5 140 46.5c26 0 50.667 -3.66699 74 -11v-113c-14.667 2 -28 3 -40 3c-30.667 0 -53.334 -5.83301 -68.001 -17.5z
M424.001 750h135v-750h-135v750z" />
    <glyph glyph-name=".notdef" horiz-adv-x="713" 
d="M637 660v-660h-561v660h561zM545 576h-379l379 -499v499z" />
    <glyph glyph-name="space" unicode=" " horiz-adv-x="280" 
 />
    <glyph glyph-name="exclam" unicode="!" horiz-adv-x="347" 
d="M92 660h161l-25 -418h-110zM107.5 14.5c-17.667 17.667 -26.5 39.834 -26.5 66.501c0 26 8.83301 48 26.5 66s40.167 27 67.5 27c26 0 47.833 -9 65.5 -27s26.5 -40 26.5 -66c0 -26.667 -8.83301 -48.834 -26.5 -66.501s-39.5 -26.5 -65.5 -26.5
c-27.333 0 -49.833 8.83301 -67.5 26.5z" />
    <glyph glyph-name="quotedbl" unicode="&#x22;" horiz-adv-x="538" 
d="M88 660h154l-56 -278h-103zM325 660h154l-56 -278h-103z" />
    <glyph glyph-name="numbersign" unicode="#" horiz-adv-x="631" 
d="M508 395l-17 -130h92v-113h-108l-20 -152h-109l20 152h-149l-20 -152h-109l20 152h-81v113h96l18 130h-93v113h108l20 152h110l-20 -152h148l20 152h110l-20 -152h81v-113h-97zM381 259l18 142h-148l-19 -142h149z" />
    <glyph glyph-name="dollar" unicode="$" horiz-adv-x="538" 
d="M447.5 83.5c-30.333 -31 -70.499 -50.502 -120.499 -58.502v-122h-118v124c-38.667 8.66699 -73.167 24.5 -103.5 47.5s-54.833 52.167 -73.5 87.5l91 68c38.667 -60.667 89 -91 151 -91c26 0 47 5 63 15s24 24.667 24 44c0 16 -6.16699 28.833 -18.5 38.5
s-31.833 19.834 -58.5 30.501l-68 25c-46.667 17.333 -83.167 40.5 -109.5 69.5s-39.5 63.833 -39.5 104.5s13 75.5 39 104.5s60.333 48.5 103 58.5v120h118v-118c66 -14 115.667 -52.333 149 -115l-90 -68c-16 23.333 -33.333 40.5 -52 51.5s-39.667 16.5 -63 16.5
c-20.667 0 -37.834 -4.16699 -51.501 -12.5s-20.5 -21.166 -20.5 -38.499c0 -14.667 5.5 -26.5 16.5 -35.5s27.833 -18.167 50.5 -27.5l75 -26c50.667 -18.667 88.667 -42.5 114 -71.5s38 -63.833 38 -104.5c0 -46.667 -15.167 -85.5 -45.5 -116.5z" />
    <glyph glyph-name="percent" unicode="%" horiz-adv-x="861" 
d="M141 364.5c-26 14.333 -46.667 34.166 -62 59.499s-23 53.333 -23 84s7.66699 58.5 23 83.5s36 44.667 62 59s54.667 21.5 86 21.5c30.667 0 59 -7.16699 85 -21.5s46.667 -34 62 -59s23 -52.833 23 -83.5s-7.66699 -58.667 -23 -84s-36 -45.166 -62 -59.499
s-54.333 -21.5 -85 -21.5c-31.333 0 -60 7.16699 -86 21.5zM566 660h109l-380 -660h-108zM274.5 456c12.333 13.333 18.5 30.666 18.5 51.999c0 20.667 -6.16699 37.667 -18.5 51s-27.833 20 -46.5 20c-20 0 -36.167 -6.66699 -48.5 -20s-18.5 -30.333 -18.5 -51
c0 -21.333 6 -38.666 18 -51.999s28.333 -20 49 -20c18.667 0 34.167 6.66699 46.5 20zM549 10.5c-26 14.333 -46.666 34.166 -61.999 59.499s-23 53.333 -23 84s7.66699 58.5 23 83.5s36 44.667 62 59s54.333 21.5 85 21.5s59.167 -7.16699 85.5 -21.5
s47.166 -34 62.499 -59s23 -52.833 23 -83.5s-7.66699 -58.667 -23 -84s-36 -45.166 -62 -59.499s-54.667 -21.5 -86 -21.5c-30.667 0 -59 7.16699 -85 21.5zM681.501 103c12.333 13.333 18.5 30.333 18.5 51s-6.16699 37.667 -18.5 51s-27.833 20 -46.5 20
c-20.667 0 -37 -6.5 -49 -19.5s-18 -30.167 -18 -51.5s6 -38.5 18 -51.5s28.333 -19.5 49 -19.5c18.667 0 34.167 6.66699 46.5 20z" />
    <glyph glyph-name="ampersand" unicode="&#x26;" horiz-adv-x="674" 
d="M617 256c-41.333 -59.333 -70.666 -99.667 -87.999 -121l111 -135h-158l-40 49c-53.333 -40.667 -113 -61 -179 -61c-42.667 0 -80.334 7.66699 -113.001 23s-58.167 37 -76.5 65s-27.5 60 -27.5 96c0 35.333 9.83301 67.5 29.5 96.5s54.167 62.833 103.5 101.5
c-20 26 -34.667 50.5 -44 73.5s-14 46.5 -14 70.5c0 47.333 15.667 85.5 47 114.5s72.666 43.5 123.999 43.5c48.667 0 88.334 -13.5 119.001 -40.5s46 -61.833 46 -104.5c0 -31.333 -8.5 -60.5 -25.5 -87.5s-44.5 -56.167 -82.5 -87.5l97 -117l57 82c12 16 24 33 36 51
l104 -74zM255 544.999c-8.66699 -8 -13 -19 -13 -33c0 -11.333 2.83301 -22.5 8.5 -33.5s15.834 -25.5 30.501 -43.5l2 1c19.333 15.333 33 28.833 41 40.5s12 24.167 12 37.5s-4 23.833 -12 31.5s-19.333 11.5 -34 11.5s-26.334 -4 -35.001 -12zM364 143.999
l-114.002 137.999c-27.333 -22.667 -45.666 -40.5 -54.999 -53.5s-14 -27.5 -14 -43.5c0 -23.333 8.33301 -42.166 25 -56.499s38.334 -21.5 65.001 -21.5c32 0 63 12.333 93 37z" />
    <glyph glyph-name="quotesingle" unicode="'" horiz-adv-x="301" 
d="M88 660h154l-56 -278h-103z" />
    <glyph glyph-name="parenleft" unicode="(" horiz-adv-x="365" 
d="M129 19.5c-40.667 72.333 -61 166.837 -61 283.504c0 117.333 20.333 212.166 61 284.499s93 122.833 157 151.5l53 -81c-46 -30.667 -83 -73.834 -111 -129.501s-42 -130.834 -42 -225.501c0 -94 14 -168.833 42 -224.5s65 -98.834 111 -129.501l-53 -81
c-64 28.667 -116.333 79.167 -157 151.5z" />
    <glyph glyph-name="parenright" unicode=")" horiz-adv-x="365" 
d="M26 -51c46 30.667 83.167 73.8301 111.5 129.497s42.5 130.5 42.5 224.5c0 94.667 -14 169.834 -42 225.501s-65.333 98.834 -112 129.501l54 81c63.333 -28.667 115.333 -79.167 156 -151.5s61 -167.166 61 -284.499c0 -116.667 -20.333 -211.167 -61 -283.5
s-92.667 -122.833 -156 -151.5z" />
    <glyph glyph-name="asterisk" unicode="*" horiz-adv-x="467" 
d="M337 548l91 -68l-39 -67l-104 45l-13 -112h-77l-13 112l-104 -45l-39 67l91 68l-91 67l39 67l104 -45l13 112h77l13 -112l104 45l39 -67z" />
    <glyph glyph-name="plus" unicode="+" 
d="M217 263h-172v115h172v176h129v-176h170v-115h-170v-177h-129v177z" />
    <glyph glyph-name="comma" unicode="," horiz-adv-x="280" 
d="M70 123h154l-53 -301h-107z" />
    <glyph glyph-name="hyphen" unicode="-" horiz-adv-x="342" 
d="M45 377h252v-113h-252v113z" />
    <glyph glyph-name="period" unicode="." horiz-adv-x="280" 
d="M74 14.5c-18 17.667 -27 39.834 -27 66.501c0 26 9 48 27 66s40.333 27 67 27c26 0 47.833 -9 65.5 -27s26.5 -40 26.5 -66c0 -26.667 -8.66699 -48.834 -26 -66.501s-39.333 -26.5 -66 -26.5s-49 8.83301 -67 26.5z" />
    <glyph glyph-name="slash" unicode="/" horiz-adv-x="672" 
d="M526 780h143l-523 -901h-143z" />
    <glyph glyph-name="zero" unicode="0" horiz-adv-x="635" 
d="M173 34c-39.333 30.667 -68.667 72.167 -88 124.5s-29 111.166 -29 176.499c0 100.667 22.333 182 67 244s109.667 93 195 93s150.166 -31 194.499 -93s66.5 -143.333 66.5 -244c0 -65.333 -9.66699 -124.166 -29 -176.499s-48.5 -93.833 -87.5 -124.5
s-87.167 -46 -144.5 -46s-105.666 15.333 -144.999 46zM439.999 334c0 70 -9.83203 123 -29.499 159s-50.5 54 -92.5 54c-42.667 0 -73.834 -18 -93.501 -54s-29.5 -89 -29.5 -159c0 -147.333 41 -221 123 -221c81.333 0 122 73.667 122 221z" />
    <glyph glyph-name="one" unicode="1" horiz-adv-x="401" 
d="M310 660v-660h-135v500l-125 -40l-32 119l247 81h45z" />
    <glyph glyph-name="two" unicode="2" horiz-adv-x="584" 
d="M532 115l-0.000976562 -114.999l-487 -1v29l236 256c32.667 35.333 56.334 65.666 71.001 90.999s22 50.333 22 75c0 28.667 -8.33301 52 -25 70s-39 27 -67 27s-50.5 -9.33301 -67.5 -28s-25.5 -43 -25.5 -73c0 -12 1.66699 -28 5 -48h-136c-4.66699 18 -7 36.667 -7 56
c0 37.333 9.5 72.666 28.5 105.999s46.167 60.333 81.5 81s76.333 31 123 31c43.333 0 82.5 -9.16699 117.5 -27.5s62.333 -43.5 82 -75.5s29.5 -68 29.5 -108c0 -44.667 -12 -86.167 -36 -124.5s-59.333 -82.166 -106 -131.499l-85 -90h246z" />
    <glyph glyph-name="three" unicode="3" horiz-adv-x="549" 
d="M458 347c30.667 -35.333 45.999 -78.998 45.999 -130.998c0 -44 -11.167 -83.333 -33.5 -118s-52.5 -61.667 -90.5 -81s-79.667 -29 -125 -29c-54.667 0 -102.667 13.667 -144 41s-73.333 63.666 -96 108.999l94 66c20 -30 41 -52.667 63 -68s48.333 -23 79 -23
c33.333 0 60.833 9.16699 82.5 27.5s32.5 43.166 32.5 74.499c0 30.667 -11.5 54.167 -34.5 70.5s-56.5 24.5 -100.5 24.5h-83v35l138 193h-220v122h425v-36l-146 -206c44.667 -12 82.334 -35.667 113.001 -71z" />
    <glyph glyph-name="four" unicode="4" horiz-adv-x="577" 
d="M563 108h-84v-108h-135v108h-328v36l204 516h139l-175 -438h160v185h135v-185h84v-114z" />
    <glyph glyph-name="five" unicode="5" horiz-adv-x="564" 
d="M404 402c34 -16 61.6689 -39.8301 83.002 -71.4971s32 -69.5 32 -113.5c0 -44.667 -11.167 -84.334 -33.5 -119.001s-52.833 -61.667 -91.5 -81s-81.334 -29 -128.001 -29c-56 0 -105.167 13.667 -147.5 41s-74.833 63.666 -97.5 108.999l94 66
c19.333 -30 40.666 -52.667 63.999 -68s51 -23 83 -23c34 0 62.167 9.16699 84.5 27.5s33.5 43.166 33.5 74.499s-11.5 55 -34.5 71s-56.5 24 -100.5 24h-154v350h390v-122h-260v-120c25.333 5.33301 50.333 8 75 8c38 0 74 -8 108 -24z" />
    <glyph glyph-name="six" unicode="6" horiz-adv-x="562" 
d="M411.5 419.5c33.667 -19 60.832 -45.668 81.499 -80.001s31 -72.833 31 -115.5c0 -44.667 -11.167 -85 -33.5 -121s-52.166 -64.167 -89.499 -84.5s-77.333 -30.5 -120 -30.5s-82.667 10.167 -120 30.5s-67 48.5 -89 84.5s-33 76.667 -33 122c0 26 3.66699 50 11 72
s16.833 42.333 28.5 61s28.5 43.334 50.5 74.001l165 228h159l-152 -212h4c37.333 0 72.833 -9.5 106.5 -28.5zM358.498 143.999c21 21.333 31.5 47.999 31.5 79.999s-10.5 58.5 -31.5 79.5s-46.833 31.5 -77.5 31.5s-56.5 -10.667 -77.5 -32s-31.5 -47.666 -31.5 -78.999
s10.5 -57.833 31.5 -79.5s46.833 -32.5 77.5 -32.5s56.5 10.667 77.5 32z" />
    <glyph glyph-name="seven" unicode="7" horiz-adv-x="525" 
d="M502 660v-36l-302 -624h-147l268 538h-283v122h464z" />
    <glyph glyph-name="eight" unicode="8" horiz-adv-x="588" 
d="M541 176c0 -38 -10.5 -71.1689 -31.5 -99.502s-50.167 -50.166 -87.5 -65.499s-80 -23 -128 -23s-90.833 7.66699 -128.5 23s-67 37.166 -88 65.499s-31.5 61.5 -31.5 99.5c0 76 43.333 131.333 130 166c-66.667 38.667 -100 90.334 -100 155.001
c0 54.667 20.5 97.5 61.5 128.5s93.167 46.5 156.5 46.5s115.5 -15.5 156.5 -46.5s61.5 -73.833 61.5 -128.5c0 -65.333 -33 -117 -99 -155c85.333 -35.333 128 -90.666 128 -165.999zM228 543.998c-17.333 -12.667 -26 -30.333 -26 -53c0 -20 7.5 -36.667 22.5 -50
s38.167 -27.333 69.5 -42c31.333 14.667 54.5 28.667 69.5 42s22.5 30.333 22.5 51c0 22 -8.66699 39.333 -26 52s-39.333 19 -66 19s-48.667 -6.33301 -66 -19zM378 120.999c19.333 15.333 29 35.335 29 60.002c0 25.333 -9.33301 45.666 -28 60.999s-47 29.666 -85 42.999
c-38 -14 -66.333 -28.667 -85 -44s-28 -35.333 -28 -60s9.66699 -44.667 29 -60s47.333 -23 84 -23s64.667 7.66699 84 23z" />
    <glyph glyph-name="nine" unicode="9" horiz-adv-x="562" 
d="M401.5 641.5c37 -20.333 66.6689 -48.499 89.002 -84.499s33.5 -76.667 33.5 -122c0 -36.667 -7.16699 -69.334 -21.5 -98.001s-37.5 -65 -69.5 -109l-164 -228h-160l153 212h-5c-36.667 0 -71.834 9.5 -105.501 28.5s-60.834 45.667 -81.501 80s-31 72.833 -31 115.5
c0 44.667 11 85 33 121s51.667 64.167 89 84.5s77.333 30.5 120 30.5c43.333 0 83.5 -10.167 120.5 -30.5zM358.502 357.001c21 21.333 31.5 47.666 31.5 78.999s-10.5 57.833 -31.5 79.5s-46.833 32.5 -77.5 32.5c-30 0 -55.667 -10.667 -77 -32s-32 -48 -32 -80
c0 -31.333 10.667 -57.666 32 -78.999s47 -32 77 -32c30.667 0 56.5 10.667 77.5 32z" />
    <glyph glyph-name="colon" unicode=":" horiz-adv-x="280" 
d="M74 344.5c-18 17.667 -27 39.834 -27 66.501c0 26 9 48 27 66s40.333 27 67 27c26 0 47.833 -9 65.5 -27s26.5 -40 26.5 -66c0 -26.667 -8.66699 -48.834 -26 -66.501s-39.333 -26.5 -66 -26.5s-49 8.83301 -67 26.5zM74 14.5c-18 17.667 -27 39.834 -27 66.501
c0 26 9 48 27 66s40.333 27 67 27c26 0 47.833 -9 65.5 -27s26.5 -40 26.5 -66c0 -26.667 -8.66699 -48.834 -26 -66.501s-39.333 -26.5 -66 -26.5s-49 8.83301 -67 26.5z" />
    <glyph glyph-name="semicolon" unicode=";" horiz-adv-x="280" 
d="M74 344.5c-18 17.667 -27 39.834 -27 66.501c0 26 9 48 27 66s40.333 27 67 27c26 0 47.833 -9 65.5 -27s26.5 -40 26.5 -66c0 -26.667 -8.66699 -48.834 -26 -66.501s-39.333 -26.5 -66 -26.5s-49 8.83301 -67 26.5zM70 123h154l-53 -301h-107z" />
    <glyph glyph-name="less" unicode="&#x3c;" 
d="M501 427l-248 -106l248 -106v-118l-464 205v37l464 205v-117z" />
    <glyph glyph-name="equal" unicode="=" 
d="M55 485h451v-114h-451v114zM55 270h451v-114h-451v114z" />
    <glyph glyph-name="greater" unicode="&#x3e;" 
d="M523 339v-37l-464 -205v118l248 106l-248 106v117z" />
    <glyph glyph-name="question" unicode="?" horiz-adv-x="452" 
d="M142 290c0 18.667 6.5 36.833 19.5 54.5s32.833 37.167 59.5 58.5c22.667 18.667 38.167 33.5 46.5 44.5s12.5 24.167 12.5 39.5c0 18 -6 32.667 -18 44s-27 17 -45 17c-36 0 -63.667 -25.333 -83 -76l-110 48c14 50 38.333 87.833 73 113.5s76 38.5 124 38.5
c36.667 0 70 -7.33301 100 -22s53.667 -35.167 71 -61.5s26 -56.833 26 -91.5c0 -28 -6.5 -53 -19.5 -75s-34.167 -45.667 -63.5 -71c-27.333 -24 -45.833 -41.333 -55.5 -52s-14.5 -22.667 -14.5 -36c0 -6 0.666992 -13 2 -21h-114c-7.33301 16 -11 32 -11 48zM147 14.499
c-18 17.667 -27 39.834 -27 66.501c0 26 9 48 27 66s40.333 27 67 27s48.834 -9 66.501 -27s26.5 -40 26.5 -66c0 -26.667 -8.83301 -48.834 -26.5 -66.501s-39.834 -26.5 -66.501 -26.5s-49 8.83301 -67 26.5z" />
    <glyph glyph-name="at" unicode="@" horiz-adv-x="953" 
d="M707 614.5c64.667 -34.333 115.333 -80.8301 152 -139.497s55 -123 55 -193c0 -83.333 -26 -146.166 -78 -188.499s-121.333 -63.5 -208 -63.5h-49v50c-14 -19.333 -32.5 -34.333 -55.5 -45s-48.5 -16 -76.5 -16c-38.667 0 -73.167 9.33301 -103.5 28
s-54.166 44.667 -71.499 78s-26 70.666 -26 111.999s8.66699 78.5 26 111.5s41.166 58.833 71.499 77.5s64.833 28 103.5 28c27.333 0 52.166 -4.83301 74.499 -14.5s40.5 -23.5 54.5 -41.5v47h113v-310c78 5.33301 117 54.333 117 147
c0 54.667 -12.833 103.167 -38.5 145.5s-62.167 75.5 -109.5 99.5s-102.333 36 -165 36c-66.667 0 -126.334 -13.5 -179.001 -40.5s-93.667 -65 -123 -114s-44 -105.167 -44 -168.5c0 -62.667 14.167 -118.334 42.5 -167.001s67.833 -86.5 118.5 -113.5s108 -40.5 172 -40.5
c34 0 73.667 5.33301 119 16l21 -94c-45.333 -16.667 -96.666 -25 -153.999 -25c-78 0 -149.667 18.167 -215 54.5s-117.166 86.666 -155.499 150.999s-57.5 136.5 -57.5 216.5c0 81.333 20.167 154.666 60.5 219.999s95 116.333 164 153s144.833 55 227.5 55
c80 0 152.333 -17.167 217 -51.5zM539.999 158.003c19.333 18 29 44.333 29 79c0 34 -9.5 60.167 -28.5 78.5s-41.833 27.5 -68.5 27.5c-28 0 -51.833 -9.66699 -71.5 -29s-29.5 -45 -29.5 -77s9.66699 -57.667 29 -77s43 -29 71 -29c26.667 0 49.667 9 69 27z" />
    <glyph glyph-name="A" unicode="A" horiz-adv-x="661" 
d="M465 86h-270l-37 -86h-145l295 672h45l294 -672h-145zM330 420l-88 -223h176z" />
    <glyph glyph-name="B" unicode="B" horiz-adv-x="621" 
d="M556 295.5c20.667 -27.667 30.999 -61.499 30.999 -101.499c0 -37.333 -9.16699 -70.833 -27.5 -100.5s-44 -52.667 -77 -69s-70.5 -24.5 -112.5 -24.5h-294v660h234c40 0 76 -7.83301 108 -23.5s56.833 -37.334 74.5 -65.001s26.5 -59.5 26.5 -95.5
c0 -48 -16.333 -87.667 -49 -119c36.667 -13.333 65.334 -33.833 86.001 -61.5zM205.999 544.001v-150.999h93c27.333 0 48.5 6.83301 63.5 20.5s22.5 32.167 22.5 55.5s-7.5 41.666 -22.5 54.999s-36.167 20 -63.5 20h-93zM428.999 138.002c16.667 14.667 25 35 25 61
c0 25.333 -8.33301 45.5 -25 60.5s-39.667 22.5 -69 22.5h-154v-166h154c29.333 0 52.333 7.33301 69 22z" />
    <glyph glyph-name="C" unicode="C" horiz-adv-x="720" 
d="M211.5 33c-53.667 30 -96.001 71.1689 -127.001 123.502s-46.5 110.166 -46.5 173.499s15.667 121.166 47 173.499s73.833 93.5 127.5 123.5s112.834 45 177.501 45c62.667 0 119.5 -14.5 170.5 -43.5s91.167 -69.167 120.5 -120.5l-102 -72
c-46.667 74 -109.667 111 -189 111c-40.667 0 -77.167 -9.33301 -109.5 -28s-57.666 -44.5 -75.999 -77.5s-27.5 -70.5 -27.5 -112.5s9.16699 -79.333 27.5 -112s43.666 -58.167 75.999 -76.5s68.833 -27.5 109.5 -27.5c79.333 0 142.333 37 189 111l102 -72
c-28.667 -51.333 -68.667 -91.5 -120 -120.5s-108.666 -43.5 -171.999 -43.5c-64.667 0 -123.834 15 -177.501 45z" />
    <glyph glyph-name="D" unicode="D" horiz-adv-x="690" 
d="M76 660l216 -0.00292969c70 0 132.333 -13.667 187 -41s97.167 -65.666 127.5 -114.999s45.5 -106.666 45.5 -171.999c0 -64 -15.167 -121.167 -45.5 -171.5s-72.833 -89.666 -127.5 -117.999s-117 -42.5 -187 -42.5h-216v660zM291 121.997
c44 0 82.832 8.66699 116.499 26s59.667 41.833 78 73.5s27.5 68.5 27.5 110.5c0 64 -20.167 114.333 -60.5 151s-94.166 55 -161.499 55h-80v-416h80z" />
    <glyph glyph-name="E" unicode="E" horiz-adv-x="573" 
d="M76 660h444v-122h-309v-134h227v-115h-227v-167h321v-122h-456v660z" />
    <glyph glyph-name="F" unicode="F" horiz-adv-x="535" 
d="M76 660h434v-122h-299v-165h245v-122h-245v-251h-135v660z" />
    <glyph glyph-name="G" unicode="G" horiz-adv-x="747" 
d="M212.5 33c-53.667 30 -96.165 71.1689 -127.498 123.502s-47 110.166 -47 173.499c0 64 15.5 122 46.5 174s73.5 93 127.5 123s113.667 45 179 45c58 0 110.833 -12.5 158.5 -37.5s87.5 -60.167 119.5 -105.5l-96 -79c-46.667 64.667 -108 97 -184 97
c-42 0 -79 -9.33301 -111 -28s-56.833 -44.334 -74.5 -77.001s-26.5 -70 -26.5 -112c0 -42.667 9.16699 -80.667 27.5 -114s44.166 -59.5 77.499 -78.5s71.666 -28.5 114.999 -28.5c38 0 71.833 7.33301 101.5 22s53.834 34.667 72.501 60v54h-182v117h317v-195
c-30 -53.333 -72.833 -96.5 -128.5 -129.5s-117.834 -49.5 -186.501 -49.5c-65.333 0 -124.833 15 -178.5 45z" />
    <glyph glyph-name="H" unicode="H" horiz-adv-x="713" 
d="M76 660h135v-253h292v253h135v-660h-135v285h-292v-285h-135v660z" />
    <glyph glyph-name="I" unicode="I" horiz-adv-x="286" 
d="M76 660h135v-660h-135v660z" />
    <glyph glyph-name="J" unicode="J" horiz-adv-x="389" 
d="M17 0l0.000976562 115c36 -2.66699 58 -4 66 -4c32.667 0 56.667 6 72 18s23 32.333 23 61v470h135v-484c0 -62.667 -17.333 -109.667 -52 -141s-84.334 -47 -149.001 -47c-31.333 0 -63 4 -95 12z" />
    <glyph glyph-name="K" unicode="K" horiz-adv-x="670" 
d="M494 0l-283 344v-344h-135v660h135v-306l252 306h161l-253 -311l286 -349h-163z" />
    <glyph glyph-name="L" unicode="L" horiz-adv-x="524" 
d="M76 660h135v-538h289v-122h-424v660z" />
    <glyph glyph-name="M" unicode="M" horiz-adv-x="798" 
d="M722 672v-672h-135v352l-166 -208h-44l-166 208v-352h-135v672h44l279 -357l279 357h44z" />
    <glyph glyph-name="N" unicode="N" horiz-adv-x="713" 
d="M638 660v-672h-45l-382 408v-396h-135v672h44l383 -406v394h135z" />
    <glyph glyph-name="O" unicode="O" horiz-adv-x="778" 
d="M212 33c-53.333 30 -95.666 71.167 -126.999 123.5s-47 110.166 -47 173.499s15.667 121.166 47 173.499s73.666 93.5 126.999 123.5s112 45 176 45s122.833 -15 176.5 -45s96.334 -71.167 128.001 -123.5s47.5 -110.166 47.5 -173.499s-15.833 -121.166 -47.5 -173.499
s-74.334 -93.5 -128.001 -123.5s-112.5 -45 -176.5 -45s-122.667 15 -176 45zM497.5 140.5c32.333 18.333 57.666 44 75.999 77s27.5 70.5 27.5 112.5c0 41.333 -9.16699 78.5 -27.5 111.5s-43.666 58.833 -75.999 77.5s-68.5 28 -108.5 28
c-40.667 0 -77 -9.16699 -109 -27.5s-57.167 -44 -75.5 -77s-27.5 -70.5 -27.5 -112.5s9.16699 -79.5 27.5 -112.5s43.5 -58.667 75.5 -77s68.333 -27.5 109 -27.5c40 0 76.167 9.16699 108.5 27.5z" />
    <glyph glyph-name="P" unicode="P" horiz-adv-x="594" 
d="M76 660h248c46 0 87 -8.83301 123 -26.5s64.167 -42.667 84.5 -75s30.5 -69.5 30.5 -111.5s-10.167 -79.167 -30.5 -111.5s-48.5 -57.5 -84.5 -75.5s-77 -27 -123 -27h-113v-233h-135v660zM324 351c31.333 0 55.833 8.83203 73.5 26.499s26.5 40.834 26.5 69.501
c0 28 -9 50.667 -27 68s-42.333 26 -73 26h-113v-190h113z" />
    <glyph glyph-name="Q" unicode="Q" horiz-adv-x="778" 
d="M1057 -102l-0.000976562 -105.999c-34.667 -8.66699 -74 -13 -118 -13c-89.333 0 -171.833 19 -247.5 57s-139.834 94.333 -192.501 169c-36 -11.333 -73 -17 -111 -17c-64 0 -122.667 15 -176 45s-95.666 71.167 -126.999 123.5s-47 110.166 -47 173.499
s15.667 121.166 47 173.499s73.666 93.5 126.999 123.5s112 45 176 45s122.833 -15 176.5 -45s96.334 -71.167 128.001 -123.5s47.5 -110.166 47.5 -173.499c0 -54 -11.5 -104 -34.5 -150s-54.5 -84.667 -94.5 -116c44.667 -58 95.334 -100.833 152.001 -128.5
s124 -41.5 202 -41.5c13.333 0 44 1.33301 92 4zM204.499 217.501c18.333 -33 43.5 -58.667 75.5 -77s68.333 -27.5 109 -27.5c40 0 76.167 9.16699 108.5 27.5s57.666 44 75.999 77s27.5 70.5 27.5 112.5c0 41.333 -9.16699 78.5 -27.5 111.5s-43.666 58.833 -75.999 77.5
s-68.5 28 -108.5 28c-40.667 0 -77 -9.16699 -109 -27.5s-57.167 -44 -75.5 -77s-27.5 -70.5 -27.5 -112.5s9.16699 -79.5 27.5 -112.5z" />
    <glyph glyph-name="R" unicode="R" horiz-adv-x="640" 
d="M481 0l-171 233h-99v-233h-135v660h248c46 0 87 -8.83301 123 -26.5s64.167 -42.667 84.5 -75s30.5 -69.5 30.5 -111.5s-10.333 -79.333 -31 -112s-49 -58 -85 -76l187 -259h-152zM211 352h113c31.333 0 55.833 8.66699 73.5 26s26.5 40.333 26.5 69
c0 28 -9 50.667 -27 68s-42.333 26 -73 26h-113v-189z" />
    <glyph glyph-name="S" unicode="S" horiz-adv-x="559" 
d="M134.5 27.5c-44.333 26.333 -79.166 61.8359 -104.499 106.503l93 70c21.333 -29.333 44.666 -52.666 69.999 -69.999s56 -26 92 -26c29.333 0 52.333 6.5 69 19.5s25 30.833 25 53.5c0 19.333 -6.16699 34.166 -18.5 44.499s-34.166 22.833 -65.499 37.5l-71 32
c-50.667 22.667 -90 49 -118 79s-42 67 -42 111c0 37.333 9.5 70.166 28.5 98.499s45.167 50.166 78.5 65.499s70.666 23 111.999 23c50.667 0 94.5 -11.333 131.5 -34s65.833 -53 86.5 -91l-92 -71c-34 50.667 -76 76 -126 76c-23.333 0 -42.833 -5.5 -58.5 -16.5
s-23.5 -26.833 -23.5 -47.5c0 -17.333 5.83301 -31.166 17.5 -41.499s31.5 -21.833 59.5 -34.5l75 -33c55.333 -24.667 96.333 -51.834 123 -81.501s40 -66.834 40 -111.501c0 -40 -10 -75 -30 -105s-47.5 -53 -82.5 -69s-74.5 -24 -118.5 -24
c-56 0 -106.167 13.167 -150.5 39.5z" />
    <glyph glyph-name="T" unicode="T" horiz-adv-x="585" 
d="M225 538h-211v122h558v-122h-212v-538h-135v538z" />
    <glyph glyph-name="U" unicode="U" horiz-adv-x="700" 
d="M205.5 22.5c-42.333 23 -75.502 56 -99.502 99s-36 93.5 -36 151.5v387h135v-397c0 -48 13.5 -85 40.5 -111s61.833 -39 104.5 -39c43.333 0 78.333 13 105 39s40 63 40 111v397h135v-387c0 -58 -12.167 -108.5 -36.5 -151.5s-57.666 -76 -99.999 -99
s-90.166 -34.5 -143.499 -34.5c-54 0 -102.167 11.5 -144.5 34.5z" />
    <glyph glyph-name="V" unicode="V" horiz-adv-x="661" 
d="M647 660l-294 -672h-45l-295 672h153l165 -400l164 400h152z" />
    <glyph glyph-name="W" unicode="W" horiz-adv-x="1035" 
d="M1010 660l-264 -672h-44l-184 414l-185 -414h-44l-264 672h150l147 -390l173 402h45l173 -400l147 388h150z" />
    <glyph glyph-name="X" unicode="X" horiz-adv-x="614" 
d="M447 0l-140 219l-140 -219h-154l219 336l-206 324h154l127 -208l126 208h153l-203 -324l217 -336h-153z" />
    <glyph glyph-name="Y" unicode="Y" horiz-adv-x="624" 
d="M380 260v-260h-135v259l-228 401h150l146 -262l145 262h149z" />
    <glyph glyph-name="Z" unicode="Z" horiz-adv-x="588" 
d="M560 122v-122h-540v36l331 502h-288v122h496v-36l-331 -502h332z" />
    <glyph glyph-name="bracketleft" unicode="[" horiz-adv-x="357" 
d="M90 730h229v-109h-114v-642h114v-109h-229v860z" />
    <glyph glyph-name="backslash" unicode="\" horiz-adv-x="672" 
d="M3 780h143l523 -901h-143z" />
    <glyph glyph-name="bracketright" unicode="]" horiz-adv-x="357" 
d="M38 -21h114v642h-114v109h230v-860h-230v109z" />
    <glyph glyph-name="asciicircum" unicode="^" horiz-adv-x="536" 
d="M357 276l-89 184l-90 -184h-129l197 394h44l196 -394h-129z" />
    <glyph glyph-name="underscore" unicode="_" horiz-adv-x="502" 
d="M35 -65h432v-106h-432v106z" />
    <glyph glyph-name="grave" unicode="`" horiz-adv-x="600" 
d="M182 756v24h162l73 -209h-98z" />
    <glyph glyph-name="a" unicode="a" horiz-adv-x="545" 
d="M424.5 451.5c38.333 -36.333 57.501 -88.832 57.501 -157.499v-294h-124v48c-18 -18.667 -39.833 -33.334 -65.5 -44.001s-54.167 -16 -85.5 -16c-52.667 0 -94.334 13.833 -125.001 41.5s-46 63.167 -46 106.5c0 44.667 16.833 79.834 50.5 105.501
s79.167 38.5 136.5 38.5h124v22c0 27.333 -7.83301 48.666 -23.5 63.999s-38.5 23 -68.5 23c-25.333 0 -48 -5.5 -68 -16.5s-41 -28.167 -63 -51.5l-70 83c57.333 68 129.333 102 216 102c64.667 0 116.167 -18.167 154.5 -54.5zM317.001 114.501
c20 18.333 30 41.834 30 70.501v6h-106c-22 0 -39 -4.16699 -51 -12.5s-18 -20.833 -18 -37.5s6.5 -29.834 19.5 -39.501s30.167 -14.5 51.5 -14.5c29.333 0 54 9.16699 74 27.5z" />
    <glyph glyph-name="b" unicode="b" horiz-adv-x="629" 
d="M473.5 472.5c36.333 -22.333 64.832 -53.1699 85.499 -92.5029s31 -83.666 31 -132.999s-10.333 -93.666 -31 -132.999s-49.167 -70.166 -85.5 -92.499s-77.5 -33.5 -123.5 -33.5c-34 0 -64.667 6.33301 -92 19s-49.666 30.667 -66.999 54v-61h-124v750h135v-303
c36 39.333 85.333 59 148 59c46 0 87.167 -11.167 123.5 -33.5zM416.499 148.496c24.333 25 36.5 58.167 36.5 99.5c0 40.667 -12.333 73.5 -37 98.5s-55 37.5 -91 37.5c-34.667 0 -64.167 -11.833 -88.5 -35.5s-36.5 -57.5 -36.5 -101.5c0 -44.667 12.333 -78.5 37 -101.5
s54 -34.5 88 -34.5c36.667 0 67.167 12.5 91.5 37.5z" />
    <glyph glyph-name="c" unicode="c" horiz-adv-x="552" 
d="M170.5 22.5c-40.333 23 -72.334 54.333 -96.001 94s-35.5 83.5 -35.5 131.5s11.833 91.667 35.5 131s55.667 70.333 96 93s84.833 34 133.5 34s91.334 -10.833 128.001 -32.5s65.667 -51.5 87 -89.5l-94 -73c-15.333 22.667 -32.5 40.334 -51.5 53.001s-41.5 19 -67.5 19
c-38 0 -69.167 -12.833 -93.5 -38.5s-36.5 -57.834 -36.5 -96.501c0 -39.333 12.167 -71.833 36.5 -97.5s55.5 -38.5 93.5 -38.5c25.333 0 47.5 6.16699 66.5 18.5s36.5 29.833 52.5 52.5l94 -72c-21.333 -38 -50.5 -68 -87.5 -90s-79.5 -33 -127.5 -33
c-48.667 0 -93.167 11.5 -133.5 34.5z" />
    <glyph glyph-name="d" unicode="d" horiz-adv-x="629" 
d="M562 750l0.000976562 -749.996h-124v61c-16.667 -23.333 -38.834 -41.333 -66.501 -54s-58.5 -19 -92.5 -19c-46 0 -87.167 11.167 -123.5 33.5s-64.833 53.166 -85.5 92.499s-31 83.666 -31 132.999s10.333 93.666 31 132.999s49.167 70.166 85.5 92.499
s77.5 33.5 123.5 33.5c62.667 0 112 -19.667 148 -59v303h135zM392.001 145.504c24.667 23 37 56.833 37 101.5c0 44 -12.333 77.833 -37 101.5s-54 35.5 -88 35.5c-36 0 -66.333 -12.5 -91 -37.5s-37 -57.833 -37 -98.5c0 -41.333 12.167 -74.5 36.5 -99.5
s54.833 -37.5 91.5 -37.5c34 0 63.333 11.5 88 34.5z" />
    <glyph glyph-name="e" unicode="e" horiz-adv-x="569" 
d="M522 202l-347.002 -0.00195312c8 -31.333 24.167 -55.5 48.5 -72.5s54.5 -25.5 90.5 -25.5c48.667 0 94.667 16.667 138 50l56 -92c-58.667 -49.333 -124.667 -74 -198 -74c-51.333 0 -97.666 11.333 -138.999 34s-73.666 53.834 -96.999 93.501s-35 83.5 -35 131.5
s11.333 91.833 34 131.5s53.834 70.834 93.501 93.501s83.5 34 131.5 34c45.333 0 85.666 -10.167 120.999 -30.5s62.833 -48 82.5 -83s29.5 -73.833 29.5 -116.5c0 -24 -3 -48.667 -9 -74zM217.998 369.998c-21.333 -18 -35.666 -42.333 -42.999 -73h225
c-0.666992 30.667 -11.334 55 -32.001 73s-45.667 27 -75 27c-28.667 0 -53.667 -9 -75 -27z" />
    <glyph glyph-name="f" unicode="f" horiz-adv-x="342" 
d="M247 623.5c-14.667 -11.667 -21.999 -31.5 -21.999 -59.5v-69h109v-114h-109v-381h-135v381h-70v114h70v81c0 62 17 108.5 51 139.5s80.667 46.5 140 46.5c26 0 50.667 -3.66699 74 -11v-113c-14.667 2 -28 3 -40 3c-30.667 0 -53.334 -5.83301 -68.001 -17.5z" />
    <glyph glyph-name="g" unicode="g" horiz-adv-x="631" 
d="M564 495v-440.001c0 -80.667 -23.333 -142 -70 -184s-108.667 -63 -186 -63c-93.333 0 -174.333 30.667 -243 92l71 94c27.333 -20.667 53.5 -36.5 78.5 -47.5s52.5 -16.5 82.5 -16.5c40 0 72 9.83301 96 29.5s36 48.834 36 87.501v27c-18 -19.333 -39.833 -34 -65.5 -44
s-54.167 -15 -85.5 -15c-45.333 0 -86 10.333 -122 31s-64.167 49.667 -84.5 87s-30.5 80 -30.5 128c0 48.667 10.333 91.5 31 128.5s49 65.667 85 86s76.333 30.5 121 30.5c35.333 0 66.833 -6.33301 94.5 -19s50.167 -30.667 67.5 -54v62h124zM394 163.999
c24.667 23.333 37 56.333 37 99s-12.167 74.667 -36.5 96s-53.833 32 -88.5 32c-36.667 0 -67.167 -11.5 -91.5 -34.5s-36.5 -54.5 -36.5 -94.5s12.333 -72.167 37 -96.5s55 -36.5 91 -36.5c34 0 63.333 11.667 88 35z" />
    <glyph glyph-name="h" unicode="h" horiz-adv-x="585" 
d="M472 451.5c33.333 -36.333 50.001 -84.5 50.001 -144.5v-307h-134v288c0 28.667 -8.5 51.834 -25.5 69.501s-39.167 26.5 -66.5 26.5s-49.833 -8.83301 -67.5 -26.5s-26.5 -40.834 -26.5 -69.501v-288h-135v750h135v-297c16.667 16.667 36.667 29.667 60 39
s48.666 14 75.999 14c56 0 100.667 -18.167 134 -54.5z" />
    <glyph glyph-name="i" unicode="i" horiz-adv-x="269" 
d="M67 495h135v-495h-135v495zM73 616c-16.667 16 -25 35.667 -25 59c0 24 8.33301 44 25 60s37 24 61 24s44.5 -8 61.5 -24s25.5 -36 25.5 -60c0 -23.333 -8.5 -43 -25.5 -59s-37.5 -24 -61.5 -24s-44.333 8 -61 24z" />
    <glyph glyph-name="j" unicode="j" horiz-adv-x="269" 
d="M-63 -181v113c16 -2 29.667 -3 41 -3c30 0 52.333 6 67 18s22 31.667 22 59v489h135v-501c0 -62 -17 -108.5 -51 -139.5s-80.333 -46.5 -139 -46.5c-26.667 0 -51.667 3.66699 -75 11zM73 616c-16.667 16 -25 35.667 -25 59c0 24 8.33301 44 25 60s37 24 61 24
s44.5 -8 61.5 -24s25.5 -36 25.5 -60c0 -23.333 -8.5 -43 -25.5 -59s-37.5 -24 -61.5 -24s-44.333 8 -61 24z" />
    <glyph glyph-name="k" unicode="k" 
d="M401 0l-199 274v-274h-135v750h135v-466l178 211h160l-186 -219l201 -276h-154z" />
    <glyph glyph-name="l" unicode="l" horiz-adv-x="269" 
d="M67 750h135v-750h-135v750z" />
    <glyph glyph-name="m" unicode="m" horiz-adv-x="892" 
d="M780 451.5c33.333 -36.333 50.001 -84.5 50.001 -144.5v-307h-135v288c0 29.333 -8 52.666 -24 69.999s-37.333 26 -64 26s-48.5 -8.66699 -65.5 -26s-25.5 -39.666 -25.5 -66.999v-291h-135v288c0 29.333 -8 52.666 -24 69.999s-37.333 26 -64 26
c-27.333 0 -49.333 -8.66699 -66 -26s-25 -40.666 -25 -69.999v-288h-135v495h124v-44c16.667 17.333 37 30.833 61 40.5s50.333 14.5 79 14.5c65.333 0 114.333 -23.667 147 -71c19.333 22 43.166 39.333 71.499 52s59.5 19 93.5 19c58 0 103.667 -18.167 137 -54.5z" />
    <glyph glyph-name="n" unicode="n" horiz-adv-x="585" 
d="M472 451.5c33.333 -36.333 50.001 -84.5 50.001 -144.5v-307h-134v289c0 28.667 -8.5 51.834 -25.5 69.501s-39.167 26.5 -66.5 26.5s-49.833 -8.83301 -67.5 -26.5s-26.5 -40.834 -26.5 -69.501v-289h-135v495h124v-45c17.333 17.333 38.5 31 63.5 41s52.167 15 81.5 15
c57.333 0 102.666 -18.167 135.999 -54.5z" />
    <glyph glyph-name="o" unicode="o" horiz-adv-x="608" 
d="M169.5 23.5c-40.333 23 -72.1699 54.3311 -95.5029 93.998s-35 83.167 -35 130.5s11.667 90.833 35 130.5s55.333 70.834 96 93.501s85.334 34 134.001 34s93.334 -11.5 134.001 -34.5s72.834 -54.167 96.501 -93.5s35.5 -82.666 35.5 -129.999
s-11.833 -90.833 -35.5 -130.5s-56 -71 -97 -94s-85.833 -34.5 -134.5 -34.5s-93.167 11.5 -133.5 34.5zM395.496 150.998c24.333 25.333 36.5 57.333 36.5 96s-12.167 71 -36.5 97s-54.833 39 -91.5 39c-37.333 0 -68 -12.833 -92 -38.5s-36 -58.167 -36 -97.5
c0 -38.667 12 -70.667 36 -96s54.667 -38 92 -38c36.667 0 67.167 12.667 91.5 38z" />
    <glyph glyph-name="p" unicode="p" horiz-adv-x="629" 
d="M473.5 472.5c36.333 -22.333 64.832 -53 85.499 -92s31 -83.167 31 -132.5s-10.333 -93.666 -31 -132.999s-49.167 -70.333 -85.5 -93s-77.5 -34 -123.5 -34c-30 0 -57.667 5.16699 -83 15.5s-47 25.166 -65 44.499v-228h-135v675h124v-62
c16.667 23.333 38.834 41.333 66.501 54s58.5 19 92.5 19c46 0 87.167 -11.167 123.5 -33.5zM415.999 148.5c24.667 25 37 57.833 37 98.5c0 41.333 -12.167 74.5 -36.5 99.5s-54.833 37.5 -91.5 37.5c-34 0 -63.333 -11.5 -88 -34.5s-37 -56.833 -37 -101.5
c0 -44 12.167 -77.833 36.5 -101.5s53.833 -35.5 88.5 -35.5c36 0 66.333 12.5 91 37.5z" />
    <glyph glyph-name="q" unicode="q" horiz-adv-x="629" 
d="M562 495l-0.000976562 -675h-135v228c-18 -19.333 -39.667 -34.166 -65 -44.499s-53 -15.5 -83 -15.5c-46 0 -87.167 11.333 -123.5 34s-64.833 53.667 -85.5 93s-31 83.666 -31 132.999s10.333 93.5 31 132.5s49.167 69.667 85.5 92s77.5 33.5 123.5 33.5
c34 0 64.833 -6.33301 92.5 -19s49.834 -30.667 66.501 -54v62h124zM391.999 146.5c24.667 23.667 37 57.5 37 101.5c0 44.667 -12.333 78.5 -37 101.5s-54 34.5 -88 34.5c-36.667 0 -67.167 -12.5 -91.5 -37.5s-36.5 -58.167 -36.5 -99.5c0 -40.667 12.333 -73.5 37 -98.5
s55 -37.5 91 -37.5c34 0 63.333 11.833 88 35.5z" />
    <glyph glyph-name="r" unicode="r" horiz-adv-x="388" 
d="M371 495v-118.999h-36c-40.667 0 -73 -10.833 -97 -32.5s-36 -53.834 -36 -96.501v-247h-135v495h124v-59c16.667 20.667 36.667 36.667 60 48s48.666 17 75.999 17c16.667 0 31.334 -2 44.001 -6z" />
    <glyph glyph-name="s" unicode="s" horiz-adv-x="455" 
d="M109 13.5c-35.333 17 -64.333 40.4961 -87 70.4961l68 82c43.333 -44.667 89.666 -67 138.999 -67c18 0 33 3.5 45 10.5s18 17.167 18 30.5c0 10.667 -3.83301 18.834 -11.5 24.501s-20.834 12.5 -39.501 20.5l-53 22c-45.333 18.667 -79.166 39.334 -101.499 62.001
s-33.5 52.334 -33.5 89.001c0 46.667 16.833 83 50.5 109s77.5 39 131.5 39c74 0 133.333 -24.667 178 -74l-68 -83c-33.333 31.333 -70.333 47 -111 47c-16.667 0 -29.667 -3 -39 -9s-14 -14.667 -14 -26c0 -9.33301 3.83301 -17 11.5 -23s21.167 -13 40.5 -21l48 -20
c48 -19.333 83.167 -40.166 105.5 -62.499s33.5 -51.833 33.5 -88.5c0 -49.333 -18.167 -88 -54.5 -116s-82.5 -42 -138.5 -42c-43.333 0 -82.666 8.5 -117.999 25.5z" />
    <glyph glyph-name="t" unicode="t" horiz-adv-x="416" 
d="M385 113l0.000976562 -113c-32 -8 -63 -12 -93 -12c-62.667 0 -111.334 15.5 -146.001 46.5s-52 77.5 -52 139.5v207h-78v114h78v125h135v-125h140v-114h-140v-195c0 -28 7.33301 -47.833 22 -59.5s38 -17.5 70 -17.5c8 0 29.333 1.33301 64 4z" />
    <glyph glyph-name="u" unicode="u" horiz-adv-x="580" 
d="M173.5 16.5c-35 19 -62.3311 45.833 -81.998 80.5s-29.5 75 -29.5 121v277h135v-288c0 -28.667 8.83301 -51.667 26.5 -69s40.167 -26 67.5 -26c26 0 47.833 8.66699 65.5 26s26.5 40.333 26.5 69v288h135v-277c0 -46 -9.83301 -86.333 -29.5 -121
s-46.834 -61.5 -81.501 -80.5s-73.334 -28.5 -116.001 -28.5c-43.333 0 -82.5 9.5 -117.5 28.5z" />
    <glyph glyph-name="v" unicode="v" horiz-adv-x="559" 
d="M547 495l-245 -507h-45l-245 507h142l125 -280l125 280h143z" />
    <glyph glyph-name="w" unicode="w" horiz-adv-x="857" 
d="M845 495l-230 -507h-44l-142 288l-143 -288h-44l-230 507h142l117 -282l135 293h45l137 -287l115 276h142z" />
    <glyph glyph-name="x" unicode="x" horiz-adv-x="531" 
d="M372 0l-106 158l-107 -158h-151l181 255l-169 240h151l95 -143l94 143h151l-170 -239l182 -256h-151z" />
    <glyph glyph-name="y" unicode="y" horiz-adv-x="559" 
d="M547 495l-237 -538c-22.667 -51.333 -49.667 -89 -81 -113s-70 -36 -116 -36c-28 0 -57 4 -87 12v113c30.667 -2.66699 50 -4 58 -4c24 0 44.333 4.66699 61 14s30.667 27 42 53l15 34l-190 465h143l121 -325l129 325h142z" />
    <glyph glyph-name="z" unicode="z" horiz-adv-x="468" 
d="M452 114v-114h-435v36l237 345h-214v114h410v-36l-235 -345h237z" />
    <glyph glyph-name="braceleft" unicode="{" horiz-adv-x="413" 
d="M255 556c0 -12.667 3.33301 -39 10 -79c8 -42.667 12 -73 12 -91c0 -24 -5.83301 -43 -17.5 -57s-29.5 -24 -53.5 -30c24.667 -6 42.667 -15.833 54 -29.5s17 -32.5 17 -56.5c0 -14.667 -1.66699 -32.167 -5 -52.5l-6 -36.5c-7.33301 -38 -11 -65 -11 -81
c0 -21.333 5.33301 -37.5 16 -48.5s26 -16.5 46 -16.5h58v-108h-81c-102.667 0 -154 46.667 -154 140c0 21.333 4.33301 57.333 13 108c6 33.333 9 57.333 9 72c0 18 -4.5 31.167 -13.5 39.5s-22.833 12.5 -41.5 12.5h-62v115h62c18.667 0 32.5 4.16699 41.5 12.5
s13.5 21.5 13.5 39.5c0 14 -3 38.333 -9 73c-3.33301 18 -6.33301 36.667 -9 56s-4 36.333 -4 51c0 94 51.333 141 154 141h81v-109h-58c-41.333 0 -62 -21.667 -62 -65z" />
    <glyph glyph-name="bar" unicode="|" horiz-adv-x="332" 
d="M110 780h112v-901h-112v901z" />
    <glyph glyph-name="braceright" unicode="}" horiz-adv-x="413" 
d="M367 357v-115h-61c-18.667 0 -32.5 -4.16699 -41.5 -12.5s-13.5 -21.5 -13.5 -39.5c0 -14.667 3 -38.667 9 -72c8.66699 -50.667 13 -86.667 13 -108c0 -93.333 -51.333 -140 -154 -140h-81v108h57c20 0 35.5 5.5 46.5 16.5s16.5 27.167 16.5 48.5
c0 16 -3.66699 43 -11 81l-6 36.5c-3.33301 20.333 -5 37.833 -5 52.5c0 24 5.66699 42.833 17 56.5s29 23.5 53 29.5c-24 6 -41.667 16 -53 30s-17 33 -17 57c0 18 4 48.333 12 91c6.66699 40 10 66.333 10 79c0 43.333 -21 65 -63 65h-57v109h81
c102.667 0 154 -47 154 -141c0 -14.667 -1.33301 -31.667 -4 -51s-5.66699 -38 -9 -56c-6 -34.667 -9 -59 -9 -73c0 -18 4.5 -31.167 13.5 -39.5s22.833 -12.5 41.5 -12.5h61z" />
    <glyph glyph-name="asciitilde" unicode="~" 
d="M318 234l-87.998 53.001c-12 8 -22.333 13.833 -31 17.5s-16.667 5.5 -24 5.5c-10.667 0 -18.834 -3.5 -24.501 -10.5s-8.5 -16.5 -8.5 -28.5v-19h-103c-1.33301 17.333 -2 29.666 -2 36.999c0 41.333 11.5 75.5 34.5 102.5s51.5 40.5 85.5 40.5
c12.667 0 26.667 -2.33301 42 -7s29.666 -11 42.999 -19l88 -54c14 -8 24.833 -13.667 32.5 -17s15.167 -5 22.5 -5c10.667 0 19 3.66699 25 11s9 16.333 9 27v20h102c2 -12.667 3 -25 3 -37c0 -42 -11.667 -76.333 -35 -103s-52 -40 -86 -40c-28.667 0 -57 8.66699 -85 26z
" />
    <glyph glyph-name="uni00A0" unicode="&#xa0;" horiz-adv-x="280" 
 />
    <glyph glyph-name="exclamdown" unicode="&#xa1;" horiz-adv-x="347" 
d="M107.5 347.5c-17.667 17.667 -26.5 39.834 -26.5 66.501s8.83301 48.667 26.5 66s40.167 26 67.5 26c26 0 47.833 -8.66699 65.5 -26s26.5 -39.333 26.5 -66s-8.83301 -48.834 -26.5 -66.501s-39.5 -26.5 -65.5 -26.5c-27.333 0 -49.833 8.83301 -67.5 26.5zM119 252h110
l25 -432h-161z" />
    <glyph glyph-name="cent" unicode="&#xa2;" horiz-adv-x="557" 
d="M367.5 209.5c19 12.333 36.5 29.835 52.5 52.502l93 -72c-18 -32.667 -42 -59.5 -72 -80.5s-64.333 -34.167 -103 -39.5v-167h-118v175c-55.333 16 -100.333 46.667 -135 92s-52 97.333 -52 156s17.333 110.667 52 156s79.667 76 135 92v175h118v-167
c38.667 -5.33301 73 -18.5 103 -39.5s54.333 -47.833 73 -80.5l-94 -72c-16 22.667 -33.5 40.167 -52.5 52.5s-41.5 18.5 -67.5 18.5c-38 0 -69 -12.833 -93 -38.5s-36 -57.834 -36 -96.501s12 -70.834 36 -96.501s55 -38.5 93 -38.5c26 0 48.5 6.16699 67.5 18.5z" />
    <glyph glyph-name="sterling" unicode="&#xa3;" horiz-adv-x="569" 
d="M276 114l249.001 0.000976562v-114h-483v29c44 32 77 62.5 99 91.5s33 61.167 33 96.5v10h-122v114h79c-14 26.667 -24.667 50.167 -32 70.5s-11 42.833 -11 67.5c0 38.667 9.5 72.5 28.5 101.5s45 51.5 78 67.5s70.167 24 111.5 24c56 0 104.167 -15.333 144.5 -46
s68.5 -75.667 84.5 -135l-113 -41c-20.667 64.667 -56.334 97 -107.001 97c-28 0 -50 -8.33301 -66 -25s-24 -38.334 -24 -65.001c0 -18.667 3.5 -36 10.5 -52s18.167 -37.333 33.5 -64h161v-114h-122v-8c0 -40.667 -10.667 -75.667 -32 -105z" />
    <glyph glyph-name="currency" unicode="&#xa4;" horiz-adv-x="657" 
d="M532 203l108 -110.001l-80 -80l-112 114c-37.333 -20.667 -78.333 -31 -123 -31c-44 0 -84.333 10 -121 30l-106 -113l-81 80l103 109c-26 37.333 -39 80 -39 128c0 46.667 13 88.667 39 126l-103 105l81 81l106 -109c36 20.667 76.333 31 121 31
c44 0 85.667 -10.667 125 -32l109 110l81 -81l-107 -105c25.333 -38 38 -80 38 -126c0 -47.333 -13 -89.666 -39 -126.999zM403 250.999c20 20.667 30 47 30 79s-10.167 58.333 -30.5 79s-45.833 31 -76.5 31c-32 0 -57.833 -10.333 -77.5 -31s-29.5 -47 -29.5 -79
s9.83301 -58.333 29.5 -79s45.5 -31 77.5 -31c31.333 0 57 10.333 77 31z" />
    <glyph glyph-name="yen" unicode="&#xa5;" horiz-adv-x="599" 
d="M398 375h150v-109h-180v-62h180v-109h-180v-95h-135v95h-181v109h181v62h-181v109h150l-197 285h150l145 -212l145 212h149z" />
    <glyph glyph-name="brokenbar" unicode="&#xa6;" horiz-adv-x="332" 
d="M110 780h112v-300h-112v300zM110 179h112v-300h-112v300z" />
    <glyph glyph-name="section" unicode="&#xa7;" horiz-adv-x="602" 
d="M541.5 106c-21 -24.667 -49.166 -42.335 -84.499 -53.002c1.33301 -10.667 2 -19 2 -25c0 -48 -17 -86.833 -51 -116.5s-79.333 -44.5 -136 -44.5c-43.333 0 -82.166 9.33301 -116.499 28s-61.5 45 -81.5 79l85 69c31.333 -42 69 -63 113 -63
c19.333 0 34.166 4 44.499 12s15.5 20 15.5 36s-5.33301 29.333 -16 40s-30.334 25.667 -59.001 45l-91 61c-47.333 30 -82 58.167 -104 84.5s-33 56.833 -33 91.5c0 35.333 10.5 65.333 31.5 90s49.167 42.334 84.5 53.001c-1.33301 10.667 -2 19 -2 25
c0 48 17 86.833 51 116.5s79.333 44.5 136 44.5c43.333 0 82 -9.33301 116 -28s61 -45 81 -79l-85 -69c-15.333 20.667 -32 36.334 -50 47.001s-39 16 -63 16c-19.333 0 -34.166 -4 -44.499 -12s-15.5 -20 -15.5 -36s5.33301 -29.167 16 -39.5s30.667 -25.5 60 -45.5l90 -61
c47.333 -30 82.166 -58 104.499 -84s33.5 -56.667 33.5 -92s-10.5 -65.333 -31.5 -90zM411.001 137.999c23.333 13.333 34.998 31.335 34.998 54.002c0 13.333 -5.33301 26 -16 38s-31 28 -61 48l-98 65c-37.333 24.667 -64.666 46 -81.999 64
c-22.667 -12.667 -34 -30.334 -34 -53.001c0 -13.333 5.33301 -25.833 16 -37.5s31.334 -27.834 62.001 -48.501l90 -61c40 -25.333 69.333 -48.333 88 -69z" />
    <glyph glyph-name="dieresis" unicode="&#xa8;" horiz-adv-x="600" 
d="M124 621c-16 15.333 -24 33.666 -24 54.999s8 39.666 24 54.999s35.333 23 58 23c21.333 0 40 -7.66699 56 -23s24 -33.666 24 -54.999s-8 -39.666 -24 -54.999s-34.667 -23 -56 -23c-22.667 0 -42 7.66699 -58 23zM362 621c-16 15.333 -24 33.666 -24 54.999
s8 39.666 24 54.999s35.333 23 58 23c21.333 0 40 -7.66699 56 -23s24 -33.666 24 -54.999s-8 -39.666 -24 -54.999s-34.667 -23 -56 -23c-22.667 0 -42 7.66699 -58 23z" />
    <glyph glyph-name="copyright" unicode="&#xa9;" horiz-adv-x="778" 
d="M213.5 33c-53.667 30 -96.334 70.998 -128.001 122.998s-47.5 109.667 -47.5 173c0 64 16 122.167 48 174.5s74.833 93.5 128.5 123.5s111.834 45 174.501 45s120.834 -15 174.501 -45s96.5 -71.167 128.5 -123.5s48 -110.166 48 -173.499s-16 -121.166 -48 -173.499
s-75 -93.5 -129 -123.5s-112.333 -45 -175 -45s-120.834 15 -174.501 45zM517.5 99.998c40.333 21.333 72.833 51.833 97.5 91.5s37 85.5 37 137.5s-12.167 98 -36.5 138s-56.833 70.833 -97.5 92.5s-84 32.5 -130 32.5c-46.667 0 -90 -10.833 -130 -32.5
s-72 -52.5 -96 -92.5s-36 -86 -36 -138s12 -97.833 36 -137.5s56 -70.167 96 -91.5s83.333 -32 130 -32c46 0 89.167 10.667 129.5 32zM300 168.998c-28.667 16 -51.3359 38.168 -68.0029 66.501s-25 59.833 -25 94.5s8.33301 66.167 25 94.5s39.334 50.666 68.001 66.999
s60.667 24.5 96 24.5c30.667 0 58.834 -7 84.501 -21s47.834 -33.333 66.501 -58l-70 -61c-10.667 14.667 -22.5 26 -35.5 34s-27.833 12 -44.5 12c-25.333 0 -46 -8.66699 -62 -26s-24 -39.333 -24 -66c0 -26 8 -47.667 24 -65s36.667 -26 62 -26
c17.333 0 32.333 3.83301 45 11.5s24.334 18.834 35.001 33.501l70 -61c-18.667 -24.667 -41 -43.834 -67 -57.501s-54.333 -20.5 -85 -20.5c-34.667 0 -66.334 8 -95.001 24z" />
    <glyph glyph-name="ordfeminine" unicode="&#xaa;" horiz-adv-x="366" 
d="M282 530c25.333 -23.333 37.999 -57.334 37.999 -102.001v-184h-95v24c-22.667 -21.333 -52.667 -32 -90 -32c-34 0 -60.5 9.33301 -79.5 28s-28.5 42 -28.5 70c0 29.333 10.833 52 32.5 68s51.5 24 89.5 24h67v11c0 28 -16.667 42 -50 42c-14 0 -27.333 -2.66699 -40 -8
s-27 -13.666 -43 -24.999l-42 67c38.667 34.667 84.334 52 137.001 52c44 0 78.667 -11.667 104 -35zM201.999 322.999c9.33301 8.66699 14 20.333 14 35v9h-49c-11.333 0 -20 -2.66699 -26 -8s-9 -12.333 -9 -21s3.16699 -15.5 9.5 -20.5s14.833 -7.5 25.5 -7.5
c14 0 25.667 4.33301 35 13z" />
    <glyph glyph-name="guillemotleft" unicode="&#xab;" horiz-adv-x="597" 
d="M29 254v36l195 210l86 -75l-135 -152l135 -153l-86 -75zM286 254v36l195 210l86 -75l-135 -152l135 -153l-86 -75z" />
    <glyph glyph-name="logicalnot" unicode="&#xac;" 
d="M358 263h-315v115h441v-275h-126v160z" />
    <glyph glyph-name="uni00AD" unicode="&#xad;" horiz-adv-x="342" 
d="M45 377h252v-113h-252v113z" />
    <glyph glyph-name="registered" unicode="&#xae;" horiz-adv-x="574" 
d="M414.5 657.5c39 -23 69.833 -54.167 92.5 -93.5s34 -82 34 -128c0 -46.667 -11.333 -89.667 -34 -129s-53.5 -70.5 -92.5 -93.5s-81.167 -34.5 -126.5 -34.5c-46 0 -88.5 11.5 -127.5 34.5s-70 54.167 -93 93.5s-34.5 82.333 -34.5 129c0 46 11.5 88.667 34.5 128
s54 70.5 93 93.5s81.5 34.5 127.5 34.5c45.333 0 87.5 -11.5 126.5 -34.5zM382 267.5c28.667 17 51.334 40.333 68.001 70s25 62.5 25 98.5s-8.33301 68.667 -25 98s-39.334 52.5 -68.001 69.5s-60 25.5 -94 25.5c-34.667 0 -66.334 -8.5 -95.001 -25.5
s-51.334 -40.167 -68.001 -69.5s-25 -62 -25 -98s8.33301 -68.833 25 -98.5s39.334 -53 68.001 -70s60.334 -25.5 95.001 -25.5c34 0 65.333 8.5 94 25.5zM419 310h-77l-58 75h-27v-75h-70v251h104c29.333 0 53.5 -8 72.5 -24s28.5 -37.333 28.5 -64
c0 -30.667 -13 -54.667 -39 -72zM257 445h34c8.66699 0 15.667 2.5 21 7.5s8 11.5 8 19.5c0 8.66699 -2.66699 15.5 -8 20.5s-12.333 7.5 -21 7.5h-34v-55z" />
    <glyph glyph-name="macron" unicode="&#xaf;" horiz-adv-x="600" 
d="M149 728h302v-106h-302v106z" />
    <glyph glyph-name="degree" unicode="&#xb0;" horiz-adv-x="361" 
d="M102 385c-24 14 -43 32.835 -57 56.502s-21 49.167 -21 76.5s7 52.833 21 76.5s33 42.5 57 56.5s50.333 21 79 21s54.834 -6.83301 78.501 -20.5s42.5 -32.334 56.5 -56.001s21 -49.5 21 -77.5s-7 -53.833 -21 -77.5s-32.833 -42.334 -56.5 -56.001
s-49.834 -20.5 -78.501 -20.5s-55 7 -79 21zM229 469.502c12.667 13 19 28.833 19 47.5c0 19.333 -6.33301 35.5 -19 48.5s-28.667 19.5 -48 19.5s-35.333 -6.5 -48 -19.5s-19 -29.167 -19 -48.5c0 -18.667 6.33301 -34.5 19 -47.5s28.667 -19.5 48 -19.5
s35.333 6.5 48 19.5z" />
    <glyph glyph-name="plusminus" unicode="&#xb1;" 
d="M216 315h-161v109h161v134h129v-134h161v-109h-161v-141h-129v141zM55 108h451v-108h-451v108z" />
    <glyph glyph-name="uni00B2" unicode="&#xb2;" horiz-adv-x="385" 
d="M346 454v-89.999l-313 -1v21l149 162c18 20.667 31.167 38.167 39.5 52.5s12.5 29.166 12.5 44.499c0 16 -4.33301 28.833 -13 38.5s-20.334 14.5 -35.001 14.5s-26.5 -4.83301 -35.5 -14.5s-13.5 -23.167 -13.5 -40.5c0 -3.33301 0.666992 -13 2 -29h-99
c-2.66699 11.333 -4 23 -4 35c0 24 6.16699 46.833 18.5 68.5s30 39.167 53 52.5s49.5 20 79.5 20c42.667 0 78.334 -12.833 107.001 -38.5s43 -58.167 43 -97.5c0 -28.667 -7.66699 -55.5 -23 -80.5s-38 -52.833 -68 -83.5l-32 -34h132z" />
    <glyph glyph-name="uni00B3" unicode="&#xb3;" horiz-adv-x="360" 
d="M299.5 582c17.667 -22 26.498 -48.668 26.498 -80.001c0 -28 -7.16699 -53 -21.5 -75s-33.666 -39.333 -57.999 -52s-51.166 -19 -80.499 -19c-35.333 0 -66.5 8.83301 -93.5 26.5s-47.5 41.5 -61.5 71.5l69 49c12.667 -18.667 25.334 -32.5 38.001 -41.5
s27.667 -13.5 45 -13.5s31.666 4.83301 42.999 14.5s17 22.834 17 39.501c0 32 -25.333 48 -76 48h-48v25l78 115h-133v90h275v-27l-84 -125c25.333 -8.66699 46.833 -24 64.5 -46z" />
    <glyph glyph-name="acute" unicode="&#xb4;" horiz-adv-x="600" 
d="M255 780h162v-24l-137 -185h-98z" />
    <glyph glyph-name="uni00B5" unicode="&#xb5;" horiz-adv-x="613" 
d="M595 112l0.000976562 -111.999c-22 -6.66699 -46 -10 -72 -10c-50 0 -85.333 17.333 -106 52c-13.333 -16.667 -29.666 -29.834 -48.999 -39.501s-40.333 -14.5 -63 -14.5c-20.667 0 -39.834 4 -57.501 12s-32.834 19 -45.501 33v-213h-135v675h135v-285
c0 -29.333 8.5 -53.333 25.5 -72s39.167 -28 66.5 -28c28 0 50.667 9.33301 68 28s26 42.667 26 72v285h134v-323c0 -21.333 3.66699 -36.833 11 -46.5s19 -14.5 35 -14.5z" />
    <glyph glyph-name="paragraph" unicode="&#xb6;" horiz-adv-x="613" 
d="M153.5 245c-37.667 18.667 -67.332 44.833 -88.999 78.5s-32.5 72.5 -32.5 116.5s10.667 82.667 32 116s50.833 59 88.5 77s80.167 27 127.5 27h58v-443h-58c-46.667 0 -88.834 9.33301 -126.501 28zM246.002 -180.001v114.999c36 -2.66699 57.333 -4 64 -4
c32 0 55.5 6 70.5 18s22.5 32.667 22.5 62v649h135v-663c0 -63.333 -17.333 -110.666 -52 -141.999s-83.667 -47 -147 -47c-31.333 0 -62.333 4 -93 12z" />
    <glyph glyph-name="periodcentered" unicode="&#xb7;" horiz-adv-x="280" 
d="M74 253.5c-18 17.667 -27 39.834 -27 66.501c0 26 9 48 27 66s40.333 27 67 27c26 0 47.833 -9 65.5 -27s26.5 -40 26.5 -66c0 -26.667 -8.66699 -48.834 -26 -66.501s-39.333 -26.5 -66 -26.5s-49 8.83301 -67 26.5z" />
    <glyph glyph-name="cedilla" unicode="&#xb8;" horiz-adv-x="600" 
d="M185 -182v89c17.333 -1.33301 37.333 -2 60 -2c19.333 0 34.5 4.83301 45.5 14.5s16.5 23.834 16.5 42.501c0 17.333 -4.33301 36.666 -13 57.999l53 24c21.333 -12 37.833 -27.167 49.5 -45.5s17.5 -39.5 17.5 -63.5c0 -36.667 -13.833 -67 -41.5 -91
s-65.5 -36 -113.5 -36c-26 0 -50.667 3.33301 -74 10z" />
    <glyph glyph-name="uni00B9" unicode="&#xb9;" horiz-adv-x="370" 
d="M42 454h103v236h-94v90h195v-326h86v-90h-290v90z" />
    <glyph glyph-name="ordmasculine" unicode="&#xba;" horiz-adv-x="399" 
d="M114 257.5c-26 14.333 -46.666 34.166 -61.999 59.499s-23 53.333 -23 84s7.66699 58.5 23 83.5s36 44.667 62 59s54.333 21.5 85 21.5s59.167 -7.16699 85.5 -21.5s47.166 -34 62.499 -59s23 -52.833 23 -83.5s-7.66699 -58.667 -23 -84s-36 -45.166 -62 -59.499
s-54.667 -21.5 -86 -21.5c-30.667 0 -59 7.16699 -85 21.5zM247.501 350c12.333 13.333 18.5 30.333 18.5 51c0 21.333 -6.16699 38.5 -18.5 51.5s-28.5 19.5 -48.5 19.5s-36 -6.5 -48 -19.5s-18 -30.167 -18 -51.5s6 -38.5 18 -51.5s28 -19.5 48 -19.5
s36.167 6.66699 48.5 20z" />
    <glyph glyph-name="guillemotright" unicode="&#xbb;" horiz-adv-x="597" 
d="M31 120l134 153l-134 152l86 75l194 -210v-36l-194 -209zM288 120l134 153l-134 152l86 75l194 -210v-36l-194 -209z" />
    <glyph glyph-name="onequarter" unicode="&#xbc;" horiz-adv-x="937" 
d="M42 334h103v236h-94v90h195v-326h86v-90h-290v90zM631 660h109l-380 -660h-109zM926 64h-50v-64h-91v64h-212v26l124 326h103l-104 -270h89l1 109h90v-109h50v-82z" />
    <glyph glyph-name="onehalf" unicode="&#xbd;" horiz-adv-x="971" 
d="M42 334h103v236h-94v90h195v-326h86v-90h-290v90zM631 660h109l-380 -660h-109zM932 90v-89.999l-313 -1v21l149 162c18 20.667 31.167 38.167 39.5 52.5s12.5 29.166 12.5 44.499c0 16 -4.33301 28.833 -13 38.5s-20.334 14.5 -35.001 14.5s-26.5 -4.83301 -35.5 -14.5
s-13.5 -23.167 -13.5 -40.5c0 -3.33301 0.666992 -13 2 -29h-99c-2.66699 11.333 -4 23 -4 35c0 24 6.16699 46.833 18.5 68.5s30 39.167 53 52.5s49.5 20 79.5 20c42.667 0 78.334 -12.833 107.001 -38.5s43 -58.167 43 -97.5c0 -28.667 -7.66699 -55.5 -23 -80.5
s-38 -52.833 -68 -83.5l-32 -34h132z" />
    <glyph glyph-name="threequarters" unicode="&#xbe;" horiz-adv-x="892" 
d="M299.5 462c17.667 -22 26.498 -48.668 26.498 -80.001c0 -28 -7.16699 -53 -21.5 -75s-33.666 -39.333 -57.999 -52s-51.166 -19 -80.499 -19c-35.333 0 -66.5 8.83301 -93.5 26.5s-47.5 41.5 -61.5 71.5l69 49c12.667 -18.667 25.334 -32.5 38.001 -41.5
s27.667 -13.5 45 -13.5s31.666 4.83301 42.999 14.5s17 22.834 17 39.501c0 32 -25.333 48 -76 48h-48v25l78 115h-133v90h275v-27l-84 -125c25.333 -8.66699 46.833 -24 64.5 -46zM585.998 659.999h109l-380 -660h-109zM880.998 63.999h-50v-64h-91v64h-212v26l124 326h103
l-104 -270h89l1 109h90v-109h50v-82z" />
    <glyph glyph-name="questiondown" unicode="&#xbf;" horiz-adv-x="451" 
d="M170.5 347.5c-17.667 17.667 -26.5 39.834 -26.5 66.501s8.83301 48.667 26.5 66s39.834 26 66.501 26s48.834 -8.66699 66.501 -26s26.5 -39.333 26.5 -66s-8.83301 -48.834 -26.5 -66.501s-39.834 -26.5 -66.501 -26.5s-48.834 8.83301 -66.501 26.5zM132 -169
c-30 15.333 -53.832 36.668 -71.499 64.001s-26.5 58.666 -26.5 93.999c0 32.667 7 60 21 82s34.333 44.667 61 68c26.667 24 45 42 55 54s15 25 15 39l-1 20h114c7.33301 -19.333 11 -35 11 -47c0 -22 -6.66699 -41.167 -20 -57.5s-33 -36.166 -59 -59.499
c-21.333 -19.333 -36.5 -35.333 -45.5 -48s-13.5 -26.667 -13.5 -42c0 -19.333 6.33301 -35 19 -47s27.667 -18 45 -18c18 0 33.667 6.16699 47 18.5s24.666 31.166 33.999 56.499l111 -48c-14 -50 -38.333 -87.833 -73 -113.5s-75.667 -38.5 -123 -38.5
c-36.667 0 -70 7.66699 -100 23z" />
    <glyph glyph-name="Agrave" unicode="&#xc0;" horiz-adv-x="661" 
d="M465 86h-270l-37 -86h-145l295 672h45l294 -672h-145zM330 420l-88 -223h176zM145 886v24h162l73 -186h-98z" />
    <glyph glyph-name="Aacute" unicode="&#xc1;" horiz-adv-x="661" 
d="M465 86h-270l-37 -86h-145l295 672h45l294 -672h-145zM330 420l-88 -223h176zM351 910h162v-24l-137 -162h-98z" />
    <glyph glyph-name="Acircumflex" unicode="&#xc2;" horiz-adv-x="661" 
d="M465 86h-270l-37 -86h-145l295 672h45l294 -672h-145zM330 420l-88 -223h176zM420 724l-90 80l-90 -80h-102l148 186h89l148 -186h-103z" />
    <glyph glyph-name="Atilde" unicode="&#xc3;" horiz-adv-x="661" 
d="M465 86h-270l-37 -86h-145l295 672h45l294 -672h-145zM330 420l-88 -223h176zM339 747l-29.999 15.999c-18.667 11.333 -33.334 17 -44.001 17c-9.33301 0 -16.333 -3.16699 -21 -9.5s-7 -14.166 -7 -23.499v-12h-103c-1.33301 14.667 -2 26 -2 34
c0 40 11.167 72.333 33.5 97s49.833 37 82.5 37c23.333 0 48 -7 74 -21l30 -18c2 -1.33301 6.16699 -3.66602 12.5 -6.99902s12.166 -5.83301 17.499 -7.5s10.333 -2.5 15 -2.5c9.33301 0 16.333 3.16699 21 9.5s7 14.5 7 24.5v12h103c1.33301 -14.667 2 -25.667 2 -33
c0 -40.667 -11.167 -73.334 -33.5 -98.001s-49.5 -37 -81.5 -37c-23.333 0 -48.666 7.33301 -75.999 22z" />
    <glyph glyph-name="Adieresis" unicode="&#xc4;" horiz-adv-x="661" 
d="M465 86h-270l-37 -86h-145l295 672h45l294 -672h-145zM330 420l-88 -223h176zM145.5 760.5c-16.333 15.667 -24.5 33.5 -24.5 53.5c0 22 8 40.5 24 55.5s34.667 22.5 56 22.5c22.667 0 42 -7.5 58 -22.5s24 -33.5 24 -55.5c0 -20.667 -8 -38.667 -24 -54
s-35.333 -23 -58 -23c-20.667 0 -39.167 7.83301 -55.5 23.5zM404 759.5c-16.667 15.667 -24.998 33.5 -24.998 53.5c0 22 8.16699 40.667 24.5 56s35.166 23 56.499 23c22 0 41 -7.66699 57 -23s24 -34 24 -56c0 -20.667 -8 -38.667 -24 -54s-35 -23 -57 -23
c-20.667 0 -39.334 7.83301 -56.001 23.5z" />
    <glyph glyph-name="Aring" unicode="&#xc5;" horiz-adv-x="661" 
d="M465 86h-270l-37 -86h-145l295 672h45l294 -672h-145zM330 420l-88 -223h176zM240 710.5c-24 23.667 -36 52.834 -36 87.501c0 34 12 62.667 36 86s54 35 90 35c36.667 0 67 -11.667 91 -35s36 -52 36 -86c0 -34.667 -12 -63.834 -36 -87.501s-54.333 -35.5 -91 -35.5
c-36 0 -66 11.833 -90 35.5zM360 768c8 8 12 18 12 30c0 11.333 -4 21 -12 29s-17.667 12 -29 12c-12 0 -21.833 -4 -29.5 -12s-11.5 -17.667 -11.5 -29c0 -12 3.83301 -22 11.5 -30s17.5 -12 29.5 -12c11.333 0 21 4 29 12z" />
    <glyph glyph-name="AE" unicode="&#xc6;" horiz-adv-x="852" 
d="M812 122v-122h-355l-15 86h-247l-45 -86h-145l338 660h457v-122h-301l22 -134h198v-115h-179l28 -167h244zM251 197h172l-43 269z" />
    <glyph glyph-name="Ccedilla" unicode="&#xc7;" horiz-adv-x="720" 
d="M211.5 33c-53.667 30 -96.001 71.1689 -127.001 123.502s-46.5 110.166 -46.5 173.499s15.667 121.166 47 173.499s73.833 93.5 127.5 123.5s112.834 45 177.501 45c62.667 0 119.5 -14.5 170.5 -43.5s91.167 -69.167 120.5 -120.5l-102 -72
c-46.667 74 -109.667 111 -189 111c-40.667 0 -77.167 -9.33301 -109.5 -28s-57.666 -44.5 -75.999 -77.5s-27.5 -70.5 -27.5 -112.5s9.16699 -79.333 27.5 -112s43.666 -58.167 75.999 -76.5s68.833 -27.5 109.5 -27.5c79.333 0 142.333 37 189 111l102 -72
c-28.667 -51.333 -68.667 -91.5 -120 -120.5s-108.666 -43.5 -171.999 -43.5c-64.667 0 -123.834 15 -177.501 45zM253.999 -181.998v89c17.333 -1.33301 37.333 -2 60 -2c19.333 0 34.5 4.83301 45.5 14.5s16.5 23.834 16.5 42.501c0 17.333 -4.33301 36.666 -13 57.999
l53 24c21.333 -12 37.833 -27.167 49.5 -45.5s17.5 -39.5 17.5 -63.5c0 -36.667 -13.833 -67 -41.5 -91s-65.5 -36 -113.5 -36c-26 0 -50.667 3.33301 -74 10z" />
    <glyph glyph-name="Egrave" unicode="&#xc8;" horiz-adv-x="573" 
d="M76 660h444v-122h-309v-134h227v-115h-227v-167h321v-122h-456v660zM109 886v24h162l73 -186h-98z" />
    <glyph glyph-name="Eacute" unicode="&#xc9;" horiz-adv-x="573" 
d="M76 660h444v-122h-309v-134h227v-115h-227v-167h321v-122h-456v660zM315 910h162v-24l-137 -162h-98z" />
    <glyph glyph-name="Ecircumflex" unicode="&#xca;" horiz-adv-x="573" 
d="M76 660h444v-122h-309v-134h227v-115h-227v-167h321v-122h-456v660zM384 724l-90 80l-90 -80h-102l148 186h89l148 -186h-103z" />
    <glyph glyph-name="Edieresis" unicode="&#xcb;" horiz-adv-x="573" 
d="M76 660h444v-122h-309v-134h227v-115h-227v-167h321v-122h-456v660zM109.5 760.5c-16.333 15.667 -24.5 33.5 -24.5 53.5c0 22 8 40.5 24 55.5s34.667 22.5 56 22.5c22.667 0 42 -7.5 58 -22.5s24 -33.5 24 -55.5c0 -20.667 -8 -38.667 -24 -54s-35.333 -23 -58 -23
c-20.667 0 -39.167 7.83301 -55.5 23.5zM368 759.5c-16.667 15.667 -24.998 33.5 -24.998 53.5c0 22 8.16699 40.667 24.5 56s35.166 23 56.499 23c22 0 41 -7.66699 57 -23s24 -34 24 -56c0 -20.667 -8 -38.667 -24 -54s-35 -23 -57 -23
c-20.667 0 -39.334 7.83301 -56.001 23.5z" />
    <glyph glyph-name="Igrave" unicode="&#xcc;" horiz-adv-x="286" 
d="M76 660h135v-660h-135v660zM-42 886v24h162l73 -186h-98z" />
    <glyph glyph-name="Iacute" unicode="&#xcd;" horiz-adv-x="286" 
d="M76 660h135v-660h-135v660zM164 910h162v-24l-137 -162h-98z" />
    <glyph glyph-name="Icircumflex" unicode="&#xce;" horiz-adv-x="286" 
d="M76 660h135v-660h-135v660zM233 724l-90 80l-90 -80h-102l148 186h89l148 -186h-103z" />
    <glyph glyph-name="Idieresis" unicode="&#xcf;" horiz-adv-x="286" 
d="M76 660h135v-660h-135v660zM-41.5 760.5c-16.333 15.667 -24.5 33.5 -24.5 53.5c0 22 8 40.5 24 55.5s34.667 22.5 56 22.5c22.667 0 42 -7.5 58 -22.5s24 -33.5 24 -55.5c0 -20.667 -8 -38.667 -24 -54s-35.333 -23 -58 -23c-20.667 0 -39.167 7.83301 -55.5 23.5z
M217 759.5c-16.667 15.667 -24.998 33.5 -24.998 53.5c0 22 8.16699 40.667 24.5 56s35.166 23 56.499 23c22 0 41 -7.66699 57 -23s24 -34 24 -56c0 -20.667 -8 -38.667 -24 -54s-35 -23 -57 -23c-20.667 0 -39.334 7.83301 -56.001 23.5z" />
    <glyph glyph-name="Eth" unicode="&#xd0;" horiz-adv-x="690" 
d="M479 619c54.667 -27.333 97.167 -65.6689 127.5 -115.002s45.5 -106.666 45.5 -171.999c0 -64 -15.167 -121.167 -45.5 -171.5s-72.833 -89.666 -127.5 -117.999s-117 -42.5 -187 -42.5h-216v257h-84v113h84v290h216c70 0 132.333 -13.667 187 -41zM407.5 147.997
c33.667 17.333 59.666 41.833 77.999 73.5s27.5 68.5 27.5 110.5c0 64 -20.167 114.333 -60.5 151s-94.166 55 -161.499 55h-80v-168h108v-113h-108v-135h80c44 0 82.833 8.66699 116.5 26z" />
    <glyph glyph-name="Ntilde" unicode="&#xd1;" horiz-adv-x="713" 
d="M638 660v-672h-45l-382 408v-396h-135v672h44l383 -406v394h135zM365 747l-29.999 15.999c-18.667 11.333 -33.334 17 -44.001 17c-9.33301 0 -16.333 -3.16699 -21 -9.5s-7 -14.166 -7 -23.499v-12h-103c-1.33301 14.667 -2 26 -2 34c0 40 11.167 72.333 33.5 97
s49.833 37 82.5 37c23.333 0 48 -7 74 -21l30 -18c2 -1.33301 6.16699 -3.66602 12.5 -6.99902s12.166 -5.83301 17.499 -7.5s10.333 -2.5 15 -2.5c9.33301 0 16.333 3.16699 21 9.5s7 14.5 7 24.5v12h103c1.33301 -14.667 2 -25.667 2 -33
c0 -40.667 -11.167 -73.334 -33.5 -98.001s-49.5 -37 -81.5 -37c-23.333 0 -48.666 7.33301 -75.999 22z" />
    <glyph glyph-name="Ograve" unicode="&#xd2;" horiz-adv-x="778" 
d="M212 33c-53.333 30 -95.666 71.167 -126.999 123.5s-47 110.166 -47 173.499s15.667 121.166 47 173.499s73.666 93.5 126.999 123.5s112 45 176 45s122.833 -15 176.5 -45s96.334 -71.167 128.001 -123.5s47.5 -110.166 47.5 -173.499s-15.833 -121.166 -47.5 -173.499
s-74.334 -93.5 -128.001 -123.5s-112.5 -45 -176.5 -45s-122.667 15 -176 45zM497.5 140.5c32.333 18.333 57.666 44 75.999 77s27.5 70.5 27.5 112.5c0 41.333 -9.16699 78.5 -27.5 111.5s-43.666 58.833 -75.999 77.5s-68.5 28 -108.5 28
c-40.667 0 -77 -9.16699 -109 -27.5s-57.167 -44 -75.5 -77s-27.5 -70.5 -27.5 -112.5s9.16699 -79.5 27.5 -112.5s43.5 -58.667 75.5 -77s68.333 -27.5 109 -27.5c40 0 76.167 9.16699 108.5 27.5zM203 886v24h162l73 -186h-98z" />
    <glyph glyph-name="Oacute" unicode="&#xd3;" horiz-adv-x="778" 
d="M212 33c-53.333 30 -95.666 71.167 -126.999 123.5s-47 110.166 -47 173.499s15.667 121.166 47 173.499s73.666 93.5 126.999 123.5s112 45 176 45s122.833 -15 176.5 -45s96.334 -71.167 128.001 -123.5s47.5 -110.166 47.5 -173.499s-15.833 -121.166 -47.5 -173.499
s-74.334 -93.5 -128.001 -123.5s-112.5 -45 -176.5 -45s-122.667 15 -176 45zM497.5 140.5c32.333 18.333 57.666 44 75.999 77s27.5 70.5 27.5 112.5c0 41.333 -9.16699 78.5 -27.5 111.5s-43.666 58.833 -75.999 77.5s-68.5 28 -108.5 28
c-40.667 0 -77 -9.16699 -109 -27.5s-57.167 -44 -75.5 -77s-27.5 -70.5 -27.5 -112.5s9.16699 -79.5 27.5 -112.5s43.5 -58.667 75.5 -77s68.333 -27.5 109 -27.5c40 0 76.167 9.16699 108.5 27.5zM409 910h162v-24l-137 -162h-98z" />
    <glyph glyph-name="Ocircumflex" unicode="&#xd4;" horiz-adv-x="778" 
d="M212 33c-53.333 30 -95.666 71.167 -126.999 123.5s-47 110.166 -47 173.499s15.667 121.166 47 173.499s73.666 93.5 126.999 123.5s112 45 176 45s122.833 -15 176.5 -45s96.334 -71.167 128.001 -123.5s47.5 -110.166 47.5 -173.499s-15.833 -121.166 -47.5 -173.499
s-74.334 -93.5 -128.001 -123.5s-112.5 -45 -176.5 -45s-122.667 15 -176 45zM497.5 140.5c32.333 18.333 57.666 44 75.999 77s27.5 70.5 27.5 112.5c0 41.333 -9.16699 78.5 -27.5 111.5s-43.666 58.833 -75.999 77.5s-68.5 28 -108.5 28
c-40.667 0 -77 -9.16699 -109 -27.5s-57.167 -44 -75.5 -77s-27.5 -70.5 -27.5 -112.5s9.16699 -79.5 27.5 -112.5s43.5 -58.667 75.5 -77s68.333 -27.5 109 -27.5c40 0 76.167 9.16699 108.5 27.5zM478 724l-90 80l-90 -80h-102l148 186h89l148 -186h-103z" />
    <glyph glyph-name="Otilde" unicode="&#xd5;" horiz-adv-x="778" 
d="M212 33c-53.333 30 -95.666 71.167 -126.999 123.5s-47 110.166 -47 173.499s15.667 121.166 47 173.499s73.666 93.5 126.999 123.5s112 45 176 45s122.833 -15 176.5 -45s96.334 -71.167 128.001 -123.5s47.5 -110.166 47.5 -173.499s-15.833 -121.166 -47.5 -173.499
s-74.334 -93.5 -128.001 -123.5s-112.5 -45 -176.5 -45s-122.667 15 -176 45zM497.5 140.5c32.333 18.333 57.666 44 75.999 77s27.5 70.5 27.5 112.5c0 41.333 -9.16699 78.5 -27.5 111.5s-43.666 58.833 -75.999 77.5s-68.5 28 -108.5 28
c-40.667 0 -77 -9.16699 -109 -27.5s-57.167 -44 -75.5 -77s-27.5 -70.5 -27.5 -112.5s9.16699 -79.5 27.5 -112.5s43.5 -58.667 75.5 -77s68.333 -27.5 109 -27.5c40 0 76.167 9.16699 108.5 27.5zM397 747l-29.999 15.999c-18.667 11.333 -33.334 17 -44.001 17
c-9.33301 0 -16.333 -3.16699 -21 -9.5s-7 -14.166 -7 -23.499v-12h-103c-1.33301 14.667 -2 26 -2 34c0 40 11.167 72.333 33.5 97s49.833 37 82.5 37c23.333 0 48 -7 74 -21l30 -18c2 -1.33301 6.16699 -3.66602 12.5 -6.99902s12.166 -5.83301 17.499 -7.5
s10.333 -2.5 15 -2.5c9.33301 0 16.333 3.16699 21 9.5s7 14.5 7 24.5v12h103c1.33301 -14.667 2 -25.667 2 -33c0 -40.667 -11.167 -73.334 -33.5 -98.001s-49.5 -37 -81.5 -37c-23.333 0 -48.666 7.33301 -75.999 22z" />
    <glyph glyph-name="Odieresis" unicode="&#xd6;" horiz-adv-x="778" 
d="M212 33c-53.333 30 -95.666 71.167 -126.999 123.5s-47 110.166 -47 173.499s15.667 121.166 47 173.499s73.666 93.5 126.999 123.5s112 45 176 45s122.833 -15 176.5 -45s96.334 -71.167 128.001 -123.5s47.5 -110.166 47.5 -173.499s-15.833 -121.166 -47.5 -173.499
s-74.334 -93.5 -128.001 -123.5s-112.5 -45 -176.5 -45s-122.667 15 -176 45zM497.5 140.5c32.333 18.333 57.666 44 75.999 77s27.5 70.5 27.5 112.5c0 41.333 -9.16699 78.5 -27.5 111.5s-43.666 58.833 -75.999 77.5s-68.5 28 -108.5 28
c-40.667 0 -77 -9.16699 -109 -27.5s-57.167 -44 -75.5 -77s-27.5 -70.5 -27.5 -112.5s9.16699 -79.5 27.5 -112.5s43.5 -58.667 75.5 -77s68.333 -27.5 109 -27.5c40 0 76.167 9.16699 108.5 27.5zM203.5 760.5c-16.333 15.667 -24.5 33.5 -24.5 53.5c0 22 8 40.5 24 55.5
s34.667 22.5 56 22.5c22.667 0 42 -7.5 58 -22.5s24 -33.5 24 -55.5c0 -20.667 -8 -38.667 -24 -54s-35.333 -23 -58 -23c-20.667 0 -39.167 7.83301 -55.5 23.5zM462 759.5c-16.667 15.667 -24.998 33.5 -24.998 53.5c0 22 8.16699 40.667 24.5 56s35.166 23 56.499 23
c22 0 41 -7.66699 57 -23s24 -34 24 -56c0 -20.667 -8 -38.667 -24 -54s-35 -23 -57 -23c-20.667 0 -39.334 7.83301 -56.001 23.5z" />
    <glyph glyph-name="multiply" unicode="&#xd7;" 
d="M52 176l147 147l-147 147l80 80l148 -147l147 147l80 -80l-147 -147l147 -147l-80 -81l-148 147l-147 -147z" />
    <glyph glyph-name="Oslash" unicode="&#xd8;" horiz-adv-x="778" 
d="M672 533c22 -28.667 38.8359 -60.167 50.5029 -94.5s17.5 -70.5 17.5 -108.5c0 -63.333 -15.833 -121.166 -47.5 -173.499s-74.334 -93.5 -128.001 -123.5s-112.5 -45 -176.5 -45c-72.667 0 -139.334 19.667 -200.001 59l-76 -76l-81 81l74 74
c-44.667 60.667 -67 128.667 -67 204c0 63.333 15.667 121.166 47 173.499s73.666 93.5 126.999 123.5s112 45 176 45c74 0 141 -20 201 -60l77 77l81 -81zM277.003 524.5c-33.333 -19 -59.333 -45.5 -78 -79.5s-28 -72.333 -28 -115c0 -41.333 8.66699 -78.333 26 -111
l305 304c-34.667 20 -72.334 30 -113.001 30c-41.333 0 -78.666 -9.5 -111.999 -28.5zM500.003 135.5c33.333 19 59.5 45.5 78.5 79.5s28.5 72.333 28.5 115c0 40 -9 77 -27 111l-304 -305c33.333 -19.333 71 -29 113 -29c40.667 0 77.667 9.5 111 28.5z" />
    <glyph glyph-name="Ugrave" unicode="&#xd9;" horiz-adv-x="700" 
d="M205.5 22.5c-42.333 23 -75.502 56 -99.502 99s-36 93.5 -36 151.5v387h135v-397c0 -48 13.5 -85 40.5 -111s61.833 -39 104.5 -39c43.333 0 78.333 13 105 39s40 63 40 111v397h135v-387c0 -58 -12.167 -108.5 -36.5 -151.5s-57.666 -76 -99.999 -99
s-90.166 -34.5 -143.499 -34.5c-54 0 -102.167 11.5 -144.5 34.5zM163.998 886v24h162l73 -186h-98z" />
    <glyph glyph-name="Uacute" unicode="&#xda;" horiz-adv-x="700" 
d="M205.5 22.5c-42.333 23 -75.502 56 -99.502 99s-36 93.5 -36 151.5v387h135v-397c0 -48 13.5 -85 40.5 -111s61.833 -39 104.5 -39c43.333 0 78.333 13 105 39s40 63 40 111v397h135v-387c0 -58 -12.167 -108.5 -36.5 -151.5s-57.666 -76 -99.999 -99
s-90.166 -34.5 -143.499 -34.5c-54 0 -102.167 11.5 -144.5 34.5zM369.998 910h162v-24l-137 -162h-98z" />
    <glyph glyph-name="Ucircumflex" unicode="&#xdb;" horiz-adv-x="700" 
d="M205.5 22.5c-42.333 23 -75.502 56 -99.502 99s-36 93.5 -36 151.5v387h135v-397c0 -48 13.5 -85 40.5 -111s61.833 -39 104.5 -39c43.333 0 78.333 13 105 39s40 63 40 111v397h135v-387c0 -58 -12.167 -108.5 -36.5 -151.5s-57.666 -76 -99.999 -99
s-90.166 -34.5 -143.499 -34.5c-54 0 -102.167 11.5 -144.5 34.5zM438.998 724l-90 80l-90 -80h-102l148 186h89l148 -186h-103z" />
    <glyph glyph-name="Udieresis" unicode="&#xdc;" horiz-adv-x="700" 
d="M205.5 22.5c-42.333 23 -75.502 56 -99.502 99s-36 93.5 -36 151.5v387h135v-397c0 -48 13.5 -85 40.5 -111s61.833 -39 104.5 -39c43.333 0 78.333 13 105 39s40 63 40 111v397h135v-387c0 -58 -12.167 -108.5 -36.5 -151.5s-57.666 -76 -99.999 -99
s-90.166 -34.5 -143.499 -34.5c-54 0 -102.167 11.5 -144.5 34.5zM164.498 760.5c-16.333 15.667 -24.5 33.5 -24.5 53.5c0 22 8 40.5 24 55.5s34.667 22.5 56 22.5c22.667 0 42 -7.5 58 -22.5s24 -33.5 24 -55.5c0 -20.667 -8 -38.667 -24 -54s-35.333 -23 -58 -23
c-20.667 0 -39.167 7.83301 -55.5 23.5zM422.998 759.5c-16.667 15.667 -24.998 33.5 -24.998 53.5c0 22 8.16699 40.667 24.5 56s35.166 23 56.499 23c22 0 41 -7.66699 57 -23s24 -34 24 -56c0 -20.667 -8 -38.667 -24 -54s-35 -23 -57 -23
c-20.667 0 -39.334 7.83301 -56.001 23.5z" />
    <glyph glyph-name="Yacute" unicode="&#xdd;" horiz-adv-x="624" 
d="M380 260v-260h-135v259l-228 401h150l146 -262l145 262h149zM331 910h162v-24l-137 -162h-98z" />
    <glyph glyph-name="Thorn" unicode="&#xde;" horiz-adv-x="594" 
d="M76 660l135 0.00292969v-101h113c46 0 87 -8.83301 123 -26.5s64.167 -42.834 84.5 -75.501s30.5 -70.334 30.5 -113.001s-10.167 -80.334 -30.5 -113.001s-48.5 -58 -84.5 -76s-77 -27 -123 -27h-113v-128h-135v660zM324 246.003c31.333 0 55.833 9 73.5 27
s26.5 41.333 26.5 70c0 29.333 -8.83301 52.833 -26.5 70.5s-42.167 26.5 -73.5 26.5h-113v-194h113z" />
    <glyph glyph-name="germandbls" unicode="&#xdf;" horiz-adv-x="650" 
d="M338 5c-30 11.333 -55.668 26.0049 -77.001 44.0049l51 95c19.333 -12.667 40 -22.834 62 -30.501s43 -11.5 63 -11.5c17.333 0 31.166 3.5 41.499 10.5s15.5 17.5 15.5 31.5c0 12.667 -4.66699 23 -14 31s-30.666 21.667 -63.999 41
c-34.667 20.667 -60.334 40.167 -77.001 58.5s-25 39.5 -25 63.5c0 17.333 6 41.666 18 72.999l34 87c9.33301 22 14 44 14 66c0 23.333 -6.66699 41.833 -20 55.5s-32.666 20.5 -57.999 20.5c-29.333 0 -53.666 -10.167 -72.999 -30.5s-29 -51.5 -29 -93.5v-516h-133v522
c0 75.333 21.5 134.166 64.5 176.499s101.833 63.5 176.5 63.5c63.333 0 113.833 -14.833 151.5 -44.5s56.5 -68.834 56.5 -117.501c0 -25.333 -5.66699 -53 -17 -83l-36 -93c-10.667 -24.667 -16 -43 -16 -55c0 -10.667 3.16699 -20.334 9.5 -29.001s16 -17.167 29 -25.5
l41.5 -25.5c32.667 -20 57.167 -40.667 73.5 -62s24.5 -48.333 24.5 -81c0 -48 -17.167 -86.333 -51.5 -115s-79.833 -43 -136.5 -43c-36 0 -69 5.66699 -99 17z" />
    <glyph glyph-name="agrave" unicode="&#xe0;" horiz-adv-x="545" 
d="M424.5 451.5c38.333 -36.333 57.501 -88.832 57.501 -157.499v-294h-124v48c-18 -18.667 -39.833 -33.334 -65.5 -44.001s-54.167 -16 -85.5 -16c-52.667 0 -94.334 13.833 -125.001 41.5s-46 63.167 -46 106.5c0 44.667 16.833 79.834 50.5 105.501
s79.167 38.5 136.5 38.5h124v22c0 27.333 -7.83301 48.666 -23.5 63.999s-38.5 23 -68.5 23c-25.333 0 -48 -5.5 -68 -16.5s-41 -28.167 -63 -51.5l-70 83c57.333 68 129.333 102 216 102c64.667 0 116.167 -18.167 154.5 -54.5zM317.001 114.501
c20 18.333 30 41.834 30 70.501v6h-106c-22 0 -39 -4.16699 -51 -12.5s-18 -20.833 -18 -37.5s6.5 -29.834 19.5 -39.501s30.167 -14.5 51.5 -14.5c29.333 0 54 9.16699 74 27.5zM85.001 756.002v24h162l73 -209h-98z" />
    <glyph glyph-name="aacute" unicode="&#xe1;" horiz-adv-x="545" 
d="M424.5 451.5c38.333 -36.333 57.501 -88.832 57.501 -157.499v-294h-124v48c-18 -18.667 -39.833 -33.334 -65.5 -44.001s-54.167 -16 -85.5 -16c-52.667 0 -94.334 13.833 -125.001 41.5s-46 63.167 -46 106.5c0 44.667 16.833 79.834 50.5 105.501
s79.167 38.5 136.5 38.5h124v22c0 27.333 -7.83301 48.666 -23.5 63.999s-38.5 23 -68.5 23c-25.333 0 -48 -5.5 -68 -16.5s-41 -28.167 -63 -51.5l-70 83c57.333 68 129.333 102 216 102c64.667 0 116.167 -18.167 154.5 -54.5zM317.001 114.501
c20 18.333 30 41.834 30 70.501v6h-106c-22 0 -39 -4.16699 -51 -12.5s-18 -20.833 -18 -37.5s6.5 -29.834 19.5 -39.501s30.167 -14.5 51.5 -14.5c29.333 0 54 9.16699 74 27.5zM294.001 780.002h162v-24l-137 -185h-98z" />
    <glyph glyph-name="acircumflex" unicode="&#xe2;" horiz-adv-x="545" 
d="M424.5 451.5c38.333 -36.333 57.501 -88.832 57.501 -157.499v-294h-124v48c-18 -18.667 -39.833 -33.334 -65.5 -44.001s-54.167 -16 -85.5 -16c-52.667 0 -94.334 13.833 -125.001 41.5s-46 63.167 -46 106.5c0 44.667 16.833 79.834 50.5 105.501
s79.167 38.5 136.5 38.5h124v22c0 27.333 -7.83301 48.666 -23.5 63.999s-38.5 23 -68.5 23c-25.333 0 -48 -5.5 -68 -16.5s-41 -28.167 -63 -51.5l-70 83c57.333 68 129.333 102 216 102c64.667 0 116.167 -18.167 154.5 -54.5zM317.001 114.501
c20 18.333 30 41.834 30 70.501v6h-106c-22 0 -39 -4.16699 -51 -12.5s-18 -20.833 -18 -37.5s6.5 -29.834 19.5 -39.501s30.167 -14.5 51.5 -14.5c29.333 0 54 9.16699 74 27.5zM350.001 571.002l-80 92l-80 -92h-99l135 209h89l134 -209h-99z" />
    <glyph glyph-name="atilde" unicode="&#xe3;" horiz-adv-x="545" 
d="M424.5 451.5c38.333 -36.333 57.501 -88.832 57.501 -157.499v-294h-124v48c-18 -18.667 -39.833 -33.334 -65.5 -44.001s-54.167 -16 -85.5 -16c-52.667 0 -94.334 13.833 -125.001 41.5s-46 63.167 -46 106.5c0 44.667 16.833 79.834 50.5 105.501
s79.167 38.5 136.5 38.5h124v22c0 27.333 -7.83301 48.666 -23.5 63.999s-38.5 23 -68.5 23c-25.333 0 -48 -5.5 -68 -16.5s-41 -28.167 -63 -51.5l-70 83c57.333 68 129.333 102 216 102c64.667 0 116.167 -18.167 154.5 -54.5zM317.001 114.501
c20 18.333 30 41.834 30 70.501v6h-106c-22 0 -39 -4.16699 -51 -12.5s-18 -20.833 -18 -37.5s6.5 -29.834 19.5 -39.501s30.167 -14.5 51.5 -14.5c29.333 0 54 9.16699 74 27.5zM278.001 601.002l-28.001 17.001c-2.66699 2 -6.66699 4.83301 -12 8.5
s-10.166 6.33398 -14.499 8.00098s-8.83301 2.5 -13.5 2.5c-18.667 0 -28 -11.667 -28 -35v-12h-103c-1.33301 7.33301 -2 18.333 -2 33c0 41.333 10.833 74.333 32.5 99s48.5 37 80.5 37c24.667 0 48.667 -7.33301 72 -22l28 -18
c8.66699 -6.66699 15.834 -11.334 21.501 -14.001s11.834 -4 18.501 -4c18.667 0 28 11.667 28 35v12h102c2 -12 3 -23.333 3 -34c0 -40.667 -10.833 -73.334 -32.5 -98.001s-48.834 -37 -81.501 -37c-24.667 0 -48.334 7.33301 -71.001 22z" />
    <glyph glyph-name="adieresis" unicode="&#xe4;" horiz-adv-x="545" 
d="M424.5 451.5c38.333 -36.333 57.501 -88.832 57.501 -157.499v-294h-124v48c-18 -18.667 -39.833 -33.334 -65.5 -44.001s-54.167 -16 -85.5 -16c-52.667 0 -94.334 13.833 -125.001 41.5s-46 63.167 -46 106.5c0 44.667 16.833 79.834 50.5 105.501
s79.167 38.5 136.5 38.5h124v22c0 27.333 -7.83301 48.666 -23.5 63.999s-38.5 23 -68.5 23c-25.333 0 -48 -5.5 -68 -16.5s-41 -28.167 -63 -51.5l-70 83c57.333 68 129.333 102 216 102c64.667 0 116.167 -18.167 154.5 -54.5zM317.001 114.501
c20 18.333 30 41.834 30 70.501v6h-106c-22 0 -39 -4.16699 -51 -12.5s-18 -20.833 -18 -37.5s6.5 -29.834 19.5 -39.501s30.167 -14.5 51.5 -14.5c29.333 0 54 9.16699 74 27.5zM94.001 621.002c-16 15.333 -24 33.666 -24 54.999s8 39.666 24 54.999s35.333 23 58 23
c21.333 0 40 -7.66699 56 -23s24 -33.666 24 -54.999s-8 -39.666 -24 -54.999s-34.667 -23 -56 -23c-22.667 0 -42 7.66699 -58 23zM332.001 621.002c-16 15.333 -24 33.666 -24 54.999s8 39.666 24 54.999s35.333 23 58 23c21.333 0 40 -7.66699 56 -23
s24 -33.666 24 -54.999s-8 -39.666 -24 -54.999s-34.667 -23 -56 -23c-22.667 0 -42 7.66699 -58 23z" />
    <glyph glyph-name="aring" unicode="&#xe5;" horiz-adv-x="545" 
d="M424.5 451.5c38.333 -36.333 57.501 -88.832 57.501 -157.499v-294h-124v48c-18 -18.667 -39.833 -33.334 -65.5 -44.001s-54.167 -16 -85.5 -16c-52.667 0 -94.334 13.833 -125.001 41.5s-46 63.167 -46 106.5c0 44.667 16.833 79.834 50.5 105.501
s79.167 38.5 136.5 38.5h124v22c0 27.333 -7.83301 48.666 -23.5 63.999s-38.5 23 -68.5 23c-25.333 0 -48 -5.5 -68 -16.5s-41 -28.167 -63 -51.5l-70 83c57.333 68 129.333 102 216 102c64.667 0 116.167 -18.167 154.5 -54.5zM317.001 114.501
c20 18.333 30 41.834 30 70.501v6h-106c-22 0 -39 -4.16699 -51 -12.5s-18 -20.833 -18 -37.5s6.5 -29.834 19.5 -39.501s30.167 -14.5 51.5 -14.5c29.333 0 54 9.16699 74 27.5zM179.001 583.002c-24 23.333 -36 52.666 -36 87.999c0 34.667 12 63.667 36 87s54 35 90 35
c36.667 0 67 -11.5 91 -34.5s36 -52.167 36 -87.5s-12 -64.666 -36 -87.999s-54.333 -35 -91 -35c-36 0 -66 11.667 -90 35zM299.001 642.002c8 8 12 17.667 12 29c0 12 -4 21.833 -12 29.5s-17.667 11.5 -29 11.5s-21 -3.83301 -29 -11.5s-12 -17.5 -12 -29.5
s3.83301 -21.833 11.5 -29.5s17.5 -11.5 29.5 -11.5c11.333 0 21 4 29 12z" />
    <glyph glyph-name="ae" unicode="&#xe6;" horiz-adv-x="878" 
d="M830 197l-344.999 0.000976562c8.66699 -30 25.167 -53 49.5 -69s53.833 -24 88.5 -24c48.667 0 94.334 16.667 137.001 50l56 -92c-57.333 -49.333 -122.666 -74 -195.999 -74c-44.667 0 -84.834 8.83301 -120.501 26.5s-64.834 42.167 -87.501 73.5
c-19.333 -32.667 -45.833 -57.5 -79.5 -74.5s-72.167 -25.5 -115.5 -25.5c-58 0 -102.667 14 -134 42s-47 63.667 -47 107c0 46 16.833 82.333 50.5 109s79.167 40 136.5 40h124v16c0 27.333 -7.83301 48.666 -23.5 63.999s-38.167 23 -67.5 23
c-24.667 0 -47.334 -5.66699 -68.001 -17s-42 -28.333 -64 -51l-69 83c57.333 68 129 102 215 102c74 0 128.333 -24.333 163 -73c22 23.333 47.833 41.333 77.5 54s62.167 19 97.5 19c44.667 0 84.667 -10.167 120 -30.5s62.833 -48 82.5 -83s29.5 -73.833 29.5 -116.5
c0 -28.667 -3.33301 -55 -10 -79zM524.001 367.001c-22 -20 -36.333 -47 -43 -81h228c0.666992 34 -9 61 -29 81s-45.667 30 -77 30c-30.667 0 -57 -10 -79 -30zM316.501 115.001c20.333 18 30.501 41 30.501 69v13h-106c-22 0 -39 -4.5 -51 -13.5s-18 -21.833 -18 -38.5
c0 -18 6.33301 -32 19 -42s29.667 -15 51 -15c29.333 0 54.166 9 74.499 27z" />
    <glyph glyph-name="ccedilla" unicode="&#xe7;" horiz-adv-x="552" 
d="M170.5 22.5c-40.333 23 -72.334 54.333 -96.001 94s-35.5 83.5 -35.5 131.5s11.833 91.667 35.5 131s55.667 70.333 96 93s84.833 34 133.5 34s91.334 -10.833 128.001 -32.5s65.667 -51.5 87 -89.5l-94 -73c-15.333 22.667 -32.5 40.334 -51.5 53.001s-41.5 19 -67.5 19
c-38 0 -69.167 -12.833 -93.5 -38.5s-36.5 -57.834 -36.5 -96.501c0 -39.333 12.167 -71.833 36.5 -97.5s55.5 -38.5 93.5 -38.5c25.333 0 47.5 6.16699 66.5 18.5s36.5 29.833 52.5 52.5l94 -72c-21.333 -38 -50.5 -68 -87.5 -90s-79.5 -33 -127.5 -33
c-48.667 0 -93.167 11.5 -133.5 34.5zM161.999 -182v89c17.333 -1.33301 37.333 -2 60 -2c19.333 0 34.5 4.83301 45.5 14.5s16.5 23.834 16.5 42.501c0 17.333 -4.33301 36.666 -13 57.999l53 24c21.333 -12 37.833 -27.167 49.5 -45.5s17.5 -39.5 17.5 -63.5
c0 -36.667 -13.833 -67 -41.5 -91s-65.5 -36 -113.5 -36c-26 0 -50.667 3.33301 -74 10z" />
    <glyph glyph-name="egrave" unicode="&#xe8;" horiz-adv-x="569" 
d="M522 202l-347.002 -0.00195312c8 -31.333 24.167 -55.5 48.5 -72.5s54.5 -25.5 90.5 -25.5c48.667 0 94.667 16.667 138 50l56 -92c-58.667 -49.333 -124.667 -74 -198 -74c-51.333 0 -97.666 11.333 -138.999 34s-73.666 53.834 -96.999 93.501s-35 83.5 -35 131.5
s11.333 91.833 34 131.5s53.834 70.834 93.501 93.501s83.5 34 131.5 34c45.333 0 85.666 -10.167 120.999 -30.5s62.833 -48 82.5 -83s29.5 -73.833 29.5 -116.5c0 -24 -3 -48.667 -9 -74zM217.998 369.998c-21.333 -18 -35.666 -42.333 -42.999 -73h225
c-0.666992 30.667 -11.334 55 -32.001 73s-45.667 27 -75 27c-28.667 0 -53.667 -9 -75 -27zM111.998 755.998v24h162l73 -209h-98z" />
    <glyph glyph-name="eacute" unicode="&#xe9;" horiz-adv-x="569" 
d="M522 202l-347.002 -0.00195312c8 -31.333 24.167 -55.5 48.5 -72.5s54.5 -25.5 90.5 -25.5c48.667 0 94.667 16.667 138 50l56 -92c-58.667 -49.333 -124.667 -74 -198 -74c-51.333 0 -97.666 11.333 -138.999 34s-73.666 53.834 -96.999 93.501s-35 83.5 -35 131.5
s11.333 91.833 34 131.5s53.834 70.834 93.501 93.501s83.5 34 131.5 34c45.333 0 85.666 -10.167 120.999 -30.5s62.833 -48 82.5 -83s29.5 -73.833 29.5 -116.5c0 -24 -3 -48.667 -9 -74zM217.998 369.998c-21.333 -18 -35.666 -42.333 -42.999 -73h225
c-0.666992 30.667 -11.334 55 -32.001 73s-45.667 27 -75 27c-28.667 0 -53.667 -9 -75 -27zM321.998 779.998h162v-24l-137 -185h-98z" />
    <glyph glyph-name="ecircumflex" unicode="&#xea;" horiz-adv-x="569" 
d="M522 202l-347.002 -0.00195312c8 -31.333 24.167 -55.5 48.5 -72.5s54.5 -25.5 90.5 -25.5c48.667 0 94.667 16.667 138 50l56 -92c-58.667 -49.333 -124.667 -74 -198 -74c-51.333 0 -97.666 11.333 -138.999 34s-73.666 53.834 -96.999 93.501s-35 83.5 -35 131.5
s11.333 91.833 34 131.5s53.834 70.834 93.501 93.501s83.5 34 131.5 34c45.333 0 85.666 -10.167 120.999 -30.5s62.833 -48 82.5 -83s29.5 -73.833 29.5 -116.5c0 -24 -3 -48.667 -9 -74zM217.998 369.998c-21.333 -18 -35.666 -42.333 -42.999 -73h225
c-0.666992 30.667 -11.334 55 -32.001 73s-45.667 27 -75 27c-28.667 0 -53.667 -9 -75 -27zM377.998 570.998l-80 92l-80 -92h-99l135 209h89l134 -209h-99z" />
    <glyph glyph-name="edieresis" unicode="&#xeb;" horiz-adv-x="569" 
d="M522 202l-347.002 -0.00195312c8 -31.333 24.167 -55.5 48.5 -72.5s54.5 -25.5 90.5 -25.5c48.667 0 94.667 16.667 138 50l56 -92c-58.667 -49.333 -124.667 -74 -198 -74c-51.333 0 -97.666 11.333 -138.999 34s-73.666 53.834 -96.999 93.501s-35 83.5 -35 131.5
s11.333 91.833 34 131.5s53.834 70.834 93.501 93.501s83.5 34 131.5 34c45.333 0 85.666 -10.167 120.999 -30.5s62.833 -48 82.5 -83s29.5 -73.833 29.5 -116.5c0 -24 -3 -48.667 -9 -74zM217.998 369.998c-21.333 -18 -35.666 -42.333 -42.999 -73h225
c-0.666992 30.667 -11.334 55 -32.001 73s-45.667 27 -75 27c-28.667 0 -53.667 -9 -75 -27zM121.998 620.998c-16 15.333 -24 33.666 -24 54.999s8 39.666 24 54.999s35.333 23 58 23c21.333 0 40 -7.66699 56 -23s24 -33.666 24 -54.999s-8 -39.666 -24 -54.999
s-34.667 -23 -56 -23c-22.667 0 -42 7.66699 -58 23zM359.998 620.998c-16 15.333 -24 33.666 -24 54.999s8 39.666 24 54.999s35.333 23 58 23c21.333 0 40 -7.66699 56 -23s24 -33.666 24 -54.999s-8 -39.666 -24 -54.999s-34.667 -23 -56 -23
c-22.667 0 -42 7.66699 -58 23z" />
    <glyph glyph-name="igrave" unicode="&#xec;" horiz-adv-x="269" 
d="M67 495h135v-495h-135v495zM-19 756v24h162l43 -209h-98z" />
    <glyph glyph-name="iacute" unicode="&#xed;" horiz-adv-x="269" 
d="M67 495h135v-495h-135v495zM128 780h162v-24l-107 -185h-98z" />
    <glyph glyph-name="icircumflex" unicode="&#xee;" horiz-adv-x="269" 
d="M67 495h135v-495h-135v495zM215 571l-80 92l-80 -92h-99l135 209h89l134 -209h-99z" />
    <glyph glyph-name="idieresis" unicode="&#xef;" horiz-adv-x="269" 
d="M67 495h135v-495h-135v495zM-31.5 621.5c-16.333 15.667 -24.5 33.5 -24.5 53.5c0 22 8 40.667 24 56s34.667 23 56 23c22.667 0 42 -7.66699 58 -23s24 -34 24 -56c0 -20.667 -8 -38.667 -24 -54s-35.333 -23 -58 -23c-20.667 0 -39.167 7.83301 -55.5 23.5zM189 621.5
c-16.667 15.667 -24.998 33.5 -24.998 53.5c0 22 8.16699 40.667 24.5 56s35.166 23 56.499 23c22 0 41 -7.66699 57 -23s24 -34 24 -56c0 -20.667 -8 -38.667 -24 -54s-35 -23 -57 -23c-20.667 0 -39.334 7.83301 -56.001 23.5z" />
    <glyph glyph-name="eth" unicode="&#xf0;" horiz-adv-x="573" 
d="M478.5 394.5c15 -23 28 -48.999 39 -77.999s16.5 -58.833 16.5 -89.5c0 -45.333 -10.667 -86.166 -32 -122.499s-50.833 -64.833 -88.5 -85.5s-79.5 -31 -125.5 -31c-48 0 -90.833 10.167 -128.5 30.5s-67.167 48.166 -88.5 83.499s-32 74.666 -32 117.999
s10.333 82 31 116s48.667 60.667 84 80s74.333 29 117 29h10l-61 83l-136 -67l-47 96l119 59l-53 72l101 74l67 -89l156 77l48 -95l-138 -69l79 -104c26.667 -35.333 47.5 -64.5 62.5 -87.5zM366.5 140.001c21 21.333 31.5 48.333 31.5 81s-10.5 59.5 -31.5 80.5
s-47.833 31.5 -80.5 31.5s-59.334 -10.5 -80.001 -31.5s-31 -48.167 -31 -81.5c0 -32.667 10.333 -59.5 31 -80.5s47.334 -31.5 80.001 -31.5s59.5 10.667 80.5 32z" />
    <glyph glyph-name="ntilde" unicode="&#xf1;" horiz-adv-x="585" 
d="M472 451.5c33.333 -36.333 50.001 -84.5 50.001 -144.5v-307h-134v289c0 28.667 -8.5 51.834 -25.5 69.501s-39.167 26.5 -66.5 26.5s-49.833 -8.83301 -67.5 -26.5s-26.5 -40.834 -26.5 -69.501v-289h-135v495h124v-45c17.333 17.333 38.5 31 63.5 41s52.167 15 81.5 15
c57.333 0 102.666 -18.167 135.999 -54.5zM289.001 601l-28.001 17.001c-2.66699 2 -6.66699 4.83301 -12 8.5s-10.166 6.33398 -14.499 8.00098s-8.83301 2.5 -13.5 2.5c-18.667 0 -28 -11.667 -28 -35v-12h-103c-1.33301 7.33301 -2 18.333 -2 33
c0 41.333 10.833 74.333 32.5 99s48.5 37 80.5 37c24.667 0 48.667 -7.33301 72 -22l28 -18c8.66699 -6.66699 15.834 -11.334 21.501 -14.001s11.834 -4 18.501 -4c18.667 0 28 11.667 28 35v12h102c2 -12 3 -23.333 3 -34c0 -40.667 -10.833 -73.334 -32.5 -98.001
s-48.834 -37 -81.501 -37c-24.667 0 -48.334 7.33301 -71.001 22z" />
    <glyph glyph-name="ograve" unicode="&#xf2;" horiz-adv-x="608" 
d="M169.5 23.5c-40.333 23 -72.1699 54.3311 -95.5029 93.998s-35 83.167 -35 130.5s11.667 90.833 35 130.5s55.333 70.834 96 93.501s85.334 34 134.001 34s93.334 -11.5 134.001 -34.5s72.834 -54.167 96.501 -93.5s35.5 -82.666 35.5 -129.999
s-11.833 -90.833 -35.5 -130.5s-56 -71 -97 -94s-85.833 -34.5 -134.5 -34.5s-93.167 11.5 -133.5 34.5zM395.496 150.998c24.333 25.333 36.5 57.333 36.5 96s-12.167 71 -36.5 97s-54.833 39 -91.5 39c-37.333 0 -68 -12.833 -92 -38.5s-36 -58.167 -36 -97.5
c0 -38.667 12 -70.667 36 -96s54.667 -38 92 -38c36.667 0 67.167 12.667 91.5 38zM118.996 755.998v24h162l73 -209h-98z" />
    <glyph glyph-name="oacute" unicode="&#xf3;" horiz-adv-x="608" 
d="M169.5 23.5c-40.333 23 -72.1699 54.3311 -95.5029 93.998s-35 83.167 -35 130.5s11.667 90.833 35 130.5s55.333 70.834 96 93.501s85.334 34 134.001 34s93.334 -11.5 134.001 -34.5s72.834 -54.167 96.501 -93.5s35.5 -82.666 35.5 -129.999
s-11.833 -90.833 -35.5 -130.5s-56 -71 -97 -94s-85.833 -34.5 -134.5 -34.5s-93.167 11.5 -133.5 34.5zM395.496 150.998c24.333 25.333 36.5 57.333 36.5 96s-12.167 71 -36.5 97s-54.833 39 -91.5 39c-37.333 0 -68 -12.833 -92 -38.5s-36 -58.167 -36 -97.5
c0 -38.667 12 -70.667 36 -96s54.667 -38 92 -38c36.667 0 67.167 12.667 91.5 38zM327.996 779.998h162v-24l-137 -185h-98z" />
    <glyph glyph-name="ocircumflex" unicode="&#xf4;" horiz-adv-x="608" 
d="M169.5 23.5c-40.333 23 -72.1699 54.3311 -95.5029 93.998s-35 83.167 -35 130.5s11.667 90.833 35 130.5s55.333 70.834 96 93.501s85.334 34 134.001 34s93.334 -11.5 134.001 -34.5s72.834 -54.167 96.501 -93.5s35.5 -82.666 35.5 -129.999
s-11.833 -90.833 -35.5 -130.5s-56 -71 -97 -94s-85.833 -34.5 -134.5 -34.5s-93.167 11.5 -133.5 34.5zM395.496 150.998c24.333 25.333 36.5 57.333 36.5 96s-12.167 71 -36.5 97s-54.833 39 -91.5 39c-37.333 0 -68 -12.833 -92 -38.5s-36 -58.167 -36 -97.5
c0 -38.667 12 -70.667 36 -96s54.667 -38 92 -38c36.667 0 67.167 12.667 91.5 38zM383.996 570.998l-80 92l-80 -92h-99l135 209h89l134 -209h-99z" />
    <glyph glyph-name="otilde" unicode="&#xf5;" horiz-adv-x="608" 
d="M169.5 23.5c-40.333 23 -72.1699 54.3311 -95.5029 93.998s-35 83.167 -35 130.5s11.667 90.833 35 130.5s55.333 70.834 96 93.501s85.334 34 134.001 34s93.334 -11.5 134.001 -34.5s72.834 -54.167 96.501 -93.5s35.5 -82.666 35.5 -129.999
s-11.833 -90.833 -35.5 -130.5s-56 -71 -97 -94s-85.833 -34.5 -134.5 -34.5s-93.167 11.5 -133.5 34.5zM395.496 150.998c24.333 25.333 36.5 57.333 36.5 96s-12.167 71 -36.5 97s-54.833 39 -91.5 39c-37.333 0 -68 -12.833 -92 -38.5s-36 -58.167 -36 -97.5
c0 -38.667 12 -70.667 36 -96s54.667 -38 92 -38c36.667 0 67.167 12.667 91.5 38zM311.996 600.998l-28.001 17.001c-2.66699 2 -6.66699 4.83301 -12 8.5s-10.166 6.33398 -14.499 8.00098s-8.83301 2.5 -13.5 2.5c-18.667 0 -28 -11.667 -28 -35v-12h-103
c-1.33301 7.33301 -2 18.333 -2 33c0 41.333 10.833 74.333 32.5 99s48.5 37 80.5 37c24.667 0 48.667 -7.33301 72 -22l28 -18c8.66699 -6.66699 15.834 -11.334 21.501 -14.001s11.834 -4 18.501 -4c18.667 0 28 11.667 28 35v12h102c2 -12 3 -23.333 3 -34
c0 -40.667 -10.833 -73.334 -32.5 -98.001s-48.834 -37 -81.501 -37c-24.667 0 -48.334 7.33301 -71.001 22z" />
    <glyph glyph-name="odieresis" unicode="&#xf6;" horiz-adv-x="608" 
d="M169.5 23.5c-40.333 23 -72.1699 54.3311 -95.5029 93.998s-35 83.167 -35 130.5s11.667 90.833 35 130.5s55.333 70.834 96 93.501s85.334 34 134.001 34s93.334 -11.5 134.001 -34.5s72.834 -54.167 96.501 -93.5s35.5 -82.666 35.5 -129.999
s-11.833 -90.833 -35.5 -130.5s-56 -71 -97 -94s-85.833 -34.5 -134.5 -34.5s-93.167 11.5 -133.5 34.5zM395.496 150.998c24.333 25.333 36.5 57.333 36.5 96s-12.167 71 -36.5 97s-54.833 39 -91.5 39c-37.333 0 -68 -12.833 -92 -38.5s-36 -58.167 -36 -97.5
c0 -38.667 12 -70.667 36 -96s54.667 -38 92 -38c36.667 0 67.167 12.667 91.5 38zM127.996 620.998c-16 15.333 -24 33.666 -24 54.999s8 39.666 24 54.999s35.333 23 58 23c21.333 0 40 -7.66699 56 -23s24 -33.666 24 -54.999s-8 -39.666 -24 -54.999
s-34.667 -23 -56 -23c-22.667 0 -42 7.66699 -58 23zM365.996 620.998c-16 15.333 -24 33.666 -24 54.999s8 39.666 24 54.999s35.333 23 58 23c21.333 0 40 -7.66699 56 -23s24 -33.666 24 -54.999s-8 -39.666 -24 -54.999s-34.667 -23 -56 -23
c-22.667 0 -42 7.66699 -58 23z" />
    <glyph glyph-name="divide" unicode="&#xf7;" 
d="M221 452.5c-16 15 -24 33.5 -24 55.5c0 21.333 8 39.333 24 54s35.333 22 58 22c22 0 41 -7.33301 57 -22s24 -32.667 24 -54c0 -22 -8 -40.5 -24 -55.5s-35 -22.5 -57 -22.5c-22.667 0 -42 7.5 -58 22.5zM44 378h471v-115h-471v115zM221 77.5
c-16 15 -24 33.167 -24 54.5c0 22 8 40.333 24 55s35.333 22 58 22c22 0 41 -7.33301 57 -22s24 -33 24 -55c0 -21.333 -8 -39.5 -24 -54.5s-35 -22.5 -57 -22.5c-22.667 0 -42 7.5 -58 22.5z" />
    <glyph glyph-name="oslash" unicode="&#xf8;" horiz-adv-x="612" 
d="M529 390c28.667 -43.333 43.001 -91 43.001 -143c0 -48 -12 -91.667 -36 -131s-56.333 -70.5 -97 -93.5s-85.334 -34.5 -134.001 -34.5c-50 0 -96.667 12.667 -140 38l-54 -55l-81 81l53 53c-28 41.333 -42 88.666 -42 141.999c0 48 11.833 91.833 35.5 131.5
s55.667 70.834 96 93.501s84.833 34 133.5 34c50 0 96.667 -12.667 140 -38l55 55l81 -80zM206.001 351.5c-26 -27 -39.001 -61.833 -39.001 -104.5c0 -23.333 4 -44 12 -62l191 192c-19.333 10 -40.666 15 -63.999 15c-40.667 0 -74 -13.5 -100 -40.5zM405.5 142.5
c26.333 27 39.5 61.833 39.5 104.5c0 23.333 -4 44 -12 62l-193 -192c19.333 -10 41 -15 65 -15c40.667 0 74.167 13.5 100.5 40.5z" />
    <glyph glyph-name="ugrave" unicode="&#xf9;" horiz-adv-x="580" 
d="M173.5 16.5c-35 19 -62.3311 45.833 -81.998 80.5s-29.5 75 -29.5 121v277h135v-288c0 -28.667 8.83301 -51.667 26.5 -69s40.167 -26 67.5 -26c26 0 47.833 8.66699 65.5 26s26.5 40.333 26.5 69v288h135v-277c0 -46 -9.83301 -86.333 -29.5 -121
s-46.834 -61.5 -81.501 -80.5s-73.334 -28.5 -116.001 -28.5c-43.333 0 -82.5 9.5 -117.5 28.5zM105.002 756v24h162l73 -209h-98z" />
    <glyph glyph-name="uacute" unicode="&#xfa;" horiz-adv-x="580" 
d="M173.5 16.5c-35 19 -62.3311 45.833 -81.998 80.5s-29.5 75 -29.5 121v277h135v-288c0 -28.667 8.83301 -51.667 26.5 -69s40.167 -26 67.5 -26c26 0 47.833 8.66699 65.5 26s26.5 40.333 26.5 69v288h135v-277c0 -46 -9.83301 -86.333 -29.5 -121
s-46.834 -61.5 -81.501 -80.5s-73.334 -28.5 -116.001 -28.5c-43.333 0 -82.5 9.5 -117.5 28.5zM314.002 780h162v-24l-137 -185h-98z" />
    <glyph glyph-name="ucircumflex" unicode="&#xfb;" horiz-adv-x="580" 
d="M173.5 16.5c-35 19 -62.3311 45.833 -81.998 80.5s-29.5 75 -29.5 121v277h135v-288c0 -28.667 8.83301 -51.667 26.5 -69s40.167 -26 67.5 -26c26 0 47.833 8.66699 65.5 26s26.5 40.333 26.5 69v288h135v-277c0 -46 -9.83301 -86.333 -29.5 -121
s-46.834 -61.5 -81.501 -80.5s-73.334 -28.5 -116.001 -28.5c-43.333 0 -82.5 9.5 -117.5 28.5zM370.002 571l-80 92l-80 -92h-99l135 209h89l134 -209h-99z" />
    <glyph glyph-name="udieresis" unicode="&#xfc;" horiz-adv-x="580" 
d="M173.5 16.5c-35 19 -62.3311 45.833 -81.998 80.5s-29.5 75 -29.5 121v277h135v-288c0 -28.667 8.83301 -51.667 26.5 -69s40.167 -26 67.5 -26c26 0 47.833 8.66699 65.5 26s26.5 40.333 26.5 69v288h135v-277c0 -46 -9.83301 -86.333 -29.5 -121
s-46.834 -61.5 -81.501 -80.5s-73.334 -28.5 -116.001 -28.5c-43.333 0 -82.5 9.5 -117.5 28.5zM114.002 621c-16 15.333 -24 33.666 -24 54.999s8 39.666 24 54.999s35.333 23 58 23c21.333 0 40 -7.66699 56 -23s24 -33.666 24 -54.999s-8 -39.666 -24 -54.999
s-34.667 -23 -56 -23c-22.667 0 -42 7.66699 -58 23zM352.002 621c-16 15.333 -24 33.666 -24 54.999s8 39.666 24 54.999s35.333 23 58 23c21.333 0 40 -7.66699 56 -23s24 -33.666 24 -54.999s-8 -39.666 -24 -54.999s-34.667 -23 -56 -23c-22.667 0 -42 7.66699 -58 23z
" />
    <glyph glyph-name="yacute" unicode="&#xfd;" horiz-adv-x="559" 
d="M547 495l-237 -538c-22.667 -51.333 -49.667 -89 -81 -113s-70 -36 -116 -36c-28 0 -57 4 -87 12v113c30.667 -2.66699 50 -4 58 -4c24 0 44.333 4.66699 61 14s30.667 27 42 53l15 34l-190 465h143l121 -325l129 325h142zM303 780h162v-24l-137 -185h-98z" />
    <glyph glyph-name="thorn" unicode="&#xfe;" horiz-adv-x="629" 
d="M473.5 472.5c36.333 -22.333 64.833 -53 85.5 -92s31 -83.167 31 -132.5s-10.333 -93.666 -31 -132.999s-49.167 -70.333 -85.5 -93s-77.5 -34 -123.5 -34c-30 0 -57.667 5.16699 -83 15.5s-47 25.166 -65 44.499v-228h-135v930h135v-303c36 39.333 85.333 59 148 59
c46 0 87.167 -11.167 123.5 -33.5zM416 148.5c24.667 25 37 57.833 37 98.5c0 41.333 -12.167 74.5 -36.5 99.5s-54.833 37.5 -91.5 37.5c-34 0 -63.333 -11.5 -88 -34.5s-37 -56.833 -37 -101.5c0 -44 12.167 -77.833 36.5 -101.5s53.833 -35.5 88.5 -35.5
c36 0 66.333 12.5 91 37.5z" />
    <glyph glyph-name="ydieresis" unicode="&#xff;" horiz-adv-x="559" 
d="M547 495l-237 -538c-22.667 -51.333 -49.667 -89 -81 -113s-70 -36 -116 -36c-28 0 -57 4 -87 12v113c30.667 -2.66699 50 -4 58 -4c24 0 44.333 4.66699 61 14s30.667 27 42 53l15 34l-190 465h143l121 -325l129 325h142zM103 621c-16 15.333 -24 33.666 -24 54.999
s8 39.666 24 54.999s35.333 23 58 23c21.333 0 40 -7.66699 56 -23s24 -33.666 24 -54.999s-8 -39.666 -24 -54.999s-34.667 -23 -56 -23c-22.667 0 -42 7.66699 -58 23zM341 621c-16 15.333 -24 33.666 -24 54.999s8 39.666 24 54.999s35.333 23 58 23
c21.333 0 40 -7.66699 56 -23s24 -33.666 24 -54.999s-8 -39.666 -24 -54.999s-34.667 -23 -56 -23c-22.667 0 -42 7.66699 -58 23z" />
    <glyph glyph-name="Amacron" unicode="&#x100;" horiz-adv-x="661" 
d="M465 86h-270l-37 -86h-145l295 672h45l294 -672h-145zM330 420l-88 -223h176zM170 861h322v-106h-322v106z" />
    <glyph glyph-name="amacron" unicode="&#x101;" horiz-adv-x="545" 
d="M424.5 451.5c38.333 -36.333 57.501 -88.832 57.501 -157.499v-294h-124v48c-18 -18.667 -39.833 -33.334 -65.5 -44.001s-54.167 -16 -85.5 -16c-52.667 0 -94.334 13.833 -125.001 41.5s-46 63.167 -46 106.5c0 44.667 16.833 79.834 50.5 105.501
s79.167 38.5 136.5 38.5h124v22c0 27.333 -7.83301 48.666 -23.5 63.999s-38.5 23 -68.5 23c-25.333 0 -48 -5.5 -68 -16.5s-41 -28.167 -63 -51.5l-70 83c57.333 68 129.333 102 216 102c64.667 0 116.167 -18.167 154.5 -54.5zM317.001 114.501
c20 18.333 30 41.834 30 70.501v6h-106c-22 0 -39 -4.16699 -51 -12.5s-18 -20.833 -18 -37.5s6.5 -29.834 19.5 -39.501s30.167 -14.5 51.5 -14.5c29.333 0 54 9.16699 74 27.5zM119.001 728.002h302v-106h-302v106z" />
    <glyph glyph-name="Abreve" unicode="&#x102;" horiz-adv-x="661" 
d="M465 86h-270l-37 -86h-145l295 672h45l294 -672h-145zM330 420l-88 -223h176zM206 768c-32 32.667 -48 75.002 -48 127.002v15h106v-15c0 -22.667 6 -40.834 18 -54.501s28.333 -20.5 49 -20.5s37 6.66699 49 20s18 31.666 18 54.999v15h105v-15
c0 -34 -7.33301 -64.333 -22 -91s-35 -47.5 -61 -62.5s-55.667 -22.5 -89 -22.5c-51.333 0 -93 16.333 -125 49z" />
    <glyph glyph-name="abreve" unicode="&#x103;" horiz-adv-x="545" 
d="M424.5 451.5c38.333 -36.333 57.501 -88.832 57.501 -157.499v-294h-124v48c-18 -18.667 -39.833 -33.334 -65.5 -44.001s-54.167 -16 -85.5 -16c-52.667 0 -94.334 13.833 -125.001 41.5s-46 63.167 -46 106.5c0 44.667 16.833 79.834 50.5 105.501
s79.167 38.5 136.5 38.5h124v22c0 27.333 -7.83301 48.666 -23.5 63.999s-38.5 23 -68.5 23c-25.333 0 -48 -5.5 -68 -16.5s-41 -28.167 -63 -51.5l-70 83c57.333 68 129.333 102 216 102c64.667 0 116.167 -18.167 154.5 -54.5zM317.001 114.501
c20 18.333 30 41.834 30 70.501v6h-106c-22 0 -39 -4.16699 -51 -12.5s-18 -20.833 -18 -37.5s6.5 -29.834 19.5 -39.501s30.167 -14.5 51.5 -14.5c29.333 0 54 9.16699 74 27.5zM180.501 593.002c-26.333 14.667 -46.834 35.332 -61.501 61.999s-22 56.667 -22 90v28h106
v-27c0 -23.333 6 -41.666 18 -54.999s28.333 -20 49 -20s37 6.66699 49 20s18 31.666 18 54.999v27h105v-28c0 -51.333 -16 -93.166 -48 -125.499s-73.333 -48.5 -124 -48.5c-33.333 0 -63.166 7.33301 -89.499 22z" />
    <glyph glyph-name="Aogonek" unicode="&#x104;" horiz-adv-x="661" 
d="M465 86h-270l-37 -86h-145l295 672h45l294 -672h-145zM330 420l-88 -223h176zM472.5 -164c-21.667 18.667 -32.5 42.666 -32.5 71.999s12 55.333 36 78s62.667 45.334 116 68.001l55 -54l-40 -25c-13.333 -8 -23 -14.833 -29 -20.5s-9 -12.5 -9 -20.5
c0 -9.33301 3 -16.5 9 -21.5s15 -7.5 27 -7.5c6.66699 0 20.667 2 42 6v-88c-30 -10 -58.667 -15 -86 -15c-37.333 0 -66.833 9.33301 -88.5 28z" />
    <glyph glyph-name="aogonek" unicode="&#x105;" horiz-adv-x="545" 
d="M424.5 451.5c38.333 -36.333 57.501 -88.832 57.501 -157.499v-294h-124v48c-18 -18.667 -39.833 -33.334 -65.5 -44.001s-54.167 -16 -85.5 -16c-52.667 0 -94.334 13.833 -125.001 41.5s-46 63.167 -46 106.5c0 44.667 16.833 79.834 50.5 105.501
s79.167 38.5 136.5 38.5h124v22c0 27.333 -7.83301 48.666 -23.5 63.999s-38.5 23 -68.5 23c-25.333 0 -48 -5.5 -68 -16.5s-41 -28.167 -63 -51.5l-70 83c57.333 68 129.333 102 216 102c64.667 0 116.167 -18.167 154.5 -54.5zM317.001 114.501
c20 18.333 30 41.834 30 70.501v6h-106c-22 0 -39 -4.16699 -51 -12.5s-18 -20.833 -18 -37.5s6.5 -29.834 19.5 -39.501s30.167 -14.5 51.5 -14.5c29.333 0 54 9.16699 74 27.5zM307.501 -163.998c-21.667 18.667 -32.5 42.666 -32.5 71.999s12 55.333 36 78
s62.667 45.334 116 68.001l55 -54l-40 -25c-13.333 -8 -23 -14.833 -29 -20.5s-9 -12.5 -9 -20.5c0 -9.33301 3 -16.5 9 -21.5s15 -7.5 27 -7.5c6.66699 0 20.667 2 42 6v-88c-30 -10 -58.667 -15 -86 -15c-37.333 0 -66.833 9.33301 -88.5 28z" />
    <glyph glyph-name="Cacute" unicode="&#x106;" horiz-adv-x="720" 
d="M211.5 33c-53.667 30 -96.001 71.1689 -127.001 123.502s-46.5 110.166 -46.5 173.499s15.667 121.166 47 173.499s73.833 93.5 127.5 123.5s112.834 45 177.501 45c62.667 0 119.5 -14.5 170.5 -43.5s91.167 -69.167 120.5 -120.5l-102 -72
c-46.667 74 -109.667 111 -189 111c-40.667 0 -77.167 -9.33301 -109.5 -28s-57.666 -44.5 -75.999 -77.5s-27.5 -70.5 -27.5 -112.5s9.16699 -79.333 27.5 -112s43.666 -58.167 75.999 -76.5s68.833 -27.5 109.5 -27.5c79.333 0 142.333 37 189 111l102 -72
c-28.667 -51.333 -68.667 -91.5 -120 -120.5s-108.666 -43.5 -171.999 -43.5c-64.667 0 -123.834 15 -177.501 45zM410.999 910.002h162v-24l-137 -162h-98z" />
    <glyph glyph-name="cacute" unicode="&#x107;" horiz-adv-x="552" 
d="M170.5 22.5c-40.333 23 -72.334 54.333 -96.001 94s-35.5 83.5 -35.5 131.5s11.833 91.667 35.5 131s55.667 70.333 96 93s84.833 34 133.5 34s91.334 -10.833 128.001 -32.5s65.667 -51.5 87 -89.5l-94 -73c-15.333 22.667 -32.5 40.334 -51.5 53.001s-41.5 19 -67.5 19
c-38 0 -69.167 -12.833 -93.5 -38.5s-36.5 -57.834 -36.5 -96.501c0 -39.333 12.167 -71.833 36.5 -97.5s55.5 -38.5 93.5 -38.5c25.333 0 47.5 6.16699 66.5 18.5s36.5 29.833 52.5 52.5l94 -72c-21.333 -38 -50.5 -68 -87.5 -90s-79.5 -33 -127.5 -33
c-48.667 0 -93.167 11.5 -133.5 34.5zM326.999 780h162v-24l-137 -185h-98z" />
    <glyph glyph-name="Ccircumflex" unicode="&#x108;" horiz-adv-x="720" 
d="M211.5 33c-53.667 30 -96.001 71.1689 -127.001 123.502s-46.5 110.166 -46.5 173.499s15.667 121.166 47 173.499s73.833 93.5 127.5 123.5s112.834 45 177.501 45c62.667 0 119.5 -14.5 170.5 -43.5s91.167 -69.167 120.5 -120.5l-102 -72
c-46.667 74 -109.667 111 -189 111c-40.667 0 -77.167 -9.33301 -109.5 -28s-57.666 -44.5 -75.999 -77.5s-27.5 -70.5 -27.5 -112.5s9.16699 -79.333 27.5 -112s43.666 -58.167 75.999 -76.5s68.833 -27.5 109.5 -27.5c79.333 0 142.333 37 189 111l102 -72
c-28.667 -51.333 -68.667 -91.5 -120 -120.5s-108.666 -43.5 -171.999 -43.5c-64.667 0 -123.834 15 -177.501 45zM478.999 724.002l-90 80l-90 -80h-102l148 186h89l148 -186h-103z" />
    <glyph glyph-name="ccircumflex" unicode="&#x109;" horiz-adv-x="552" 
d="M170.5 22.5c-40.333 23 -72.334 54.333 -96.001 94s-35.5 83.5 -35.5 131.5s11.833 91.667 35.5 131s55.667 70.333 96 93s84.833 34 133.5 34s91.334 -10.833 128.001 -32.5s65.667 -51.5 87 -89.5l-94 -73c-15.333 22.667 -32.5 40.334 -51.5 53.001s-41.5 19 -67.5 19
c-38 0 -69.167 -12.833 -93.5 -38.5s-36.5 -57.834 -36.5 -96.501c0 -39.333 12.167 -71.833 36.5 -97.5s55.5 -38.5 93.5 -38.5c25.333 0 47.5 6.16699 66.5 18.5s36.5 29.833 52.5 52.5l94 -72c-21.333 -38 -50.5 -68 -87.5 -90s-79.5 -33 -127.5 -33
c-48.667 0 -93.167 11.5 -133.5 34.5zM382.999 571l-80 92l-80 -92h-99l135 209h89l134 -209h-99z" />
    <glyph glyph-name="Cdotaccent" unicode="&#x10a;" horiz-adv-x="720" 
d="M211.5 33c-53.667 30 -96.001 71.1689 -127.001 123.502s-46.5 110.166 -46.5 173.499s15.667 121.166 47 173.499s73.833 93.5 127.5 123.5s112.834 45 177.501 45c62.667 0 119.5 -14.5 170.5 -43.5s91.167 -69.167 120.5 -120.5l-102 -72
c-46.667 74 -109.667 111 -189 111c-40.667 0 -77.167 -9.33301 -109.5 -28s-57.666 -44.5 -75.999 -77.5s-27.5 -70.5 -27.5 -112.5s9.16699 -79.333 27.5 -112s43.666 -58.167 75.999 -76.5s68.833 -27.5 109.5 -27.5c79.333 0 142.333 37 189 111l102 -72
c-28.667 -51.333 -68.667 -91.5 -120 -120.5s-108.666 -43.5 -171.999 -43.5c-64.667 0 -123.834 15 -177.501 45zM327.999 755.502c-16.667 16.333 -25 36.166 -25 59.499s8.33301 43.166 25 59.499s37 24.5 61 24.5s44.5 -8.16699 61.5 -24.5s25.5 -36.166 25.5 -59.499
s-8.5 -43.166 -25.5 -59.499s-37.5 -24.5 -61.5 -24.5s-44.333 8.16699 -61 24.5z" />
    <glyph glyph-name="cdotaccent" unicode="&#x10b;" horiz-adv-x="552" 
d="M170.5 22.5c-40.333 23 -72.334 54.333 -96.001 94s-35.5 83.5 -35.5 131.5s11.833 91.667 35.5 131s55.667 70.333 96 93s84.833 34 133.5 34s91.334 -10.833 128.001 -32.5s65.667 -51.5 87 -89.5l-94 -73c-15.333 22.667 -32.5 40.334 -51.5 53.001s-41.5 19 -67.5 19
c-38 0 -69.167 -12.833 -93.5 -38.5s-36.5 -57.834 -36.5 -96.501c0 -39.333 12.167 -71.833 36.5 -97.5s55.5 -38.5 93.5 -38.5c25.333 0 47.5 6.16699 66.5 18.5s36.5 29.833 52.5 52.5l94 -72c-21.333 -38 -50.5 -68 -87.5 -90s-79.5 -33 -127.5 -33
c-48.667 0 -93.167 11.5 -133.5 34.5zM240.999 616c-16.667 16 -25 35.667 -25 59c0 24 8.33301 44 25 60s37 24 61 24s44.5 -8 61.5 -24s25.5 -36 25.5 -60c0 -23.333 -8.5 -43 -25.5 -59s-37.5 -24 -61.5 -24s-44.333 8 -61 24z" />
    <glyph glyph-name="Ccaron" unicode="&#x10c;" horiz-adv-x="720" 
d="M211.5 33c-53.667 30 -96.001 71.1689 -127.001 123.502s-46.5 110.166 -46.5 173.499s15.667 121.166 47 173.499s73.833 93.5 127.5 123.5s112.834 45 177.501 45c62.667 0 119.5 -14.5 170.5 -43.5s91.167 -69.167 120.5 -120.5l-102 -72
c-46.667 74 -109.667 111 -189 111c-40.667 0 -77.167 -9.33301 -109.5 -28s-57.666 -44.5 -75.999 -77.5s-27.5 -70.5 -27.5 -112.5s9.16699 -79.333 27.5 -112s43.666 -58.167 75.999 -76.5s68.833 -27.5 109.5 -27.5c79.333 0 142.333 37 189 111l102 -72
c-28.667 -51.333 -68.667 -91.5 -120 -120.5s-108.666 -43.5 -171.999 -43.5c-64.667 0 -123.834 15 -177.501 45zM581.999 910.002l-148 -186h-89l-148 186h102l90 -80l90 80h103z" />
    <glyph glyph-name="ccaron" unicode="&#x10d;" horiz-adv-x="552" 
d="M170.5 22.5c-40.333 23 -72.334 54.333 -96.001 94s-35.5 83.5 -35.5 131.5s11.833 91.667 35.5 131s55.667 70.333 96 93s84.833 34 133.5 34s91.334 -10.833 128.001 -32.5s65.667 -51.5 87 -89.5l-94 -73c-15.333 22.667 -32.5 40.334 -51.5 53.001s-41.5 19 -67.5 19
c-38 0 -69.167 -12.833 -93.5 -38.5s-36.5 -57.834 -36.5 -96.501c0 -39.333 12.167 -71.833 36.5 -97.5s55.5 -38.5 93.5 -38.5c25.333 0 47.5 6.16699 66.5 18.5s36.5 29.833 52.5 52.5l94 -72c-21.333 -38 -50.5 -68 -87.5 -90s-79.5 -33 -127.5 -33
c-48.667 0 -93.167 11.5 -133.5 34.5zM481.999 780l-134 -209h-89l-135 209h99l80 -92l80 92h99z" />
    <glyph glyph-name="Dcaron" unicode="&#x10e;" horiz-adv-x="690" 
d="M76 660l216 -0.00292969c70 0 132.333 -13.667 187 -41s97.167 -65.666 127.5 -114.999s45.5 -106.666 45.5 -171.999c0 -64 -15.167 -121.167 -45.5 -171.5s-72.833 -89.666 -127.5 -117.999s-117 -42.5 -187 -42.5h-216v660zM291 121.997
c44 0 82.832 8.66699 116.499 26s59.667 41.833 78 73.5s27.5 68.5 27.5 110.5c0 64 -20.167 114.333 -60.5 151s-94.166 55 -161.499 55h-80v-416h80zM471.999 909.997l-148 -186h-89l-148 186h102l90 -80l90 80h103z" />
    <glyph glyph-name="dcaron" unicode="&#x10f;" horiz-adv-x="794" 
d="M562 750l0.000976562 -749.996h-124v61c-16.667 -23.333 -38.834 -41.333 -66.501 -54s-58.5 -19 -92.5 -19c-46 0 -87.167 11.167 -123.5 33.5s-64.833 53.166 -85.5 92.499s-31 83.666 -31 132.999s10.333 93.666 31 132.999s49.167 70.166 85.5 92.499
s77.5 33.5 123.5 33.5c62.667 0 112 -19.667 148 -59v303h135zM392.001 145.504c24.667 23 37 56.833 37 101.5c0 44 -12.333 77.833 -37 101.5s-54 35.5 -88 35.5c-36 0 -66.333 -12.5 -91 -37.5s-37 -57.833 -37 -98.5c0 -41.333 12.167 -74.5 36.5 -99.5
s54.833 -37.5 91.5 -37.5c34 0 63.333 11.5 88 34.5zM655.001 750.004h139l-49 -206h-95z" />
    <glyph glyph-name="Dcroat" unicode="&#x110;" horiz-adv-x="690" 
d="M479 619c54.667 -27.333 97.167 -65.6689 127.5 -115.002s45.5 -106.666 45.5 -171.999c0 -64 -15.167 -121.167 -45.5 -171.5s-72.833 -89.666 -127.5 -117.999s-117 -42.5 -187 -42.5h-216v257h-84v113h84v290h216c70 0 132.333 -13.667 187 -41zM407.5 147.997
c33.667 17.333 59.666 41.833 77.999 73.5s27.5 68.5 27.5 110.5c0 64 -20.167 114.333 -60.5 151s-94.166 55 -161.499 55h-80v-168h108v-113h-108v-135h80c44 0 82.833 8.66699 116.5 26z" />
    <glyph glyph-name="dcroat" unicode="&#x111;" horiz-adv-x="636" 
d="M640 553h-79v-553h-123v63c-18 -24 -40.833 -42.5 -68.5 -55.5s-59.167 -19.5 -94.5 -19.5c-44.667 0 -85 10.333 -121 31s-64.333 49.5 -85 86.5s-31 79.167 -31 126.5c0 46.667 10.333 88.667 31 126s49 66.5 85 87.5s76 31.5 120 31.5c32 0 61 -5.5 87 -16.5
s48 -26.833 66 -47.5v140h-204v109h204v88h134v-88h79v-109zM392 134.5c24.667 21.667 37 53.832 37 96.499s-12.333 75.334 -37 98.001s-54.334 34 -89.001 34c-35.333 0 -65.333 -12 -90 -36s-37 -55.667 -37 -95s12.167 -70.833 36.5 -94.5s54.5 -35.5 90.5 -35.5
c34.667 0 64.334 10.833 89.001 32.5z" />
    <glyph glyph-name="Emacron" unicode="&#x112;" horiz-adv-x="573" 
d="M76 660h444v-122h-309v-134h227v-115h-227v-167h321v-122h-456v660zM134 861h322v-106h-322v106z" />
    <glyph glyph-name="emacron" unicode="&#x113;" horiz-adv-x="569" 
d="M522 202l-347.002 -0.00195312c8 -31.333 24.167 -55.5 48.5 -72.5s54.5 -25.5 90.5 -25.5c48.667 0 94.667 16.667 138 50l56 -92c-58.667 -49.333 -124.667 -74 -198 -74c-51.333 0 -97.666 11.333 -138.999 34s-73.666 53.834 -96.999 93.501s-35 83.5 -35 131.5
s11.333 91.833 34 131.5s53.834 70.834 93.501 93.501s83.5 34 131.5 34c45.333 0 85.666 -10.167 120.999 -30.5s62.833 -48 82.5 -83s29.5 -73.833 29.5 -116.5c0 -24 -3 -48.667 -9 -74zM217.998 369.998c-21.333 -18 -35.666 -42.333 -42.999 -73h225
c-0.666992 30.667 -11.334 55 -32.001 73s-45.667 27 -75 27c-28.667 0 -53.667 -9 -75 -27zM146.998 727.998h302v-106h-302v106z" />
    <glyph glyph-name="Ebreve" unicode="&#x114;" horiz-adv-x="573" 
d="M76 660h444v-122h-309v-134h227v-115h-227v-167h321v-122h-456v660zM170 768c-32 32.667 -48 75.002 -48 127.002v15h106v-15c0 -22.667 6 -40.834 18 -54.501s28.333 -20.5 49 -20.5s37 6.66699 49 20s18 31.666 18 54.999v15h105v-15c0 -34 -7.33301 -64.333 -22 -91
s-35 -47.5 -61 -62.5s-55.667 -22.5 -89 -22.5c-51.333 0 -93 16.333 -125 49z" />
    <glyph glyph-name="ebreve" unicode="&#x115;" horiz-adv-x="569" 
d="M522 202l-347.002 -0.00195312c8 -31.333 24.167 -55.5 48.5 -72.5s54.5 -25.5 90.5 -25.5c48.667 0 94.667 16.667 138 50l56 -92c-58.667 -49.333 -124.667 -74 -198 -74c-51.333 0 -97.666 11.333 -138.999 34s-73.666 53.834 -96.999 93.501s-35 83.5 -35 131.5
s11.333 91.833 34 131.5s53.834 70.834 93.501 93.501s83.5 34 131.5 34c45.333 0 85.666 -10.167 120.999 -30.5s62.833 -48 82.5 -83s29.5 -73.833 29.5 -116.5c0 -24 -3 -48.667 -9 -74zM217.998 369.998c-21.333 -18 -35.666 -42.333 -42.999 -73h225
c-0.666992 30.667 -11.334 55 -32.001 73s-45.667 27 -75 27c-28.667 0 -53.667 -9 -75 -27zM208.498 592.998c-26.333 14.667 -46.834 35.332 -61.501 61.999s-22 56.667 -22 90v28h106v-27c0 -23.333 6 -41.666 18 -54.999s28.333 -20 49 -20s37 6.66699 49 20
s18 31.666 18 54.999v27h105v-28c0 -51.333 -16 -93.166 -48 -125.499s-73.333 -48.5 -124 -48.5c-33.333 0 -63.166 7.33301 -89.499 22z" />
    <glyph glyph-name="Edotaccent" unicode="&#x116;" horiz-adv-x="573" 
d="M76 660h444v-122h-309v-134h227v-115h-227v-167h321v-122h-456v660zM233 755.5c-16.667 16.333 -25 36.166 -25 59.499s8.33301 43.166 25 59.499s37 24.5 61 24.5s44.5 -8.16699 61.5 -24.5s25.5 -36.166 25.5 -59.499s-8.5 -43.166 -25.5 -59.499
s-37.5 -24.5 -61.5 -24.5s-44.333 8.16699 -61 24.5z" />
    <glyph glyph-name="edotaccent" unicode="&#x117;" horiz-adv-x="569" 
d="M522 202l-347.002 -0.00195312c8 -31.333 24.167 -55.5 48.5 -72.5s54.5 -25.5 90.5 -25.5c48.667 0 94.667 16.667 138 50l56 -92c-58.667 -49.333 -124.667 -74 -198 -74c-51.333 0 -97.666 11.333 -138.999 34s-73.666 53.834 -96.999 93.501s-35 83.5 -35 131.5
s11.333 91.833 34 131.5s53.834 70.834 93.501 93.501s83.5 34 131.5 34c45.333 0 85.666 -10.167 120.999 -30.5s62.833 -48 82.5 -83s29.5 -73.833 29.5 -116.5c0 -24 -3 -48.667 -9 -74zM217.998 369.998c-21.333 -18 -35.666 -42.333 -42.999 -73h225
c-0.666992 30.667 -11.334 55 -32.001 73s-45.667 27 -75 27c-28.667 0 -53.667 -9 -75 -27zM235.998 615.998c-16.667 16 -25 35.667 -25 59c0 24 8.33301 44 25 60s37 24 61 24s44.5 -8 61.5 -24s25.5 -36 25.5 -60c0 -23.333 -8.5 -43 -25.5 -59s-37.5 -24 -61.5 -24
s-44.333 8 -61 24z" />
    <glyph glyph-name="Eogonek" unicode="&#x118;" horiz-adv-x="573" 
d="M76 660h444v-122h-309v-134h227v-115h-227v-167h321v-122h-456v660zM357.5 -164c-21.667 18.667 -32.5 42.666 -32.5 71.999s12 55.333 36 78s62.667 45.334 116 68.001l55 -54l-40 -25c-13.333 -8 -23 -14.833 -29 -20.5s-9 -12.5 -9 -20.5c0 -9.33301 3 -16.5 9 -21.5
s15 -7.5 27 -7.5c6.66699 0 20.667 2 42 6v-88c-30 -10 -58.667 -15 -86 -15c-37.333 0 -66.833 9.33301 -88.5 28z" />
    <glyph glyph-name="eogonek" unicode="&#x119;" horiz-adv-x="569" 
d="M522 202l-347.002 -0.00195312c8 -31.333 24.167 -55.5 48.5 -72.5s54.5 -25.5 90.5 -25.5c48.667 0 94.667 16.667 138 50l56 -92c-58.667 -49.333 -124.667 -74 -198 -74c-51.333 0 -97.666 11.333 -138.999 34s-73.666 53.834 -96.999 93.501s-35 83.5 -35 131.5
s11.333 91.833 34 131.5s53.834 70.834 93.501 93.501s83.5 34 131.5 34c45.333 0 85.666 -10.167 120.999 -30.5s62.833 -48 82.5 -83s29.5 -73.833 29.5 -116.5c0 -24 -3 -48.667 -9 -74zM217.998 369.998c-21.333 -18 -35.666 -42.333 -42.999 -73h225
c-0.666992 30.667 -11.334 55 -32.001 73s-45.667 27 -75 27c-28.667 0 -53.667 -9 -75 -27zM302.998 -165.002c-22 18 -33 42.334 -33 73.001c0 16.667 3 31.5 9 44.5s17 27.667 33 44s40.333 38.166 73 65.499h122l-82 -83c-9.33301 -9.33301 -16 -17.333 -20 -24
s-6 -13.667 -6 -21c0 -19.333 12 -29 36 -29c5.33301 0 19.333 2 42 6v-88c-28 -10 -56.667 -15 -86 -15c-36.667 0 -66 9 -88 27z" />
    <glyph glyph-name="Ecaron" unicode="&#x11a;" horiz-adv-x="573" 
d="M76 660h444v-122h-309v-134h227v-115h-227v-167h321v-122h-456v660zM487 910l-148 -186h-89l-148 186h102l90 -80l90 80h103z" />
    <glyph glyph-name="ecaron" unicode="&#x11b;" horiz-adv-x="569" 
d="M522 202l-347.002 -0.00195312c8 -31.333 24.167 -55.5 48.5 -72.5s54.5 -25.5 90.5 -25.5c48.667 0 94.667 16.667 138 50l56 -92c-58.667 -49.333 -124.667 -74 -198 -74c-51.333 0 -97.666 11.333 -138.999 34s-73.666 53.834 -96.999 93.501s-35 83.5 -35 131.5
s11.333 91.833 34 131.5s53.834 70.834 93.501 93.501s83.5 34 131.5 34c45.333 0 85.666 -10.167 120.999 -30.5s62.833 -48 82.5 -83s29.5 -73.833 29.5 -116.5c0 -24 -3 -48.667 -9 -74zM217.998 369.998c-21.333 -18 -35.666 -42.333 -42.999 -73h225
c-0.666992 30.667 -11.334 55 -32.001 73s-45.667 27 -75 27c-28.667 0 -53.667 -9 -75 -27zM476.998 779.998l-134 -209h-89l-135 209h99l80 -92l80 92h99z" />
    <glyph glyph-name="Gcircumflex" unicode="&#x11c;" horiz-adv-x="747" 
d="M212.5 33c-53.667 30 -96.165 71.1689 -127.498 123.502s-47 110.166 -47 173.499c0 64 15.5 122 46.5 174s73.5 93 127.5 123s113.667 45 179 45c58 0 110.833 -12.5 158.5 -37.5s87.5 -60.167 119.5 -105.5l-96 -79c-46.667 64.667 -108 97 -184 97
c-42 0 -79 -9.33301 -111 -28s-56.833 -44.334 -74.5 -77.001s-26.5 -70 -26.5 -112c0 -42.667 9.16699 -80.667 27.5 -114s44.166 -59.5 77.499 -78.5s71.666 -28.5 114.999 -28.5c38 0 71.833 7.33301 101.5 22s53.834 34.667 72.501 60v54h-182v117h317v-195
c-30 -53.333 -72.833 -96.5 -128.5 -129.5s-117.834 -49.5 -186.501 -49.5c-65.333 0 -124.833 15 -178.5 45zM481.002 724.002l-90 80l-90 -80h-102l148 186h89l148 -186h-103z" />
    <glyph glyph-name="gcircumflex" unicode="&#x11d;" horiz-adv-x="631" 
d="M564 495v-440.001c0 -80.667 -23.333 -142 -70 -184s-108.667 -63 -186 -63c-93.333 0 -174.333 30.667 -243 92l71 94c27.333 -20.667 53.5 -36.5 78.5 -47.5s52.5 -16.5 82.5 -16.5c40 0 72 9.83301 96 29.5s36 48.834 36 87.501v27c-18 -19.333 -39.833 -34 -65.5 -44
s-54.167 -15 -85.5 -15c-45.333 0 -86 10.333 -122 31s-64.167 49.667 -84.5 87s-30.5 80 -30.5 128c0 48.667 10.333 91.5 31 128.5s49 65.667 85 86s76.333 30.5 121 30.5c35.333 0 66.833 -6.33301 94.5 -19s50.167 -30.667 67.5 -54v62h124zM394 163.999
c24.667 23.333 37 56.333 37 99s-12.167 74.667 -36.5 96s-53.833 32 -88.5 32c-36.667 0 -67.167 -11.5 -91.5 -34.5s-36.5 -54.5 -36.5 -94.5s12.333 -72.167 37 -96.5s55 -36.5 91 -36.5c34 0 63.333 11.667 88 35zM393 570.999l-80 92l-80 -92h-99l135 209h89l134 -209
h-99z" />
    <glyph glyph-name="Gbreve" unicode="&#x11e;" horiz-adv-x="747" 
d="M212.5 33c-53.667 30 -96.165 71.1689 -127.498 123.502s-47 110.166 -47 173.499c0 64 15.5 122 46.5 174s73.5 93 127.5 123s113.667 45 179 45c58 0 110.833 -12.5 158.5 -37.5s87.5 -60.167 119.5 -105.5l-96 -79c-46.667 64.667 -108 97 -184 97
c-42 0 -79 -9.33301 -111 -28s-56.833 -44.334 -74.5 -77.001s-26.5 -70 -26.5 -112c0 -42.667 9.16699 -80.667 27.5 -114s44.166 -59.5 77.499 -78.5s71.666 -28.5 114.999 -28.5c38 0 71.833 7.33301 101.5 22s53.834 34.667 72.501 60v54h-182v117h317v-195
c-30 -53.333 -72.833 -96.5 -128.5 -129.5s-117.834 -49.5 -186.501 -49.5c-65.333 0 -124.833 15 -178.5 45zM267.002 768.002c-32 32.667 -48 75.002 -48 127.002v15h106v-15c0 -22.667 6 -40.834 18 -54.501s28.333 -20.5 49 -20.5s37 6.66699 49 20s18 31.666 18 54.999
v15h105v-15c0 -34 -7.33301 -64.333 -22 -91s-35 -47.5 -61 -62.5s-55.667 -22.5 -89 -22.5c-51.333 0 -93 16.333 -125 49z" />
    <glyph glyph-name="gbreve" unicode="&#x11f;" horiz-adv-x="631" 
d="M564 495v-440.001c0 -80.667 -23.333 -142 -70 -184s-108.667 -63 -186 -63c-93.333 0 -174.333 30.667 -243 92l71 94c27.333 -20.667 53.5 -36.5 78.5 -47.5s52.5 -16.5 82.5 -16.5c40 0 72 9.83301 96 29.5s36 48.834 36 87.501v27c-18 -19.333 -39.833 -34 -65.5 -44
s-54.167 -15 -85.5 -15c-45.333 0 -86 10.333 -122 31s-64.167 49.667 -84.5 87s-30.5 80 -30.5 128c0 48.667 10.333 91.5 31 128.5s49 65.667 85 86s76.333 30.5 121 30.5c35.333 0 66.833 -6.33301 94.5 -19s50.167 -30.667 67.5 -54v62h124zM394 163.999
c24.667 23.333 37 56.333 37 99s-12.167 74.667 -36.5 96s-53.833 32 -88.5 32c-36.667 0 -67.167 -11.5 -91.5 -34.5s-36.5 -54.5 -36.5 -94.5s12.333 -72.167 37 -96.5s55 -36.5 91 -36.5c34 0 63.333 11.667 88 35zM223.5 592.999
c-26.333 14.667 -46.834 35.332 -61.501 61.999s-22 56.667 -22 90v28h106v-27c0 -23.333 6 -41.666 18 -54.999s28.333 -20 49 -20s37 6.66699 49 20s18 31.666 18 54.999v27h105v-28c0 -51.333 -16 -93.166 -48 -125.499s-73.333 -48.5 -124 -48.5
c-33.333 0 -63.166 7.33301 -89.499 22z" />
    <glyph glyph-name="Gdotaccent" unicode="&#x120;" horiz-adv-x="747" 
d="M212.5 33c-53.667 30 -96.165 71.1689 -127.498 123.502s-47 110.166 -47 173.499c0 64 15.5 122 46.5 174s73.5 93 127.5 123s113.667 45 179 45c58 0 110.833 -12.5 158.5 -37.5s87.5 -60.167 119.5 -105.5l-96 -79c-46.667 64.667 -108 97 -184 97
c-42 0 -79 -9.33301 -111 -28s-56.833 -44.334 -74.5 -77.001s-26.5 -70 -26.5 -112c0 -42.667 9.16699 -80.667 27.5 -114s44.166 -59.5 77.499 -78.5s71.666 -28.5 114.999 -28.5c38 0 71.833 7.33301 101.5 22s53.834 34.667 72.501 60v54h-182v117h317v-195
c-30 -53.333 -72.833 -96.5 -128.5 -129.5s-117.834 -49.5 -186.501 -49.5c-65.333 0 -124.833 15 -178.5 45zM330.002 755.502c-16.667 16.333 -25 36.166 -25 59.499s8.33301 43.166 25 59.499s37 24.5 61 24.5s44.5 -8.16699 61.5 -24.5s25.5 -36.166 25.5 -59.499
s-8.5 -43.166 -25.5 -59.499s-37.5 -24.5 -61.5 -24.5s-44.333 8.16699 -61 24.5z" />
    <glyph glyph-name="gdotaccent" unicode="&#x121;" horiz-adv-x="631" 
d="M564 495v-440.001c0 -80.667 -23.333 -142 -70 -184s-108.667 -63 -186 -63c-93.333 0 -174.333 30.667 -243 92l71 94c27.333 -20.667 53.5 -36.5 78.5 -47.5s52.5 -16.5 82.5 -16.5c40 0 72 9.83301 96 29.5s36 48.834 36 87.501v27c-18 -19.333 -39.833 -34 -65.5 -44
s-54.167 -15 -85.5 -15c-45.333 0 -86 10.333 -122 31s-64.167 49.667 -84.5 87s-30.5 80 -30.5 128c0 48.667 10.333 91.5 31 128.5s49 65.667 85 86s76.333 30.5 121 30.5c35.333 0 66.833 -6.33301 94.5 -19s50.167 -30.667 67.5 -54v62h124zM394 163.999
c24.667 23.333 37 56.333 37 99s-12.167 74.667 -36.5 96s-53.833 32 -88.5 32c-36.667 0 -67.167 -11.5 -91.5 -34.5s-36.5 -54.5 -36.5 -94.5s12.333 -72.167 37 -96.5s55 -36.5 91 -36.5c34 0 63.333 11.667 88 35zM251 615.999c-16.667 16 -25 35.667 -25 59
c0 24 8.33301 44 25 60s37 24 61 24s44.5 -8 61.5 -24s25.5 -36 25.5 -60c0 -23.333 -8.5 -43 -25.5 -59s-37.5 -24 -61.5 -24s-44.333 8 -61 24z" />
    <glyph glyph-name="uni0122" unicode="&#x122;" horiz-adv-x="747" 
d="M212.5 33c-53.667 30 -96.165 71.1689 -127.498 123.502s-47 110.166 -47 173.499c0 64 15.5 122 46.5 174s73.5 93 127.5 123s113.667 45 179 45c58 0 110.833 -12.5 158.5 -37.5s87.5 -60.167 119.5 -105.5l-96 -79c-46.667 64.667 -108 97 -184 97
c-42 0 -79 -9.33301 -111 -28s-56.833 -44.334 -74.5 -77.001s-26.5 -70 -26.5 -112c0 -42.667 9.16699 -80.667 27.5 -114s44.166 -59.5 77.499 -78.5s71.666 -28.5 114.999 -28.5c38 0 71.833 7.33301 101.5 22s53.834 34.667 72.501 60v54h-182v117h317v-195
c-30 -53.333 -72.833 -96.5 -128.5 -129.5s-117.834 -49.5 -186.501 -49.5c-65.333 0 -124.833 15 -178.5 45zM330.002 -45.998h125l-26 -174h-102z" />
    <glyph glyph-name="uni0123" unicode="&#x123;" horiz-adv-x="631" 
d="M564 495v-440.001c0 -80.667 -23.333 -142 -70 -184s-108.667 -63 -186 -63c-93.333 0 -174.333 30.667 -243 92l71 94c27.333 -20.667 53.5 -36.5 78.5 -47.5s52.5 -16.5 82.5 -16.5c40 0 72 9.83301 96 29.5s36 48.834 36 87.501v27c-18 -19.333 -39.833 -34 -65.5 -44
s-54.167 -15 -85.5 -15c-45.333 0 -86 10.333 -122 31s-64.167 49.667 -84.5 87s-30.5 80 -30.5 128c0 48.667 10.333 91.5 31 128.5s49 65.667 85 86s76.333 30.5 121 30.5c35.333 0 66.833 -6.33301 94.5 -19s50.167 -30.667 67.5 -54v62h124zM394 163.999
c24.667 23.333 37 56.333 37 99s-12.167 74.667 -36.5 96s-53.833 32 -88.5 32c-36.667 0 -67.167 -11.5 -91.5 -34.5s-36.5 -54.5 -36.5 -94.5s12.333 -72.167 37 -96.5s55 -36.5 91 -36.5c34 0 63.333 11.667 88 35zM280 779.999h98l-5 -209h-127z" />
    <glyph glyph-name="Hcircumflex" unicode="&#x124;" horiz-adv-x="713" 
d="M76 660h135v-253h292v253h135v-660h-135v285h-292v-285h-135v660zM446 724l-90 80l-90 -80h-102l148 186h89l148 -186h-103z" />
    <glyph glyph-name="hcircumflex" unicode="&#x125;" horiz-adv-x="585" 
d="M472 451.5c33.333 -36.333 50.001 -84.5 50.001 -144.5v-307h-134v288c0 28.667 -8.5 51.834 -25.5 69.501s-39.167 26.5 -66.5 26.5s-49.833 -8.83301 -67.5 -26.5s-26.5 -40.834 -26.5 -69.501v-288h-135v750h135v-297c16.667 16.667 36.667 29.667 60 39
s48.666 14 75.999 14c56 0 100.667 -18.167 134 -54.5zM291.001 814l-90 80l-90 -80h-102l148 186h89l148 -186h-103z" />
    <glyph glyph-name="Hbar" unicode="&#x126;" horiz-adv-x="732" 
d="M85 436h-93v113h93v111h135v-111h292v111h135v-111h92v-113h-92v-436h-135v214h-292v-214h-135v436zM512 330v106h-292v-106h292z" />
    <glyph glyph-name="hbar" unicode="&#x127;" horiz-adv-x="593" 
d="M479.5 422.5c33.667 -36.333 50.501 -84.499 50.501 -144.499v-278h-135v259c0 28.667 -8.33301 51.834 -25 69.501s-38.667 26.5 -66 26.5c-28 0 -50.833 -8.83301 -68.5 -26.5s-26.5 -40.834 -26.5 -69.501v-259h-134v551h-79v111h79v88h134v-88h191v-111h-191v-128
c16.667 17.333 36.667 30.666 60 39.999s48.666 14 75.999 14c56 0 100.833 -18.167 134.5 -54.5z" />
    <glyph glyph-name="Itilde" unicode="&#x128;" horiz-adv-x="286" 
d="M76 660h135v-660h-135v660zM152 747l-29.999 15.999c-18.667 11.333 -33.334 17 -44.001 17c-9.33301 0 -16.333 -3.16699 -21 -9.5s-7 -14.166 -7 -23.499v-12h-103c-1.33301 14.667 -2 26 -2 34c0 40 11.167 72.333 33.5 97s49.833 37 82.5 37c23.333 0 48 -7 74 -21
l30 -18c2 -1.33301 6.16699 -3.66602 12.5 -6.99902s12.166 -5.83301 17.499 -7.5s10.333 -2.5 15 -2.5c9.33301 0 16.333 3.16699 21 9.5s7 14.5 7 24.5v12h103c1.33301 -14.667 2 -25.667 2 -33c0 -40.667 -11.167 -73.334 -33.5 -98.001s-49.5 -37 -81.5 -37
c-23.333 0 -48.666 7.33301 -75.999 22z" />
    <glyph glyph-name="itilde" unicode="&#x129;" horiz-adv-x="269" 
d="M67 495h135v-495h-135v495zM170.5 585.5c-10.333 4.33301 -21.5 10.833 -33.5 19.5l-19 15c-6 5.33301 -11.667 9.5 -17 12.5s-10.333 4.5 -15 4.5c-8.66699 0 -15.167 -3.16699 -19.5 -9.5s-6.5 -14.833 -6.5 -25.5v-12h-103c-2 10 -3 21 -3 33
c0 40.667 10.5 73.5 31.5 98.5s47.833 37.5 80.5 37.5c22 0 44.667 -8.66699 68 -26l19 -16c6.66699 -4.66699 12.5 -8.5 17.5 -11.5s9.83301 -4.5 14.5 -4.5c16.667 0 25 11.667 25 35v12h103c1.33301 -13.333 2 -24.666 2 -33.999
c0 -40.667 -10.167 -73.334 -30.5 -98.001s-46.833 -37 -79.5 -37c-12.667 0 -24.167 2.16699 -34.5 6.5z" />
    <glyph glyph-name="Imacron" unicode="&#x12a;" horiz-adv-x="286" 
d="M76 660h135v-660h-135v660zM-17 861h322v-106h-322v106z" />
    <glyph glyph-name="imacron" unicode="&#x12b;" horiz-adv-x="269" 
d="M67 495h135v-495h-135v495zM7 729h256v-107h-256v107z" />
    <glyph glyph-name="Ibreve" unicode="&#x12c;" horiz-adv-x="286" 
d="M76 660h135v-660h-135v660zM19 768c-32 32.667 -48 75.002 -48 127.002v15h106v-15c0 -22.667 6 -40.834 18 -54.501s28.333 -20.5 49 -20.5s37 6.66699 49 20s18 31.666 18 54.999v15h105v-15c0 -34 -7.33301 -64.333 -22 -91s-35 -47.5 -61 -62.5
s-55.667 -22.5 -89 -22.5c-51.333 0 -93 16.333 -125 49z" />
    <glyph glyph-name="ibreve" unicode="&#x12d;" horiz-adv-x="269" 
d="M67 495h135v-495h-135v495zM45.5 593c-26.333 14.667 -46.834 35.332 -61.501 61.999s-22 56.667 -22 90v28h106v-27c0 -23.333 6 -41.666 18 -54.999s28.333 -20 49 -20s37 6.66699 49 20s18 31.666 18 54.999v27h105v-28c0 -51.333 -16 -93.166 -48 -125.499
s-73.333 -48.5 -124 -48.5c-33.333 0 -63.166 7.33301 -89.499 22z" />
    <glyph glyph-name="Iogonek" unicode="&#x12e;" horiz-adv-x="286" 
d="M76 660h135v-660h-135v660zM36.5 -164c-21.667 18.667 -32.5 42.666 -32.5 71.999s12 55.333 36 78s62.667 45.334 116 68.001l55 -54l-40 -25c-13.333 -8 -23 -14.833 -29 -20.5s-9 -12.5 -9 -20.5c0 -9.33301 3 -16.5 9 -21.5s15 -7.5 27 -7.5c6.66699 0 20.667 2 42 6
v-88c-30 -10 -58.667 -15 -86 -15c-37.333 0 -66.833 9.33301 -88.5 28z" />
    <glyph glyph-name="iogonek" unicode="&#x12f;" horiz-adv-x="269" 
d="M67 495h135v-495h-135v495zM73 616c-16.667 16 -25 35.667 -25 59c0 24 8.33301 44 25 60s37 24 61 24s44.5 -8 61.5 -24s25.5 -36 25.5 -60c0 -23.333 -8.5 -43 -25.5 -59s-37.5 -24 -61.5 -24s-44.333 8 -61 24zM27.5 -164c-21.667 18.667 -32.5 42.666 -32.5 71.999
s12 55.333 36 78s62.667 45.334 116 68.001l55 -54l-40 -25c-13.333 -8 -23 -14.833 -29 -20.5s-9 -12.5 -9 -20.5c0 -9.33301 3 -16.5 9 -21.5s15 -7.5 27 -7.5c6.66699 0 20.667 2 42 6v-88c-30 -10 -58.667 -15 -86 -15c-37.333 0 -66.833 9.33301 -88.5 28z" />
    <glyph glyph-name="Idotaccent" unicode="&#x130;" horiz-adv-x="286" 
d="M76 660h135v-660h-135v660zM82 755.5c-16.667 16.333 -25 36.166 -25 59.499s8.33301 43.166 25 59.499s37 24.5 61 24.5s44.5 -8.16699 61.5 -24.5s25.5 -36.166 25.5 -59.499s-8.5 -43.166 -25.5 -59.499s-37.5 -24.5 -61.5 -24.5s-44.333 8.16699 -61 24.5z" />
    <glyph glyph-name="dotlessi" unicode="&#x131;" horiz-adv-x="269" 
d="M67 495h135v-495h-135v495z" />
    <glyph glyph-name="IJ" unicode="&#x132;" horiz-adv-x="675" 
d="M76 660h135v-660h-135v660zM303 0l0.000976562 115c36 -2.66699 58 -4 66 -4c32.667 0 56.667 6 72 18s23 32.333 23 61v470h135v-484c0 -62.667 -17.333 -109.667 -52 -141s-84.334 -47 -149.001 -47c-31.333 0 -63 4 -95 12z" />
    <glyph glyph-name="ij" unicode="&#x133;" horiz-adv-x="538" 
d="M67 495h135v-495h-135v495zM73 616c-16.667 16 -25 35.667 -25 59c0 24 8.33301 44 25 60s37 24 61 24s44.5 -8 61.5 -24s25.5 -36 25.5 -60c0 -23.333 -8.5 -43 -25.5 -59s-37.5 -24 -61.5 -24s-44.333 8 -61 24zM206 -181v113c16 -2 29.667 -3 41 -3
c30 0 52.333 6 67 18s22 31.667 22 59v489h135v-501c0 -62 -17 -108.5 -51 -139.5s-80.333 -46.5 -139 -46.5c-26.667 0 -51.667 3.66699 -75 11zM342 616c-16.667 16 -25 35.667 -25 59c0 24 8.33301 44 25 60s37 24 61 24s44.5 -8 61.5 -24s25.5 -36 25.5 -60
c0 -23.333 -8.5 -43 -25.5 -59s-37.5 -24 -61.5 -24s-44.333 8 -61 24z" />
    <glyph glyph-name="Jcircumflex" unicode="&#x134;" horiz-adv-x="389" 
d="M17 0l0.000976562 115c36 -2.66699 58 -4 66 -4c32.667 0 56.667 6 72 18s23 32.333 23 61v470h135v-484c0 -62.667 -17.333 -109.667 -52 -141s-84.334 -47 -149.001 -47c-31.333 0 -63 4 -95 12zM317.001 724l-90 80l-90 -80h-102l148 186h89l148 -186h-103z" />
    <glyph glyph-name="jcircumflex" unicode="&#x135;" horiz-adv-x="269" 
d="M-63 -181v113c16 -2 29.667 -3 41 -3c30 0 52.333 6 67 18s22 31.667 22 59v489h135v-501c0 -62 -17 -108.5 -51 -139.5s-80.333 -46.5 -139 -46.5c-26.667 0 -51.667 3.66699 -75 11zM215 571l-80 92l-80 -92h-99l135 209h89l134 -209h-99z" />
    <glyph glyph-name="uni0136" unicode="&#x136;" horiz-adv-x="670" 
d="M494 0l-283 344v-344h-135v660h135v-306l252 306h161l-253 -311l286 -349h-163zM258 -46h125l-26 -174h-102z" />
    <glyph glyph-name="uni0137" unicode="&#x137;" 
d="M401 0l-199 274v-274h-135v750h135v-466l178 211h160l-186 -219l201 -276h-154zM222 -46h125l-26 -174h-102z" />
    <glyph glyph-name="Lacute" unicode="&#x139;" horiz-adv-x="524" 
d="M76 660h135v-538h289v-122h-424v660zM163 910h162v-24l-137 -162h-98z" />
    <glyph glyph-name="lacute" unicode="&#x13a;" horiz-adv-x="269" 
d="M67 750h135v-750h-135v750zM155 1000h162v-24l-137 -162h-98z" />
    <glyph glyph-name="uni013B" unicode="&#x13b;" horiz-adv-x="524" 
d="M76 660h135v-538h289v-122h-424v660zM221 -46h125l-26 -174h-102z" />
    <glyph glyph-name="uni013C" unicode="&#x13c;" horiz-adv-x="269" 
d="M67 750h135v-750h-135v750zM73 -46h125l-26 -174h-102z" />
    <glyph glyph-name="Lcaron" unicode="&#x13d;" horiz-adv-x="524" 
d="M76 660h135v-538h289v-122h-424v660zM365 720h139l-49 -206h-95z" />
    <glyph glyph-name="lcaron" unicode="&#x13e;" horiz-adv-x="434" 
d="M67 750h135v-750h-135v750zM295 750h139l-49 -206h-95z" />
    <glyph glyph-name="Ldot" unicode="&#x13f;" horiz-adv-x="524" 
d="M76 660h135v-538h289v-122h-424v660zM343 311.5c-18 17.667 -27 39.834 -27 66.501c0 26 9 48 27 66s40.333 27 67 27c26 0 47.833 -9 65.5 -27s26.5 -40 26.5 -66c0 -26.667 -8.66699 -48.834 -26 -66.501s-39.333 -26.5 -66 -26.5s-49 8.83301 -67 26.5z" />
    <glyph glyph-name="ldot" unicode="&#x140;" horiz-adv-x="406" 
d="M67 750h135v-750h-135v750zM271 253.5c-18 17.667 -27 39.834 -27 66.501c0 26 9 48 27 66s40.333 27 67 27c26 0 47.833 -9 65.5 -27s26.5 -40 26.5 -66c0 -26.667 -8.66699 -48.834 -26 -66.501s-39.333 -26.5 -66 -26.5s-49 8.83301 -67 26.5z" />
    <glyph glyph-name="Lslash" unicode="&#x141;" horiz-adv-x="524" 
d="M500 122v-122h-424v205l-72 -33v124l72 33v331h135v-277l199 90v-125l-199 -90v-136h289z" />
    <glyph glyph-name="lslash" unicode="&#x142;" horiz-adv-x="331" 
d="M310 342l-80 -37v-305h-135v253l-76 -35v125l76 35v372h135v-320l80 37v-125z" />
    <glyph glyph-name="Nacute" unicode="&#x143;" horiz-adv-x="713" 
d="M638 660v-672h-45l-382 408v-396h-135v672h44l383 -406v394h135zM377 910h162v-24l-137 -162h-98z" />
    <glyph glyph-name="nacute" unicode="&#x144;" horiz-adv-x="585" 
d="M472 451.5c33.333 -36.333 50.001 -84.5 50.001 -144.5v-307h-134v289c0 28.667 -8.5 51.834 -25.5 69.501s-39.167 26.5 -66.5 26.5s-49.833 -8.83301 -67.5 -26.5s-26.5 -40.834 -26.5 -69.501v-289h-135v495h124v-45c17.333 17.333 38.5 31 63.5 41s52.167 15 81.5 15
c57.333 0 102.666 -18.167 135.999 -54.5zM305.001 780h162v-24l-137 -185h-98z" />
    <glyph glyph-name="uni0145" unicode="&#x145;" horiz-adv-x="713" 
d="M638 660v-672h-45l-382 408v-396h-135v672h44l383 -406v394h135zM295 -46h125l-26 -174h-102z" />
    <glyph glyph-name="uni0146" unicode="&#x146;" horiz-adv-x="585" 
d="M472 451.5c33.333 -36.333 50.001 -84.5 50.001 -144.5v-307h-134v289c0 28.667 -8.5 51.834 -25.5 69.501s-39.167 26.5 -66.5 26.5s-49.833 -8.83301 -67.5 -26.5s-26.5 -40.834 -26.5 -69.501v-289h-135v495h124v-45c17.333 17.333 38.5 31 63.5 41s52.167 15 81.5 15
c57.333 0 102.666 -18.167 135.999 -54.5zM235.001 -46h125l-26 -174h-102z" />
    <glyph glyph-name="Ncaron" unicode="&#x147;" horiz-adv-x="713" 
d="M638 660v-672h-45l-382 408v-396h-135v672h44l383 -406v394h135zM549 910l-148 -186h-89l-148 186h102l90 -80l90 80h103z" />
    <glyph glyph-name="ncaron" unicode="&#x148;" horiz-adv-x="585" 
d="M472 451.5c33.333 -36.333 50.001 -84.5 50.001 -144.5v-307h-134v289c0 28.667 -8.5 51.834 -25.5 69.501s-39.167 26.5 -66.5 26.5s-49.833 -8.83301 -67.5 -26.5s-26.5 -40.834 -26.5 -69.501v-289h-135v495h124v-45c17.333 17.333 38.5 31 63.5 41s52.167 15 81.5 15
c57.333 0 102.666 -18.167 135.999 -54.5zM460.001 780l-134 -209h-89l-135 209h99l80 -92l80 92h99z" />
    <glyph glyph-name="Eng" unicode="&#x14a;" horiz-adv-x="713" 
d="M638 660v-666c0 -62 -17 -108.5 -51 -139.5s-80.667 -46.5 -140 -46.5c-26 0 -50.667 3.66699 -74 11v113c16 -2 29.667 -3 41 -3c30 0 52.333 6 67 18s22 31.667 22 59v16l-292 350v-372h-135v672h44l383 -453v441h135z" />
    <glyph glyph-name="eng" unicode="&#x14b;" horiz-adv-x="585" 
d="M472 451.5c33.333 -36.333 50.001 -84.5 50.001 -144.5v-313c0 -62 -16.833 -108.5 -50.5 -139.5s-80.167 -46.5 -139.5 -46.5c-26 0 -50.667 3.66699 -74 11v113c15.333 -2 28.666 -3 39.999 -3c30.667 0 53.334 5.83301 68.001 17.5s22 31.5 22 59.5v282
c0 28.667 -8.5 51.834 -25.5 69.501s-39.167 26.5 -66.5 26.5s-49.833 -8.83301 -67.5 -26.5s-26.5 -40.834 -26.5 -69.501v-288h-135v495h124v-45c17.333 17.333 38.5 31 63.5 41s52.167 15 81.5 15c57.333 0 102.666 -18.167 135.999 -54.5z" />
    <glyph glyph-name="Omacron" unicode="&#x14c;" horiz-adv-x="778" 
d="M212 33c-53.333 30 -95.666 71.167 -126.999 123.5s-47 110.166 -47 173.499s15.667 121.166 47 173.499s73.666 93.5 126.999 123.5s112 45 176 45s122.833 -15 176.5 -45s96.334 -71.167 128.001 -123.5s47.5 -110.166 47.5 -173.499s-15.833 -121.166 -47.5 -173.499
s-74.334 -93.5 -128.001 -123.5s-112.5 -45 -176.5 -45s-122.667 15 -176 45zM497.5 140.5c32.333 18.333 57.666 44 75.999 77s27.5 70.5 27.5 112.5c0 41.333 -9.16699 78.5 -27.5 111.5s-43.666 58.833 -75.999 77.5s-68.5 28 -108.5 28
c-40.667 0 -77 -9.16699 -109 -27.5s-57.167 -44 -75.5 -77s-27.5 -70.5 -27.5 -112.5s9.16699 -79.5 27.5 -112.5s43.5 -58.667 75.5 -77s68.333 -27.5 109 -27.5c40 0 76.167 9.16699 108.5 27.5zM228 861h322v-106h-322v106z" />
    <glyph glyph-name="omacron" unicode="&#x14d;" horiz-adv-x="608" 
d="M169.5 23.5c-40.333 23 -72.1699 54.3311 -95.5029 93.998s-35 83.167 -35 130.5s11.667 90.833 35 130.5s55.333 70.834 96 93.501s85.334 34 134.001 34s93.334 -11.5 134.001 -34.5s72.834 -54.167 96.501 -93.5s35.5 -82.666 35.5 -129.999
s-11.833 -90.833 -35.5 -130.5s-56 -71 -97 -94s-85.833 -34.5 -134.5 -34.5s-93.167 11.5 -133.5 34.5zM395.496 150.998c24.333 25.333 36.5 57.333 36.5 96s-12.167 71 -36.5 97s-54.833 39 -91.5 39c-37.333 0 -68 -12.833 -92 -38.5s-36 -58.167 -36 -97.5
c0 -38.667 12 -70.667 36 -96s54.667 -38 92 -38c36.667 0 67.167 12.667 91.5 38zM152.996 727.998h302v-106h-302v106z" />
    <glyph glyph-name="Obreve" unicode="&#x14e;" horiz-adv-x="778" 
d="M212 33c-53.333 30 -95.666 71.167 -126.999 123.5s-47 110.166 -47 173.499s15.667 121.166 47 173.499s73.666 93.5 126.999 123.5s112 45 176 45s122.833 -15 176.5 -45s96.334 -71.167 128.001 -123.5s47.5 -110.166 47.5 -173.499s-15.833 -121.166 -47.5 -173.499
s-74.334 -93.5 -128.001 -123.5s-112.5 -45 -176.5 -45s-122.667 15 -176 45zM497.5 140.5c32.333 18.333 57.666 44 75.999 77s27.5 70.5 27.5 112.5c0 41.333 -9.16699 78.5 -27.5 111.5s-43.666 58.833 -75.999 77.5s-68.5 28 -108.5 28
c-40.667 0 -77 -9.16699 -109 -27.5s-57.167 -44 -75.5 -77s-27.5 -70.5 -27.5 -112.5s9.16699 -79.5 27.5 -112.5s43.5 -58.667 75.5 -77s68.333 -27.5 109 -27.5c40 0 76.167 9.16699 108.5 27.5zM264 768c-32 32.667 -48 75.002 -48 127.002v15h106v-15
c0 -22.667 6 -40.834 18 -54.501s28.333 -20.5 49 -20.5s37 6.66699 49 20s18 31.666 18 54.999v15h105v-15c0 -34 -7.33301 -64.333 -22 -91s-35 -47.5 -61 -62.5s-55.667 -22.5 -89 -22.5c-51.333 0 -93 16.333 -125 49z" />
    <glyph glyph-name="obreve" unicode="&#x14f;" horiz-adv-x="608" 
d="M169.5 23.5c-40.333 23 -72.1699 54.3311 -95.5029 93.998s-35 83.167 -35 130.5s11.667 90.833 35 130.5s55.333 70.834 96 93.501s85.334 34 134.001 34s93.334 -11.5 134.001 -34.5s72.834 -54.167 96.501 -93.5s35.5 -82.666 35.5 -129.999
s-11.833 -90.833 -35.5 -130.5s-56 -71 -97 -94s-85.833 -34.5 -134.5 -34.5s-93.167 11.5 -133.5 34.5zM395.496 150.998c24.333 25.333 36.5 57.333 36.5 96s-12.167 71 -36.5 97s-54.833 39 -91.5 39c-37.333 0 -68 -12.833 -92 -38.5s-36 -58.167 -36 -97.5
c0 -38.667 12 -70.667 36 -96s54.667 -38 92 -38c36.667 0 67.167 12.667 91.5 38zM214.496 592.998c-26.333 14.667 -46.834 35.332 -61.501 61.999s-22 56.667 -22 90v28h106v-27c0 -23.333 6 -41.666 18 -54.999s28.333 -20 49 -20s37 6.66699 49 20s18 31.666 18 54.999
v27h105v-28c0 -51.333 -16 -93.166 -48 -125.499s-73.333 -48.5 -124 -48.5c-33.333 0 -63.166 7.33301 -89.499 22z" />
    <glyph glyph-name="Ohungarumlaut" unicode="&#x150;" horiz-adv-x="778" 
d="M212 33c-53.333 30 -95.666 71.167 -126.999 123.5s-47 110.166 -47 173.499s15.667 121.166 47 173.499s73.666 93.5 126.999 123.5s112 45 176 45s122.833 -15 176.5 -45s96.334 -71.167 128.001 -123.5s47.5 -110.166 47.5 -173.499s-15.833 -121.166 -47.5 -173.499
s-74.334 -93.5 -128.001 -123.5s-112.5 -45 -176.5 -45s-122.667 15 -176 45zM497.5 140.5c32.333 18.333 57.666 44 75.999 77s27.5 70.5 27.5 112.5c0 41.333 -9.16699 78.5 -27.5 111.5s-43.666 58.833 -75.999 77.5s-68.5 28 -108.5 28
c-40.667 0 -77 -9.16699 -109 -27.5s-57.167 -44 -75.5 -77s-27.5 -70.5 -27.5 -112.5s9.16699 -79.5 27.5 -112.5s43.5 -58.667 75.5 -77s68.333 -27.5 109 -27.5c40 0 76.167 9.16699 108.5 27.5zM286 910h140v-24l-122 -162h-91zM523 910h140v-24l-122 -162h-91z" />
    <glyph glyph-name="ohungarumlaut" unicode="&#x151;" horiz-adv-x="608" 
d="M169.5 23.5c-40.333 23 -72.1699 54.3311 -95.5029 93.998s-35 83.167 -35 130.5s11.667 90.833 35 130.5s55.333 70.834 96 93.501s85.334 34 134.001 34s93.334 -11.5 134.001 -34.5s72.834 -54.167 96.501 -93.5s35.5 -82.666 35.5 -129.999
s-11.833 -90.833 -35.5 -130.5s-56 -71 -97 -94s-85.833 -34.5 -134.5 -34.5s-93.167 11.5 -133.5 34.5zM395.496 150.998c24.333 25.333 36.5 57.333 36.5 96s-12.167 71 -36.5 97s-54.833 39 -91.5 39c-37.333 0 -68 -12.833 -92 -38.5s-36 -58.167 -36 -97.5
c0 -38.667 12 -70.667 36 -96s54.667 -38 92 -38c36.667 0 67.167 12.667 91.5 38zM218.996 779.998h140v-24l-122 -185h-91zM435.996 779.998h140v-24l-122 -185h-91z" />
    <glyph glyph-name="OE" unicode="&#x152;" horiz-adv-x="1098" 
d="M1057 122l0.000976562 -122.001h-456v69c-26 -26 -57.5 -46 -94.5 -60s-76.833 -21 -119.5 -21c-64.667 0 -123.667 15 -177 45s-95.333 71 -126 123s-46 110 -46 174s15.333 122 46 174s72.667 93 126 123s112.666 45 177.999 45c43.333 0 83.333 -7.16699 120 -21.5
s67.667 -34.166 93 -59.499v69h444v-122h-309v-134h228v-115h-228v-167h321zM497.001 140.499c32.667 18.333 58.167 44 76.5 77s27.5 70.167 27.5 111.5c0 42 -9.16699 79.5 -27.5 112.5s-43.833 58.833 -76.5 77.5s-69 28 -109 28s-76.167 -9.33301 -108.5 -28
s-57.5 -44.5 -75.5 -77.5s-27 -70.5 -27 -112.5s9 -79.333 27 -112s43.167 -58.167 75.5 -76.5s68.5 -27.5 108.5 -27.5s76.333 9.16699 109 27.5z" />
    <glyph glyph-name="oe" unicode="&#x153;" horiz-adv-x="942" 
d="M895 201h-342c8 -31.333 23.667 -55.333 47 -72s52.666 -25 87.999 -25c48.667 0 94.334 16.667 137.001 50l56 -92c-28 -24 -58.667 -42.333 -92 -55s-68 -19 -104 -19c-41.333 0 -79 8 -113 24s-62.333 38.333 -85 67c-21.333 -28.667 -47.833 -51 -79.5 -67
s-67.167 -24 -106.5 -24c-47.333 0 -91 11.5 -131 34.5s-71.833 54.167 -95.5 93.5s-35.5 83 -35.5 131s11.833 91.833 35.5 131.5s55.5 70.834 95.5 93.501s83.667 34 131 34c38.667 0 74 -7.83301 106 -23.5s58.333 -37.834 79 -66.501c22 28 49.167 50 81.5 66
s67.833 24 106.5 24c44 0 83.5 -10.333 118.5 -31s62.333 -48.5 82 -83.5s29.5 -73.5 29.5 -115.5c0 -24.667 -3 -49.667 -9 -75zM593 370c-20.667 -18 -34.333 -42.667 -41 -74h221c-0.666992 30.667 -11.167 55.167 -31.5 73.5s-45.166 27.5 -74.499 27.5
c-28.667 0 -53.334 -9 -74.001 -27zM391.001 150.5c22.667 25.667 34 57.832 34 96.499c0 39.333 -11.333 71.833 -34 97.5s-52 38.5 -88 38.5c-36.667 0 -67 -12.833 -91 -38.5s-36 -58.167 -36 -97.5s12 -71.666 36 -96.999s54.333 -38 91 -38c36 0 65.333 12.833 88 38.5
z" />
    <glyph glyph-name="Racute" unicode="&#x154;" horiz-adv-x="640" 
d="M481 0l-171 233h-99v-233h-135v660h248c46 0 87 -8.83301 123 -26.5s64.167 -42.667 84.5 -75s30.5 -69.5 30.5 -111.5s-10.333 -79.333 -31 -112s-49 -58 -85 -76l187 -259h-152zM211 352h113c31.333 0 55.833 8.66699 73.5 26s26.5 40.333 26.5 69
c0 28 -9 50.667 -27 68s-42.333 26 -73 26h-113v-189zM285 910h162v-24l-137 -162h-98z" />
    <glyph glyph-name="racute" unicode="&#x155;" horiz-adv-x="388" 
d="M371 495v-118.999h-36c-40.667 0 -73 -10.833 -97 -32.5s-36 -53.834 -36 -96.501v-247h-135v495h124v-59c16.667 20.667 36.667 36.667 60 48s48.666 17 75.999 17c16.667 0 31.334 -2 44.001 -6zM215 780.001h162v-24l-137 -185h-98z" />
    <glyph glyph-name="uni0156" unicode="&#x156;" horiz-adv-x="640" 
d="M481 0l-171 233h-99v-233h-135v660h248c46 0 87 -8.83301 123 -26.5s64.167 -42.667 84.5 -75s30.5 -69.5 30.5 -111.5s-10.333 -79.333 -31 -112s-49 -58 -85 -76l187 -259h-152zM211 352h113c31.333 0 55.833 8.66699 73.5 26s26.5 40.333 26.5 69
c0 28 -9 50.667 -27 68s-42.333 26 -73 26h-113v-189zM265 -46h125l-26 -174h-102z" />
    <glyph glyph-name="uni0157" unicode="&#x157;" horiz-adv-x="388" 
d="M371 495v-118.999h-36c-40.667 0 -73 -10.833 -97 -32.5s-36 -53.834 -36 -96.501v-247h-135v495h124v-59c16.667 20.667 36.667 36.667 60 48s48.666 17 75.999 17c16.667 0 31.334 -2 44.001 -6zM73 -45.999h125l-26 -174h-102z" />
    <glyph glyph-name="Rcaron" unicode="&#x158;" horiz-adv-x="640" 
d="M481 0l-171 233h-99v-233h-135v660h248c46 0 87 -8.83301 123 -26.5s64.167 -42.667 84.5 -75s30.5 -69.5 30.5 -111.5s-10.333 -79.333 -31 -112s-49 -58 -85 -76l187 -259h-152zM211 352h113c31.333 0 55.833 8.66699 73.5 26s26.5 40.333 26.5 69
c0 28 -9 50.667 -27 68s-42.333 26 -73 26h-113v-189zM456 910l-148 -186h-89l-148 186h102l90 -80l90 80h103z" />
    <glyph glyph-name="rcaron" unicode="&#x159;" horiz-adv-x="388" 
d="M371 495v-118.999h-36c-40.667 0 -73 -10.833 -97 -32.5s-36 -53.834 -36 -96.501v-247h-135v495h124v-59c16.667 20.667 36.667 36.667 60 48s48.666 17 75.999 17c16.667 0 31.334 -2 44.001 -6zM370 780.001l-134 -209h-89l-135 209h99l80 -92l80 92h99z" />
    <glyph glyph-name="Sacute" unicode="&#x15a;" horiz-adv-x="559" 
d="M134.5 27.5c-44.333 26.333 -79.166 61.8359 -104.499 106.503l93 70c21.333 -29.333 44.666 -52.666 69.999 -69.999s56 -26 92 -26c29.333 0 52.333 6.5 69 19.5s25 30.833 25 53.5c0 19.333 -6.16699 34.166 -18.5 44.499s-34.166 22.833 -65.499 37.5l-71 32
c-50.667 22.667 -90 49 -118 79s-42 67 -42 111c0 37.333 9.5 70.166 28.5 98.499s45.167 50.166 78.5 65.499s70.666 23 111.999 23c50.667 0 94.5 -11.333 131.5 -34s65.833 -53 86.5 -91l-92 -71c-34 50.667 -76 76 -126 76c-23.333 0 -42.833 -5.5 -58.5 -16.5
s-23.5 -26.833 -23.5 -47.5c0 -17.333 5.83301 -31.166 17.5 -41.499s31.5 -21.833 59.5 -34.5l75 -33c55.333 -24.667 96.333 -51.834 123 -81.501s40 -66.834 40 -111.501c0 -40 -10 -75 -30 -105s-47.5 -53 -82.5 -69s-74.5 -24 -118.5 -24
c-56 0 -106.167 13.167 -150.5 39.5zM301 910.003h162v-24l-137 -162h-98z" />
    <glyph glyph-name="sacute" unicode="&#x15b;" horiz-adv-x="455" 
d="M109 13.5c-35.333 17 -64.333 40.4961 -87 70.4961l68 82c43.333 -44.667 89.666 -67 138.999 -67c18 0 33 3.5 45 10.5s18 17.167 18 30.5c0 10.667 -3.83301 18.834 -11.5 24.501s-20.834 12.5 -39.501 20.5l-53 22c-45.333 18.667 -79.166 39.334 -101.499 62.001
s-33.5 52.334 -33.5 89.001c0 46.667 16.833 83 50.5 109s77.5 39 131.5 39c74 0 133.333 -24.667 178 -74l-68 -83c-33.333 31.333 -70.333 47 -111 47c-16.667 0 -29.667 -3 -39 -9s-14 -14.667 -14 -26c0 -9.33301 3.83301 -17 11.5 -23s21.167 -13 40.5 -21l48 -20
c48 -19.333 83.167 -40.166 105.5 -62.499s33.5 -51.833 33.5 -88.5c0 -49.333 -18.167 -88 -54.5 -116s-82.5 -42 -138.5 -42c-43.333 0 -82.666 8.5 -117.999 25.5zM256 779.996h162v-24l-137 -185h-98z" />
    <glyph glyph-name="Scircumflex" unicode="&#x15c;" horiz-adv-x="559" 
d="M134.5 27.5c-44.333 26.333 -79.166 61.8359 -104.499 106.503l93 70c21.333 -29.333 44.666 -52.666 69.999 -69.999s56 -26 92 -26c29.333 0 52.333 6.5 69 19.5s25 30.833 25 53.5c0 19.333 -6.16699 34.166 -18.5 44.499s-34.166 22.833 -65.499 37.5l-71 32
c-50.667 22.667 -90 49 -118 79s-42 67 -42 111c0 37.333 9.5 70.166 28.5 98.499s45.167 50.166 78.5 65.499s70.666 23 111.999 23c50.667 0 94.5 -11.333 131.5 -34s65.833 -53 86.5 -91l-92 -71c-34 50.667 -76 76 -126 76c-23.333 0 -42.833 -5.5 -58.5 -16.5
s-23.5 -26.833 -23.5 -47.5c0 -17.333 5.83301 -31.166 17.5 -41.499s31.5 -21.833 59.5 -34.5l75 -33c55.333 -24.667 96.333 -51.834 123 -81.501s40 -66.834 40 -111.501c0 -40 -10 -75 -30 -105s-47.5 -53 -82.5 -69s-74.5 -24 -118.5 -24
c-56 0 -106.167 13.167 -150.5 39.5zM370 724.003l-90 80l-90 -80h-102l148 186h89l148 -186h-103z" />
    <glyph glyph-name="scircumflex" unicode="&#x15d;" horiz-adv-x="455" 
d="M109 13.5c-35.333 17 -64.333 40.4961 -87 70.4961l68 82c43.333 -44.667 89.666 -67 138.999 -67c18 0 33 3.5 45 10.5s18 17.167 18 30.5c0 10.667 -3.83301 18.834 -11.5 24.501s-20.834 12.5 -39.501 20.5l-53 22c-45.333 18.667 -79.166 39.334 -101.499 62.001
s-33.5 52.334 -33.5 89.001c0 46.667 16.833 83 50.5 109s77.5 39 131.5 39c74 0 133.333 -24.667 178 -74l-68 -83c-33.333 31.333 -70.333 47 -111 47c-16.667 0 -29.667 -3 -39 -9s-14 -14.667 -14 -26c0 -9.33301 3.83301 -17 11.5 -23s21.167 -13 40.5 -21l48 -20
c48 -19.333 83.167 -40.166 105.5 -62.499s33.5 -51.833 33.5 -88.5c0 -49.333 -18.167 -88 -54.5 -116s-82.5 -42 -138.5 -42c-43.333 0 -82.666 8.5 -117.999 25.5zM312 570.996l-80 92l-80 -92h-99l135 209h89l134 -209h-99z" />
    <glyph glyph-name="Scedilla" unicode="&#x15e;" horiz-adv-x="559" 
d="M134.5 27.5c-44.333 26.333 -79.166 61.8359 -104.499 106.503l93 70c21.333 -29.333 44.666 -52.666 69.999 -69.999s56 -26 92 -26c29.333 0 52.333 6.5 69 19.5s25 30.833 25 53.5c0 19.333 -6.16699 34.166 -18.5 44.499s-34.166 22.833 -65.499 37.5l-71 32
c-50.667 22.667 -90 49 -118 79s-42 67 -42 111c0 37.333 9.5 70.166 28.5 98.499s45.167 50.166 78.5 65.499s70.666 23 111.999 23c50.667 0 94.5 -11.333 131.5 -34s65.833 -53 86.5 -91l-92 -71c-34 50.667 -76 76 -126 76c-23.333 0 -42.833 -5.5 -58.5 -16.5
s-23.5 -26.833 -23.5 -47.5c0 -17.333 5.83301 -31.166 17.5 -41.499s31.5 -21.833 59.5 -34.5l75 -33c55.333 -24.667 96.333 -51.834 123 -81.501s40 -66.834 40 -111.501c0 -40 -10 -75 -30 -105s-47.5 -53 -82.5 -69s-74.5 -24 -118.5 -24
c-56 0 -106.167 13.167 -150.5 39.5zM144 -181.997v89c17.333 -1.33301 37.333 -2 60 -2c19.333 0 34.5 4.83301 45.5 14.5s16.5 23.834 16.5 42.501c0 17.333 -4.33301 36.666 -13 57.999l53 24c21.333 -12 37.833 -27.167 49.5 -45.5s17.5 -39.5 17.5 -63.5
c0 -36.667 -13.833 -67 -41.5 -91s-65.5 -36 -113.5 -36c-26 0 -50.667 3.33301 -74 10z" />
    <glyph glyph-name="scedilla" unicode="&#x15f;" horiz-adv-x="455" 
d="M109 13.5c-35.333 17 -64.333 40.4961 -87 70.4961l68 82c43.333 -44.667 89.666 -67 138.999 -67c18 0 33 3.5 45 10.5s18 17.167 18 30.5c0 10.667 -3.83301 18.834 -11.5 24.501s-20.834 12.5 -39.501 20.5l-53 22c-45.333 18.667 -79.166 39.334 -101.499 62.001
s-33.5 52.334 -33.5 89.001c0 46.667 16.833 83 50.5 109s77.5 39 131.5 39c74 0 133.333 -24.667 178 -74l-68 -83c-33.333 31.333 -70.333 47 -111 47c-16.667 0 -29.667 -3 -39 -9s-14 -14.667 -14 -26c0 -9.33301 3.83301 -17 11.5 -23s21.167 -13 40.5 -21l48 -20
c48 -19.333 83.167 -40.166 105.5 -62.499s33.5 -51.833 33.5 -88.5c0 -49.333 -18.167 -88 -54.5 -116s-82.5 -42 -138.5 -42c-43.333 0 -82.666 8.5 -117.999 25.5zM99 -182.004v89c17.333 -1.33301 37.333 -2 60 -2c19.333 0 34.5 4.83301 45.5 14.5
s16.5 23.834 16.5 42.501c0 17.333 -4.33301 36.666 -13 57.999l53 24c21.333 -12 37.833 -27.167 49.5 -45.5s17.5 -39.5 17.5 -63.5c0 -36.667 -13.833 -67 -41.5 -91s-65.5 -36 -113.5 -36c-26 0 -50.667 3.33301 -74 10z" />
    <glyph glyph-name="Scaron" unicode="&#x160;" horiz-adv-x="559" 
d="M134.5 27.5c-44.333 26.333 -79.166 61.8359 -104.499 106.503l93 70c21.333 -29.333 44.666 -52.666 69.999 -69.999s56 -26 92 -26c29.333 0 52.333 6.5 69 19.5s25 30.833 25 53.5c0 19.333 -6.16699 34.166 -18.5 44.499s-34.166 22.833 -65.499 37.5l-71 32
c-50.667 22.667 -90 49 -118 79s-42 67 -42 111c0 37.333 9.5 70.166 28.5 98.499s45.167 50.166 78.5 65.499s70.666 23 111.999 23c50.667 0 94.5 -11.333 131.5 -34s65.833 -53 86.5 -91l-92 -71c-34 50.667 -76 76 -126 76c-23.333 0 -42.833 -5.5 -58.5 -16.5
s-23.5 -26.833 -23.5 -47.5c0 -17.333 5.83301 -31.166 17.5 -41.499s31.5 -21.833 59.5 -34.5l75 -33c55.333 -24.667 96.333 -51.834 123 -81.501s40 -66.834 40 -111.501c0 -40 -10 -75 -30 -105s-47.5 -53 -82.5 -69s-74.5 -24 -118.5 -24
c-56 0 -106.167 13.167 -150.5 39.5zM473 910.003l-148 -186h-89l-148 186h102l90 -80l90 80h103z" />
    <glyph glyph-name="scaron" unicode="&#x161;" horiz-adv-x="455" 
d="M109 13.5c-35.333 17 -64.333 40.4961 -87 70.4961l68 82c43.333 -44.667 89.666 -67 138.999 -67c18 0 33 3.5 45 10.5s18 17.167 18 30.5c0 10.667 -3.83301 18.834 -11.5 24.501s-20.834 12.5 -39.501 20.5l-53 22c-45.333 18.667 -79.166 39.334 -101.499 62.001
s-33.5 52.334 -33.5 89.001c0 46.667 16.833 83 50.5 109s77.5 39 131.5 39c74 0 133.333 -24.667 178 -74l-68 -83c-33.333 31.333 -70.333 47 -111 47c-16.667 0 -29.667 -3 -39 -9s-14 -14.667 -14 -26c0 -9.33301 3.83301 -17 11.5 -23s21.167 -13 40.5 -21l48 -20
c48 -19.333 83.167 -40.166 105.5 -62.499s33.5 -51.833 33.5 -88.5c0 -49.333 -18.167 -88 -54.5 -116s-82.5 -42 -138.5 -42c-43.333 0 -82.666 8.5 -117.999 25.5zM411 779.996l-134 -209h-89l-135 209h99l80 -92l80 92h99z" />
    <glyph glyph-name="uni0162" unicode="&#x162;" horiz-adv-x="585" 
d="M225 538h-211v122h558v-122h-212v-538h-135v538zM152 -182v89c17.333 -1.33301 37.333 -2 60 -2c19.333 0 34.5 4.83301 45.5 14.5s16.5 23.834 16.5 42.501c0 17.333 -4.33301 36.666 -13 57.999l53 24c21.333 -12 37.833 -27.167 49.5 -45.5s17.5 -39.5 17.5 -63.5
c0 -36.667 -13.833 -67 -41.5 -91s-65.5 -36 -113.5 -36c-26 0 -50.667 3.33301 -74 10z" />
    <glyph glyph-name="uni0163" unicode="&#x163;" horiz-adv-x="416" 
d="M385 113l0.000976562 -113c-32 -8 -63 -12 -93 -12c-62.667 0 -111.334 15.5 -146.001 46.5s-52 77.5 -52 139.5v207h-78v114h78v125h135v-125h140v-114h-140v-195c0 -28 7.33301 -47.833 22 -59.5s38 -17.5 70 -17.5c8 0 29.333 1.33301 64 4zM89.001 -182v89
c17.333 -1.33301 37.333 -2 60 -2c19.333 0 34.5 4.83301 45.5 14.5s16.5 23.834 16.5 42.501c0 17.333 -4.33301 36.666 -13 57.999l53 24c21.333 -12 37.833 -27.167 49.5 -45.5s17.5 -39.5 17.5 -63.5c0 -36.667 -13.833 -67 -41.5 -91s-65.5 -36 -113.5 -36
c-26 0 -50.667 3.33301 -74 10z" />
    <glyph glyph-name="Tcaron" unicode="&#x164;" horiz-adv-x="585" 
d="M225 538h-211v122h558v-122h-212v-538h-135v538zM485 910l-148 -186h-89l-148 186h102l90 -80l90 80h103z" />
    <glyph glyph-name="tcaron" unicode="&#x165;" horiz-adv-x="416" 
d="M385 113l0.000976562 -113c-32 -8 -63 -12 -93 -12c-62.667 0 -111.334 15.5 -146.001 46.5s-52 77.5 -52 139.5v207h-78v114h78v125h135v-125h140v-114h-140v-195c0 -28 7.33301 -47.833 22 -59.5s38 -17.5 70 -17.5c8 0 29.333 1.33301 64 4zM320.001 750h139l-49 -206
h-95z" />
    <glyph glyph-name="Tbar" unicode="&#x166;" horiz-adv-x="585" 
d="M225 227h-176v113h176v198h-211v122h558v-122h-212v-198h176v-113h-176v-227h-135v227z" />
    <glyph glyph-name="tbar" unicode="&#x167;" horiz-adv-x="431" 
d="M394 113l0.00195312 -113c-30.667 -8 -61.334 -12 -92.001 -12c-62.667 0 -111.334 15.5 -146.001 46.5s-52 77.5 -52 139.5v23h-79v108h79v82h-79v108h79v125h134v-125h141v-108h-141v-82h141v-108h-141v-11c0 -28 7.33301 -47.833 22 -59.5s38 -17.5 70 -17.5
c8 0 29.333 1.33301 64 4z" />
    <glyph glyph-name="Utilde" unicode="&#x168;" horiz-adv-x="700" 
d="M205.5 22.5c-42.333 23 -75.502 56 -99.502 99s-36 93.5 -36 151.5v387h135v-397c0 -48 13.5 -85 40.5 -111s61.833 -39 104.5 -39c43.333 0 78.333 13 105 39s40 63 40 111v397h135v-387c0 -58 -12.167 -108.5 -36.5 -151.5s-57.666 -76 -99.999 -99
s-90.166 -34.5 -143.499 -34.5c-54 0 -102.167 11.5 -144.5 34.5zM357.998 747l-29.999 15.999c-18.667 11.333 -33.334 17 -44.001 17c-9.33301 0 -16.333 -3.16699 -21 -9.5s-7 -14.166 -7 -23.499v-12h-103c-1.33301 14.667 -2 26 -2 34c0 40 11.167 72.333 33.5 97
s49.833 37 82.5 37c23.333 0 48 -7 74 -21l30 -18c2 -1.33301 6.16699 -3.66602 12.5 -6.99902s12.166 -5.83301 17.499 -7.5s10.333 -2.5 15 -2.5c9.33301 0 16.333 3.16699 21 9.5s7 14.5 7 24.5v12h103c1.33301 -14.667 2 -25.667 2 -33
c0 -40.667 -11.167 -73.334 -33.5 -98.001s-49.5 -37 -81.5 -37c-23.333 0 -48.666 7.33301 -75.999 22z" />
    <glyph glyph-name="utilde" unicode="&#x169;" horiz-adv-x="580" 
d="M173.5 16.5c-35 19 -62.3311 45.833 -81.998 80.5s-29.5 75 -29.5 121v277h135v-288c0 -28.667 8.83301 -51.667 26.5 -69s40.167 -26 67.5 -26c26 0 47.833 8.66699 65.5 26s26.5 40.333 26.5 69v288h135v-277c0 -46 -9.83301 -86.333 -29.5 -121
s-46.834 -61.5 -81.501 -80.5s-73.334 -28.5 -116.001 -28.5c-43.333 0 -82.5 9.5 -117.5 28.5zM298.002 601l-28.001 17.001c-2.66699 2 -6.66699 4.83301 -12 8.5s-10.166 6.33398 -14.499 8.00098s-8.83301 2.5 -13.5 2.5c-18.667 0 -28 -11.667 -28 -35v-12h-103
c-1.33301 7.33301 -2 18.333 -2 33c0 41.333 10.833 74.333 32.5 99s48.5 37 80.5 37c24.667 0 48.667 -7.33301 72 -22l28 -18c8.66699 -6.66699 15.834 -11.334 21.501 -14.001s11.834 -4 18.501 -4c18.667 0 28 11.667 28 35v12h102c2 -12 3 -23.333 3 -34
c0 -40.667 -10.833 -73.334 -32.5 -98.001s-48.834 -37 -81.501 -37c-24.667 0 -48.334 7.33301 -71.001 22z" />
    <glyph glyph-name="Umacron" unicode="&#x16a;" horiz-adv-x="700" 
d="M205.5 22.5c-42.333 23 -75.502 56 -99.502 99s-36 93.5 -36 151.5v387h135v-397c0 -48 13.5 -85 40.5 -111s61.833 -39 104.5 -39c43.333 0 78.333 13 105 39s40 63 40 111v397h135v-387c0 -58 -12.167 -108.5 -36.5 -151.5s-57.666 -76 -99.999 -99
s-90.166 -34.5 -143.499 -34.5c-54 0 -102.167 11.5 -144.5 34.5zM188.998 861h322v-106h-322v106z" />
    <glyph glyph-name="umacron" unicode="&#x16b;" horiz-adv-x="580" 
d="M173.5 16.5c-35 19 -62.3311 45.833 -81.998 80.5s-29.5 75 -29.5 121v277h135v-288c0 -28.667 8.83301 -51.667 26.5 -69s40.167 -26 67.5 -26c26 0 47.833 8.66699 65.5 26s26.5 40.333 26.5 69v288h135v-277c0 -46 -9.83301 -86.333 -29.5 -121
s-46.834 -61.5 -81.501 -80.5s-73.334 -28.5 -116.001 -28.5c-43.333 0 -82.5 9.5 -117.5 28.5zM139.002 728h302v-106h-302v106z" />
    <glyph glyph-name="Ubreve" unicode="&#x16c;" horiz-adv-x="700" 
d="M205.5 22.5c-42.333 23 -75.502 56 -99.502 99s-36 93.5 -36 151.5v387h135v-397c0 -48 13.5 -85 40.5 -111s61.833 -39 104.5 -39c43.333 0 78.333 13 105 39s40 63 40 111v397h135v-387c0 -58 -12.167 -108.5 -36.5 -151.5s-57.666 -76 -99.999 -99
s-90.166 -34.5 -143.499 -34.5c-54 0 -102.167 11.5 -144.5 34.5zM224.998 768c-32 32.667 -48 75.002 -48 127.002v15h106v-15c0 -22.667 6 -40.834 18 -54.501s28.333 -20.5 49 -20.5s37 6.66699 49 20s18 31.666 18 54.999v15h105v-15c0 -34 -7.33301 -64.333 -22 -91
s-35 -47.5 -61 -62.5s-55.667 -22.5 -89 -22.5c-51.333 0 -93 16.333 -125 49z" />
    <glyph glyph-name="ubreve" unicode="&#x16d;" horiz-adv-x="580" 
d="M173.5 16.5c-35 19 -62.3311 45.833 -81.998 80.5s-29.5 75 -29.5 121v277h135v-288c0 -28.667 8.83301 -51.667 26.5 -69s40.167 -26 67.5 -26c26 0 47.833 8.66699 65.5 26s26.5 40.333 26.5 69v288h135v-277c0 -46 -9.83301 -86.333 -29.5 -121
s-46.834 -61.5 -81.501 -80.5s-73.334 -28.5 -116.001 -28.5c-43.333 0 -82.5 9.5 -117.5 28.5zM200.502 593c-26.333 14.667 -46.834 35.332 -61.501 61.999s-22 56.667 -22 90v28h106v-27c0 -23.333 6 -41.666 18 -54.999s28.333 -20 49 -20s37 6.66699 49 20
s18 31.666 18 54.999v27h105v-28c0 -51.333 -16 -93.166 -48 -125.499s-73.333 -48.5 -124 -48.5c-33.333 0 -63.166 7.33301 -89.499 22z" />
    <glyph glyph-name="Uring" unicode="&#x16e;" horiz-adv-x="700" 
d="M205.5 22.5c-42.333 23 -75.502 56 -99.502 99s-36 93.5 -36 151.5v387h135v-397c0 -48 13.5 -85 40.5 -111s61.833 -39 104.5 -39c43.333 0 78.333 13 105 39s40 63 40 111v397h135v-387c0 -58 -12.167 -108.5 -36.5 -151.5s-57.666 -76 -99.999 -99
s-90.166 -34.5 -143.499 -34.5c-54 0 -102.167 11.5 -144.5 34.5zM258.998 710.5c-24 23.667 -36 52.834 -36 87.501c0 34 12 62.667 36 86s54 35 90 35c36.667 0 67 -11.667 91 -35s36 -52 36 -86c0 -34.667 -12 -63.834 -36 -87.501s-54.333 -35.5 -91 -35.5
c-36 0 -66 11.833 -90 35.5zM378.998 768c8 8 12 18 12 30c0 11.333 -4 21 -12 29s-17.667 12 -29 12c-12 0 -21.833 -4 -29.5 -12s-11.5 -17.667 -11.5 -29c0 -12 3.83301 -22 11.5 -30s17.5 -12 29.5 -12c11.333 0 21 4 29 12z" />
    <glyph glyph-name="uring" unicode="&#x16f;" horiz-adv-x="580" 
d="M173.5 16.5c-35 19 -62.3311 45.833 -81.998 80.5s-29.5 75 -29.5 121v277h135v-288c0 -28.667 8.83301 -51.667 26.5 -69s40.167 -26 67.5 -26c26 0 47.833 8.66699 65.5 26s26.5 40.333 26.5 69v288h135v-277c0 -46 -9.83301 -86.333 -29.5 -121
s-46.834 -61.5 -81.501 -80.5s-73.334 -28.5 -116.001 -28.5c-43.333 0 -82.5 9.5 -117.5 28.5zM199.002 583c-24 23.333 -36 52.666 -36 87.999c0 34.667 12 63.667 36 87s54 35 90 35c36.667 0 67 -11.5 91 -34.5s36 -52.167 36 -87.5s-12 -64.666 -36 -87.999
s-54.333 -35 -91 -35c-36 0 -66 11.667 -90 35zM319.002 642c8 8 12 17.667 12 29c0 12 -4 21.833 -12 29.5s-17.667 11.5 -29 11.5s-21 -3.83301 -29 -11.5s-12 -17.5 -12 -29.5s3.83301 -21.833 11.5 -29.5s17.5 -11.5 29.5 -11.5c11.333 0 21 4 29 12z" />
    <glyph glyph-name="Uhungarumlaut" unicode="&#x170;" horiz-adv-x="700" 
d="M205.5 22.5c-42.333 23 -75.502 56 -99.502 99s-36 93.5 -36 151.5v387h135v-397c0 -48 13.5 -85 40.5 -111s61.833 -39 104.5 -39c43.333 0 78.333 13 105 39s40 63 40 111v397h135v-387c0 -58 -12.167 -108.5 -36.5 -151.5s-57.666 -76 -99.999 -99
s-90.166 -34.5 -143.499 -34.5c-54 0 -102.167 11.5 -144.5 34.5zM246.998 910h140v-24l-122 -162h-91zM483.998 910h140v-24l-122 -162h-91z" />
    <glyph glyph-name="uhungarumlaut" unicode="&#x171;" horiz-adv-x="580" 
d="M173.5 16.5c-35 19 -62.3311 45.833 -81.998 80.5s-29.5 75 -29.5 121v277h135v-288c0 -28.667 8.83301 -51.667 26.5 -69s40.167 -26 67.5 -26c26 0 47.833 8.66699 65.5 26s26.5 40.333 26.5 69v288h135v-277c0 -46 -9.83301 -86.333 -29.5 -121
s-46.834 -61.5 -81.501 -80.5s-73.334 -28.5 -116.001 -28.5c-43.333 0 -82.5 9.5 -117.5 28.5zM205.002 780h140v-24l-122 -185h-91zM422.002 780h140v-24l-122 -185h-91z" />
    <glyph glyph-name="Uogonek" unicode="&#x172;" horiz-adv-x="700" 
d="M205.5 22.5c-42.333 23 -75.502 56 -99.502 99s-36 93.5 -36 151.5v387h135v-397c0 -48 13.5 -85 40.5 -111s61.833 -39 104.5 -39c43.333 0 78.333 13 105 39s40 63 40 111v397h135v-387c0 -58 -12.167 -108.5 -36.5 -151.5s-57.666 -76 -99.999 -99
s-90.166 -34.5 -143.499 -34.5c-54 0 -102.167 11.5 -144.5 34.5zM341.998 -165c-22 18 -33 42.334 -33 73.001c0 16.667 3 31.5 9 44.5s17 27.667 33 44s40.333 38.166 73 65.499h122l-82 -83c-9.33301 -9.33301 -16 -17.333 -20 -24s-6 -13.667 -6 -21
c0 -19.333 12 -29 36 -29c5.33301 0 19.333 2 42 6v-88c-28 -10 -56.667 -15 -86 -15c-36.667 0 -66 9 -88 27z" />
    <glyph glyph-name="uogonek" unicode="&#x173;" horiz-adv-x="580" 
d="M518 495l0.00195312 -277.001c0 -34 -4.33301 -62.833 -13 -86.5s-21.334 -45 -38.001 -64s-42.334 -44.5 -77.001 -76.5c-11.333 -10 -19.666 -19 -24.999 -27s-8 -16.667 -8 -26c0 -10.667 3.33301 -19 10 -25s16 -9 28 -9c6.66699 0 20.667 2 42 6v-86
c-32 -10.667 -61.667 -16 -89 -16c-36.667 0 -65.334 8 -86.001 24s-31 39 -31 69c0 32.667 14 62 42 88c-40.667 2 -77 12.833 -109 32.5s-57 46.334 -75 80.001s-27 72.5 -27 116.5v277h135v-288c0 -28.667 8.83301 -51.667 26.5 -69s40.167 -26 67.5 -26
c26 0 47.833 8.66699 65.5 26s26.5 40.333 26.5 69v288h135z" />
    <glyph glyph-name="Wcircumflex" unicode="&#x174;" horiz-adv-x="1035" 
d="M1010 660l-264 -672h-44l-184 414l-185 -414h-44l-264 672h150l147 -390l173 402h45l173 -400l147 388h150zM607 724l-90 80l-90 -80h-102l148 186h89l148 -186h-103z" />
    <glyph glyph-name="wcircumflex" unicode="&#x175;" horiz-adv-x="857" 
d="M845 495l-230 -507h-44l-142 288l-143 -288h-44l-230 507h142l117 -282l135 293h45l137 -287l115 276h142zM508 571l-80 92l-80 -92h-99l135 209h89l134 -209h-99z" />
    <glyph glyph-name="Ycircumflex" unicode="&#x176;" horiz-adv-x="624" 
d="M380 260v-260h-135v259l-228 401h150l146 -262l145 262h149zM400 724l-90 80l-90 -80h-102l148 186h89l148 -186h-103z" />
    <glyph glyph-name="ycircumflex" unicode="&#x177;" horiz-adv-x="559" 
d="M547 495l-237 -538c-22.667 -51.333 -49.667 -89 -81 -113s-70 -36 -116 -36c-28 0 -57 4 -87 12v113c30.667 -2.66699 50 -4 58 -4c24 0 44.333 4.66699 61 14s30.667 27 42 53l15 34l-190 465h143l121 -325l129 325h142zM359 571l-80 92l-80 -92h-99l135 209h89
l134 -209h-99z" />
    <glyph glyph-name="Ydieresis" unicode="&#x178;" horiz-adv-x="624" 
d="M380 260v-260h-135v259l-228 401h150l146 -262l145 262h149zM125.5 760.5c-16.333 15.667 -24.5 33.5 -24.5 53.5c0 22 8 40.5 24 55.5s34.667 22.5 56 22.5c22.667 0 42 -7.5 58 -22.5s24 -33.5 24 -55.5c0 -20.667 -8 -38.667 -24 -54s-35.333 -23 -58 -23
c-20.667 0 -39.167 7.83301 -55.5 23.5zM384 759.5c-16.667 15.667 -24.998 33.5 -24.998 53.5c0 22 8.16699 40.667 24.5 56s35.166 23 56.499 23c22 0 41 -7.66699 57 -23s24 -34 24 -56c0 -20.667 -8 -38.667 -24 -54s-35 -23 -57 -23
c-20.667 0 -39.334 7.83301 -56.001 23.5z" />
    <glyph glyph-name="Zacute" unicode="&#x179;" horiz-adv-x="588" 
d="M560 122v-122h-540v36l331 502h-288v122h496v-36l-331 -502h332zM320 910h162v-24l-137 -162h-98z" />
    <glyph glyph-name="zacute" unicode="&#x17a;" horiz-adv-x="468" 
d="M452 114v-114h-435v36l237 345h-214v114h410v-36l-235 -345h237zM262 780h162v-24l-137 -185h-98z" />
    <glyph glyph-name="Zdotaccent" unicode="&#x17b;" horiz-adv-x="588" 
d="M560 122v-122h-540v36l331 502h-288v122h496v-36l-331 -502h332zM237 755.5c-16.667 16.333 -25 36.166 -25 59.499s8.33301 43.166 25 59.499s37 24.5 61 24.5s44.5 -8.16699 61.5 -24.5s25.5 -36.166 25.5 -59.499s-8.5 -43.166 -25.5 -59.499s-37.5 -24.5 -61.5 -24.5
s-44.333 8.16699 -61 24.5z" />
    <glyph glyph-name="zdotaccent" unicode="&#x17c;" horiz-adv-x="468" 
d="M452 114v-114h-435v36l237 345h-214v114h410v-36l-235 -345h237zM176 616c-16.667 16 -25 35.667 -25 59c0 24 8.33301 44 25 60s37 24 61 24s44.5 -8 61.5 -24s25.5 -36 25.5 -60c0 -23.333 -8.5 -43 -25.5 -59s-37.5 -24 -61.5 -24s-44.333 8 -61 24z" />
    <glyph glyph-name="Zcaron" unicode="&#x17d;" horiz-adv-x="588" 
d="M560 122v-122h-540v36l331 502h-288v122h496v-36l-331 -502h332zM491 910l-148 -186h-89l-148 186h102l90 -80l90 80h103z" />
    <glyph glyph-name="zcaron" unicode="&#x17e;" horiz-adv-x="468" 
d="M452 114v-114h-435v36l237 345h-214v114h410v-36l-235 -345h237zM417 780l-134 -209h-89l-135 209h99l80 -92l80 92h99z" />
    <glyph glyph-name="uni018F" unicode="&#x18f;" horiz-adv-x="733" 
d="M529 627c51.333 -30 91.667 -71.001 121 -123.001s44 -109.667 44 -173s-15.167 -121.166 -45.5 -173.499s-71.5 -93.666 -123.5 -123.999s-109.333 -45.5 -172 -45.5c-58.667 0 -112 12.833 -160 38.5s-85.833 61.5 -113.5 107.5s-41.5 98 -41.5 156
c0 29.333 3 58.333 9 87h506c-8.66699 52 -30.667 93.5 -66 124.5s-79 46.5 -131 46.5c-77.333 0 -141 -34 -191 -102l-91 79c32 45.333 72 81.166 120 107.499s102 39.5 162 39.5c64 0 121.667 -15 173 -45zM481.001 154.999c34.667 28 57.665 65.333 68.998 112h-381
c0.666992 -32.667 9.83398 -60.667 27.501 -84s40.667 -40.833 69 -52.5s58.5 -17.5 90.5 -17.5c48.667 0 90.334 14 125.001 42z" />
    <glyph glyph-name="florin" unicode="&#x192;" horiz-adv-x="451" 
d="M454 661l-0.00195312 -111.999c-21.333 1.33301 -36.666 2 -45.999 2c-28 0 -49.333 -6 -64 -18s-23.334 -31.667 -26.001 -59l-8 -68h91v-115h-106l-29 -239c-7.33301 -62 -27.666 -108.333 -60.999 -139s-78.333 -46 -135 -46c-28 0 -52 3.33301 -72 10l-1 113l45 -2
c28.667 0 50.334 6 65.001 18s23.334 31.333 26.001 58l28 227h-87v115h101l10 80c7.33301 61.333 27.666 107.666 60.999 138.999s78.333 47 135 47c26.667 0 51 -3.66699 73 -11z" />
    <glyph glyph-name="uni01D4" unicode="&#x1d4;" horiz-adv-x="580" 
d="M173.5 16.5c-35 19 -62.3311 45.833 -81.998 80.5s-29.5 75 -29.5 121v277h135v-288c0 -28.667 8.83301 -51.667 26.5 -69s40.167 -26 67.5 -26c26 0 47.833 8.66699 65.5 26s26.5 40.333 26.5 69v288h135v-277c0 -46 -9.83301 -86.333 -29.5 -121
s-46.834 -61.5 -81.501 -80.5s-73.334 -28.5 -116.001 -28.5c-43.333 0 -82.5 9.5 -117.5 28.5zM469.002 780l-134 -209h-89l-135 209h99l80 -92l80 92h99z" />
    <glyph glyph-name="AEacute" unicode="&#x1fc;" horiz-adv-x="852" 
d="M812 122v-122h-355l-15 86h-247l-45 -86h-145l338 660h457v-122h-301l22 -134h198v-115h-179l28 -167h244zM251 197h172l-43 269zM441 910h162v-24l-137 -162h-98z" />
    <glyph glyph-name="aeacute" unicode="&#x1fd;" horiz-adv-x="878" 
d="M830 197l-344.999 0.000976562c8.66699 -30 25.167 -53 49.5 -69s53.833 -24 88.5 -24c48.667 0 94.334 16.667 137.001 50l56 -92c-57.333 -49.333 -122.666 -74 -195.999 -74c-44.667 0 -84.834 8.83301 -120.501 26.5s-64.834 42.167 -87.501 73.5
c-19.333 -32.667 -45.833 -57.5 -79.5 -74.5s-72.167 -25.5 -115.5 -25.5c-58 0 -102.667 14 -134 42s-47 63.667 -47 107c0 46 16.833 82.333 50.5 109s79.167 40 136.5 40h124v16c0 27.333 -7.83301 48.666 -23.5 63.999s-38.167 23 -67.5 23
c-24.667 0 -47.334 -5.66699 -68.001 -17s-42 -28.333 -64 -51l-69 83c57.333 68 129 102 215 102c74 0 128.333 -24.333 163 -73c22 23.333 47.833 41.333 77.5 54s62.167 19 97.5 19c44.667 0 84.667 -10.167 120 -30.5s62.833 -48 82.5 -83s29.5 -73.833 29.5 -116.5
c0 -28.667 -3.33301 -55 -10 -79zM524.001 367.001c-22 -20 -36.333 -47 -43 -81h228c0.666992 34 -9 61 -29 81s-45.667 30 -77 30c-30.667 0 -57 -10 -79 -30zM316.501 115.001c20.333 18 30.501 41 30.501 69v13h-106c-22 0 -39 -4.5 -51 -13.5s-18 -21.833 -18 -38.5
c0 -18 6.33301 -32 19 -42s29.667 -15 51 -15c29.333 0 54.166 9 74.499 27zM456.002 780.001h162v-24l-137 -185h-98z" />
    <glyph glyph-name="Oslashacute" unicode="&#x1fe;" horiz-adv-x="778" 
d="M672 533c22 -28.667 38.8359 -60.167 50.5029 -94.5s17.5 -70.5 17.5 -108.5c0 -63.333 -15.833 -121.166 -47.5 -173.499s-74.334 -93.5 -128.001 -123.5s-112.5 -45 -176.5 -45c-72.667 0 -139.334 19.667 -200.001 59l-76 -76l-81 81l74 74
c-44.667 60.667 -67 128.667 -67 204c0 63.333 15.667 121.166 47 173.499s73.666 93.5 126.999 123.5s112 45 176 45c74 0 141 -20 201 -60l77 77l81 -81zM277.003 524.5c-33.333 -19 -59.333 -45.5 -78 -79.5s-28 -72.333 -28 -115c0 -41.333 8.66699 -78.333 26 -111
l305 304c-34.667 20 -72.334 30 -113.001 30c-41.333 0 -78.666 -9.5 -111.999 -28.5zM500.003 135.5c33.333 19 59.5 45.5 78.5 79.5s28.5 72.333 28.5 115c0 40 -9 77 -27 111l-304 -305c33.333 -19.333 71 -29 113 -29c40.667 0 77.667 9.5 111 28.5zM409.003 910h162
v-24l-137 -162h-98z" />
    <glyph glyph-name="oslashacute" unicode="&#x1ff;" horiz-adv-x="612" 
d="M529 390c28.667 -43.333 43.001 -91 43.001 -143c0 -48 -12 -91.667 -36 -131s-56.333 -70.5 -97 -93.5s-85.334 -34.5 -134.001 -34.5c-50 0 -96.667 12.667 -140 38l-54 -55l-81 81l53 53c-28 41.333 -42 88.666 -42 141.999c0 48 11.833 91.833 35.5 131.5
s55.667 70.834 96 93.501s84.833 34 133.5 34c50 0 96.667 -12.667 140 -38l55 55l81 -80zM206.001 351.5c-26 -27 -39.001 -61.833 -39.001 -104.5c0 -23.333 4 -44 12 -62l191 192c-19.333 10 -40.666 15 -63.999 15c-40.667 0 -74 -13.5 -100 -40.5zM405.5 142.5
c26.333 27 39.5 61.833 39.5 104.5c0 23.333 -4 44 -12 62l-193 -192c19.333 -10 41 -15 65 -15c40.667 0 74.167 13.5 100.5 40.5zM331 780h162v-24l-137 -185h-98z" />
    <glyph glyph-name="uni0218" unicode="&#x218;" horiz-adv-x="559" 
d="M134.5 27.5c-44.333 26.333 -79.166 61.8359 -104.499 106.503l93 70c21.333 -29.333 44.666 -52.666 69.999 -69.999s56 -26 92 -26c29.333 0 52.333 6.5 69 19.5s25 30.833 25 53.5c0 19.333 -6.16699 34.166 -18.5 44.499s-34.166 22.833 -65.499 37.5l-71 32
c-50.667 22.667 -90 49 -118 79s-42 67 -42 111c0 37.333 9.5 70.166 28.5 98.499s45.167 50.166 78.5 65.499s70.666 23 111.999 23c50.667 0 94.5 -11.333 131.5 -34s65.833 -53 86.5 -91l-92 -71c-34 50.667 -76 76 -126 76c-23.333 0 -42.833 -5.5 -58.5 -16.5
s-23.5 -26.833 -23.5 -47.5c0 -17.333 5.83301 -31.166 17.5 -41.499s31.5 -21.833 59.5 -34.5l75 -33c55.333 -24.667 96.333 -51.834 123 -81.501s40 -66.834 40 -111.501c0 -40 -10 -75 -30 -105s-47.5 -53 -82.5 -69s-74.5 -24 -118.5 -24
c-56 0 -106.167 13.167 -150.5 39.5zM223 -45.9971h125l-26 -174h-102z" />
    <glyph glyph-name="uni0219" unicode="&#x219;" horiz-adv-x="455" 
d="M109 13.5c-35.333 17 -64.333 40.4961 -87 70.4961l68 82c43.333 -44.667 89.666 -67 138.999 -67c18 0 33 3.5 45 10.5s18 17.167 18 30.5c0 10.667 -3.83301 18.834 -11.5 24.501s-20.834 12.5 -39.501 20.5l-53 22c-45.333 18.667 -79.166 39.334 -101.499 62.001
s-33.5 52.334 -33.5 89.001c0 46.667 16.833 83 50.5 109s77.5 39 131.5 39c74 0 133.333 -24.667 178 -74l-68 -83c-33.333 31.333 -70.333 47 -111 47c-16.667 0 -29.667 -3 -39 -9s-14 -14.667 -14 -26c0 -9.33301 3.83301 -17 11.5 -23s21.167 -13 40.5 -21l48 -20
c48 -19.333 83.167 -40.166 105.5 -62.499s33.5 -51.833 33.5 -88.5c0 -49.333 -18.167 -88 -54.5 -116s-82.5 -42 -138.5 -42c-43.333 0 -82.666 8.5 -117.999 25.5zM178 -46.0039h125l-26 -174h-102z" />
    <glyph glyph-name="uni021A" unicode="&#x21a;" horiz-adv-x="585" 
d="M225 538h-211v122h558v-122h-212v-538h-135v538zM231 -46h125l-26 -174h-102z" />
    <glyph glyph-name="uni021B" unicode="&#x21b;" horiz-adv-x="416" 
d="M385 113l0.000976562 -113c-32 -8 -63 -12 -93 -12c-62.667 0 -111.334 15.5 -146.001 46.5s-52 77.5 -52 139.5v207h-78v114h78v125h135v-125h140v-114h-140v-195c0 -28 7.33301 -47.833 22 -59.5s38 -17.5 70 -17.5c8 0 29.333 1.33301 64 4zM168.001 -46h125l-26 -174
h-102z" />
    <glyph glyph-name="uni0237" unicode="&#x237;" horiz-adv-x="269" 
d="M-63 -181v113c16 -2 29.667 -3 41 -3c30 0 52.333 6 67 18s22 31.667 22 59v489h135v-501c0 -62 -17 -108.5 -51 -139.5s-80.333 -46.5 -139 -46.5c-26.667 0 -51.667 3.66699 -75 11z" />
    <glyph glyph-name="uni0259" unicode="&#x259;" horiz-adv-x="569" 
d="M400.5 472c41 -22.667 73.001 -53.667 96.001 -93s34.5 -83 34.5 -131s-11.333 -91.833 -34 -131.5s-53.5 -71 -92.5 -94s-82.5 -34.5 -130.5 -34.5c-46 0 -86.833 10.167 -122.5 30.5s-63.334 48.166 -83.001 83.499s-29.5 74.333 -29.5 117c0 28.667 3 53.334 9 74.001
h347c-8 31.333 -23.833 55.333 -47.5 72s-53.5 25 -89.5 25c-50.667 0 -97.667 -16.333 -141 -49l-56 92c58 48.667 125 73 201 73c51.333 0 97.5 -11.333 138.5 -34zM353.501 124.5c21 17.667 35.166 42.167 42.499 73.5h-227c1.33301 -30.667 12.333 -55 33 -73
s46.334 -27 77.001 -27c28.667 0 53.5 8.83301 74.5 26.5z" />
    <glyph glyph-name="circumflex" unicode="&#x2c6;" horiz-adv-x="600" 
d="M380 571l-80 92l-80 -92h-99l135 209h89l134 -209h-99z" />
    <glyph glyph-name="caron" unicode="&#x2c7;" horiz-adv-x="600" 
d="M479 780l-134 -209h-89l-135 209h99l80 -92l80 92h99z" />
    <glyph glyph-name="breve" unicode="&#x2d8;" horiz-adv-x="600" 
d="M210.5 593c-26.333 14.667 -46.834 35.332 -61.501 61.999s-22 56.667 -22 90v28h106v-27c0 -23.333 6 -41.666 18 -54.999s28.333 -20 49 -20s37 6.66699 49 20s18 31.666 18 54.999v27h105v-28c0 -51.333 -16 -93.166 -48 -125.499s-73.333 -48.5 -124 -48.5
c-33.333 0 -63.166 7.33301 -89.499 22z" />
    <glyph glyph-name="dotaccent" unicode="&#x2d9;" horiz-adv-x="600" 
d="M238 616c-16.667 16 -25 35.667 -25 59c0 24 8.33301 44 25 60s37 24 61 24s44.5 -8 61.5 -24s25.5 -36 25.5 -60c0 -23.333 -8.5 -43 -25.5 -59s-37.5 -24 -61.5 -24s-44.333 8 -61 24z" />
    <glyph glyph-name="ring" unicode="&#x2da;" horiz-adv-x="600" 
d="M209 583c-24 23.333 -36 52.666 -36 87.999c0 34.667 12 63.667 36 87s54 35 90 35c36.667 0 67 -11.5 91 -34.5s36 -52.167 36 -87.5s-12 -64.666 -36 -87.999s-54.333 -35 -91 -35c-36 0 -66 11.667 -90 35zM329 642c8 8 12 17.667 12 29c0 12 -4 21.833 -12 29.5
s-17.667 11.5 -29 11.5s-21 -3.83301 -29 -11.5s-12 -17.5 -12 -29.5s3.83301 -21.833 11.5 -29.5s17.5 -11.5 29.5 -11.5c11.333 0 21 4 29 12z" />
    <glyph glyph-name="ogonek" unicode="&#x2db;" horiz-adv-x="600" 
d="M228.5 -164c-21.667 18.667 -32.5 42.666 -32.5 71.999s12 55.333 36 78s62.667 45.334 116 68.001l55 -54l-40 -25c-13.333 -8 -23 -14.833 -29 -20.5s-9 -12.5 -9 -20.5c0 -9.33301 3 -16.5 9 -21.5s15 -7.5 27 -7.5c6.66699 0 20.667 2 42 6v-88
c-30 -10 -58.667 -15 -86 -15c-37.333 0 -66.833 9.33301 -88.5 28z" />
    <glyph glyph-name="tilde" unicode="&#x2dc;" horiz-adv-x="600" 
d="M308 601l-28.001 17.001c-2.66699 2 -6.66699 4.83301 -12 8.5s-10.166 6.33398 -14.499 8.00098s-8.83301 2.5 -13.5 2.5c-18.667 0 -28 -11.667 -28 -35v-12h-103c-1.33301 7.33301 -2 18.333 -2 33c0 41.333 10.833 74.333 32.5 99s48.5 37 80.5 37
c24.667 0 48.667 -7.33301 72 -22l28 -18c8.66699 -6.66699 15.834 -11.334 21.501 -14.001s11.834 -4 18.501 -4c18.667 0 28 11.667 28 35v12h102c2 -12 3 -23.333 3 -34c0 -40.667 -10.833 -73.334 -32.5 -98.001s-48.834 -37 -81.501 -37
c-24.667 0 -48.334 7.33301 -71.001 22z" />
    <glyph glyph-name="hungarumlaut" unicode="&#x2dd;" horiz-adv-x="600" 
d="M158 780h140v-24l-122 -185h-91zM375 780h140v-24l-122 -185h-91z" />
    <glyph glyph-name="gravecomb" unicode="&#x300;" horiz-adv-x="0" 
d="M-368 756v24h162l73 -209h-98z" />
    <glyph glyph-name="acutecomb" unicode="&#x301;" horiz-adv-x="0" 
d="M-295 780h162v-24l-137 -185h-98z" />
    <glyph glyph-name="uni0302" unicode="&#x302;" horiz-adv-x="0" 
d="M-170 571l-80 92l-80 -92h-99l135 209h89l134 -209h-99z" />
    <glyph glyph-name="tildecomb" unicode="&#x303;" horiz-adv-x="0" 
d="M-242 601l-28.001 17.001c-2.66699 2 -6.66699 4.83301 -12 8.5s-10.166 6.33398 -14.499 8.00098s-8.83301 2.5 -13.5 2.5c-18.667 0 -28 -11.667 -28 -35v-12h-103c-1.33301 7.33301 -2 18.333 -2 33c0 41.333 10.833 74.333 32.5 99s48.5 37 80.5 37
c24.667 0 48.667 -7.33301 72 -22l28 -18c8.66699 -6.66699 15.834 -11.334 21.501 -14.001s11.834 -4 18.501 -4c18.667 0 28 11.667 28 35v12h102c2 -12 3 -23.333 3 -34c0 -40.667 -10.833 -73.334 -32.5 -98.001s-48.834 -37 -81.501 -37
c-24.667 0 -48.334 7.33301 -71.001 22z" />
    <glyph glyph-name="uni0304" unicode="&#x304;" horiz-adv-x="0" 
d="M-401 728h302v-106h-302v106z" />
    <glyph glyph-name="uni0306" unicode="&#x306;" horiz-adv-x="0" 
d="M-339.5 593c-26.333 14.667 -46.834 35.332 -61.501 61.999s-22 56.667 -22 90v28h106v-27c0 -23.333 6 -41.666 18 -54.999s28.333 -20 49 -20s37 6.66699 49 20s18 31.666 18 54.999v27h105v-28c0 -51.333 -16 -93.166 -48 -125.499s-73.333 -48.5 -124 -48.5
c-33.333 0 -63.166 7.33301 -89.499 22z" />
    <glyph glyph-name="uni0307" unicode="&#x307;" horiz-adv-x="0" 
d="M-312 616c-16.667 16 -25 35.667 -25 59c0 24 8.33301 44 25 60s37 24 61 24s44.5 -8 61.5 -24s25.5 -36 25.5 -60c0 -23.333 -8.5 -43 -25.5 -59s-37.5 -24 -61.5 -24s-44.333 8 -61 24z" />
    <glyph glyph-name="uni0308" unicode="&#x308;" horiz-adv-x="0" 
d="M-426 621c-16 15.333 -24 33.666 -24 54.999s8 39.666 24 54.999s35.333 23 58 23c21.333 0 40 -7.66699 56 -23s24 -33.666 24 -54.999s-8 -39.666 -24 -54.999s-34.667 -23 -56 -23c-22.667 0 -42 7.66699 -58 23zM-188 621c-16 15.333 -24 33.666 -24 54.999
s8 39.666 24 54.999s35.333 23 58 23c21.333 0 40 -7.66699 56 -23s24 -33.666 24 -54.999s-8 -39.666 -24 -54.999s-34.667 -23 -56 -23c-22.667 0 -42 7.66699 -58 23z" />
    <glyph glyph-name="uni030A" unicode="&#x30a;" horiz-adv-x="0" 
d="M-341 583c-24 23.333 -36 52.666 -36 87.999c0 34.667 12 63.667 36 87s54 35 90 35c36.667 0 67 -11.5 91 -34.5s36 -52.167 36 -87.5s-12 -64.666 -36 -87.999s-54.333 -35 -91 -35c-36 0 -66 11.667 -90 35zM-221 642c8 8 12 17.667 12 29c0 12 -4 21.833 -12 29.5
s-17.667 11.5 -29 11.5s-21 -3.83301 -29 -11.5s-12 -17.5 -12 -29.5s3.83301 -21.833 11.5 -29.5s17.5 -11.5 29.5 -11.5c11.333 0 21 4 29 12z" />
    <glyph glyph-name="uni030B" unicode="&#x30b;" horiz-adv-x="0" 
d="M-392 780h140v-24l-122 -185h-91zM-175 780h140v-24l-122 -185h-91z" />
    <glyph glyph-name="uni030C" unicode="&#x30c;" horiz-adv-x="0" 
d="M-71 780l-134 -209h-89l-135 209h99l80 -92l80 92h99z" />
    <glyph glyph-name="uni0326" unicode="&#x326;" horiz-adv-x="0" 
d="M-311 -46h125l-26 -174h-102z" />
    <glyph glyph-name="uni0327" unicode="&#x327;" horiz-adv-x="0" 
d="M-365 -182v89c17.333 -1.33301 37.333 -2 60 -2c19.333 0 34.5 4.83301 45.5 14.5s16.5 23.834 16.5 42.501c0 17.333 -4.33301 36.666 -13 57.999l53 24c21.333 -12 37.833 -27.167 49.5 -45.5s17.5 -39.5 17.5 -63.5c0 -36.667 -13.833 -67 -41.5 -91
s-65.5 -36 -113.5 -36c-26 0 -50.667 3.33301 -74 10z" />
    <glyph glyph-name="uni0328" unicode="&#x328;" horiz-adv-x="0" 
d="M-321.5 -164c-21.667 18.667 -32.5 42.666 -32.5 71.999s12 55.333 36 78s62.667 45.334 116 68.001l55 -54l-40 -25c-13.333 -8 -23 -14.833 -29 -20.5s-9 -12.5 -9 -20.5c0 -9.33301 3 -16.5 9 -21.5s15 -7.5 27 -7.5c6.66699 0 20.667 2 42 6v-88
c-30 -10 -58.667 -15 -86 -15c-37.333 0 -66.833 9.33301 -88.5 28z" />
    <glyph glyph-name="tonos" unicode="&#x384;" horiz-adv-x="500" 
d="M188 780h160v-24l-97 -185h-99z" />
    <glyph glyph-name="dieresistonos" unicode="&#x385;" horiz-adv-x="500" 
d="M201 780h154v-24l-101 -185h-93zM4.5 621.5c-16.333 15.667 -24.5 33.5 -24.5 53.5c0 22 8.16699 40.667 24.5 56s34.5 23 54.5 23c22 0 40.833 -7.66699 56.5 -23s23.5 -34 23.5 -56c0 -20.667 -7.83301 -38.667 -23.5 -54s-34.5 -23 -56.5 -23
c-20 0 -38.167 7.83301 -54.5 23.5zM385 621.5c-16.667 15.667 -25 33.5 -25 53.5c0 22 8.16699 40.667 24.5 56s34.833 23 55.5 23c22 0 40.833 -7.66699 56.5 -23s23.5 -34 23.5 -56c0 -20.667 -8 -38.667 -24 -54s-34.667 -23 -56 -23c-20 0 -38.333 7.83301 -55 23.5z
" />
    <glyph glyph-name="Alphatonos" unicode="&#x386;" horiz-adv-x="661" 
d="M465 86h-270l-37 -86h-145l295 672h45l294 -672h-145zM330 420l-88 -223h176zM-3 660h139l-49 -206h-95z" />
    <glyph glyph-name="anoteleia" unicode="&#x387;" horiz-adv-x="280" 
d="M74 253.5c-18 17.667 -27 39.834 -27 66.501c0 26 9 48 27 66s40.333 27 67 27c26 0 47.833 -9 65.5 -27s26.5 -40 26.5 -66c0 -26.667 -8.66699 -48.834 -26 -66.501s-39.333 -26.5 -66 -26.5s-49 8.83301 -67 26.5z" />
    <glyph glyph-name="Epsilontonos" unicode="&#x388;" horiz-adv-x="573" 
d="M76 660h444v-122h-309v-134h227v-115h-227v-167h321v-122h-456v660zM-139 660h139l-49 -206h-95z" />
    <glyph glyph-name="Etatonos" unicode="&#x389;" horiz-adv-x="713" 
d="M76 660h135v-253h292v253h135v-660h-135v285h-292v-285h-135v660zM-139 660h139l-49 -206h-95z" />
    <glyph glyph-name="Iotatonos" unicode="&#x38a;" horiz-adv-x="286" 
d="M76 660h135v-660h-135v660zM-139 660h139l-49 -206h-95z" />
    <glyph glyph-name="Omicrontonos" unicode="&#x38c;" horiz-adv-x="778" 
d="M212 33c-53.333 30 -95.666 71.167 -126.999 123.5s-47 110.166 -47 173.499s15.667 121.166 47 173.499s73.666 93.5 126.999 123.5s112 45 176 45s122.833 -15 176.5 -45s96.334 -71.167 128.001 -123.5s47.5 -110.166 47.5 -173.499s-15.833 -121.166 -47.5 -173.499
s-74.334 -93.5 -128.001 -123.5s-112.5 -45 -176.5 -45s-122.667 15 -176 45zM497.5 140.5c32.333 18.333 57.666 44 75.999 77s27.5 70.5 27.5 112.5c0 41.333 -9.16699 78.5 -27.5 111.5s-43.666 58.833 -75.999 77.5s-68.5 28 -108.5 28
c-40.667 0 -77 -9.16699 -109 -27.5s-57.167 -44 -75.5 -77s-27.5 -70.5 -27.5 -112.5s9.16699 -79.5 27.5 -112.5s43.5 -58.667 75.5 -77s68.333 -27.5 109 -27.5c40 0 76.167 9.16699 108.5 27.5zM-101 660h139l-49 -206h-95z" />
    <glyph glyph-name="Upsilontonos" unicode="&#x38e;" horiz-adv-x="624" 
d="M380 260v-260h-135v259l-228 401h150l146 -262l145 262h149zM-160 660h139l-49 -206h-95z" />
    <glyph glyph-name="Omegatonos" unicode="&#x38f;" horiz-adv-x="788" 
d="M716 224c-19.333 -36.667 -48.668 -70.668 -88.001 -102.001h107v-122h-284v122c50.667 24 89.167 54.5 115.5 91.5s39.5 79.167 39.5 126.5c0 40 -9.16699 75.667 -27.5 107s-43.666 55.833 -75.999 73.5s-68.833 26.5 -109.5 26.5c-41.333 0 -78 -8.66699 -110 -26
s-56.833 -41.5 -74.5 -72.5s-26.5 -66.5 -26.5 -106.5c0 -48 13.167 -90.667 39.5 -128s64.833 -68 115.5 -92v-122h-284v122h101c-74 60 -111 135 -111 225c0 60 15.5 114.833 46.5 164.5s73.333 88.834 127 117.501s112.5 43 176.5 43s123 -14.5 177 -43.5
s96.667 -68.333 128 -118s47 -104.167 47 -163.5c0 -45.333 -9.66699 -86.333 -29 -123zM-77.002 659.999h139l-49 -206h-95z" />
    <glyph glyph-name="iotadieresistonos" unicode="&#x390;" horiz-adv-x="324" 
d="M65 166v329h134v-309c0 -27.333 5.16699 -47 15.5 -59s26.833 -18 49.5 -18c7.33301 0 23.666 1.33301 48.999 4v-113c-25.333 -8 -52.666 -12 -81.999 -12c-110.667 0 -166 59.333 -166 178zM98 780h154v-24l-101 -185h-93zM-98.5 621.5
c-16.333 15.667 -24.5 33.5 -24.5 53.5c0 22 8.16699 40.667 24.5 56s34.5 23 54.5 23c22 0 40.833 -7.66699 56.5 -23s23.5 -34 23.5 -56c0 -20.667 -7.83301 -38.667 -23.5 -54s-34.5 -23 -56.5 -23c-20 0 -38.167 7.83301 -54.5 23.5zM282 621.5
c-16.667 15.667 -25 33.5 -25 53.5c0 22 8.16699 40.667 24.5 56s34.833 23 55.5 23c22 0 40.833 -7.66699 56.5 -23s23.5 -34 23.5 -56c0 -20.667 -8 -38.667 -24 -54s-34.667 -23 -56 -23c-20 0 -38.333 7.83301 -55 23.5z" />
    <glyph glyph-name="Alpha" unicode="&#x391;" horiz-adv-x="661" 
d="M465 86h-270l-37 -86h-145l295 672h45l294 -672h-145zM330 420l-88 -223h176z" />
    <glyph glyph-name="Beta" unicode="&#x392;" horiz-adv-x="621" 
d="M556 295.5c20.667 -27.667 30.999 -61.499 30.999 -101.499c0 -37.333 -9.16699 -70.833 -27.5 -100.5s-44 -52.667 -77 -69s-70.5 -24.5 -112.5 -24.5h-294v660h234c40 0 76 -7.83301 108 -23.5s56.833 -37.334 74.5 -65.001s26.5 -59.5 26.5 -95.5
c0 -48 -16.333 -87.667 -49 -119c36.667 -13.333 65.334 -33.833 86.001 -61.5zM205.999 544.001v-150.999h93c27.333 0 48.5 6.83301 63.5 20.5s22.5 32.167 22.5 55.5s-7.5 41.666 -22.5 54.999s-36.167 20 -63.5 20h-93zM428.999 138.002c16.667 14.667 25 35 25 61
c0 25.333 -8.33301 45.5 -25 60.5s-39.667 22.5 -69 22.5h-154v-166h154c29.333 0 52.333 7.33301 69 22z" />
    <glyph glyph-name="Gamma" unicode="&#x393;" horiz-adv-x="524" 
d="M76 660h424v-122h-289v-538h-135v660z" />
    <glyph glyph-name="uni0394" unicode="&#x394;" horiz-adv-x="661" 
d="M631 36v-36h-602v36l279 636h45zM331 401l-120 -279h239z" />
    <glyph glyph-name="Epsilon" unicode="&#x395;" horiz-adv-x="573" 
d="M76 660h444v-122h-309v-134h227v-115h-227v-167h321v-122h-456v660z" />
    <glyph glyph-name="Zeta" unicode="&#x396;" horiz-adv-x="588" 
d="M560 122v-122h-540v36l331 502h-288v122h496v-36l-331 -502h332z" />
    <glyph glyph-name="Eta" unicode="&#x397;" horiz-adv-x="713" 
d="M76 660h135v-253h292v253h135v-660h-135v285h-292v-285h-135v660z" />
    <glyph glyph-name="Theta" unicode="&#x398;" horiz-adv-x="778" 
d="M212 33c-53.333 30 -95.666 71.167 -126.999 123.5s-47 110.166 -47 173.499s15.667 121.166 47 173.499s73.666 93.5 126.999 123.5s112 45 176 45s122.833 -15 176.5 -45s96.334 -71.167 128.001 -123.5s47.5 -110.166 47.5 -173.499s-15.833 -121.166 -47.5 -173.499
s-74.334 -93.5 -128.001 -123.5s-112.5 -45 -176.5 -45s-122.667 15 -176 45zM500.5 133.5c33.667 19 60.168 45.6689 79.501 80.002s29 72.833 29 115.5c0 43.333 -9.5 82.166 -28.5 116.499s-45.333 61.166 -79 80.499s-71.5 29 -113.5 29s-79.667 -9.66699 -113 -29
s-59.333 -46 -78 -80s-28 -73 -28 -117c0 -43.333 9.5 -82 28.5 -116s45.167 -60.5 78.5 -79.5s70.666 -28.5 111.999 -28.5s78.833 9.5 112.5 28.5zM248.001 384.002h282v-111h-282v111z" />
    <glyph glyph-name="Iota" unicode="&#x399;" horiz-adv-x="286" 
d="M76 660h135v-660h-135v660z" />
    <glyph glyph-name="Kappa" unicode="&#x39a;" horiz-adv-x="670" 
d="M494 0l-283 344v-344h-135v660h135v-306l252 306h161l-253 -311l286 -349h-163z" />
    <glyph glyph-name="Lambda" unicode="&#x39b;" horiz-adv-x="661" 
d="M502 0l-172 401l-172 -401h-145l295 672h45l294 -672h-145z" />
    <glyph glyph-name="Mu" unicode="&#x39c;" horiz-adv-x="798" 
d="M722 672v-672h-135v352l-166 -208h-44l-166 208v-352h-135v672h44l279 -357l279 357h44z" />
    <glyph glyph-name="Nu" unicode="&#x39d;" horiz-adv-x="713" 
d="M638 660v-672h-45l-382 408v-396h-135v672h44l383 -406v394h135z" />
    <glyph glyph-name="Xi" unicode="&#x39e;" horiz-adv-x="630" 
d="M41 660h549v-122h-549v122zM111 388h409v-122h-409v122zM41 122h549v-122h-549v122z" />
    <glyph glyph-name="Omicron" unicode="&#x39f;" horiz-adv-x="778" 
d="M212 33c-53.333 30 -95.666 71.167 -126.999 123.5s-47 110.166 -47 173.499s15.667 121.166 47 173.499s73.666 93.5 126.999 123.5s112 45 176 45s122.833 -15 176.5 -45s96.334 -71.167 128.001 -123.5s47.5 -110.166 47.5 -173.499s-15.833 -121.166 -47.5 -173.499
s-74.334 -93.5 -128.001 -123.5s-112.5 -45 -176.5 -45s-122.667 15 -176 45zM497.5 140.5c32.333 18.333 57.666 44 75.999 77s27.5 70.5 27.5 112.5c0 41.333 -9.16699 78.5 -27.5 111.5s-43.666 58.833 -75.999 77.5s-68.5 28 -108.5 28
c-40.667 0 -77 -9.16699 -109 -27.5s-57.167 -44 -75.5 -77s-27.5 -70.5 -27.5 -112.5s9.16699 -79.5 27.5 -112.5s43.5 -58.667 75.5 -77s68.333 -27.5 109 -27.5c40 0 76.167 9.16699 108.5 27.5z" />
    <glyph glyph-name="Pi" unicode="&#x3a0;" horiz-adv-x="691" 
d="M76 660h539v-660h-135v538h-269v-538h-135v660z" />
    <glyph glyph-name="Rho" unicode="&#x3a1;" horiz-adv-x="594" 
d="M76 660h248c46 0 87 -8.83301 123 -26.5s64.167 -42.667 84.5 -75s30.5 -69.5 30.5 -111.5s-10.167 -79.167 -30.5 -111.5s-48.5 -57.5 -84.5 -75.5s-77 -27 -123 -27h-113v-233h-135v660zM324 351c31.333 0 55.833 8.83203 73.5 26.499s26.5 40.834 26.5 69.501
c0 28 -9 50.667 -27 68s-42.333 26 -73 26h-113v-190h113z" />
    <glyph glyph-name="Sigma" unicode="&#x3a3;" horiz-adv-x="570" 
d="M529 122v-122h-494v36l210 302l-210 286v36h482v-122h-273l141 -190v-19l-146 -207h290z" />
    <glyph glyph-name="Tau" unicode="&#x3a4;" horiz-adv-x="585" 
d="M225 538h-211v122h558v-122h-212v-538h-135v538z" />
    <glyph glyph-name="Upsilon" unicode="&#x3a5;" horiz-adv-x="624" 
d="M380 260v-260h-135v259l-228 401h150l146 -262l145 262h149z" />
    <glyph glyph-name="Phi" unicode="&#x3a6;" horiz-adv-x="838" 
d="M758.5 173c-27 -46.667 -64.167 -83.8311 -111.5 -111.498s-101 -42.834 -161 -45.501v-59h-135v60c-60 2.66699 -113.667 17.667 -161 45s-84.5 64.5 -111.5 111.5s-40.5 99.833 -40.5 158.5c0 58 13.5 110 40.5 156s64.333 82.5 112 109.5s101.167 41.833 160.5 44.5
v60h135v-59c60 -2.66699 113.667 -17.334 161 -44.001s84.5 -63.167 111.5 -109.5s40.5 -98.833 40.5 -157.5c0 -59.333 -13.5 -112.333 -40.5 -159zM221.5 191.503c33.667 -35.667 76.833 -55.167 129.5 -58.5v394c-34 -2 -64.667 -11.833 -92 -29.5
s-48.833 -41.167 -64.5 -70.5s-23.5 -62.333 -23.5 -99c0 -55.333 16.833 -100.833 50.5 -136.5zM615.999 191.503c34 35.667 51.001 81.167 51.001 136.5c0 36.667 -7.83301 69.667 -23.5 99s-37.334 52.833 -65.001 70.5s-58.5 27.5 -92.5 29.5v-394
c52.667 3.33301 96 22.833 130 58.5z" />
    <glyph glyph-name="Chi" unicode="&#x3a7;" horiz-adv-x="614" 
d="M447 0l-140 219l-140 -219h-154l219 336l-206 324h154l127 -208l126 208h153l-203 -324l217 -336h-153z" />
    <glyph glyph-name="Psi" unicode="&#x3a8;" horiz-adv-x="807" 
d="M336 145c-85.333 4.66699 -152.167 31.666 -200.5 80.999s-72.5 117 -72.5 203v231h135v-223c0 -50.667 12.5 -91.167 37.5 -121.5s58.5 -46.166 100.5 -47.499v392h135v-392c42 1.33301 75.667 17.333 101 48s38 71 38 121v223h135v-231
c0 -86 -24.333 -153.667 -73 -203s-115.667 -76.333 -201 -81v-145h-135v145z" />
    <glyph glyph-name="uni03A9" unicode="&#x3a9;" horiz-adv-x="788" 
d="M716 224c-19.333 -36.667 -48.668 -70.668 -88.001 -102.001h107v-122h-284v122c50.667 24 89.167 54.5 115.5 91.5s39.5 79.167 39.5 126.5c0 40 -9.16699 75.667 -27.5 107s-43.666 55.833 -75.999 73.5s-68.833 26.5 -109.5 26.5c-41.333 0 -78 -8.66699 -110 -26
s-56.833 -41.5 -74.5 -72.5s-26.5 -66.5 -26.5 -106.5c0 -48 13.167 -90.667 39.5 -128s64.833 -68 115.5 -92v-122h-284v122h101c-74 60 -111 135 -111 225c0 60 15.5 114.833 46.5 164.5s73.333 88.834 127 117.501s112.5 43 176.5 43s123 -14.5 177 -43.5
s96.667 -68.333 128 -118s47 -104.167 47 -163.5c0 -45.333 -9.66699 -86.333 -29 -123z" />
    <glyph glyph-name="Iotadieresis" unicode="&#x3aa;" horiz-adv-x="286" 
d="M76 660h135v-660h-135v660zM-41.5 760.5c-16.333 15.667 -24.5 33.5 -24.5 53.5c0 22 8 40.5 24 55.5s34.667 22.5 56 22.5c22.667 0 42 -7.5 58 -22.5s24 -33.5 24 -55.5c0 -20.667 -8 -38.667 -24 -54s-35.333 -23 -58 -23c-20.667 0 -39.167 7.83301 -55.5 23.5z
M217 759.5c-16.667 15.667 -24.998 33.5 -24.998 53.5c0 22 8.16699 40.667 24.5 56s35.166 23 56.499 23c22 0 41 -7.66699 57 -23s24 -34 24 -56c0 -20.667 -8 -38.667 -24 -54s-35 -23 -57 -23c-20.667 0 -39.334 7.83301 -56.001 23.5z" />
    <glyph glyph-name="Upsilondieresis" unicode="&#x3ab;" horiz-adv-x="624" 
d="M380 260v-260h-135v259l-228 401h150l146 -262l145 262h149zM126.5 760.5c-16.333 15.667 -24.5 33.5 -24.5 53.5c0 22 8 40.5 24 55.5s34.667 22.5 56 22.5c22.667 0 42 -7.5 58 -22.5s24 -33.5 24 -55.5c0 -20.667 -8 -38.667 -24 -54s-35.333 -23 -58 -23
c-20.667 0 -39.167 7.83301 -55.5 23.5zM385 759.5c-16.667 15.667 -24.998 33.5 -24.998 53.5c0 22 8.16699 40.667 24.5 56s35.166 23 56.499 23c22 0 41 -7.66699 57 -23s24 -34 24 -56c0 -20.667 -8 -38.667 -24 -54s-35 -23 -57 -23
c-20.667 0 -39.334 7.83301 -56.001 23.5z" />
    <glyph glyph-name="alphatonos" unicode="&#x3ac;" horiz-adv-x="644" 
d="M627 112l0.000976562 -111.998c-22 -6.66699 -46.667 -10 -74 -10c-60.667 0 -100 25.667 -118 77c-16.667 -25.333 -39 -44.833 -67 -58.5s-59.333 -20.5 -94 -20.5c-44.667 0 -85 11.167 -121 33.5s-64 53.166 -84 92.499s-30 83.666 -30 132.999
c0 48.667 10 92.667 30 132s48 70.333 84 93s76.333 34 121 34c36 0 68 -7 96 -21s50 -33.667 66 -59c1.33301 32.667 2.66602 55.667 3.99902 69h124c-6.66699 -100 -10 -177.333 -10 -232v-91c0 -20.667 3.5 -36 10.5 -46s18.167 -15 33.5 -15zM385.001 146.002
c24 23.333 36 57 36 101c0 43.333 -12 77 -36 101s-53 36 -87 36c-34.667 0 -63.667 -12.5 -87 -37.5s-35 -57.833 -35 -98.5c0 -41.333 11.667 -74.5 35 -99.5s52.333 -37.5 87 -37.5c34 0 63 11.667 87 35zM264.001 780.002h160v-24l-97 -185h-99z" />
    <glyph glyph-name="epsilontonos" unicode="&#x3ad;" horiz-adv-x="513" 
d="M480 81c-48.667 -62 -122.002 -92.999 -220.002 -92.999c-69.333 0 -123.166 12.833 -161.499 38.5s-57.5 61.5 -57.5 107.5c0 26 7.66699 49.167 23 69.5s36.666 36.166 63.999 47.499c-22 12.667 -38.667 28.167 -50 46.5s-17 39.166 -17 62.499
c0 45.333 18.333 81 55 107s87 39 151 39c46 0 86.833 -7.33301 122.5 -22s64.834 -35.667 87.501 -63l-76 -81c-30 33.333 -74 50 -132 50c-50.667 0 -76 -15.667 -76 -47c0 -14 5 -24.833 15 -32.5s25 -11.5 45 -11.5h90v-100h-95c-26 0 -45 -3.66699 -57 -11
s-18 -18.666 -18 -33.999c0 -17.333 6.83301 -30 20.5 -38s35.834 -12 66.501 -12c62 0 110 19 144 57zM232.998 780.001h160v-24l-97 -185h-99z" />
    <glyph glyph-name="etatonos" unicode="&#x3ae;" horiz-adv-x="608" 
d="M493 452c34.667 -36 51.998 -84.333 51.998 -145v-487h-134v468c0 28.667 -8.5 51.834 -25.5 69.501s-39.167 26.5 -66.5 26.5s-50 -8.83301 -68 -26.5s-27 -40.834 -27 -69.501v-288h-134v323c0 40.667 -15 61 -45 61l-28 -1v112c22 6.66699 46.667 10 74 10
c26.667 0 49 -4.5 67 -13.5s32.333 -23.5 43 -43.5c18.667 18 41.334 32.167 68.001 42.5s55.334 15.5 86.001 15.5c57.333 0 103.333 -18 138 -54zM285.998 780h160v-24l-97 -185h-99z" />
    <glyph glyph-name="iotatonos" unicode="&#x3af;" horiz-adv-x="324" 
d="M65 166v329h134v-309c0 -27.333 5.16699 -47 15.5 -59s26.833 -18 49.5 -18c7.33301 0 23.666 1.33301 48.999 4v-113c-25.333 -8 -52.666 -12 -81.999 -12c-110.667 0 -166 59.333 -166 178zM100 780h160v-24l-97 -185h-99z" />
    <glyph glyph-name="upsilondieresistonos" unicode="&#x3b0;" horiz-adv-x="588" 
d="M172.5 17c-35 19.333 -62.167 46.5 -81.5 81.5s-29 75.5 -29 121.5v275h135v-287c0 -28.667 9 -52.167 27 -70.5s41.333 -27.5 70 -27.5s52 9 70 27s27 41.667 27 71v287h135v-275c0 -46 -9.66699 -86.5 -29 -121.5s-46.5 -62.167 -81.5 -81.5s-75.5 -29 -121.5 -29
s-86.5 9.66699 -121.5 29zM257 780h154v-24l-101 -185h-93zM60.5 621.5c-16.333 15.667 -24.5 33.5 -24.5 53.5c0 22 8.16699 40.667 24.5 56s34.5 23 54.5 23c22 0 40.833 -7.66699 56.5 -23s23.5 -34 23.5 -56c0 -20.667 -7.83301 -38.667 -23.5 -54s-34.5 -23 -56.5 -23
c-20 0 -38.167 7.83301 -54.5 23.5zM441 621.5c-16.667 15.667 -25 33.5 -25 53.5c0 22 8.16699 40.667 24.5 56s34.833 23 55.5 23c22 0 40.833 -7.66699 56.5 -23s23.5 -34 23.5 -56c0 -20.667 -8 -38.667 -24 -54s-34.667 -23 -56 -23c-20 0 -38.333 7.83301 -55 23.5z
" />
    <glyph glyph-name="alpha" unicode="&#x3b1;" horiz-adv-x="644" 
d="M627 112l0.000976562 -111.998c-22 -6.66699 -46.667 -10 -74 -10c-60.667 0 -100 25.667 -118 77c-16.667 -25.333 -39 -44.833 -67 -58.5s-59.333 -20.5 -94 -20.5c-44.667 0 -85 11.167 -121 33.5s-64 53.166 -84 92.499s-30 83.666 -30 132.999
c0 48.667 10 92.667 30 132s48 70.333 84 93s76.333 34 121 34c36 0 68 -7 96 -21s50 -33.667 66 -59c1.33301 32.667 2.66602 55.667 3.99902 69h124c-6.66699 -100 -10 -177.333 -10 -232v-91c0 -20.667 3.5 -36 10.5 -46s18.167 -15 33.5 -15zM385.001 146.002
c24 23.333 36 57 36 101c0 43.333 -12 77 -36 101s-53 36 -87 36c-34.667 0 -63.667 -12.5 -87 -37.5s-35 -57.833 -35 -98.5c0 -41.333 11.667 -74.5 35 -99.5s52.333 -37.5 87 -37.5c34 0 63 11.667 87 35z" />
    <glyph glyph-name="beta" unicode="&#x3b2;" horiz-adv-x="621" 
d="M548.5 346c22.333 -34.667 33.502 -75.333 33.502 -122c0 -44.667 -10.333 -85 -31 -121s-49.167 -64.167 -85.5 -84.5s-77.5 -30.5 -123.5 -30.5c-52.667 0 -99.334 15.333 -140.001 46v-214h-135v711c0 44.667 10.167 84.5 30.5 119.5s48.666 62.333 84.999 82
s77.5 29.5 123.5 29.5c42.667 0 81 -8.16699 115 -24.5s60.667 -39.166 80 -68.499s29 -62.333 29 -99c0 -32 -6.5 -60.5 -19.5 -85.5s-31.5 -45.5 -55.5 -61.5c40 -16.667 71.167 -42.334 93.5 -77.001zM412.502 143.501c22.333 21 33.5 49.166 33.5 84.499
c0 36.667 -11 65.834 -33 87.501s-51.667 32.5 -89 32.5h-60v114h37c26.667 0 48 8 64 24s24 37.667 24 65c0 26 -8 47.167 -24 63.5s-37.333 24.5 -64 24.5c-30 0 -54 -10 -72 -30s-27 -46.667 -27 -80v-370c37.333 -31.333 78 -47 122 -47c36.667 0 66.167 10.5 88.5 31.5
z" />
    <glyph glyph-name="gamma" unicode="&#x3b3;" horiz-adv-x="561" 
d="M348 -9v-171h-134v168l-202 507h142l126 -352l126 352h143z" />
    <glyph glyph-name="delta" unicode="&#x3b4;" horiz-adv-x="604" 
d="M540 356c17.333 -35.333 25.999 -71.667 25.999 -109c0 -48 -11.667 -91.833 -35 -131.5s-55.166 -70.834 -95.499 -93.501s-84.833 -34 -133.5 -34c-49.333 0 -94.166 11 -134.499 33s-71.833 52.167 -94.5 90.5s-34 81.5 -34 129.5c0 43.333 9.5 83 28.5 119
s45.667 65.333 80 88s73.166 36.667 116.499 42l-214 224v36h492v-122h-241l155 -160c38.667 -39.333 66.667 -76.666 84 -111.999zM392.999 149.499c23.333 24.333 35.002 55.5 35.002 93.5c0 38.667 -12 70.667 -36 96s-54.333 38 -91 38s-66.667 -12.5 -90 -37.5
s-35 -56.833 -35 -95.5s11.667 -70.167 35 -94.5s53.666 -36.833 90.999 -37.5c37.333 0.666992 67.666 13.167 90.999 37.5z" />
    <glyph glyph-name="epsilon" unicode="&#x3b5;" horiz-adv-x="513" 
d="M480 81c-48.667 -62 -122.002 -92.999 -220.002 -92.999c-69.333 0 -123.166 12.833 -161.499 38.5s-57.5 61.5 -57.5 107.5c0 26 7.66699 49.167 23 69.5s36.666 36.166 63.999 47.499c-22 12.667 -38.667 28.167 -50 46.5s-17 39.166 -17 62.499
c0 45.333 18.333 81 55 107s87 39 151 39c46 0 86.833 -7.33301 122.5 -22s64.834 -35.667 87.501 -63l-76 -81c-30 33.333 -74 50 -132 50c-50.667 0 -76 -15.667 -76 -47c0 -14 5 -24.833 15 -32.5s25 -11.5 45 -11.5h90v-100h-95c-26 0 -45 -3.66699 -57 -11
s-18 -18.666 -18 -33.999c0 -17.333 6.83301 -30 20.5 -38s35.834 -12 66.501 -12c62 0 110 19 144 57z" />
    <glyph glyph-name="zeta" unicode="&#x3b6;" horiz-adv-x="474" 
d="M260 387c-33.333 -48 -56.001 -82.998 -68.001 -104.998s-18 -43 -18 -63c0 -26.667 8.33301 -47.834 25 -63.501s45.334 -28.834 86.001 -39.501l49 -14c43.333 -12 76 -31.833 98 -59.5s33 -61.167 33 -100.5c0 -42 -10 -82.667 -30 -122h-132
c17.333 32.667 26 62.334 26 89.001c0 24.667 -6.16699 43.667 -18.5 57s-32.5 24 -60.5 32l-49 15c-54 16 -94.5 40.167 -121.5 72.5s-40.5 71.166 -40.5 116.499c0 31.333 8.5 64.5 25.5 99.5s48.167 85.5 93.5 151.5l120 175h-225v122h430v-36z" />
    <glyph glyph-name="eta" unicode="&#x3b7;" horiz-adv-x="608" 
d="M493 452c34.667 -36 51.998 -84.333 51.998 -145v-487h-134v468c0 28.667 -8.5 51.834 -25.5 69.501s-39.167 26.5 -66.5 26.5s-50 -8.83301 -68 -26.5s-27 -40.834 -27 -69.501v-288h-134v323c0 40.667 -15 61 -45 61l-28 -1v112c22 6.66699 46.667 10 74 10
c26.667 0 49 -4.5 67 -13.5s32.333 -23.5 43 -43.5c18.667 18 41.334 32.167 68.001 42.5s55.334 15.5 86.001 15.5c57.333 0 103.333 -18 138 -54z" />
    <glyph glyph-name="theta" unicode="&#x3b8;" horiz-adv-x="641" 
d="M522 662.5c48 -66.333 72 -161.166 72 -284.499c0 -124.667 -24.167 -220.834 -72.5 -288.501s-115.5 -101.5 -201.5 -101.5s-153 33.833 -201 101.5s-72 163.834 -72 288.501c0 123.333 24 218.166 72 284.499s115 99.5 201 99.5c86.667 0 154 -33.167 202 -99.5z
M226 588c-22 -33.333 -35 -85.333 -39 -156h267c-4 70.667 -17.167 122.667 -39.5 156s-53.833 50 -94.5 50s-72 -16.667 -94 -50zM413.5 161.5c22.333 33 35.834 84.5 40.501 154.5h-267c4.66699 -70 18.167 -121.5 40.5 -154.5s53.166 -49.5 92.499 -49.5
c40 0 71.167 16.5 93.5 49.5z" />
    <glyph glyph-name="iota" unicode="&#x3b9;" horiz-adv-x="324" 
d="M65 166v329h134v-309c0 -27.333 5.16699 -47 15.5 -59s26.833 -18 49.5 -18c7.33301 0 23.666 1.33301 48.999 4v-113c-25.333 -8 -52.666 -12 -81.999 -12c-110.667 0 -166 59.333 -166 178z" />
    <glyph glyph-name="kappa" unicode="&#x3ba;" horiz-adv-x="561" 
d="M403 0l-201 259v-259h-135v495h135v-228l187 228h160l-192 -233l199 -262h-153z" />
    <glyph glyph-name="lambda" unicode="&#x3bb;" horiz-adv-x="572" 
d="M566 113l-0.000976562 -113.001c-21.333 -6.66699 -41.333 -10 -60 -10c-32.667 0 -58.667 8.33301 -78 25s-35.666 44 -48.999 82l-89 250l-151 -347h-142l227 502l-21 64c-9.33301 26.667 -20.5 45.834 -33.5 57.501s-31.833 17.5 -56.5 17.5c-12.667 0 -30 -1 -52 -3
v113c22 7.33301 47 11 75 11c48 0 86.5 -12.833 115.5 -38.5s52.5 -63.167 70.5 -112.5l170 -457c10 -27.333 26.667 -41 50 -41h24z" />
    <glyph glyph-name="uni03BC" unicode="&#x3bc;" horiz-adv-x="613" 
d="M595 112l0.000976562 -111.999c-22 -6.66699 -46 -10 -72 -10c-50 0 -85.333 17.333 -106 52c-13.333 -16.667 -29.666 -29.834 -48.999 -39.501s-40.333 -14.5 -63 -14.5c-20.667 0 -39.834 4 -57.501 12s-32.834 19 -45.501 33v-213h-135v675h135v-285
c0 -29.333 8.5 -53.333 25.5 -72s39.167 -28 66.5 -28c28 0 50.667 9.33301 68 28s26 42.667 26 72v285h134v-323c0 -21.333 3.66699 -36.833 11 -46.5s19 -14.5 35 -14.5z" />
    <glyph glyph-name="nu" unicode="&#x3bd;" horiz-adv-x="559" 
d="M547 495l-245 -507h-45l-245 507h142l125 -280l125 280h143z" />
    <glyph glyph-name="xi" unicode="&#x3be;" horiz-adv-x="487" 
d="M432 45.5c21.333 -27.667 32.001 -62.166 32.001 -103.499s-9.66699 -82 -29 -122h-131c16 32 24 61.667 24 89c0 25.333 -5.66699 44.5 -17 57.5s-30.666 22.5 -57.999 28.5l-34 7c-54.667 11.333 -97.334 34.666 -128.001 69.999s-46 78.666 -46 129.999
c0 40 9.16699 76 27.5 108s44.166 57 77.499 75c-27.333 14 -47.666 32.167 -60.999 54.5s-20 47.5 -20 75.5c0 21.333 5 41.833 15 61.5s24.333 36.834 43 51.501h-76v122h411v-122h-157c-32 0 -57 -9.33301 -75 -28s-27 -40.667 -27 -66s8.66699 -47.333 26 -66
s41 -28 71 -28h118v-115h-123c-34.667 0 -62.167 -9.16699 -82.5 -27.5s-30.5 -43.5 -30.5 -75.5c0 -30 9.33301 -53.833 28 -71.5s49.667 -31.5 93 -41.5l32 -7c43.333 -10 75.666 -28.833 96.999 -56.5z" />
    <glyph glyph-name="omicron" unicode="&#x3bf;" horiz-adv-x="608" 
d="M169.5 23.5c-40.333 23 -72.1699 54.3311 -95.5029 93.998s-35 83.167 -35 130.5s11.667 90.833 35 130.5s55.333 70.834 96 93.501s85.334 34 134.001 34s93.334 -11.5 134.001 -34.5s72.834 -54.167 96.501 -93.5s35.5 -82.666 35.5 -129.999
s-11.833 -90.833 -35.5 -130.5s-56 -71 -97 -94s-85.833 -34.5 -134.5 -34.5s-93.167 11.5 -133.5 34.5zM395.496 150.998c24.333 25.333 36.5 57.333 36.5 96s-12.167 71 -36.5 97s-54.833 39 -91.5 39c-37.333 0 -68 -12.833 -92 -38.5s-36 -58.167 -36 -97.5
c0 -38.667 12 -70.667 36 -96s54.667 -38 92 -38c36.667 0 67.167 12.667 91.5 38z" />
    <glyph glyph-name="pi" unicode="&#x3c0;" horiz-adv-x="593" 
d="M79 373h-70v122h574v-122h-69v-373h-134v373h-167v-373h-134v373z" />
    <glyph glyph-name="rho" unicode="&#x3c1;" horiz-adv-x="617" 
d="M454 473.5c39.333 -21.667 70 -52.0039 92 -91.0039s33 -84.167 33 -135.5c0 -49.333 -10.167 -93.666 -30.5 -132.999s-48.5 -70.166 -84.5 -92.499s-76.667 -33.5 -122 -33.5c-30 0 -57.333 5 -82 15s-45.667 24.333 -63 43v-226h-135v423
c0 52.667 10.667 98.834 32 138.501s51.333 70.334 90 92.001s83.667 32.5 135 32.5c50.667 0 95.667 -10.833 135 -32.5zM406.5 149.496c23 25.667 34.499 58.167 34.499 97.5c0 40.667 -11.667 73.667 -35 99s-53.333 38 -90 38s-66.167 -12.5 -88.5 -37.5
s-33.5 -58.167 -33.5 -99.5c0 -40.667 11.333 -73.5 34 -98.5s52.334 -37.5 89.001 -37.5s66.5 12.833 89.5 38.5z" />
    <glyph glyph-name="uni03C2" unicode="&#x3c2;" horiz-adv-x="531" 
d="M342 -91c0 24 -5.50293 42.501 -16.5029 55.501s-29.5 23.833 -55.5 32.5l-43 13c-64.667 21.333 -112.167 51.5 -142.5 90.5s-45.5 87.833 -45.5 146.5c0 50.667 10.833 95.5 32.5 134.5s51.834 69.5 90.501 91.5s83 33 133 33c48 0 90.667 -10.667 128 -32
s67 -52 89 -92l-94 -72c-17.333 24.667 -35.666 43 -54.999 55s-41 18 -65 18c-35.333 0 -64.5 -12.167 -87.5 -36.5s-34.5 -55.166 -34.5 -92.499c0 -36.667 10 -65.334 30 -86.001s52 -37.667 96 -51l53 -17c40.667 -12.667 71.334 -32.334 92.001 -59.001
s31 -59.667 31 -99c0 -38.667 -9.33301 -79.334 -28 -122.001h-132c16 30.667 24 60.334 24 89.001z" />
    <glyph glyph-name="sigma" unicode="&#x3c3;" horiz-adv-x="646" 
d="M627 373l-119.999 0.00195312c17.333 -18.667 30.833 -39.834 40.5 -63.501s14.5 -48.5 14.5 -74.5c0 -46.667 -11.5 -88.667 -34.5 -126s-54.5 -66.833 -94.5 -88.5s-84.667 -32.5 -134 -32.5c-48.667 0 -92.834 11.167 -132.501 33.5s-70.834 53.166 -93.501 92.499
s-34 83 -34 131c0 49.333 11.167 92.833 33.5 130.5s53.833 67 94.5 88s87.334 31.5 140.001 31.5h320v-122zM389.001 150.002c23.333 25.333 35 57.666 35 96.999c0 38.667 -11.5 70.334 -34.5 95.001s-52.833 37 -89.5 37s-66.5 -12.333 -89.5 -37
s-34.5 -56.334 -34.5 -95.001c0 -39.333 11.667 -71.666 35 -96.999s53 -38 89 -38s65.667 12.667 89 38z" />
    <glyph glyph-name="tau" unicode="&#x3c4;" horiz-adv-x="498" 
d="M295 373v-187c0 -27.333 7.16699 -47 21.5 -59s37.833 -18 70.5 -18c8 0 29.333 1.33301 64 4v-113c-30.667 -8 -61.667 -12 -93 -12c-64 0 -112.833 16 -146.5 48s-50.5 78 -50.5 138v199h-148v122h453v-122h-171z" />
    <glyph glyph-name="upsilon" unicode="&#x3c5;" horiz-adv-x="588" 
d="M172.5 17c-35 19.333 -62.167 46.5 -81.5 81.5s-29 75.5 -29 121.5v275h135v-287c0 -28.667 9 -52.167 27 -70.5s41.333 -27.5 70 -27.5s52 9 70 27s27 41.667 27 71v287h135v-275c0 -46 -9.66699 -86.5 -29 -121.5s-46.5 -62.167 -81.5 -81.5s-75.5 -29 -121.5 -29
s-86.5 9.66699 -121.5 29z" />
    <glyph glyph-name="phi" unicode="&#x3c6;" horiz-adv-x="774" 
d="M699 115.5c-24 -38.333 -57.333 -68.5 -100 -90.5s-91 -34 -145 -36v-169h-134v168c-54 2.66699 -102.333 15 -145 37s-76 52.167 -100 90.5s-36 82.5 -36 132.5s12 94 36 132s57.167 67.833 99.5 89.5s90.833 33.834 145.5 36.501v154h134v-154
c54.667 -2.66699 103.167 -14.834 145.5 -36.501s75.5 -51.5 99.5 -89.5s36 -82 36 -132s-12 -94.167 -36 -132.5zM211.5 144.5c27.667 -25 64.833 -38.833 111.5 -41.5v288c-46 -2.66699 -83 -16.5 -111 -41.5s-42 -59.167 -42 -102.5s13.833 -77.5 41.5 -102.5z
M561.999 144.5c28 25 42 59.167 42 102.5s-14 77.5 -42 102.5s-65.333 38.833 -112 41.5v-288c46.667 2.66699 84 16.5 112 41.5z" />
    <glyph glyph-name="chi" unicode="&#x3c7;" horiz-adv-x="536" 
d="M540 -67l-0.000976562 -113c-20 -6.66699 -43.667 -10 -71 -10c-29.333 0 -54 7.33301 -74 22s-38.667 39 -56 73l-71 142l-111 -227h-149l185 350l-86 172c-7.33301 14 -15.666 24.333 -24.999 31s-21.666 10 -36.999 10c-16.667 0 -28.667 -0.333008 -36 -1v113
c18 6 42 9 72 9c31.333 0 56.666 -7.5 75.999 -22.5s37.333 -39.167 54 -72.5l60 -123l103 209h149l-178 -333l97 -189c8 -15.333 16.5 -26 25.5 -32s21.167 -9 36.5 -9c17.333 0 29.333 0.333008 36 1z" />
    <glyph glyph-name="psi" unicode="&#x3c8;" horiz-adv-x="794" 
d="M330 -12c-52.667 0 -99.168 10.8311 -139.501 32.498s-71.833 52.167 -94.5 91.5s-34 84.666 -34 135.999v247h135v-236c0 -43.333 12.667 -79 38 -107s57 -42 95 -42v550h134v-550c24.667 0 47.334 6.33301 68.001 19s36.834 30.334 48.501 53.001
s17.5 48.334 17.5 77.001v236h134v-247c0 -51.333 -11.167 -96.666 -33.5 -135.999s-53.833 -69.833 -94.5 -91.5s-87.334 -32.5 -140.001 -32.5v-168h-134v168z" />
    <glyph glyph-name="omega" unicode="&#x3c9;" horiz-adv-x="800" 
d="M714.5 409.5c31 -45.667 46.501 -101.835 46.501 -168.502c0 -50.667 -8.83301 -95 -26.5 -133s-43 -67.5 -76 -88.5s-71.167 -31.5 -114.5 -31.5c-62 0 -110 22 -144 66c-16 -21.333 -36.333 -37.666 -61 -48.999s-52.334 -17 -83.001 -17
c-43.333 0 -81.5 10.5 -114.5 31.5s-58.333 50.5 -76 88.5s-26.5 82.333 -26.5 133c0 66.667 15.5 122.834 46.5 168.501s74.5 76.167 130.5 91.5l45 -115c-58 -29.333 -87 -78.666 -87 -147.999c0 -39.333 8 -70.5 24 -93.5s37.667 -34.5 65 -34.5c22.667 0 40.5 8 53.5 24
s19.5 38.333 19.5 67v141h127v-141c0 -28.667 6.5 -51 19.5 -67s31.167 -24 54.5 -24c27.333 0 49 11.5 65 34.5s24 54.167 24 93.5c0 69.333 -28.667 118.666 -86 147.999l44 115c56 -15.333 99.5 -45.833 130.5 -91.5z" />
    <glyph glyph-name="iotadieresis" unicode="&#x3ca;" horiz-adv-x="324" 
d="M65 166v329h134v-309c0 -27.333 5.16699 -47 15.5 -59s26.833 -18 49.5 -18c7.33301 0 23.666 1.33301 48.999 4v-113c-25.333 -8 -52.666 -12 -81.999 -12c-110.667 0 -166 59.333 -166 178zM-34.5 621.5c-16.333 15.667 -24.5 33.5 -24.5 53.5c0 22 8 40.667 24 56
s34.667 23 56 23c22.667 0 42 -7.66699 58 -23s24 -34 24 -56c0 -20.667 -8 -38.667 -24 -54s-35.333 -23 -58 -23c-20.667 0 -39.167 7.83301 -55.5 23.5zM186 621.5c-16.667 15.667 -24.998 33.5 -24.998 53.5c0 22 8.16699 40.667 24.5 56s35.166 23 56.499 23
c22 0 41 -7.66699 57 -23s24 -34 24 -56c0 -20.667 -8 -38.667 -24 -54s-35 -23 -57 -23c-20.667 0 -39.334 7.83301 -56.001 23.5z" />
    <glyph glyph-name="upsilondieresis" unicode="&#x3cb;" horiz-adv-x="588" 
d="M172.5 17c-35 19.333 -62.167 46.5 -81.5 81.5s-29 75.5 -29 121.5v275h135v-287c0 -28.667 9 -52.167 27 -70.5s41.333 -27.5 70 -27.5s52 9 70 27s27 41.667 27 71v287h135v-275c0 -46 -9.66699 -86.5 -29 -121.5s-46.5 -62.167 -81.5 -81.5s-75.5 -29 -121.5 -29
s-86.5 9.66699 -121.5 29zM115 621c-16 15.333 -24 33.666 -24 54.999s8 39.666 24 54.999s35.333 23 58 23c21.333 0 40 -7.66699 56 -23s24 -33.666 24 -54.999s-8 -39.666 -24 -54.999s-34.667 -23 -56 -23c-22.667 0 -42 7.66699 -58 23zM353 621
c-16 15.333 -24 33.666 -24 54.999s8 39.666 24 54.999s35.333 23 58 23c21.333 0 40 -7.66699 56 -23s24 -33.666 24 -54.999s-8 -39.666 -24 -54.999s-34.667 -23 -56 -23c-22.667 0 -42 7.66699 -58 23z" />
    <glyph glyph-name="omicrontonos" unicode="&#x3cc;" horiz-adv-x="608" 
d="M169.5 23.5c-40.333 23 -72.1699 54.3311 -95.5029 93.998s-35 83.167 -35 130.5s11.667 90.833 35 130.5s55.333 70.834 96 93.501s85.334 34 134.001 34s93.334 -11.5 134.001 -34.5s72.834 -54.167 96.501 -93.5s35.5 -82.666 35.5 -129.999
s-11.833 -90.833 -35.5 -130.5s-56 -71 -97 -94s-85.833 -34.5 -134.5 -34.5s-93.167 11.5 -133.5 34.5zM395.496 150.998c24.333 25.333 36.5 57.333 36.5 96s-12.167 71 -36.5 97s-54.833 39 -91.5 39c-37.333 0 -68 -12.833 -92 -38.5s-36 -58.167 -36 -97.5
c0 -38.667 12 -70.667 36 -96s54.667 -38 92 -38c36.667 0 67.167 12.667 91.5 38zM271.996 779.998h160v-24l-97 -185h-99z" />
    <glyph glyph-name="upsilontonos" unicode="&#x3cd;" horiz-adv-x="588" 
d="M172.5 17c-35 19.333 -62.167 46.5 -81.5 81.5s-29 75.5 -29 121.5v275h135v-287c0 -28.667 9 -52.167 27 -70.5s41.333 -27.5 70 -27.5s52 9 70 27s27 41.667 27 71v287h135v-275c0 -46 -9.66699 -86.5 -29 -121.5s-46.5 -62.167 -81.5 -81.5s-75.5 -29 -121.5 -29
s-86.5 9.66699 -121.5 29zM259 780h160v-24l-97 -185h-99z" />
    <glyph glyph-name="omegatonos" unicode="&#x3ce;" horiz-adv-x="800" 
d="M714.5 409.5c31 -45.667 46.501 -101.835 46.501 -168.502c0 -50.667 -8.83301 -95 -26.5 -133s-43 -67.5 -76 -88.5s-71.167 -31.5 -114.5 -31.5c-62 0 -110 22 -144 66c-16 -21.333 -36.333 -37.666 -61 -48.999s-52.334 -17 -83.001 -17
c-43.333 0 -81.5 10.5 -114.5 31.5s-58.333 50.5 -76 88.5s-26.5 82.333 -26.5 133c0 66.667 15.5 122.834 46.5 168.501s74.5 76.167 130.5 91.5l45 -115c-58 -29.333 -87 -78.666 -87 -147.999c0 -39.333 8 -70.5 24 -93.5s37.667 -34.5 65 -34.5c22.667 0 40.5 8 53.5 24
s19.5 38.333 19.5 67v141h127v-141c0 -28.667 6.5 -51 19.5 -67s31.167 -24 54.5 -24c27.333 0 49 11.5 65 34.5s24 54.167 24 93.5c0 69.333 -28.667 118.666 -86 147.999l44 115c56 -15.333 99.5 -45.833 130.5 -91.5zM368.001 779.999h160v-24l-97 -185h-99z" />
    <glyph glyph-name="uni0400" unicode="&#x400;" horiz-adv-x="573" 
d="M76 660h444v-122h-309v-134h227v-115h-227v-167h321v-122h-456v660zM109 886v24h162l73 -186h-98z" />
    <glyph glyph-name="uni0401" unicode="&#x401;" horiz-adv-x="573" 
d="M76 660h444v-122h-309v-134h227v-115h-227v-167h321v-122h-456v660zM109.5 760.5c-16.333 15.667 -24.5 33.5 -24.5 53.5c0 22 8 40.5 24 55.5s34.667 22.5 56 22.5c22.667 0 42 -7.5 58 -22.5s24 -33.5 24 -55.5c0 -20.667 -8 -38.667 -24 -54s-35.333 -23 -58 -23
c-20.667 0 -39.167 7.83301 -55.5 23.5zM368 759.5c-16.667 15.667 -24.998 33.5 -24.998 53.5c0 22 8.16699 40.667 24.5 56s35.166 23 56.499 23c22 0 41 -7.66699 57 -23s24 -34 24 -56c0 -20.667 -8 -38.667 -24 -54s-35 -23 -57 -23
c-20.667 0 -39.334 7.83301 -56.001 23.5z" />
    <glyph glyph-name="uni0402" unicode="&#x402;" horiz-adv-x="752" 
d="M454 102c38 5.33301 67.667 15.1699 89 29.5029s32 37.166 32 68.499c0 28 -9.5 49.667 -28.5 65s-45.5 23 -79.5 23c-23.333 0 -46 -2.33301 -68 -7s-41 -10.334 -57 -17.001v-264h-135v538h-193v122h550v-122h-222v-155c16.667 6.66699 36.667 12.167 60 16.5
s47.333 6.5 72 6.5c45.333 0 86 -8 122 -24s64.5 -39.333 85.5 -70s31.5 -67.334 31.5 -110.001c0 -68 -21.833 -119.833 -65.5 -155.5s-99.167 -57.167 -166.5 -64.5z" />
    <glyph glyph-name="uni0403" unicode="&#x403;" horiz-adv-x="524" 
d="M76 660h424v-122h-289v-538h-135v660zM300 910h162v-24l-137 -162h-98z" />
    <glyph glyph-name="uni0404" unicode="&#x404;" horiz-adv-x="720" 
d="M579 224l101.998 -71.999c-28.667 -51.333 -68.667 -91.5 -120 -120.5s-108.666 -43.5 -171.999 -43.5c-64.667 0 -123.834 15 -177.501 45s-96 71.167 -127 123.5s-46.5 110.166 -46.5 173.499s15.667 121.166 47 173.499s73.833 93.5 127.5 123.5
s112.834 45 177.501 45c62.667 0 119.5 -14.5 170.5 -43.5s91.167 -69.167 120.5 -120.5l-102 -72c-46.667 74 -109.667 111 -189 111c-50.667 0 -94.5 -14.167 -131.5 -42.5s-61.5 -66.166 -73.5 -113.499h279v-115h-281c10.667 -49.333 34.834 -88.833 72.501 -118.5
s82.5 -44.5 134.5 -44.5c79.333 0 142.333 37 189 111z" />
    <glyph glyph-name="uni0405" unicode="&#x405;" horiz-adv-x="559" 
d="M134.5 27.5c-44.333 26.333 -79.166 61.8359 -104.499 106.503l93 70c21.333 -29.333 44.666 -52.666 69.999 -69.999s56 -26 92 -26c29.333 0 52.333 6.5 69 19.5s25 30.833 25 53.5c0 19.333 -6.16699 34.166 -18.5 44.499s-34.166 22.833 -65.499 37.5l-71 32
c-50.667 22.667 -90 49 -118 79s-42 67 -42 111c0 37.333 9.5 70.166 28.5 98.499s45.167 50.166 78.5 65.499s70.666 23 111.999 23c50.667 0 94.5 -11.333 131.5 -34s65.833 -53 86.5 -91l-92 -71c-34 50.667 -76 76 -126 76c-23.333 0 -42.833 -5.5 -58.5 -16.5
s-23.5 -26.833 -23.5 -47.5c0 -17.333 5.83301 -31.166 17.5 -41.499s31.5 -21.833 59.5 -34.5l75 -33c55.333 -24.667 96.333 -51.834 123 -81.501s40 -66.834 40 -111.501c0 -40 -10 -75 -30 -105s-47.5 -53 -82.5 -69s-74.5 -24 -118.5 -24
c-56 0 -106.167 13.167 -150.5 39.5z" />
    <glyph glyph-name="uni0406" unicode="&#x406;" horiz-adv-x="286" 
d="M76 660h135v-660h-135v660z" />
    </font>
</defs>
</svg>
