<?xml version="1.0" standalone="no"?>
<!DOCTYPE svg PUBLIC "-//W3C//DTD SVG 1.1//EN" "http://www.w3.org/Graphics/SVG/1.1/DTD/svg11.dtd" >
<svg>
<metadata>
Created by FontForge 20090914 at Fri Aug 13 09:00:19 2021
 By www-data
Copyright (c) 2015, 2018 by Jakob Runge, under exclusive license to TypeMates. All rights reserved.
</metadata>
<defs>
<font id="CeraPro-Regular" horiz-adv-x="560" >
  <font-face 
    font-family="Cera Pro"
    font-weight="400"
    font-stretch="normal"
    units-per-em="1000"
    panose-1="0 0 5 0 0 0 0 0 0 0"
    ascent="808"
    descent="-192"
    x-height="487"
    cap-height="660"
    bbox="-444 -242 1303 1000"
    underline-thickness="65"
    underline-position="-164"
    unicode-range="U+0020-U+FB02"
  />
<missing-glyph horiz-adv-x="707" 
d="M616 660v-660h-525v660h525zM558 607h-411l411 -555v555z" />
    <glyph glyph-name="fi" unicode="fi" horiz-adv-x="564" 
d="M200.5 670.5c-17.667 -13.667 -26.498 -37.833 -26.498 -72.5v-111h122v-69h-122v-418h-77v418h-70v69h70v116c0 53.333 14.5 93 43.5 119s68.167 39 117.5 39c21.333 0 41.666 -2.66699 60.999 -8v-65c-16 2 -30.333 3 -43 3c-32.667 0 -57.834 -6.83301 -75.501 -20.5z
M403.002 487.001h77v-487h-77v487zM401.002 633.001c-11.333 10.667 -16.999 24 -16.999 40c0 15.333 5.66699 28.5 17 39.5s25 16.5 41 16.5c15.333 0 28.666 -5.5 39.999 -16.5s17 -24.167 17 -39.5c0 -16 -5.5 -29.333 -16.5 -40s-24.5 -16 -40.5 -16
s-29.667 5.33301 -41 16z" />
    <glyph glyph-name="fl" unicode="fl" horiz-adv-x="564" 
d="M200.5 670.5c-17.667 -13.667 -26.498 -37.833 -26.498 -72.5v-111h122v-69h-122v-418h-77v418h-70v69h70v116c0 53.333 14.5 93 43.5 119s68.167 39 117.5 39c21.333 0 41.666 -2.66699 60.999 -8v-65c-16 2 -30.333 3 -43 3c-32.667 0 -57.834 -6.83301 -75.501 -20.5z
M403.002 750.001h77v-750h-77v750z" />
    <glyph glyph-name=".notdef" horiz-adv-x="707" 
d="M616 660v-660h-525v660h525zM558 607h-411l411 -555v555z" />
    <glyph glyph-name="space" unicode=" " horiz-adv-x="280" 
 />
    <glyph glyph-name="exclam" unicode="!" horiz-adv-x="305" 
d="M105 660h93l-14 -451h-64zM107.5 7c-12.333 12 -18.5 27 -18.5 45s6.16699 33 18.5 45s27.166 18 44.499 18c18 0 33 -6 45 -18s18 -27 18 -45s-6 -33 -18 -45s-27 -18 -45 -18c-17.333 0 -32.166 6 -44.499 18z" />
    <glyph glyph-name="quotedbl" unicode="&#x22;" horiz-adv-x="463" 
d="M108 660h90l-43 -257h-61zM291 660h90l-43 -257h-61z" />
    <glyph glyph-name="numbersign" unicode="#" horiz-adv-x="597" 
d="M472 421l-24 -182h98v-66h-107l-24 -173h-65l23 173h-191l-24 -173h-65l23 173h-88v66h97l24 182h-97v66h106l23 173h67l-24 -173h191l23 173h67l-24 -173h88v-66h-97zM382 239l24 182h-191l-24 -182h191z" />
    <glyph glyph-name="dollar" unicode="$" horiz-adv-x="536" 
d="M426.5 75.5c-31 -29 -71.166 -46.502 -120.499 -52.502v-117h-77v118c-41.333 6 -77.833 21 -109.5 45s-58.167 54.667 -79.5 92l56 40c44.667 -74 103.334 -111 176.001 -111c36 0 65.5 8.5 88.5 25.5s34.5 40.167 34.5 69.5c0 24 -8.33301 43.667 -25 59
s-42 30.666 -76 45.999l-71 30c-42.667 18 -76.5 39.333 -101.5 64s-37.5 57 -37.5 97s13.5 73.333 40.5 100s61.833 43.334 104.5 50.001v119h77v-117c65.333 -8.66699 116.666 -44.334 153.999 -107.001l-53 -41c-18 27.333 -37.833 47.5 -59.5 60.5
s-46.834 19.5 -75.501 19.5c-29.333 0 -55 -6.83301 -77 -20.5s-33 -34.5 -33 -62.5c0 -24 7.5 -42.667 22.5 -56s38.5 -27.666 70.5 -42.999l73 -30c46.667 -19.333 82.5 -42.166 107.5 -68.499s37.5 -59.166 37.5 -98.499c0 -44.667 -15.5 -81.5 -46.5 -110.5z" />
    <glyph glyph-name="percent" unicode="%" horiz-adv-x="842" 
d="M147.5 370.5c-25 14.333 -44.833 33.666 -59.5 57.999s-22 51.5 -22 81.5s7.33301 57.167 22 81.5s34.5 43.666 59.5 57.999s52.5 21.5 82.5 21.5c29.333 0 56.5 -7.16699 81.5 -21.5s44.833 -33.666 59.5 -57.999s22 -51.5 22 -81.5s-7.33301 -57.167 -22 -81.5
s-34.5 -43.666 -59.5 -57.999s-52.167 -21.5 -81.5 -21.5c-30 0 -57.5 7.16699 -82.5 21.5zM576 660h69l-378 -660h-69zM301 436c18.667 20 28 44.667 28 74s-9.33301 54 -28 74s-42.334 30 -71.001 30s-52.334 -9.83301 -71.001 -29.5s-28 -44.5 -28 -74.5
s9.33301 -54.833 28 -74.5s42.334 -29.5 71.001 -29.5s52.334 10 71.001 30zM530.5 11.5c-25 14.333 -44.667 33.666 -59 57.999s-21.5 51.5 -21.5 81.5s7.16699 57.167 21.5 81.5s34 43.666 59 57.999s52.167 21.5 81.5 21.5s56.666 -7.16699 81.999 -21.5
s45.333 -33.666 60 -57.999s22 -51.5 22 -81.5s-7.33301 -57.167 -22 -81.5s-34.667 -43.666 -60 -57.999s-52.666 -21.5 -81.999 -21.5s-56.5 7.16699 -81.5 21.5zM683 77.5c18.667 19.667 28 44.167 28 73.5c0 30 -9.33301 54.833 -28 74.5s-42 29.5 -70 29.5
c-28.667 0 -52.334 -9.83301 -71.001 -29.5s-28 -44.5 -28 -74.5c0 -29.333 9.33301 -53.833 28 -73.5s42.334 -29.5 71.001 -29.5c28 0 51.333 9.83301 70 29.5z" />
    <glyph glyph-name="ampersand" unicode="&#x26;" horiz-adv-x="625" 
d="M591 275c-43.333 -66 -76.666 -114.335 -99.999 -145.002l109 -130h-94l-63 75c-28 -28 -57.333 -49.333 -88 -64s-65 -22 -103 -22c-38.667 0 -73.334 7.33301 -104.001 22s-54.667 35.167 -72 61.5s-26 55.833 -26 88.5c0 35.333 11.167 68.333 33.5 99
s60.833 66.334 115.5 107.001c-24.667 31.333 -42.667 59 -54 83s-17 49.333 -17 76c0 43.333 13.5 78.333 40.5 105s62.5 40 106.5 40c42 0 76.667 -12.833 104 -38.5s41 -58.167 41 -97.5c0 -30 -9.5 -59.167 -28.5 -87.5s-48.833 -58.166 -89.5 -89.499l140 -168
c15.333 20.667 37 53 65 97l31 47l64 -42zM222 580.998c-12 -12.667 -18.001 -30.999 -18.001 -54.999c0 -18 4.33301 -35.833 13 -53.5s23 -38.834 43 -63.501c30 24.667 51.5 46.167 64.5 64.5s19.5 37.833 19.5 58.5c0 21.333 -6.16699 38 -18.5 50
s-29.166 18 -50.499 18c-23.333 0 -41 -6.33301 -53 -19zM394.999 132.999l-151 181.001c-32 -24.667 -55.667 -44.667 -71 -60s-26 -29.333 -32 -42s-9 -27.334 -9 -44.001c0 -31.333 11.5 -57 34.5 -77s52.167 -30 87.5 -30c50 0 97 24 141 72z" />
    <glyph glyph-name="quotesingle" unicode="'" horiz-adv-x="280" 
d="M108 660h90l-43 -257h-61z" />
    <glyph glyph-name="parenleft" unicode="(" horiz-adv-x="333" 
d="M133 14.5c-36.667 69.667 -55 165.167 -55 286.5c0 122 18.333 217.833 55 287.5s83 118.167 139 145.5l33 -53c-100.667 -65.333 -151 -192 -151 -380c0 -105.333 14.167 -188 42.5 -248s64.5 -103.667 108.5 -131l-33 -53c-56 27.333 -102.333 75.833 -139 145.5z" />
    <glyph glyph-name="parenright" unicode=")" horiz-adv-x="333" 
d="M28 -78c44 27.333 80.333 70.999 109 130.999s43 142.667 43 248c0 187.333 -50.667 314 -152 380l34 53c55.333 -27.333 101.333 -75.833 138 -145.5s55 -165.5 55 -287.5s-18.333 -217.667 -55 -287s-82.667 -117.666 -138 -144.999z" />
    <glyph glyph-name="asterisk" unicode="*" horiz-adv-x="410" 
d="M270 580l94 -64l-25 -41l-102 49l-8 -113h-48l-9 113l-102 -49l-24 41l94 64l-94 64l24 42l102 -49l9 113h48l8 -113l102 49l25 -42z" />
    <glyph glyph-name="plus" unicode="+" 
d="M244 281h-188v68h188v190h76v-190h183v-68h-183v-193h-76v193z" />
    <glyph glyph-name="comma" unicode="," horiz-adv-x="280" 
d="M103 90h91l-41 -269h-63z" />
    <glyph glyph-name="hyphen" unicode="-" horiz-adv-x="346" 
d="M53 347h239v-65h-239v65z" />
    <glyph glyph-name="period" unicode="." horiz-adv-x="280" 
d="M95.5 7c-12.333 12 -18.5 27 -18.5 45s6.16699 33 18.5 45s27.166 18 44.499 18s32.166 -6 44.499 -18s18.5 -27 18.5 -45s-6.16699 -33 -18.5 -45s-27.166 -18 -44.499 -18s-32.166 6 -44.499 18z" />
    <glyph glyph-name="slash" unicode="/" horiz-adv-x="628" 
d="M530 780h91l-523 -901h-91z" />
    <glyph glyph-name="zero" unicode="0" horiz-adv-x="615" 
d="M126.5 86.5c-40.333 65 -60.5 148.167 -60.5 249.5c0 100.667 20.333 181.667 61 243s101 92 181 92s140.167 -30.5 180.5 -91.5s60.5 -142.167 60.5 -243.5s-20 -184.5 -60 -249.5s-100.333 -97.5 -181 -97.5s-141.167 32.5 -181.5 97.5zM429.5 135
c25.667 49.333 38.5 116 38.5 200c0 82.667 -12.667 147.334 -38 194.001s-66 70 -122 70s-96.833 -23.333 -122.5 -70s-38.5 -111.334 -38.5 -194.001c0 -84 13 -150.667 39 -200s66.667 -74 122 -74s95.833 24.667 121.5 74z" />
    <glyph glyph-name="one" unicode="1" horiz-adv-x="379" 
d="M271 660v-660h-78v568l-144 -45l-19 67l212 70h29z" />
    <glyph glyph-name="two" unicode="2" 
d="M506 70v-70.0039h-459v20l235 250c40 42 69.333 77.5 88 106.5s28 59.167 28 90.5c0 36.667 -11.5 67.834 -34.5 93.501s-53.833 38.5 -92.5 38.5c-40 0 -72 -13.333 -96 -40s-36 -58.667 -36 -96c0 -18.667 2 -37 6 -55h-80c-4.66699 18 -7 37.333 -7 58
c0 34.667 8.66699 67.834 26 99.501s42.166 57.167 74.499 76.5s69.833 29 112.5 29c40 0 75.833 -8.83301 107.5 -26.5s56.334 -41.667 74.001 -72s26.5 -64.166 26.5 -101.499c0 -30.667 -6.33301 -60 -19 -88s-28.167 -53.667 -46.5 -77s-42.5 -50.666 -72.5 -81.999
l-146 -154h311z" />
    <glyph glyph-name="three" unicode="3" horiz-adv-x="538" 
d="M386 382.5c29.333 -16.333 53.001 -39.168 71.001 -68.501s27 -64.333 27 -105c0 -44 -10.667 -82.667 -32 -116s-50 -59 -86 -77s-74.667 -27 -116 -27c-50.667 0 -95.167 12.833 -133.5 38.5s-68.5 58.5 -90.5 98.5l55 39c21.333 -31.333 45.333 -56.5 72 -75.5
s58.667 -28.5 96 -28.5c45.333 0 82.333 13.5 111 40.5s43 62.5 43 106.5c0 42.667 -14.5 76 -43.5 100s-70.167 36 -123.5 36h-65v23l173 221h-273v72h396v-23l-175 -225c33.333 -3.33301 64.666 -13.166 93.999 -29.499z" />
    <glyph glyph-name="four" unicode="4" horiz-adv-x="548" 
d="M526 123h-96v-123h-78v123h-331v22l217 515h80l-198 -469h232v220h78v-220h96v-68z" />
    <glyph glyph-name="five" unicode="5" horiz-adv-x="555" 
d="M387.5 390.5c34.333 -15 61.833 -37.832 82.5 -68.499s31 -68.334 31 -113.001c0 -44 -10.833 -82.667 -32.5 -116s-50.334 -59 -86.001 -77s-74.167 -27 -115.5 -27c-52.667 0 -98.167 12.667 -136.5 38s-68.833 58 -91.5 98l54 40
c20.667 -31.333 44.834 -56.5 72.501 -75.5s61.167 -28.5 100.5 -28.5c44.667 0 81.5 13.5 110.5 40.5s43.5 62.5 43.5 106.5c0 43.333 -14.5 77 -43.5 101s-70.5 36 -124.5 36h-149v315h361v-70h-283v-185c30.667 5.33301 62 8 94 8c40.667 0 78.167 -7.5 112.5 -22.5z" />
    <glyph glyph-name="six" unicode="6" horiz-adv-x="551" 
d="M392.5 398.5c33 -19 59.167 -45 78.5 -78s29 -69.5 29 -109.5c0 -41.333 -10 -79 -30 -113s-47.167 -60.667 -81.5 -80s-72.166 -29 -113.499 -29c-40.667 0 -78.334 9.66699 -113.001 29s-62 46 -82 80s-30 72 -30 114c0 34 6.16699 64.333 18.5 91
s31.833 59.667 58.5 99c3.33301 4 6 7.66699 8 11s4 6.33301 6 9l164 238h93l-168 -242c16 6 34.333 9 55 9c38.667 0 74.5 -9.5 107.5 -28.5zM350 80c22.667 13.333 40.5 31.5 53.5 54.5s19.5 48.5 19.5 76.5c0 27.333 -6.5 52.5 -19.5 75.5s-30.833 41.167 -53.5 54.5
s-47.667 20 -75 20s-52.333 -6.66699 -75 -20s-40.5 -31.5 -53.5 -54.5s-19.5 -48.167 -19.5 -75.5c0 -28 6.5 -53.5 19.5 -76.5s30.833 -41.167 53.5 -54.5s47.667 -20 75 -20s52.333 6.66699 75 20z" />
    <glyph glyph-name="seven" unicode="7" horiz-adv-x="501" 
d="M476 660v-23l-334 -637h-85l314 590h-336v70h441z" />
    <glyph glyph-name="eight" unicode="8" horiz-adv-x="578" 
d="M520 168c0 -35.333 -9.50098 -66.5 -28.501 -93.5s-46 -48 -81 -63s-75.5 -22.5 -121.5 -22.5s-86.667 7.5 -122 22.5s-62.666 36.167 -81.999 63.5s-29 58.666 -29 93.999c0 80.667 52.333 139.334 157 176.001c-40 18.667 -71 41 -93 67s-33 57.667 -33 95
c0 51.333 19.167 91.5 57.5 120.5s86.5 43.5 144.5 43.5c56.667 0 104.167 -14.5 142.5 -43.5s57.5 -69.167 57.5 -120.5c0 -70.667 -42 -124.334 -126 -161.001c104.667 -39.333 157 -98.666 157 -177.999zM194.499 435c20.333 -18 51.5 -35.667 93.5 -53
c42 16.667 73.167 34 93.5 52s30.5 41.333 30.5 70c0 31.333 -11.5 55.833 -34.5 73.5s-52.5 26.5 -88.5 26.5c-36.667 0 -66.667 -8.83301 -90 -26.5s-35 -42.167 -35 -73.5c0 -28 10.167 -51 30.5 -69zM401.499 87.5c26.333 21 39.5 48.832 39.5 83.499
s-12.833 61.834 -38.5 81.501s-63.5 38.5 -113.5 56.5c-50.667 -18 -89 -37 -115 -57s-39 -47 -39 -81c0 -34.667 13.5 -62.5 40.5 -83.5s64.833 -31.5 113.5 -31.5s86.167 10.5 112.5 31.5z" />
    <glyph glyph-name="nine" unicode="9" horiz-adv-x="551" 
d="M388.5 642c34.333 -19.333 61.502 -46 81.502 -80s30 -72 30 -114c0 -26 -3.83301 -50.167 -11.5 -72.5s-16.667 -41.833 -27 -58.5s-27.833 -43 -52.5 -79l-164 -238h-92l168 242c-16 -6 -34.667 -9 -56 -9c-38 0 -73.5 9.5 -106.5 28.5s-59.333 45 -79 78
s-29.5 69.5 -29.5 109.5c0 41.333 10.167 79 30.5 113s47.666 60.667 81.999 80s72.166 29 113.499 29c40.667 0 78.167 -9.66699 112.5 -29zM351.002 319c22.667 13.333 40.334 31.5 53.001 54.5s19 48.5 19 76.5s-6.33301 53.5 -19 76.5s-30.334 41 -53.001 54
s-47.667 19.5 -75 19.5s-52.5 -6.5 -75.5 -19.5s-41 -31 -54 -54s-19.5 -48.5 -19.5 -76.5s6.5 -53.5 19.5 -76.5s31 -41.167 54 -54.5s48.167 -20 75.5 -20s52.333 6.66699 75 20z" />
    <glyph glyph-name="colon" unicode=":" horiz-adv-x="280" 
d="M95.5 384c-12.333 12 -18.5 27 -18.5 45s6.16699 33 18.5 45s27.166 18 44.499 18s32.166 -6 44.499 -18s18.5 -27 18.5 -45s-6.16699 -33 -18.5 -45s-27.166 -18 -44.499 -18s-32.166 6 -44.499 18zM95.5 7c-12.333 12 -18.5 27 -18.5 45s6.16699 33 18.5 45
s27.166 18 44.499 18s32.166 -6 44.499 -18s18.5 -27 18.5 -45s-6.16699 -33 -18.5 -45s-27.166 -18 -44.499 -18s-32.166 6 -44.499 18z" />
    <glyph glyph-name="semicolon" unicode=";" horiz-adv-x="280" 
d="M95.5 384c-12.333 12 -18.5 27 -18.5 45s6.16699 33 18.5 45s27.166 18 44.499 18s32.166 -6 44.499 -18s18.5 -27 18.5 -45s-6.16699 -33 -18.5 -45s-27.166 -18 -44.499 -18s-32.166 6 -44.499 18zM103 90h91l-41 -269h-63z" />
    <glyph glyph-name="less" unicode="&#x3c;" 
d="M490 442l-302 -127l302 -126v-73l-438 187v24l438 187v-72z" />
    <glyph glyph-name="equal" unicode="=" 
d="M66 453h428v-69h-428v69zM66 245h428v-68h-428v68z" />
    <glyph glyph-name="greater" unicode="&#x3e;" 
d="M509 327v-24l-439 -187v73l302 126l-302 127v72z" />
    <glyph glyph-name="question" unicode="?" horiz-adv-x="445" 
d="M162 253c0 22.667 6.66797 42.8311 20.001 60.498s33.333 38.5 60 62.5c29.333 27.333 49.666 49 60.999 65s17 35.333 17 58c0 29.333 -9.5 53.5 -28.5 72.5s-42.167 28.5 -69.5 28.5c-26 0 -48.667 -8.16699 -68 -24.5s-34 -40.166 -44 -71.499l-65 27
c13.333 44.667 35.5 79.167 66.5 103.5s68.5 36.5 112.5 36.5c32 0 61.5 -7.16699 88.5 -21.5s48.333 -34.166 64 -59.499s23.5 -54 23.5 -86c0 -30.667 -7.83301 -58.167 -23.5 -82.5s-39.5 -50.833 -71.5 -79.5c-26 -24 -44.333 -42.667 -55 -56s-16 -28.333 -16 -45
c0 -6 1.66699 -16.667 5 -32h-67c-6.66699 13.333 -10 28 -10 44zM166.001 6.99707c-12.667 12 -19 27 -19 45s6.33301 33 19 45s27.334 18 44.001 18c18 0 33.167 -6 45.5 -18s18.5 -27 18.5 -45s-6.16699 -33 -18.5 -45s-27.5 -18 -45.5 -18
c-16.667 0 -31.334 6 -44.001 18z" />
    <glyph glyph-name="at" unicode="@" horiz-adv-x="922" 
d="M677.5 607c61 -33.333 109.001 -78.3291 144.001 -134.996s52.5 -118.667 52.5 -186c0 -52 -10.833 -96.833 -32.5 -134.5s-51.834 -66.334 -90.501 -86.001s-83 -29.5 -133 -29.5h-24v65c-15.333 -24 -36.5 -42.667 -63.5 -56s-56.5 -20 -88.5 -20
c-38 0 -72 9.33301 -102 28s-53.667 44.167 -71 76.5s-26 68.5 -26 108.5c0 39.333 8.5 75.166 25.5 107.499s40.833 57.833 71.5 76.5s65 28 103 28c30 0 57.833 -5.83301 83.5 -17.5s46.167 -27.834 61.5 -48.501v58h72v-338c44 3.33301 79 20.666 105 51.999
s39 74.666 39 129.999c0 57.333 -13.833 109.166 -41.5 155.499s-66.5 82.833 -116.5 109.5s-107 40 -171 40c-67.333 0 -128 -14.833 -182 -44.5s-96.333 -70.5 -127 -122.5s-46 -111 -46 -177s15.5 -125.167 46.5 -177.5s73 -93.333 126 -123s111.833 -44.5 176.5 -44.5
c46 0 89.333 7.33301 130 22l14 -60c-46 -18 -96.333 -27 -151 -27c-76 0 -145.5 17.833 -208.5 53.5s-113 84.834 -150 147.501s-55.5 132 -55.5 208c0 77.333 18.833 147.333 56.5 210s89 111.834 154 147.501s136.5 53.5 214.5 53.5c75.333 0 143.5 -16.667 204.5 -50z
M545.501 132.504c25.667 24.333 38.498 59.833 38.498 106.5c0 46 -12.667 81.167 -38 105.5s-55.666 36.5 -90.999 36.5c-38 0 -69.667 -13.333 -95 -40s-38 -61 -38 -103c0 -41.333 12.667 -75.333 38 -102s57 -40 95 -40c34.667 0 64.834 12.167 90.501 36.5z" />
    <glyph glyph-name="A" unicode="A" horiz-adv-x="663" 
d="M493 134h-324l-56 -134h-82l286 671h29l286 -671h-83zM331 529l-132 -325h264z" />
    <glyph glyph-name="B" unicode="B" horiz-adv-x="616" 
d="M538 299.5c22.667 -30.333 34.001 -66.832 34.001 -109.499c0 -36.667 -8.33301 -69.334 -25 -98.001s-40.834 -51.167 -72.501 -67.5s-68.834 -24.5 -111.501 -24.5h-272v660h227c57.333 0 103 -15.667 137 -47s51 -71.333 51 -120c0 -27.333 -5.5 -52 -16.5 -74
s-26.5 -40.667 -46.5 -56c40.667 -12 72.334 -33.167 95.001 -63.5zM169.001 590.001v-204.999h141c37.333 0 66 9.33301 86 28s30 43.667 30 75s-9.83301 56.166 -29.5 74.499s-48.5 27.5 -86.5 27.5h-141zM456.001 103.502c24 22.333 36 51.833 36 88.5
s-12 66.167 -36 88.5s-57.667 33.5 -101 33.5h-186v-244h186c43.333 0 77 11.167 101 33.5z" />
    <glyph glyph-name="C" unicode="C" horiz-adv-x="715" 
d="M218 34c-52.667 30 -94.168 71 -124.501 123s-45.5 109.667 -45.5 173s15.167 121 45.5 173s71.833 93 124.5 123s110.334 45 173.001 45c58.667 0 112 -12.833 160 -38.5s86 -60.167 114 -103.5l-58 -46c-25.333 36.667 -56.166 65.167 -92.499 85.5
s-77.166 30.5 -122.499 30.5c-49.333 0 -94 -11.667 -134 -35s-71.5 -55.5 -94.5 -96.5s-34.5 -86.833 -34.5 -137.5s11.5 -96.5 34.5 -137.5s54.5 -73.167 94.5 -96.5s84.667 -35 134 -35c45.333 0 86.166 10.167 122.499 30.5s67.166 48.833 92.499 85.5l58 -46
c-27.333 -43.333 -65.166 -77.833 -113.499 -103.5s-101.833 -38.5 -160.5 -38.5c-62.667 0 -120.334 15 -173.001 45z" />
    <glyph glyph-name="D" unicode="D" horiz-adv-x="694" 
d="M91 660h196c73.333 0 137 -14 191 -42s95.5 -66.833 124.5 -116.5s43.5 -106.5 43.5 -170.5c0 -63.333 -14.5 -120 -43.5 -170s-70.5 -89.333 -124.5 -118s-117.667 -43 -191 -43h-196v660zM286 70c57.333 0 107.167 11.333 149.5 34s74.5 53.667 96.5 93s33 84 33 134
c0 50.667 -11 95.5 -33 134.5s-54 69.5 -96 91.5s-92 33 -150 33h-117v-520h117z" />
    <glyph glyph-name="E" unicode="E" horiz-adv-x="566" 
d="M91 660h423v-70h-345v-202h264v-70h-264v-248h357v-70h-435v660z" />
    <glyph glyph-name="F" unicode="F" horiz-adv-x="524" 
d="M91 660h413v-70h-335v-227h278v-71h-278v-292h-78v660z" />
    <glyph glyph-name="G" unicode="G" horiz-adv-x="746" 
d="M217.5 34c-52.333 30 -93.668 71.0029 -124.001 123.003s-45.5 109.667 -45.5 173s15.167 121 45.5 173s71.666 93 123.999 123s110.166 45 173.499 45c56 0 107.167 -11.833 153.5 -35.5s84.833 -56.834 115.5 -99.501l-59 -46
c-25.333 34.667 -55.666 61.5 -90.999 80.5s-75 28.5 -119 28.5c-50 0 -95 -11.667 -135 -35s-71.167 -55.5 -93.5 -96.5s-33.5 -86.5 -33.5 -136.5c0 -50.667 11.333 -96.834 34 -138.501s54.334 -74.334 95.001 -98.001s86.334 -35.5 137.001 -35.5c48 0 91 10.667 129 32
s68.333 50 91 86v89h-225v70h303v-176c-29.333 -52 -70.833 -93.5 -124.5 -124.5s-112.834 -46.5 -177.501 -46.5c-63.333 0 -121.166 15 -173.499 45z" />
    <glyph glyph-name="H" unicode="H" horiz-adv-x="708" 
d="M91 660h78v-272h370v272h78v-660h-78v318h-370v-318h-78v660z" />
    <glyph glyph-name="I" unicode="I" horiz-adv-x="259" 
d="M91 660h78v-660h-78v660z" />
    <glyph glyph-name="J" unicode="J" horiz-adv-x="373" 
d="M24 0v67.001c27.333 -4 51.333 -6 72 -6c35.333 0 62.333 7.16699 81 21.5s28 40.166 28 77.499v500h78v-507c0 -55.333 -15.333 -96.5 -46 -123.5s-72.667 -40.5 -126 -40.5c-26 0 -55 3.66699 -87 11z" />
    <glyph glyph-name="K" unicode="K" horiz-adv-x="633" 
d="M91 660h78v-660h-78v660zM602 0h-99l-325 354l297 306h100l-295 -306z" />
    <glyph glyph-name="L" unicode="L" horiz-adv-x="506" 
d="M91 660h78v-590h313v-70h-391v660z" />
    <glyph glyph-name="M" unicode="M" horiz-adv-x="789" 
d="M698 671v-671h-78v473l-211 -286h-28l-212 288v-475h-78v671h28l275 -381l277 381h27z" />
    <glyph glyph-name="N" unicode="N" horiz-adv-x="708" 
d="M617 660v-671h-28l-420 506v-495h-78v671h28l420 -507v496h78z" />
    <glyph glyph-name="O" unicode="O" horiz-adv-x="781" 
d="M217.5 34c-52.333 30 -93.666 71.167 -123.999 123.5s-45.5 109.833 -45.5 172.5c0 63.333 15.167 121 45.5 173s71.666 93 123.999 123s109.833 45 172.5 45c62 0 119.333 -15 172 -45s94.334 -71 125.001 -123s46 -109.667 46 -173s-15.333 -121 -46 -173
s-72.334 -93 -125.001 -123s-110 -45 -172 -45c-62.667 0 -120.167 15 -172.5 45zM524 96.5c40 23.667 71.333 56.001 94 97.001s34 86.833 34 137.5c0 50 -11.333 95.5 -34 136.5s-54 73.167 -94 96.5s-84.333 35 -133 35c-49.333 0 -94 -11.667 -134 -35
s-71.333 -55.333 -94 -96s-34 -86.334 -34 -137.001s11.333 -96.5 34 -137.5s54 -73.333 94 -97s84.667 -35.5 134 -35.5c48.667 0 93 11.833 133 35.5z" />
    <glyph glyph-name="P" unicode="P" horiz-adv-x="573" 
d="M91 660l232 -0.00195312c42.667 0 79.834 -8.16699 111.501 -24.5s56.167 -39 73.5 -68s26 -61.833 26 -98.5c0 -37.333 -8.66699 -70.666 -26 -99.999s-41.833 -52.166 -73.5 -68.499s-68.834 -24.5 -111.501 -24.5h-154v-276h-78v660zM321 345.998
c42 0 74.5 11.167 97.5 33.5s34.5 51.833 34.5 88.5c0 36 -11.5 65.333 -34.5 88s-55.5 34 -97.5 34h-152v-244h152z" />
    <glyph glyph-name="Q" unicode="Q" horiz-adv-x="781" 
d="M1040 -131l-0.00292969 -62.002c-36.667 -6.66699 -72 -10 -106 -10c-86 0 -164 18.5 -234 55.5s-130 90.833 -180 161.5c-41.333 -16.667 -84.666 -25 -129.999 -25c-62.667 0 -120.167 15 -172.5 45s-93.666 71.167 -123.999 123.5s-45.5 109.833 -45.5 172.5
c0 63.333 15.167 121 45.5 173s71.666 93 123.999 123s109.833 45 172.5 45c62 0 119.333 -15 172 -45s94.334 -71 125.001 -123s46 -109.667 46 -173c0 -58.667 -13.333 -112.667 -40 -162s-63 -89.666 -109 -120.999c46.667 -61.333 99.334 -107.166 158.001 -137.499
s126 -45.5 202 -45.5c27.333 0 59.333 1.66699 96 5zM162.997 193.498c22.667 -41 54.001 -73.332 94.001 -96.999s84.667 -35.5 134 -35.5c48.667 0 93 11.833 133 35.5s71.333 56 94 97s34 86.5 34 136.5c0 50.667 -11.333 96.5 -34 137.5s-54 73.167 -94 96.5
s-84.667 35 -134 35s-93.833 -11.667 -133.5 -35s-70.834 -55.333 -93.501 -96s-34 -86.334 -34 -137.001s11.333 -96.5 34 -137.5z" />
    <glyph glyph-name="R" unicode="R" horiz-adv-x="622" 
d="M515 0l-205.001 277h-141v-277h-78v660h232c42.667 0 79.834 -8.16699 111.501 -24.5s56.167 -39 73.5 -68s26 -61.833 26 -98.5c0 -44.667 -12.333 -83.167 -37 -115.5s-58.667 -54.833 -102 -67.5l211 -286h-91zM168.999 347h151c42.667 0 75.5 11 98.5 33
s34.5 51.333 34.5 88c0 36 -11.667 65.333 -35 88s-56 34 -98 34h-151v-243z" />
    <glyph glyph-name="S" unicode="S" horiz-adv-x="558" 
d="M143.5 27c-42.333 25.333 -76.5 60.0029 -102.5 104.003l58 43c49.333 -75.333 110.666 -113 183.999 -113c39.333 0 71.333 10 96 30s37 46.667 37 80c0 19.333 -4.33301 35.666 -13 48.999s-20.5 24.666 -35.5 33.999s-35.5 20.333 -61.5 33l-74 35
c-45.333 21.333 -81.5 45.166 -108.5 71.499s-40.5 61.5 -40.5 105.5c0 34 9 64 27 90s42.167 46.167 72.5 60.5s63.5 21.5 99.5 21.5c44 0 84.167 -10.333 120.5 -31s65.166 -47.667 86.499 -81l-57 -43c-18 26.667 -40.167 47.167 -66.5 61.5s-54.5 21.5 -84.5 21.5
c-32.667 0 -60.334 -8.33301 -83.001 -25s-34 -40.334 -34 -71.001c0 -18.667 4.33301 -34.5 13 -47.5s19.834 -23.667 33.501 -32s33.5 -18.833 59.5 -31.5l73 -35c52 -25.333 90.667 -51.666 116 -78.999s38 -62.333 38 -105c0 -36 -9.16699 -68 -27.5 -96
s-43.666 -49.667 -75.999 -65s-68.833 -23 -109.5 -23c-51.333 0 -98.166 12.667 -140.499 38z" />
    <glyph glyph-name="T" unicode="T" horiz-adv-x="581" 
d="M251 590h-232v70h543v-70h-233v-590h-78v590z" />
    <glyph glyph-name="U" unicode="U" horiz-adv-x="689" 
d="M208.5 21c-39.667 21.333 -70.667 52.5 -93 93.5s-33.5 90.167 -33.5 147.5v398h78v-403c0 -64 17.167 -112.667 51.5 -146s78.833 -50 133.5 -50c54 0 98 16.667 132 50s51 82 51 146v403h78v-398c0 -57.333 -11.167 -106.5 -33.5 -147.5s-53.333 -72.167 -93 -93.5
s-84.5 -32 -134.5 -32c-51.333 0 -96.833 10.667 -136.5 32z" />
    <glyph glyph-name="V" unicode="V" horiz-adv-x="663" 
d="M632 660l-286 -671h-29l-286 671h86l215 -518l214 518h86z" />
    <glyph glyph-name="W" unicode="W" horiz-adv-x="1066" 
d="M1020 660l-250 -671h-28l-209 524l-209 -524h-28l-251 671h86l182 -503l206 514h28l206 -513l182 502h85z" />
    <glyph glyph-name="X" unicode="X" horiz-adv-x="599" 
d="M478 0l-178 271l-179 -271h-91l227 338l-211 322h90l164 -257l163 257h90l-208 -323l224 -337h-91z" />
    <glyph glyph-name="Y" unicode="Y" horiz-adv-x="616" 
d="M347 273v-273h-78v273l-229 387h88l180 -310l181 310h87z" />
    <glyph glyph-name="Z" unicode="Z" horiz-adv-x="589" 
d="M555 70v-70h-523v23l398 567h-355v70h479v-23l-400 -567h401z" />
    <glyph glyph-name="bracketleft" unicode="[" horiz-adv-x="343" 
d="M101 729h191v-68h-116v-722h116v-70h-191v860z" />
    <glyph glyph-name="backslash" unicode="\" horiz-adv-x="628" 
d="M7 780h91l523 -901h-91z" />
    <glyph glyph-name="bracketright" unicode="]" horiz-adv-x="343" 
d="M50 -61h117v722h-117v68h191v-860h-191v70z" />
    <glyph glyph-name="asciicircum" unicode="^" horiz-adv-x="512" 
d="M372 284l-116 248l-116 -248h-80l182 386h28l182 -386h-80z" />
    <glyph glyph-name="underscore" unicode="_" horiz-adv-x="506" 
d="M43 -75h419v-65h-419v65z" />
    <glyph glyph-name="grave" unicode="`" horiz-adv-x="600" 
d="M210 766v14h94l85 -214h-59z" />
    <glyph glyph-name="a" unicode="a" horiz-adv-x="528" 
d="M398 447c34.667 -34 51.999 -83 51.999 -147v-300h-72v63c-18 -24 -41 -42.333 -69 -55s-59.667 -19 -95 -19c-50 0 -90.833 12.333 -122.5 37s-47.5 58 -47.5 100c0 41.333 16 74.333 48 99s74.333 37 127 37h154v42c0 40 -10.5 70.5 -31.5 91.5
s-49.833 31.5 -86.5 31.5c-29.333 0 -55.333 -6.5 -78 -19.5s-44 -32.5 -64 -58.5l-51 42c22 36 50.333 62.833 85 80.5s72.334 26.5 113.001 26.5c57.333 0 103.333 -17 138 -51zM297.999 70.5c22.667 11.667 40.832 27.833 54.499 48.5s20.5 43.334 20.5 68.001v12h-145
c-34 0 -60 -5.83301 -78 -17.5s-27 -28.834 -27 -51.501c0 -24.667 9.66699 -43.667 29 -57s43.333 -20 72 -20c26.667 0 51.334 5.83301 74.001 17.5z" />
    <glyph glyph-name="b" unicode="b" horiz-adv-x="632" 
d="M464 464.5c36.667 -22.333 65.5 -53 86.5 -92s31.5 -82.167 31.5 -129.5s-10.333 -90.333 -31 -129s-49.334 -69.167 -86.001 -91.5s-77.667 -33.5 -123 -33.5c-38 0 -73.667 7.83301 -107 23.5s-59.333 37.167 -78 64.5v-77h-72v750h77v-334
c19.333 25.333 44.833 45.333 76.5 60s65.834 22 102.501 22c45.333 0 86.333 -11.167 123 -33.5zM418.5 84c26.333 16 47.001 38 62.001 66s22.5 59.333 22.5 94s-7.5 66 -22.5 94s-35.667 49.833 -62 65.5s-55.833 23.5 -88.5 23.5c-30 0 -57.833 -6.66699 -83.5 -20
s-46.334 -33.833 -62.001 -61.5s-23.5 -61.834 -23.5 -102.501s8 -74.667 24 -102s36.833 -47.666 62.5 -60.999s53.167 -20 82.5 -20c32.667 0 62.167 8 88.5 24z" />
    <glyph glyph-name="c" unicode="c" horiz-adv-x="551" 
d="M176.5 23c-39 22.667 -69.835 53.498 -92.502 92.498s-34 81.833 -34 128.5s11.333 89.334 34 128.001s53.5 69.334 92.5 92.001s81.833 34 128.5 34c42.667 0 81.334 -9.5 116.001 -28.5s63 -44.833 85 -77.5l-55 -44c-39.333 52.667 -87.666 79 -144.999 79
c-33.333 0 -63.5 -8.16699 -90.5 -24.5s-48.167 -38.5 -63.5 -66.5s-23 -58.667 -23 -92c0 -34 7.66699 -65 23 -93s36.5 -50.167 63.5 -66.5s57.167 -24.5 90.5 -24.5c57.333 0 105.333 26 144 78l55 -43c-22 -32.667 -50.167 -58.5 -84.5 -77.5
s-72.833 -28.5 -115.5 -28.5c-46.667 0 -89.5 11.333 -128.5 34z" />
    <glyph glyph-name="d" unicode="d" horiz-adv-x="632" 
d="M548 750v-750h-73v77c-18.667 -27.333 -44.5 -48.833 -77.5 -64.5s-68.5 -23.5 -106.5 -23.5c-45.333 0 -86.333 11.167 -123 33.5s-65.5 52.833 -86.5 91.5s-31.5 81.667 -31.5 129s10.5 90.5 31.5 129.5s49.833 69.667 86.5 92s77.667 33.5 123 33.5
c36.667 0 71 -7.33301 103 -22s57.667 -35 77 -61v335h77zM385 80c26 13.333 47 33.666 63 60.999s24 61.333 24 102s-8 74.834 -24 102.501s-37 48.167 -63 61.5s-53.667 20 -83 20c-32.667 0 -62.167 -7.83301 -88.5 -23.5s-47 -37.5 -62 -65.5s-22.5 -59.333 -22.5 -94
s7.5 -66 22.5 -94s35.667 -50 62 -66s55.833 -24 88.5 -24c29.333 0 57 6.66699 83 20z" />
    <glyph glyph-name="e" unicode="e" horiz-adv-x="571" 
d="M515 220h-385c4.66699 -48 23.667 -86.667 57 -116s74 -44 122 -44c55.333 0 105 22 149 66l45 -52c-25.333 -26.667 -54.5 -47.5 -87.5 -62.5s-68.833 -22.5 -107.5 -22.5c-48 0 -91.667 11.167 -131 33.5s-70.333 52.833 -93 91.5s-34 81.667 -34 129
c0 46.667 11 89.5 33 128.5s52 69.833 90 92.5s80 34 126 34c41.333 0 79 -9.33301 113 -28s60.667 -44.667 80 -78s29 -71.333 29 -114c0 -18.667 -2 -38 -6 -58zM191 389.5c-30 -25.667 -49.3311 -59.5 -57.998 -101.5h309c-0.666992 43.333 -14.834 77.5 -42.501 102.5
s-61.834 37.5 -102.501 37.5s-76 -12.833 -106 -38.5z" />
    <glyph glyph-name="f" unicode="f" horiz-adv-x="303" 
d="M200.5 670.5c-17.667 -13.667 -26.498 -37.833 -26.498 -72.5v-111h122v-69h-122v-418h-77v418h-70v69h70v116c0 53.333 14.5 93 43.5 119s68.167 39 117.5 39c21.333 0 41.666 -2.66699 60.999 -8v-65c-16 2 -30.333 3 -43 3c-32.667 0 -57.834 -6.83301 -75.501 -20.5z
" />
    <glyph glyph-name="g" unicode="g" horiz-adv-x="637" 
d="M553 487l-0.00292969 -440c0 -74 -21.5 -132.167 -64.5 -174.5s-100.5 -63.5 -172.5 -63.5c-47.333 0 -90.5 8.83301 -129.5 26.5s-72.167 40.167 -99.5 67.5l45 54c27.333 -24 55.333 -42.833 84 -56.5s61.334 -20.5 98.001 -20.5c50.667 0 90.334 14 119.001 42
s43 68.333 43 121v43c-19.333 -25.333 -45.166 -45.166 -77.499 -59.499s-66.833 -21.5 -103.5 -21.5c-45.333 0 -86.166 10.667 -122.499 32s-64.833 50.666 -85.5 87.999s-31 79.333 -31 126s10.333 88.667 31 126s49.167 66.833 85.5 88.5s77.166 32.5 122.499 32.5
c38.667 0 74.5 -7.83301 107.5 -23.5s58.833 -37.5 77.5 -65.5v78h73zM390.497 95c25.667 12.667 46.5 32.167 62.5 58.5s24 58.833 24 97.5s-8 71 -24 97s-37 45.333 -63 58s-53.667 19 -83 19c-32.667 0 -62.167 -7.5 -88.5 -22.5s-47 -35.667 -62 -62
s-22.5 -56.5 -22.5 -90.5s7.5 -64.167 22.5 -90.5s35.667 -46.833 62 -61.5s55.833 -22 88.5 -22c30 0 57.833 6.33301 83.5 19z" />
    <glyph glyph-name="h" unicode="h" horiz-adv-x="566" 
d="M440 445c32 -35.333 48 -81.668 48 -139.001v-306h-77v296c0 39.333 -10.833 71 -32.5 95s-51.167 36 -88.5 36s-68 -12.333 -92 -37s-36 -56 -36 -94v-296h-77v750h77v-318c16.667 20.667 37.5 36.834 62.5 48.501s52.833 17.5 83.5 17.5c56 0 100 -17.667 132 -53z" />
    <glyph glyph-name="i" unicode="i" horiz-adv-x="246" 
d="M85 487h77v-487h-77v487zM83 633c-11.333 10.667 -16.999 24 -16.999 40c0 15.333 5.66699 28.5 17 39.5s25 16.5 41 16.5c15.333 0 28.666 -5.5 39.999 -16.5s17 -24.167 17 -39.5c0 -16 -5.5 -29.333 -16.5 -40s-24.5 -16 -40.5 -16s-29.667 5.33301 -41 16z" />
    <glyph glyph-name="j" unicode="j" horiz-adv-x="246" 
d="M-60 -183v65c16.667 -2 31.667 -3 45 -3c32 0 56.667 7 74 21s26 38 26 72v515h77v-520c0 -53.333 -14.5 -93 -43.5 -119s-67.833 -39 -116.5 -39c-22 0 -42.667 2.66699 -62 8zM83 633c-11.333 10.667 -16.999 24 -16.999 40c0 15.333 5.66699 28.5 17 39.5
s25 16.5 41 16.5c15.333 0 28.666 -5.5 39.999 -16.5s17 -24.167 17 -39.5c0 -16 -5.5 -29.333 -16.5 -40s-24.5 -16 -40.5 -16s-29.667 5.33301 -41 16z" />
    <glyph glyph-name="k" unicode="k" horiz-adv-x="506" 
d="M85 750h77v-750h-77v750zM493 0h-99l-224 274l203 213h101l-211 -214z" />
    <glyph glyph-name="l" unicode="l" horiz-adv-x="246" 
d="M85 750h77v-750h-77v750z" />
    <glyph glyph-name="m" unicode="m" horiz-adv-x="874" 
d="M749.5 445.5c31 -35 46.501 -81.498 46.501 -139.498v-306h-77v296c0 39.333 -10.167 71 -30.5 95s-48.5 36 -84.5 36c-36.667 0 -66.667 -12 -90 -36s-35 -53.333 -35 -88v-303h-77v296c0 39.333 -10.5 71 -31.5 95s-49.167 36 -84.5 36
c-36.667 0 -66.5 -12.167 -89.5 -36.5s-34.5 -55.833 -34.5 -94.5v-296h-77v487h72v-51c17.333 20 38.333 35.333 63 46s52 16 82 16c35.333 0 65.666 -7.33301 90.999 -22s45 -35.334 59 -62.001c18 25.333 41.333 45.666 70 60.999s61 23 97 23
c56 0 99.5 -17.5 130.5 -52.5z" />
    <glyph glyph-name="n" unicode="n" horiz-adv-x="566" 
d="M440 445c32 -35.333 47.999 -81.667 47.999 -139v-306h-77v297c0 38.667 -10.833 70 -32.5 94s-51.167 36 -88.5 36s-68 -12.167 -92 -36.5s-36 -55.5 -36 -93.5v-297h-77v487h72v-52c18 20 39.833 35.5 65.5 46.5s53.834 16.5 84.501 16.5c56.667 0 101 -17.667 133 -53
z" />
    <glyph glyph-name="o" unicode="o" horiz-adv-x="610" 
d="M176 24c-38.667 22.667 -69.332 53.502 -91.999 92.502s-34 81.5 -34 127.5c0 46.667 11.333 89.5 34 128.5s53.5 69.667 92.5 92s81.833 33.5 128.5 33.5s89.5 -11.333 128.5 -34s69.833 -53.334 92.5 -92.001s34 -81.334 34 -128.001c0 -46 -11.333 -88.5 -34 -127.5
s-53.667 -69.833 -93 -92.5s-82.333 -34 -129 -34s-89.334 11.333 -128.001 34zM393.502 85.002c27 16 48.332 37.833 63.999 65.5s23.5 58.5 23.5 92.5c0 34.667 -7.66699 66 -23 94s-36.5 50 -63.5 66s-56.833 24 -89.5 24c-33.333 0 -63.333 -8 -90 -24
s-47.667 -38 -63 -66s-23 -59.333 -23 -94c0 -34 7.66699 -64.833 23 -92.5s36.333 -49.5 63 -65.5s56.334 -24 89.001 -24s62.5 8 89.5 24z" />
    <glyph glyph-name="p" unicode="p" horiz-adv-x="632" 
d="M465 464.5c36.667 -22.333 65.333 -52.832 86 -91.499s31 -81.667 31 -129s-10.5 -90.5 -31.5 -129.5s-49.833 -69.667 -86.5 -92s-77.667 -33.5 -123 -33.5c-36 0 -69.833 7.16699 -101.5 21.5s-57.5 34.166 -77.5 59.499v-250h-77v667h72v-78
c18.667 28 44.5 49.833 77.5 65.5s68.5 23.5 106.5 23.5c46 0 87.333 -11.167 124 -33.5zM418.499 83.501c26.333 15.667 46.999 37.5 61.999 65.5s22.5 59.333 22.5 94s-7.5 66 -22.5 94s-35.667 50 -62 66s-55.833 24 -88.5 24c-29.333 0 -56.833 -6.66699 -82.5 -20
s-46.5 -33.666 -62.5 -60.999s-24 -61.333 -24 -102s7.83301 -74.834 23.5 -102.501s36.334 -48.167 62.001 -61.5s53.5 -20 83.5 -20c32.667 0 62.167 7.83301 88.5 23.5z" />
    <glyph glyph-name="q" unicode="q" horiz-adv-x="632" 
d="M548 487v-667h-77v251c-19.333 -26 -45 -46.167 -77 -60.5s-66.333 -21.5 -103 -21.5c-45.333 0 -86.333 11.167 -123 33.5s-65.5 53 -86.5 92s-31.5 82.167 -31.5 129.5s10.5 90.333 31.5 129s49.833 69.167 86.5 91.5s77.667 33.5 123 33.5
c38 0 73.5 -7.83301 106.5 -23.5s58.833 -37.5 77.5 -65.5v78h73zM385 80c26 13.333 47 33.833 63 61.5s24 61.834 24 102.501s-8 74.667 -24 102s-37 47.666 -63 60.999s-53.667 20 -83 20c-32.667 0 -62.167 -8 -88.5 -24s-47 -38 -62 -66s-22.5 -59.333 -22.5 -94
s7.5 -66 22.5 -94s35.667 -49.833 62 -65.5s55.833 -23.5 88.5 -23.5c29.333 0 57 6.66699 83 20z" />
    <glyph glyph-name="r" unicode="r" horiz-adv-x="362" 
d="M344 487l-0.000976562 -68.001h-29c-27.333 0 -52.666 -5.66699 -75.999 -17s-42 -27.666 -56 -48.999s-21 -47 -21 -77v-276h-77v487h72v-69c17.333 23.333 39.5 41.333 66.5 54s55.167 19 84.5 19c10.667 0 22.667 -1.33301 36 -4z" />
    <glyph glyph-name="s" unicode="s" horiz-adv-x="454" 
d="M119.5 15.5c-32.333 17.667 -59.165 40.502 -80.498 68.502l49 51c23.333 -24 45.666 -42.5 66.999 -55.5s45.666 -19.5 72.999 -19.5c26.667 0 48.834 6.16699 66.501 18.5s26.5 29.166 26.5 50.499c0 19.333 -6.66699 34.166 -20 44.499s-35 21.5 -65 33.5l-47 20
c-40.667 16.667 -71 35.167 -91 55.5s-30 46.833 -30 79.5c0 42.667 15.667 76 47 100s70.333 36 117 36c34 0 64.667 -6.83301 92 -20.5s51 -32.5 71 -56.5l-47 -48c-16.667 16.667 -35.167 29.834 -55.5 39.501s-41.833 14.5 -64.5 14.5c-24 0 -43.5 -5.33301 -58.5 -16
s-22.5 -25.667 -22.5 -45c0 -15.333 5.83301 -27.833 17.5 -37.5s32.167 -20.834 61.5 -33.501l45 -19c45.333 -19.333 78.166 -39.833 98.499 -61.5s30.5 -49.167 30.5 -82.5c0 -45.333 -16.5 -80.5 -49.5 -105.5s-73.5 -37.5 -121.5 -37.5
c-40.667 0 -77.167 8.83301 -109.5 26.5z" />
    <glyph glyph-name="t" unicode="t" horiz-adv-x="381" 
d="M351 65l-0.000976562 -64.999c-30.667 -7.33301 -57.667 -11 -81 -11c-50.667 0 -90.667 13 -120 39s-44 65.667 -44 119v271h-82v69h82v133h77v-133h152v-69h-152v-266c0 -34.667 8.83301 -58.834 26.5 -72.501s43.167 -20.5 76.5 -20.5c18.667 0 40.334 2 65.001 6z
" />
    <glyph glyph-name="u" unicode="u" 
d="M178 14.5c-30.667 17 -54.832 40.998 -72.499 71.998s-26.5 66.833 -26.5 107.5v293h76v-298c0 -39.333 12 -70.666 36 -93.999s54 -35 90 -35c35.333 0 64.833 11.833 88.5 35.5s35.5 54.834 35.5 93.501v298h77v-293c0 -40.667 -8.83301 -76.5 -26.5 -107.5
s-41.834 -55 -72.501 -72s-64.667 -25.5 -102 -25.5c-38 0 -72.333 8.5 -103 25.5z" />
    <glyph glyph-name="v" unicode="v" horiz-adv-x="539" 
d="M513 487l-229 -498h-28l-230 498h82l162 -367l161 367h82z" />
    <glyph glyph-name="w" unicode="w" horiz-adv-x="851" 
d="M824 487l-205 -498h-28l-166 368l-165 -368h-27l-207 498h82l141 -361l162 372h29l164 -369l138 358h82z" />
    <glyph glyph-name="x" unicode="x" horiz-adv-x="497" 
d="M387 0l-139 200l-138 -200h-90l181 254l-166 233h89l124 -179l125 179h89l-169 -233l183 -254h-89z" />
    <glyph glyph-name="y" unicode="y" horiz-adv-x="539" 
d="M513 487l-240.001 -554.998c-18.667 -42.667 -41.5 -73.834 -68.5 -93.501s-59.167 -29.5 -96.5 -29.5c-24.667 0 -49.667 3.33301 -75 10v65c25.333 -3.33301 45 -5 59 -5c25.333 0 46.833 5.66699 64.5 17s32.834 31.666 45.501 60.999l26 58l-202 472h83l161 -388
l161 388h82z" />
    <glyph glyph-name="z" unicode="z" horiz-adv-x="454" 
d="M427 68v-68h-400v23l278 395h-255v69h374v-23l-279 -396h282z" />
    <glyph glyph-name="braceleft" unicode="{" horiz-adv-x="397" 
d="M219 577c0 -21.333 4.33301 -53.667 13 -97c8 -46.667 12 -78.667 12 -96c0 -22 -4.33301 -39.667 -13 -53s-22 -24 -40 -32c18 -8 31.333 -18.667 40 -32s13 -31 13 -53c0 -16.667 -4 -48.334 -12 -95.001c-8.66699 -43.333 -13 -76 -13 -98c0 -56 26 -84 78 -84h49v-68
h-63c-92 0 -138 44.333 -138 133c0 16 1.5 35.167 4.5 57.5s6.5 43.833 10.5 64.5c7.33301 40.667 11 68.334 11 83.001c0 38.667 -20.333 58 -61 58h-57v68h57c40.667 0 61 19.333 61 58c0 15.333 -3.66699 43 -11 83c-4 20.667 -7.5 42.167 -10.5 64.5
s-4.5 41.5 -4.5 57.5c0 88.667 46 133 138 133h63v-68h-49c-52 0 -78 -28 -78 -84z" />
    <glyph glyph-name="bar" unicode="|" horiz-adv-x="332" 
d="M133 780h66v-901h-66v901z" />
    <glyph glyph-name="braceright" unicode="}" horiz-adv-x="397" 
d="M344 333v-67.999h-57c-40.667 0 -61 -19.333 -61 -58c0 -14.667 3.66699 -42.334 11 -83.001c1.33301 -7.33301 4 -24.5 8 -51.5s6 -50.5 6 -70.5c0 -88.667 -45.667 -133 -137 -133h-64v68h50c52 0 78 28 78 84c0 22 -4.33301 54.667 -13 98
c-8 46.667 -12 78.334 -12 95.001c0 22 4.33301 39.667 13 53s22 24 40 32c-18 8 -31.333 18.667 -40 32s-13 31 -13 53c0 17.333 4 49.333 12 96c8.66699 43.333 13 75.666 13 96.999c0 56 -26 84 -78 84h-50v68h64c91.333 0 137 -44.333 137 -133c0 -20 -2 -43.5 -6 -70.5
s-6.66699 -44.167 -8 -51.5c-7.33301 -40 -11 -67.667 -11 -83c0 -38.667 20.333 -58 61 -58h57z" />
    <glyph glyph-name="asciitilde" unicode="~" 
d="M319 250l-93.9971 56.999c-28.667 17.333 -49 26 -61 26s-21.5 -4.16699 -28.5 -12.5s-10.5 -19.166 -10.5 -32.499v-29h-63l-1 37c0 29.333 8.66699 54.5 26 75.5s40.333 31.5 69 31.5c26.667 0 54.667 -9 84 -27l94 -57c13.333 -8 24.666 -14.167 33.999 -18.5
s18.666 -6.5 27.999 -6.5c12 0 21.333 4.16699 28 12.5s10 18.833 10 31.5v29h63c1.33301 -18.667 2 -31 2 -37c0 -30 -8.83301 -55.167 -26.5 -75.5s-41.167 -30.5 -70.5 -30.5c-26.667 0 -54.334 8.66699 -83.001 26z" />
    <glyph glyph-name="uni00A0" unicode="&#xa0;" horiz-adv-x="280" 
 />
    <glyph glyph-name="exclamdown" unicode="&#xa1;" horiz-adv-x="305" 
d="M107.5 389.5c-12.333 11.667 -18.5 26.834 -18.5 45.501c0 18 6.16699 33 18.5 45s27.166 18 44.499 18c18 0 33 -6 45 -18s18 -27 18 -45c0 -18.667 -6 -33.834 -18 -45.501s-27 -17.5 -45 -17.5c-17.333 0 -32.166 5.83301 -44.499 17.5zM120 278h64l15 -458h-94z" />
    <glyph glyph-name="cent" unicode="&#xa2;" horiz-adv-x="554" 
d="M437 223l53.001 -44.002c-20 -29.333 -44.833 -53.166 -74.5 -71.499s-62.5 -29.5 -98.5 -33.5v-168h-77v172c-38.667 7.33301 -73.5 23 -104.5 47s-55.333 53.667 -73 89s-26.5 73.333 -26.5 114s8.83301 78.667 26.5 114s42 64.833 73 88.5s65.833 39.167 104.5 46.5
v173h77v-169c36.667 -4 69.834 -15.167 99.501 -33.5s54.5 -42.166 74.5 -71.499l-53 -43c-38.667 52 -87.334 78 -146.001 78c-33.333 0 -63.5 -8.16699 -90.5 -24.5s-48.167 -38.5 -63.5 -66.5s-23 -58.667 -23 -92c0 -34 7.66699 -65 23 -93s36.5 -50.167 63.5 -66.5
s57.167 -24.5 90.5 -24.5c57.333 0 105.666 26.333 144.999 79z" />
    <glyph glyph-name="sterling" unicode="&#xa3;" horiz-adv-x="529" 
d="M252.5 132.5c-10.333 -25 -25.167 -46.5 -44.5 -64.5h276v-68h-427v20c88.667 55.333 133 119 133 191c0 11.333 -1 22.333 -3 33h-120v68h96c-6.66699 14 -13 26.333 -19 37c-16 30 -27.833 55.5 -35.5 76.5s-11.5 44.5 -11.5 70.5c0 34.667 8.16699 65.167 24.5 91.5
s39 46.833 68 61.5s61.833 22 98.5 22c50.667 0 93.667 -14.167 129 -42.5s60.333 -68.5 75 -120.5l-69 -26c-24.667 78 -68.334 117 -131.001 117c-36 0 -64.167 -11 -84.5 -33s-30.5 -49.333 -30.5 -82c0 -20 3.33301 -38.333 10 -55s17.334 -39 32.001 -67
c10 -18 18.667 -34.667 26 -50h159v-68h-138c1.33301 -13.333 2 -24 2 -32c0 -28 -5.16699 -54.5 -15.5 -79.5z" />
    <glyph glyph-name="currency" unicode="&#xa4;" horiz-adv-x="643" 
d="M506 192l110.001 -110l-46 -46l-112 111c-41.333 -28.667 -87.333 -43 -138 -43c-49.333 0 -94.333 14 -135 42l-111 -110l-47 46l110 111c-31.333 38.667 -47 84.334 -47 137.001c0 51.333 15.667 97.666 47 138.999l-110 110l47 46l111 -111c40.667 28 86 42 136 42
c51.333 0 96.666 -14 135.999 -42l112 111l47 -46l-110 -110c32 -40.667 48 -87 48 -139c0 -51.333 -16 -97.333 -48 -138zM399.501 195.5c23.667 13.667 42.167 32.167 55.5 55.5s20 49.333 20 78c0 29.333 -6.83301 56 -20.5 80s-32.167 42.833 -55.5 56.5
s-49.333 20.5 -78 20.5s-54.667 -6.83301 -78 -20.5s-41.5 -32.5 -54.5 -56.5s-19.5 -50.667 -19.5 -80c0 -28.667 6.5 -54.667 19.5 -78s31 -41.833 54 -55.5s48.833 -20.5 77.5 -20.5c29.333 0 55.833 6.83301 79.5 20.5z" />
    <glyph glyph-name="yen" unicode="&#xa5;" horiz-adv-x="552" 
d="M334 360h177v-68h-195v-92h195v-69h-195v-131h-78v131h-194v69h194v92h-194v68h175l-210 300h88l180 -259l180 259h87z" />
    <glyph glyph-name="brokenbar" unicode="&#xa6;" horiz-adv-x="332" 
d="M133 780h66v-300h-66v300zM133 179h66v-300h-66v300z" />
    <glyph glyph-name="section" unicode="&#xa7;" horiz-adv-x="579" 
d="M509.5 80.5c-22.333 -22.333 -52.834 -36.833 -91.501 -43.5c0.666992 -2.66699 1 -7 1 -13c0 -40.667 -14.5 -74.667 -43.5 -102s-68.167 -41 -117.5 -41c-68 0 -124.667 29.333 -170 88l57 47c18.667 -22 37.5 -38 56.5 -48s39.167 -15 60.5 -15
c24 0 43 5.83301 57 17.5s21 28.5 21 50.5s-6.16699 40.833 -18.5 56.5s-32.166 34.5 -59.499 56.5l-17 14l-106 87c-36 29.333 -62.333 55.666 -79 78.999s-25 49.333 -25 78c0 32.667 11.167 60.167 33.5 82.5s52.833 36.833 91.5 43.5c-0.666992 3.33301 -1 8 -1 14
c0 26 6.5 49.833 19.5 71.5s31.833 38.834 56.5 51.501s53.334 19 86.001 19c68 0 124.667 -29.333 170 -88l-57 -46c-19.333 21.333 -38.5 37.166 -57.5 47.499s-38.833 15.5 -59.5 15.5c-24 0 -43.167 -6 -57.5 -18s-21.5 -28.667 -21.5 -50s6.16699 -39.833 18.5 -55.5
s32.166 -34.5 59.499 -56.5l18 -15l105 -88c35.333 -28.667 61.5 -54.667 78.5 -78s25.5 -49.333 25.5 -78c0 -33.333 -11.167 -61.166 -33.5 -83.499zM447.999 122.5c11.333 10.333 17 24.499 17 42.499c0 14.667 -5.16699 28.5 -15.5 41.5s-30.833 32.167 -61.5 57.5
l-106 88c-24.667 20 -45.334 38.333 -62.001 55s-30 33.334 -40 50.001c-21.333 -6 -37.666 -14.167 -48.999 -24.5s-17 -24.5 -17 -42.5c0 -15.333 5.16699 -29.333 15.5 -42s30.833 -31.667 61.5 -57l105 -87c50.667 -40.667 84.667 -76 102 -106
c22 6 38.667 14.167 50 24.5z" />
    <glyph glyph-name="dieresis" unicode="&#xa8;" horiz-adv-x="600" 
d="M155 636c-11.333 10.667 -17 23 -17 37c0 14.667 5.66699 27.334 17 38.001s24 16 38 16c15.333 0 28.5 -5.33301 39.5 -16s16.5 -23.334 16.5 -38.001s-5.5 -27.167 -16.5 -37.5s-24.167 -15.5 -39.5 -15.5c-14 0 -26.667 5.33301 -38 16zM367 636
c-11.333 10.667 -17 23 -17 37c0 14.667 5.66699 27.334 17 38.001s24.333 16 39 16c15.333 0 28.333 -5.33301 39 -16s16 -23.334 16 -38.001s-5.33301 -27.167 -16 -37.5s-23.667 -15.5 -39 -15.5c-14.667 0 -27.667 5.33301 -39 16z" />
    <glyph glyph-name="copyright" unicode="&#xa9;" horiz-adv-x="781" 
d="M219 34c-52.667 30 -94.332 71 -124.999 123s-46 109.667 -46 173s15.5 121 46.5 173s72.667 93 125 123s109.166 45 170.499 45s118.333 -15 171 -45s94.5 -71 125.5 -123s46.5 -109.667 46.5 -173s-15.5 -121 -46.5 -173s-72.833 -93 -125.5 -123
s-109.667 -45 -171 -45s-118.333 15 -171 45zM531.502 81c43 24.667 77.3311 58.667 102.998 102s38.5 92.333 38.5 147s-12.667 103.667 -38 147s-59.666 77.333 -102.999 102s-90.666 37 -141.999 37s-98.5 -12.333 -141.5 -37s-77.167 -58.667 -102.5 -102
s-38 -92.333 -38 -147s12.667 -103.667 38 -147s59.5 -77.333 102.5 -102s90.167 -37 141.5 -37s98.5 12.333 141.5 37zM303.5 164c-29 16.667 -52.001 39.668 -69.001 69.001s-25.5 61.666 -25.5 96.999c0 36 8.5 68.667 25.5 98s40.167 52.333 69.5 69
s61.666 25 96.999 25c30.667 0 58.834 -6.83301 84.501 -20.5s47.834 -32.834 66.501 -57.501l-49 -42c-28 36.667 -61.667 55 -101 55c-34.667 0 -63.5 -12.167 -86.5 -36.5s-34.5 -54.5 -34.5 -90.5c0 -35.333 11.5 -65.166 34.5 -89.499s51.5 -36.5 85.5 -36.5
c40.667 0 74.667 18 102 54l49 -42c-18.667 -24 -41 -42.833 -67 -56.5s-54.333 -20.5 -85 -20.5c-35.333 0 -67.5 8.33301 -96.5 25z" />
    <glyph glyph-name="ordfeminine" unicode="&#xaa;" horiz-adv-x="356" 
d="M263 527c22.667 -22 33.999 -53.667 33.999 -95v-188h-61v31c-23.333 -25.333 -55.333 -38 -96 -38c-32 0 -57.833 8.33301 -77.5 25s-29.5 38.667 -29.5 66c0 28 10.167 49.833 30.5 65.5s47.833 23.5 82.5 23.5h85v19c0 21.333 -5.83301 37.5 -17.5 48.5
s-28.167 16.5 -49.5 16.5c-16 0 -30.667 -3.16699 -44 -9.5s-27 -15.833 -41 -28.5l-34 43c36 36 78 54 126 54c38.667 0 69.334 -11 92.001 -33zM209.499 309c14.333 12.667 21.501 29.333 21.501 50v10h-75c-17.333 0 -30.666 -3.5 -39.999 -10.5s-14 -16.5 -14 -28.5
c0 -13.333 5.16699 -23.333 15.5 -30s23.166 -10 38.499 -10c21.333 0 39.166 6.33301 53.499 19z" />
    <glyph glyph-name="guillemotleft" unicode="&#xab;" horiz-adv-x="504" 
d="M38 259v23l178 189l50 -45l-141 -155l141 -157l-50 -43zM236 259v23l178 189l50 -45l-141 -155l141 -157l-50 -43z" />
    <glyph glyph-name="logicalnot" unicode="&#xac;" 
d="M396 281h-341v68h418v-253h-77v185z" />
    <glyph glyph-name="uni00AD" unicode="&#xad;" horiz-adv-x="346" 
d="M53 347h239v-65h-239v65z" />
    <glyph glyph-name="registered" unicode="&#xae;" horiz-adv-x="570" 
d="M406.5 649.5c37 -22.333 66.333 -52.5 88 -90.5s32.5 -79.333 32.5 -124s-10.833 -85.834 -32.5 -123.501s-51 -67.667 -88 -90s-77.167 -33.5 -120.5 -33.5s-83.666 11.167 -120.999 33.5s-67 52.333 -89 90s-33 78.834 -33 123.501s11 86 33 124s51.667 68.167 89 90.5
s77.666 33.5 120.999 33.5s83.5 -11.167 120.5 -33.5zM382 264c29.333 17.333 52.5 41.166 69.5 71.499s25.5 63.833 25.5 100.5s-8.5 70 -25.5 100s-40.167 53.667 -69.5 71s-61.333 26 -96 26c-35.333 0 -67.5 -8.66699 -96.5 -26s-52 -41.166 -69 -71.499
s-25.5 -63.5 -25.5 -99.5c0 -36.667 8.5 -70 25.5 -100s40 -53.833 69 -71.5s61.167 -26.5 96.5 -26.5c34.667 0 66.667 8.66699 96 26zM341 407l70 -97.001h-65l-63 84h-36v-84h-58v251h101c26.667 0 48.667 -7.66699 66 -23s26 -35.666 26 -60.999
c0 -32 -13.667 -55.333 -41 -70zM247 443.999h42c10 0 18.167 3 24.5 9s9.5 13.667 9.5 23c0 10 -3.16699 18.167 -9.5 24.5s-14.5 9.5 -24.5 9.5h-42v-66z" />
    <glyph glyph-name="macron" unicode="&#xaf;" horiz-adv-x="600" 
d="M163 704h275v-62h-275v62z" />
    <glyph glyph-name="degree" unicode="&#xb0;" horiz-adv-x="360" 
d="M105 396.5c-22.667 13 -40.667 30.833 -54 53.5s-20 47.334 -20 74.001s6.66699 51.167 20 73.5s31.333 40.166 54 53.499s47.667 20 75 20s52.333 -6.66699 75 -20s40.667 -31.166 54 -53.499s20 -46.833 20 -73.5s-6.66699 -51.334 -20 -74.001
s-31.333 -40.5 -54 -53.5s-47.667 -19.5 -75 -19.5s-52.333 6.5 -75 19.5zM240.5 463c16.333 16.667 24.5 37 24.5 61c0 24.667 -8.16699 45.167 -24.5 61.5s-36.5 24.5 -60.5 24.5c-23.333 0 -43.166 -8.33301 -59.499 -25s-24.5 -37 -24.5 -61s8.16699 -44.333 24.5 -61
s36.166 -25 59.499 -25c24 0 44.167 8.33301 60.5 25z" />
    <glyph glyph-name="plusminus" unicode="&#xb1;" 
d="M242 310h-176v68h176v158h77v-158h175v-68h-175v-160h-77v160zM66 68h428v-68h-428v68z" />
    <glyph glyph-name="uni00B2" unicode="&#xb2;" horiz-adv-x="369" 
d="M329 424l0.000976562 -60.002h-294v15l148 159c21.333 22.667 37.333 42.5 48 59.5s16 35.5 16 55.5c0 20.667 -6.33301 38 -19 52s-29.334 21 -50.001 21c-21.333 0 -38.5 -7 -51.5 -21s-19.5 -32.333 -19.5 -55c0 -5.33301 0.666992 -16 2 -32h-65
c-2.66699 10.667 -4 22.667 -4 36c0 22.667 5.66699 44.167 17 64.5s27.5 36.833 48.5 49.5s45.167 19 72.5 19c39.333 0 71.833 -12.167 97.5 -36.5s38.5 -55.166 38.5 -92.499c0 -28 -7.33301 -53.667 -22 -77s-37 -50.666 -67 -81.999l-71 -75h175z" />
    <glyph glyph-name="uni00B3" unicode="&#xb3;" horiz-adv-x="354" 
d="M281.5 584.5c21.667 -21.667 32.501 -50.501 32.501 -86.501c0 -28 -6.83301 -52.667 -20.5 -74s-31.834 -37.833 -54.501 -49.5s-47.667 -17.5 -75 -17.5c-33.333 0 -62.333 8.33301 -87 25s-44 38.334 -58 65.001l46 33c25.333 -41.333 57.666 -62 96.999 -62
c24.667 0 44.834 7.33301 60.501 22s23.5 34 23.5 58c0 23.333 -8.16699 41.333 -24.5 54s-39.833 19 -70.5 19h-41v18l97 131h-159v60h257v-19l-100 -135c29.333 -6 54.833 -19.833 76.5 -41.5z" />
    <glyph glyph-name="acute" unicode="&#xb4;" horiz-adv-x="600" 
d="M295 780h94v-14l-120 -200h-59z" />
    <glyph glyph-name="uni00B5" unicode="&#xb5;" horiz-adv-x="592" 
d="M571 65l-0.00195312 -65c-20 -4.66699 -37.333 -7 -52 -7c-46.667 0 -78 19.667 -94 59c-15.333 -20 -34.5 -35.5 -57.5 -46.5s-48.5 -16.5 -76.5 -16.5c-26.667 0 -51 5 -73 15s-40.667 24 -56 42v-226h-77v667h77v-291c0 -39.333 11.5 -71.833 34.5 -97.5
s52.833 -38.5 89.5 -38.5s66.667 12.833 90 38.5s35 58.167 35 97.5v291h77v-351c0 -25.333 4.33301 -44 13 -56s22.334 -18 41.001 -18c6.66699 0 16.334 1 29.001 3z" />
    <glyph glyph-name="paragraph" unicode="&#xb6;" horiz-adv-x="564" 
d="M155.5 262.5c-36.333 17.667 -64.833 42.666 -85.5 74.999s-31 69.5 -31 111.5c0 42.667 10.333 79.834 31 111.501s49 56.167 85 73.5s76.667 26 122 26h60v-424h-60c-44.667 0 -85.167 8.83301 -121.5 26.5zM228 -180.001v66c33.333 -4 55 -6 65 -6
c33.333 0 59 7.5 77 22.5s27 41.167 27 78.5v679h77v-685c0 -57.333 -14.667 -99.333 -44 -126s-70 -40 -122 -40c-24 0 -50.667 3.66699 -80 11z" />
    <glyph glyph-name="periodcentered" unicode="&#xb7;" horiz-adv-x="280" 
d="M95.5 269c-12.333 12 -18.5 27 -18.5 45s6.16699 33 18.5 45s27.166 18 44.499 18s32.166 -6 44.499 -18s18.5 -27 18.5 -45s-6.16699 -33 -18.5 -45s-27.166 -18 -44.499 -18s-32.166 6 -44.499 18z" />
    <glyph glyph-name="cedilla" unicode="&#xb8;" horiz-adv-x="600" 
d="M200 -181l0.000976562 55c20.667 -2.66699 39.334 -4 56.001 -4c23.333 0 42.166 5.33301 56.499 16s21.5 27 21.5 49c0 26.667 -11.333 51.334 -34 74.001l33 17c20 -10 36.167 -23.833 48.5 -41.5s18.5 -37.834 18.5 -60.501c0 -32.667 -11.833 -60 -35.5 -82
s-55.834 -33 -96.501 -33c-22 0 -44.667 3.33301 -68 10z" />
    <glyph glyph-name="uni00B9" unicode="&#xb9;" horiz-adv-x="353" 
d="M47 424h105v296h-100v60h167v-356h90v-60h-262v60z" />
    <glyph glyph-name="ordmasculine" unicode="&#xba;" horiz-adv-x="403" 
d="M118.5 258.5c-25 14.333 -44.667 33.666 -59 57.999s-21.5 51.5 -21.5 81.5s7.16699 57.167 21.5 81.5s34 43.666 59 57.999s52.5 21.5 82.5 21.5c29.333 0 56.666 -7.16699 81.999 -21.5s45.333 -33.666 60 -57.999s22 -51.5 22 -81.5s-7.33301 -57.167 -22 -81.5
s-34.667 -43.666 -60 -57.999s-52.666 -21.5 -81.999 -21.5c-30 0 -57.5 7.16699 -82.5 21.5zM271.5 325c18.333 19.333 27.5 43.667 27.5 73c0 30 -9.16699 54.5 -27.5 73.5s-41.833 28.5 -70.5 28.5s-52 -9.5 -70 -28.5s-27 -43.5 -27 -73.5s9 -54.5 27 -73.5
s41.333 -28.5 70 -28.5s52.167 9.66699 70.5 29z" />
    <glyph glyph-name="guillemotright" unicode="&#xbb;" horiz-adv-x="504" 
d="M39 114l142 157l-142 155l51 45l177 -189v-23l-177 -188zM237 114l142 157l-142 155l51 45l177 -189v-23l-177 -188z" />
    <glyph glyph-name="onequarter" unicode="&#xbc;" horiz-adv-x="886" 
d="M47 304h105v296h-100v60h167v-356h90v-60h-262v60zM626 660h69l-378 -660h-69zM870 73h-56v-73h-61v73h-207v18l130 325h67l-116 -288h126v130h61v-130h56v-55z" />
    <glyph glyph-name="onehalf" unicode="&#xbd;" horiz-adv-x="924" 
d="M47 304h105v296h-100v60h167v-356h90v-60h-262v60zM626 660h69l-378 -660h-69zM884 60l0.000976562 -60.002h-294v15l148 159c21.333 22.667 37.333 42.5 48 59.5s16 35.5 16 55.5c0 20.667 -6.33301 38 -19 52s-29.334 21 -50.001 21c-21.333 0 -38.5 -7 -51.5 -21
s-19.5 -32.333 -19.5 -55c0 -5.33301 0.666992 -16 2 -32h-65c-2.66699 10.667 -4 22.667 -4 36c0 22.667 5.66699 44.167 17 64.5s27.5 36.833 48.5 49.5s45.167 19 72.5 19c39.333 0 71.833 -12.167 97.5 -36.5s38.5 -55.166 38.5 -92.499c0 -28 -7.33301 -53.667 -22 -77
s-37 -50.666 -67 -81.999l-71 -75h175z" />
    <glyph glyph-name="threequarters" unicode="&#xbe;" horiz-adv-x="853" 
d="M281.5 464.5c21.667 -21.667 32.501 -50.501 32.501 -86.501c0 -28 -6.83301 -52.667 -20.5 -74s-31.834 -37.833 -54.501 -49.5s-47.667 -17.5 -75 -17.5c-33.333 0 -62.333 8.33301 -87 25s-44 38.334 -58 65.001l46 33c25.333 -41.333 57.666 -62 96.999 -62
c24.667 0 44.834 7.33301 60.501 22s23.5 34 23.5 58c0 23.333 -8.16699 41.333 -24.5 54s-39.833 19 -70.5 19h-41v18l97 131h-159v60h257v-19l-100 -135c29.333 -6 54.833 -19.833 76.5 -41.5zM592.001 659.999h69l-378 -660h-69zM836.001 72.999h-56v-73h-61v73h-207v18
l130 325h67l-116 -288h126v130h61v-130h56v-55z" />
    <glyph glyph-name="questiondown" unicode="&#xbf;" horiz-adv-x="444" 
d="M188.5 389c-12.333 12 -18.5 27.333 -18.5 46c0 18 6.16699 33 18.5 45s27.166 18 44.499 18s32.166 -6 44.499 -18s18.5 -27 18.5 -45c0 -18.667 -6.16699 -34 -18.5 -46s-27.166 -18 -44.499 -18s-32.166 6 -44.499 18zM132.5 -169.5
c-27 14.333 -48.5 34.502 -64.5 60.502s-24 55 -24 87c0 32.667 8 61.167 24 85.5s39.667 50.833 71 79.5c26 23.333 44.333 42.166 55 56.499s16 29.5 16 45.5c0 10 -1.33301 21 -4 33h67c6.66699 -16 10 -30.667 10 -44c0 -22.667 -6.83301 -43.167 -20.5 -61.5
s-33.834 -39.5 -60.501 -63.5c-28 -26.667 -48.167 -49.167 -60.5 -67.5s-18.5 -38.5 -18.5 -60.5c0 -28.667 9.83301 -52.667 29.5 -72s43.167 -29 70.5 -29c26 0 48.5 8.16699 67.5 24.5s33.833 40.166 44.5 71.499l64 -27c-12.667 -44.667 -34.667 -79.167 -66 -103.5
s-68.666 -36.5 -111.999 -36.5c-32 0 -61.5 7.16699 -88.5 21.5z" />
    <glyph glyph-name="Agrave" unicode="&#xc0;" horiz-adv-x="663" 
d="M493 134h-324l-56 -134h-82l286 671h29l286 -671h-83zM331 529l-132 -325h264zM183 896v14h94l85 -186h-59z" />
    <glyph glyph-name="Aacute" unicode="&#xc1;" horiz-adv-x="663" 
d="M493 134h-324l-56 -134h-82l286 671h29l286 -671h-83zM331 529l-132 -325h264zM388 910h94v-14l-120 -172h-59z" />
    <glyph glyph-name="Acircumflex" unicode="&#xc2;" horiz-adv-x="663" 
d="M493 134h-324l-56 -134h-82l286 671h29l286 -671h-83zM331 529l-132 -325h264zM442 724l-110 108l-111 -108h-60l147 186h47l147 -186h-60z" />
    <glyph glyph-name="Atilde" unicode="&#xc3;" horiz-adv-x="663" 
d="M493 134h-324l-56 -134h-82l286 671h29l286 -671h-83zM331 529l-132 -325h264zM339 766l-33 20.001l-12.5 8c-6.33301 4 -12 7 -17 9s-9.5 3 -13.5 3c-9.33301 0 -16.666 -3.66699 -21.999 -11s-8 -16.333 -8 -27v-16h-64c-1.33301 9.33301 -2 17.666 -2 24.999
c0 29.333 8 53.5 24 72.5s37 28.5 63 28.5c22.667 0 46 -7.66699 70 -23l34 -22l12.5 -8.5c6.33301 -4.33301 12 -7.33301 17 -9s9.83301 -2.5 14.5 -2.5c9.33301 0 16.666 3.5 21.999 10.5s8 15.833 8 26.5v18h64c0.666992 -5.33301 1 -14 1 -26
c0 -28.667 -7.83301 -52.5 -23.5 -71.5s-36.167 -28.5 -61.5 -28.5c-22.667 0 -47 8 -73 24z" />
    <glyph glyph-name="Adieresis" unicode="&#xc4;" horiz-adv-x="663" 
d="M493 134h-324l-56 -134h-82l286 671h29l286 -671h-83zM331 529l-132 -325h264zM176.5 772.5c-11 10.333 -16.5 22.833 -16.5 37.5s5.5 27.167 16.5 37.5s23.833 15.5 38.5 15.5c15.333 0 28.333 -5.16699 39 -15.5s16 -22.833 16 -37.5s-5.33301 -27.167 -16 -37.5
s-23.667 -15.5 -39 -15.5c-14.667 0 -27.5 5.16699 -38.5 15.5zM409.5 771.5c-11 10.333 -16.5 22.833 -16.5 37.5s5.5 27.334 16.5 38.001s23.833 16 38.5 16c15.333 0 28.333 -5.33301 39 -16s16 -23.334 16 -38.001s-5.33301 -27.167 -16 -37.5s-23.667 -15.5 -39 -15.5
c-14.667 0 -27.5 5.16699 -38.5 15.5z" />
    <glyph glyph-name="Aring" unicode="&#xc5;" horiz-adv-x="663" 
d="M493 134h-324l-56 -134h-82l286 671h29l286 -671h-83zM331 529l-132 -325h264zM252.5 729.5c-21 21 -31.5 46.5 -31.5 76.5s10.5 55.5 31.5 76.5s47.167 31.5 78.5 31.5c32 0 58.5 -10.5 79.5 -31.5s31.5 -46.5 31.5 -76.5s-10.5 -55.5 -31.5 -76.5
s-47.5 -31.5 -79.5 -31.5c-31.333 0 -57.5 10.5 -78.5 31.5zM367.5 770.5c9.66699 9.66699 14.501 21.5 14.501 35.5c0 14.667 -4.83301 26.834 -14.5 36.501s-21.5 14.5 -35.5 14.5c-14.667 0 -26.834 -4.83301 -36.501 -14.5s-14.5 -21.834 -14.5 -36.501
c0 -14 5 -25.833 15 -35.5s22 -14.5 36 -14.5s25.833 4.83301 35.5 14.5z" />
    <glyph glyph-name="AE" unicode="&#xc6;" horiz-adv-x="821" 
d="M781 70v-70h-314l-23 134h-276l-71 -134h-84l344 660h412v-70h-322l34 -202h208v-70h-196l42 -248h246zM205 204h227l-55 337z" />
    <glyph glyph-name="Ccedilla" unicode="&#xc7;" horiz-adv-x="715" 
d="M218 34c-52.667 30 -94.168 71 -124.501 123s-45.5 109.667 -45.5 173s15.167 121 45.5 173s71.833 93 124.5 123s110.334 45 173.001 45c58.667 0 112 -12.833 160 -38.5s86 -60.167 114 -103.5l-58 -46c-25.333 36.667 -56.166 65.167 -92.499 85.5
s-77.166 30.5 -122.499 30.5c-49.333 0 -94 -11.667 -134 -35s-71.5 -55.5 -94.5 -96.5s-34.5 -86.833 -34.5 -137.5s11.5 -96.5 34.5 -137.5s54.5 -73.167 94.5 -96.5s84.667 -35 134 -35c45.333 0 86.166 10.167 122.499 30.5s67.166 48.833 92.499 85.5l58 -46
c-27.333 -43.333 -65.166 -77.833 -113.499 -103.5s-101.833 -38.5 -160.5 -38.5c-62.667 0 -120.334 15 -173.001 45zM270.999 -181l0.000976562 55c20.667 -2.66699 39.334 -4 56.001 -4c23.333 0 42.166 5.33301 56.499 16s21.5 27 21.5 49
c0 26.667 -11.333 51.334 -34 74.001l33 17c20 -10 36.167 -23.833 48.5 -41.5s18.5 -37.834 18.5 -60.501c0 -32.667 -11.833 -60 -35.5 -82s-55.834 -33 -96.501 -33c-22 0 -44.667 3.33301 -68 10z" />
    <glyph glyph-name="Egrave" unicode="&#xc8;" horiz-adv-x="566" 
d="M91 660h423v-70h-345v-202h264v-70h-264v-248h357v-70h-435v660zM154 896v14h94l85 -186h-59z" />
    <glyph glyph-name="Eacute" unicode="&#xc9;" horiz-adv-x="566" 
d="M91 660h423v-70h-345v-202h264v-70h-264v-248h357v-70h-435v660zM359 910h94v-14l-120 -172h-59z" />
    <glyph glyph-name="Ecircumflex" unicode="&#xca;" horiz-adv-x="566" 
d="M91 660h423v-70h-345v-202h264v-70h-264v-248h357v-70h-435v660zM413 724l-110 108l-111 -108h-60l147 186h47l147 -186h-60z" />
    <glyph glyph-name="Edieresis" unicode="&#xcb;" horiz-adv-x="566" 
d="M91 660h423v-70h-345v-202h264v-70h-264v-248h357v-70h-435v660zM147.5 772.5c-11 10.333 -16.5 22.833 -16.5 37.5s5.5 27.167 16.5 37.5s23.833 15.5 38.5 15.5c15.333 0 28.333 -5.16699 39 -15.5s16 -22.833 16 -37.5s-5.33301 -27.167 -16 -37.5
s-23.667 -15.5 -39 -15.5c-14.667 0 -27.5 5.16699 -38.5 15.5zM380.5 771.5c-11 10.333 -16.5 22.833 -16.5 37.5s5.5 27.334 16.5 38.001s23.833 16 38.5 16c15.333 0 28.333 -5.33301 39 -16s16 -23.334 16 -38.001s-5.33301 -27.167 -16 -37.5s-23.667 -15.5 -39 -15.5
c-14.667 0 -27.5 5.16699 -38.5 15.5z" />
    <glyph glyph-name="Igrave" unicode="&#xcc;" horiz-adv-x="259" 
d="M91 660h78v-660h-78v660zM-18 896v14h94l85 -186h-59z" />
    <glyph glyph-name="Iacute" unicode="&#xcd;" horiz-adv-x="259" 
d="M91 660h78v-660h-78v660zM186 910h94v-14l-120 -172h-59z" />
    <glyph glyph-name="Icircumflex" unicode="&#xce;" horiz-adv-x="259" 
d="M91 660h78v-660h-78v660zM241 724l-110 108l-111 -108h-60l147 186h47l147 -186h-60z" />
    <glyph glyph-name="Idieresis" unicode="&#xcf;" horiz-adv-x="259" 
d="M91 660h78v-660h-78v660zM-24.5 772.5c-11 10.333 -16.5 22.833 -16.5 37.5s5.5 27.167 16.5 37.5s23.833 15.5 38.5 15.5c15.333 0 28.333 -5.16699 39 -15.5s16 -22.833 16 -37.5s-5.33301 -27.167 -16 -37.5s-23.667 -15.5 -39 -15.5
c-14.667 0 -27.5 5.16699 -38.5 15.5zM208.5 771.5c-11 10.333 -16.5 22.833 -16.5 37.5s5.5 27.334 16.5 38.001s23.833 16 38.5 16c15.333 0 28.333 -5.33301 39 -16s16 -23.334 16 -38.001s-5.33301 -27.167 -16 -37.5s-23.667 -15.5 -39 -15.5
c-14.667 0 -27.5 5.16699 -38.5 15.5z" />
    <glyph glyph-name="Eth" unicode="&#xd0;" horiz-adv-x="694" 
d="M478 618c54 -28 95.5 -66.833 124.5 -116.5s43.5 -106.5 43.5 -170.5c0 -63.333 -14.5 -120 -43.5 -170s-70.5 -89.333 -124.5 -118s-117.667 -43 -191 -43h-196v274h-95v66h95v320h196c73.333 0 137 -14 191 -42zM435.5 104c42.333 22.667 74.501 53.667 96.501 93
s33 84 33 134c0 50.667 -11 95.5 -33 134.5s-54 69.5 -96 91.5s-92 33 -150 33h-117v-250h130v-66h-130v-204h117c57.333 0 107.166 11.333 149.499 34z" />
    <glyph glyph-name="Ntilde" unicode="&#xd1;" horiz-adv-x="708" 
d="M617 660v-671h-28l-420 506v-495h-78v671h28l420 -507v496h78zM361 766l-33 20.001l-12.5 8c-6.33301 4 -12 7 -17 9s-9.5 3 -13.5 3c-9.33301 0 -16.666 -3.66699 -21.999 -11s-8 -16.333 -8 -27v-16h-64c-1.33301 9.33301 -2 17.666 -2 24.999c0 29.333 8 53.5 24 72.5
s37 28.5 63 28.5c22.667 0 46 -7.66699 70 -23l34 -22l12.5 -8.5c6.33301 -4.33301 12 -7.33301 17 -9s9.83301 -2.5 14.5 -2.5c9.33301 0 16.666 3.5 21.999 10.5s8 15.833 8 26.5v18h64c0.666992 -5.33301 1 -14 1 -26c0 -28.667 -7.83301 -52.5 -23.5 -71.5
s-36.167 -28.5 -61.5 -28.5c-22.667 0 -47 8 -73 24z" />
    <glyph glyph-name="Ograve" unicode="&#xd2;" horiz-adv-x="781" 
d="M217.5 34c-52.333 30 -93.666 71.167 -123.999 123.5s-45.5 109.833 -45.5 172.5c0 63.333 15.167 121 45.5 173s71.666 93 123.999 123s109.833 45 172.5 45c62 0 119.333 -15 172 -45s94.334 -71 125.001 -123s46 -109.667 46 -173s-15.333 -121 -46 -173
s-72.334 -93 -125.001 -123s-110 -45 -172 -45c-62.667 0 -120.167 15 -172.5 45zM524 96.5c40 23.667 71.333 56.001 94 97.001s34 86.833 34 137.5c0 50 -11.333 95.5 -34 136.5s-54 73.167 -94 96.5s-84.333 35 -133 35c-49.333 0 -94 -11.667 -134 -35
s-71.333 -55.333 -94 -96s-34 -86.334 -34 -137.001s11.333 -96.5 34 -137.5s54 -73.333 94 -97s84.667 -35.5 134 -35.5c48.667 0 93 11.833 133 35.5zM242 896.001v14h94l85 -186h-59z" />
    <glyph glyph-name="Oacute" unicode="&#xd3;" horiz-adv-x="781" 
d="M217.5 34c-52.333 30 -93.666 71.167 -123.999 123.5s-45.5 109.833 -45.5 172.5c0 63.333 15.167 121 45.5 173s71.666 93 123.999 123s109.833 45 172.5 45c62 0 119.333 -15 172 -45s94.334 -71 125.001 -123s46 -109.667 46 -173s-15.333 -121 -46 -173
s-72.334 -93 -125.001 -123s-110 -45 -172 -45c-62.667 0 -120.167 15 -172.5 45zM524 96.5c40 23.667 71.333 56.001 94 97.001s34 86.833 34 137.5c0 50 -11.333 95.5 -34 136.5s-54 73.167 -94 96.5s-84.333 35 -133 35c-49.333 0 -94 -11.667 -134 -35
s-71.333 -55.333 -94 -96s-34 -86.334 -34 -137.001s11.333 -96.5 34 -137.5s54 -73.333 94 -97s84.667 -35.5 134 -35.5c48.667 0 93 11.833 133 35.5zM447 910.001h94v-14l-120 -172h-59z" />
    <glyph glyph-name="Ocircumflex" unicode="&#xd4;" horiz-adv-x="781" 
d="M217.5 34c-52.333 30 -93.666 71.167 -123.999 123.5s-45.5 109.833 -45.5 172.5c0 63.333 15.167 121 45.5 173s71.666 93 123.999 123s109.833 45 172.5 45c62 0 119.333 -15 172 -45s94.334 -71 125.001 -123s46 -109.667 46 -173s-15.333 -121 -46 -173
s-72.334 -93 -125.001 -123s-110 -45 -172 -45c-62.667 0 -120.167 15 -172.5 45zM524 96.5c40 23.667 71.333 56.001 94 97.001s34 86.833 34 137.5c0 50 -11.333 95.5 -34 136.5s-54 73.167 -94 96.5s-84.333 35 -133 35c-49.333 0 -94 -11.667 -134 -35
s-71.333 -55.333 -94 -96s-34 -86.334 -34 -137.001s11.333 -96.5 34 -137.5s54 -73.333 94 -97s84.667 -35.5 134 -35.5c48.667 0 93 11.833 133 35.5zM501 724.001l-110 108l-111 -108h-60l147 186h47l147 -186h-60z" />
    <glyph glyph-name="Otilde" unicode="&#xd5;" horiz-adv-x="781" 
d="M217.5 34c-52.333 30 -93.666 71.167 -123.999 123.5s-45.5 109.833 -45.5 172.5c0 63.333 15.167 121 45.5 173s71.666 93 123.999 123s109.833 45 172.5 45c62 0 119.333 -15 172 -45s94.334 -71 125.001 -123s46 -109.667 46 -173s-15.333 -121 -46 -173
s-72.334 -93 -125.001 -123s-110 -45 -172 -45c-62.667 0 -120.167 15 -172.5 45zM524 96.5c40 23.667 71.333 56.001 94 97.001s34 86.833 34 137.5c0 50 -11.333 95.5 -34 136.5s-54 73.167 -94 96.5s-84.333 35 -133 35c-49.333 0 -94 -11.667 -134 -35
s-71.333 -55.333 -94 -96s-34 -86.334 -34 -137.001s11.333 -96.5 34 -137.5s54 -73.333 94 -97s84.667 -35.5 134 -35.5c48.667 0 93 11.833 133 35.5zM398 766.001l-33 20.001l-12.5 8c-6.33301 4 -12 7 -17 9s-9.5 3 -13.5 3c-9.33301 0 -16.666 -3.66699 -21.999 -11
s-8 -16.333 -8 -27v-16h-64c-1.33301 9.33301 -2 17.666 -2 24.999c0 29.333 8 53.5 24 72.5s37 28.5 63 28.5c22.667 0 46 -7.66699 70 -23l34 -22l12.5 -8.5c6.33301 -4.33301 12 -7.33301 17 -9s9.83301 -2.5 14.5 -2.5c9.33301 0 16.666 3.5 21.999 10.5
s8 15.833 8 26.5v18h64c0.666992 -5.33301 1 -14 1 -26c0 -28.667 -7.83301 -52.5 -23.5 -71.5s-36.167 -28.5 -61.5 -28.5c-22.667 0 -47 8 -73 24z" />
    <glyph glyph-name="Odieresis" unicode="&#xd6;" horiz-adv-x="781" 
d="M217.5 34c-52.333 30 -93.666 71.167 -123.999 123.5s-45.5 109.833 -45.5 172.5c0 63.333 15.167 121 45.5 173s71.666 93 123.999 123s109.833 45 172.5 45c62 0 119.333 -15 172 -45s94.334 -71 125.001 -123s46 -109.667 46 -173s-15.333 -121 -46 -173
s-72.334 -93 -125.001 -123s-110 -45 -172 -45c-62.667 0 -120.167 15 -172.5 45zM524 96.5c40 23.667 71.333 56.001 94 97.001s34 86.833 34 137.5c0 50 -11.333 95.5 -34 136.5s-54 73.167 -94 96.5s-84.333 35 -133 35c-49.333 0 -94 -11.667 -134 -35
s-71.333 -55.333 -94 -96s-34 -86.334 -34 -137.001s11.333 -96.5 34 -137.5s54 -73.333 94 -97s84.667 -35.5 134 -35.5c48.667 0 93 11.833 133 35.5zM235.5 772.501c-11 10.333 -16.5 22.833 -16.5 37.5s5.5 27.167 16.5 37.5s23.833 15.5 38.5 15.5
c15.333 0 28.333 -5.16699 39 -15.5s16 -22.833 16 -37.5s-5.33301 -27.167 -16 -37.5s-23.667 -15.5 -39 -15.5c-14.667 0 -27.5 5.16699 -38.5 15.5zM468.5 771.501c-11 10.333 -16.5 22.833 -16.5 37.5s5.5 27.334 16.5 38.001s23.833 16 38.5 16
c15.333 0 28.333 -5.33301 39 -16s16 -23.334 16 -38.001s-5.33301 -27.167 -16 -37.5s-23.667 -15.5 -39 -15.5c-14.667 0 -27.5 5.16699 -38.5 15.5z" />
    <glyph glyph-name="multiply" unicode="&#xd7;" 
d="M77 158l156 158l-156 156l47 47l156 -156l156 156l47 -47l-156 -156l156 -158l-46 -46l-157 156l-156 -156z" />
    <glyph glyph-name="Oslash" unicode="&#xd8;" horiz-adv-x="781" 
d="M656 548c24.667 -30 43.6689 -63.5 57.002 -100.5s20 -76.167 20 -117.5c0 -63.333 -15.333 -121 -46 -173s-72.334 -93 -125.001 -123s-110 -45 -172 -45c-40.667 0 -79.5 6.5 -116.5 19.5s-70.5 31.5 -100.5 55.5l-83 -83l-48 48l83 83
c-24.667 30 -43.667 63.5 -57 100.5s-20 76.167 -20 117.5c0 63.333 15.167 121 45.5 173s71.666 93 123.999 123s109.833 45 172.5 45c40.667 0 79.5 -6.66699 116.5 -20s70.5 -32 100.5 -56l84 84l48 -48zM255.502 566.5c-40.333 -23.667 -72.001 -56.168 -95.001 -97.501
s-34.5 -87.333 -34.5 -138c0 -63.333 17.333 -118.666 52 -165.999l379 379c-47.333 38.667 -102.666 58 -165.999 58c-50 0 -95.167 -11.833 -135.5 -35.5zM525.501 93.999c40.333 24 72.001 56.832 95.001 98.499s34.5 87.834 34.5 138.501
c0 62.667 -17.333 117.667 -52 165l-379 -381c47.333 -38 103 -57 167 -57c49.333 0 94.166 12 134.499 36z" />
    <glyph glyph-name="Ugrave" unicode="&#xd9;" horiz-adv-x="689" 
d="M208.5 21c-39.667 21.333 -70.667 52.5 -93 93.5s-33.5 90.167 -33.5 147.5v398h78v-403c0 -64 17.167 -112.667 51.5 -146s78.833 -50 133.5 -50c54 0 98 16.667 132 50s51 82 51 146v403h78v-398c0 -57.333 -11.167 -106.5 -33.5 -147.5s-53.333 -72.167 -93 -93.5
s-84.5 -32 -134.5 -32c-51.333 0 -96.833 10.667 -136.5 32zM195 896v14h94l85 -186h-59z" />
    <glyph glyph-name="Uacute" unicode="&#xda;" horiz-adv-x="689" 
d="M208.5 21c-39.667 21.333 -70.667 52.5 -93 93.5s-33.5 90.167 -33.5 147.5v398h78v-403c0 -64 17.167 -112.667 51.5 -146s78.833 -50 133.5 -50c54 0 98 16.667 132 50s51 82 51 146v403h78v-398c0 -57.333 -11.167 -106.5 -33.5 -147.5s-53.333 -72.167 -93 -93.5
s-84.5 -32 -134.5 -32c-51.333 0 -96.833 10.667 -136.5 32zM399 910h94v-14l-120 -172h-59z" />
    <glyph glyph-name="Ucircumflex" unicode="&#xdb;" horiz-adv-x="689" 
d="M208.5 21c-39.667 21.333 -70.667 52.5 -93 93.5s-33.5 90.167 -33.5 147.5v398h78v-403c0 -64 17.167 -112.667 51.5 -146s78.833 -50 133.5 -50c54 0 98 16.667 132 50s51 82 51 146v403h78v-398c0 -57.333 -11.167 -106.5 -33.5 -147.5s-53.333 -72.167 -93 -93.5
s-84.5 -32 -134.5 -32c-51.333 0 -96.833 10.667 -136.5 32zM454 724l-110 108l-111 -108h-60l147 186h47l147 -186h-60z" />
    <glyph glyph-name="Udieresis" unicode="&#xdc;" horiz-adv-x="689" 
d="M208.5 21c-39.667 21.333 -70.667 52.5 -93 93.5s-33.5 90.167 -33.5 147.5v398h78v-403c0 -64 17.167 -112.667 51.5 -146s78.833 -50 133.5 -50c54 0 98 16.667 132 50s51 82 51 146v403h78v-398c0 -57.333 -11.167 -106.5 -33.5 -147.5s-53.333 -72.167 -93 -93.5
s-84.5 -32 -134.5 -32c-51.333 0 -96.833 10.667 -136.5 32zM188.5 772.5c-11 10.333 -16.5 22.833 -16.5 37.5s5.5 27.167 16.5 37.5s23.833 15.5 38.5 15.5c15.333 0 28.333 -5.16699 39 -15.5s16 -22.833 16 -37.5s-5.33301 -27.167 -16 -37.5s-23.667 -15.5 -39 -15.5
c-14.667 0 -27.5 5.16699 -38.5 15.5zM421.5 771.5c-11 10.333 -16.5 22.833 -16.5 37.5s5.5 27.334 16.5 38.001s23.833 16 38.5 16c15.333 0 28.333 -5.33301 39 -16s16 -23.334 16 -38.001s-5.33301 -27.167 -16 -37.5s-23.667 -15.5 -39 -15.5
c-14.667 0 -27.5 5.16699 -38.5 15.5z" />
    <glyph glyph-name="Yacute" unicode="&#xdd;" horiz-adv-x="616" 
d="M347 273v-273h-78v273l-229 387h88l180 -310l181 310h87zM361 910h94v-14l-120 -172h-59z" />
    <glyph glyph-name="Thorn" unicode="&#xde;" horiz-adv-x="573" 
d="M91 660l78.001 0.000976562v-118h154c42.667 0 80 -8.16699 112 -24.5s56.5 -39.333 73.5 -69s25.5 -63.834 25.5 -102.501c0 -38 -8.66699 -71.833 -26 -101.5s-41.833 -53 -73.5 -70s-68.834 -25.5 -111.501 -25.5h-154v-149h-78v660zM321.001 219.001
c42 0 74.5 11.5 97.5 34.5s34.5 53.5 34.5 91.5s-11.5 68.667 -34.5 92s-55.5 35 -97.5 35h-152v-253h152z" />
    <glyph glyph-name="germandbls" unicode="&#xdf;" horiz-adv-x="611" 
d="M248 57l43.001 55.9971c36.667 -35.333 79.334 -53 128.001 -53c26 0 46.833 5 62.5 15s23.5 25.333 23.5 46c0 14 -3.66699 25.833 -11 35.5s-15.333 17.167 -24 22.5l-53 32c-36 21.333 -62.833 41.333 -80.5 60s-26.5 40.334 -26.5 65.001
c0 8.66699 1.66699 20.5 5 35.5s7.66602 29.5 12.999 43.5l42 116c10 27.333 15 51.333 15 72c0 26 -8.33301 47 -25 63s-40 24 -70 24c-38 0 -69 -13.167 -93 -39.5s-36 -64.166 -36 -113.499v-537h-76v540c0 68.667 19.167 122.667 57.5 162s89.166 59 152.499 59
c50.667 0 91.5 -13 122.5 -39s46.5 -61.667 46.5 -107c0 -26 -4.66699 -52 -14 -78l-42 -121c-4.66699 -12.667 -8.66699 -25 -12 -37s-5 -22 -5 -30c0 -11.333 3.16699 -21.166 9.5 -29.499s14 -15.5 23 -21.5s25.5 -16.333 49.5 -31c37.333 -22.667 65 -44.5 83 -65.5
s27 -46.5 27 -76.5c0 -42 -16.167 -75.167 -48.5 -99.5s-72.833 -36.5 -121.5 -36.5c-66 0 -121 22.667 -165 68z" />
    <glyph glyph-name="agrave" unicode="&#xe0;" horiz-adv-x="528" 
d="M398 447c34.667 -34 51.999 -83 51.999 -147v-300h-72v63c-18 -24 -41 -42.333 -69 -55s-59.667 -19 -95 -19c-50 0 -90.833 12.333 -122.5 37s-47.5 58 -47.5 100c0 41.333 16 74.333 48 99s74.333 37 127 37h154v42c0 40 -10.5 70.5 -31.5 91.5
s-49.833 31.5 -86.5 31.5c-29.333 0 -55.333 -6.5 -78 -19.5s-44 -32.5 -64 -58.5l-51 42c22 36 50.333 62.833 85 80.5s72.334 26.5 113.001 26.5c57.333 0 103.333 -17 138 -51zM297.999 70.5c22.667 11.667 40.832 27.833 54.499 48.5s20.5 43.334 20.5 68.001v12h-145
c-34 0 -60 -5.83301 -78 -17.5s-27 -28.834 -27 -51.501c0 -24.667 9.66699 -43.667 29 -57s43.333 -20 72 -20c26.667 0 51.334 5.83301 74.001 17.5zM108.997 765.999v14h94l85 -214h-59z" />
    <glyph glyph-name="aacute" unicode="&#xe1;" horiz-adv-x="528" 
d="M398 447c34.667 -34 51.999 -83 51.999 -147v-300h-72v63c-18 -24 -41 -42.333 -69 -55s-59.667 -19 -95 -19c-50 0 -90.833 12.333 -122.5 37s-47.5 58 -47.5 100c0 41.333 16 74.333 48 99s74.333 37 127 37h154v42c0 40 -10.5 70.5 -31.5 91.5
s-49.833 31.5 -86.5 31.5c-29.333 0 -55.333 -6.5 -78 -19.5s-44 -32.5 -64 -58.5l-51 42c22 36 50.333 62.833 85 80.5s72.334 26.5 113.001 26.5c57.333 0 103.333 -17 138 -51zM297.999 70.5c22.667 11.667 40.832 27.833 54.499 48.5s20.5 43.334 20.5 68.001v12h-145
c-34 0 -60 -5.83301 -78 -17.5s-27 -28.834 -27 -51.501c0 -24.667 9.66699 -43.667 29 -57s43.333 -20 72 -20c26.667 0 51.334 5.83301 74.001 17.5zM315.997 779.999h94v-14l-120 -200h-59z" />
    <glyph glyph-name="acircumflex" unicode="&#xe2;" horiz-adv-x="528" 
d="M398 447c34.667 -34 51.999 -83 51.999 -147v-300h-72v63c-18 -24 -41 -42.333 -69 -55s-59.667 -19 -95 -19c-50 0 -90.833 12.333 -122.5 37s-47.5 58 -47.5 100c0 41.333 16 74.333 48 99s74.333 37 127 37h154v42c0 40 -10.5 70.5 -31.5 91.5
s-49.833 31.5 -86.5 31.5c-29.333 0 -55.333 -6.5 -78 -19.5s-44 -32.5 -64 -58.5l-51 42c22 36 50.333 62.833 85 80.5s72.334 26.5 113.001 26.5c57.333 0 103.333 -17 138 -51zM297.999 70.5c22.667 11.667 40.832 27.833 54.499 48.5s20.5 43.334 20.5 68.001v12h-145
c-34 0 -60 -5.83301 -78 -17.5s-27 -28.834 -27 -51.501c0 -24.667 9.66699 -43.667 29 -57s43.333 -20 72 -20c26.667 0 51.334 5.83301 74.001 17.5zM359.997 565.999l-100 128l-101 -128h-59l136 214h47l135 -214h-58z" />
    <glyph glyph-name="atilde" unicode="&#xe3;" horiz-adv-x="528" 
d="M398 447c34.667 -34 51.999 -83 51.999 -147v-300h-72v63c-18 -24 -41 -42.333 -69 -55s-59.667 -19 -95 -19c-50 0 -90.833 12.333 -122.5 37s-47.5 58 -47.5 100c0 41.333 16 74.333 48 99s74.333 37 127 37h154v42c0 40 -10.5 70.5 -31.5 91.5
s-49.833 31.5 -86.5 31.5c-29.333 0 -55.333 -6.5 -78 -19.5s-44 -32.5 -64 -58.5l-51 42c22 36 50.333 62.833 85 80.5s72.334 26.5 113.001 26.5c57.333 0 103.333 -17 138 -51zM297.999 70.5c22.667 11.667 40.832 27.833 54.499 48.5s20.5 43.334 20.5 68.001v12h-145
c-34 0 -60 -5.83301 -78 -17.5s-27 -28.834 -27 -51.501c0 -24.667 9.66699 -43.667 29 -57s43.333 -20 72 -20c26.667 0 51.334 5.83301 74.001 17.5zM295.997 602.999c-12 4.66699 -23.001 11 -33.001 19l-26 22c-2.66699 2 -6.66699 5.33301 -12 10s-10.333 8 -15 10
s-9.66699 3 -15 3c-18.667 0 -28 -13.667 -28 -41v-17h-64c-0.666992 6 -1 14.333 -1 25c0 30 7.66699 54.833 23 74.5s36 29.5 62 29.5c24.667 0 47.334 -8.66699 68.001 -26l26 -22c17.333 -15.333 31.333 -23 42 -23c18.667 0 28 13.667 28 41v17h64
c0.666992 -6 1 -14.333 1 -25c0 -30 -7.66699 -54.833 -23 -74.5s-36 -29.5 -62 -29.5c-11.333 0 -23 2.33301 -35 7z" />
    <glyph glyph-name="adieresis" unicode="&#xe4;" horiz-adv-x="528" 
d="M398 447c34.667 -34 51.999 -83 51.999 -147v-300h-72v63c-18 -24 -41 -42.333 -69 -55s-59.667 -19 -95 -19c-50 0 -90.833 12.333 -122.5 37s-47.5 58 -47.5 100c0 41.333 16 74.333 48 99s74.333 37 127 37h154v42c0 40 -10.5 70.5 -31.5 91.5
s-49.833 31.5 -86.5 31.5c-29.333 0 -55.333 -6.5 -78 -19.5s-44 -32.5 -64 -58.5l-51 42c22 36 50.333 62.833 85 80.5s72.334 26.5 113.001 26.5c57.333 0 103.333 -17 138 -51zM297.999 70.5c22.667 11.667 40.832 27.833 54.499 48.5s20.5 43.334 20.5 68.001v12h-145
c-34 0 -60 -5.83301 -78 -17.5s-27 -28.834 -27 -51.501c0 -24.667 9.66699 -43.667 29 -57s43.333 -20 72 -20c26.667 0 51.334 5.83301 74.001 17.5zM113.997 635.999c-11.333 10.667 -17 23 -17 37c0 14.667 5.66699 27.334 17 38.001s24 16 38 16
c15.333 0 28.5 -5.33301 39.5 -16s16.5 -23.334 16.5 -38.001s-5.5 -27.167 -16.5 -37.5s-24.167 -15.5 -39.5 -15.5c-14 0 -26.667 5.33301 -38 16zM325.997 635.999c-11.333 10.667 -17 23 -17 37c0 14.667 5.66699 27.334 17 38.001s24.333 16 39 16
c15.333 0 28.333 -5.33301 39 -16s16 -23.334 16 -38.001s-5.33301 -27.167 -16 -37.5s-23.667 -15.5 -39 -15.5c-14.667 0 -27.667 5.33301 -39 16z" />
    <glyph glyph-name="aring" unicode="&#xe5;" horiz-adv-x="528" 
d="M398 447c34.667 -34 51.999 -83 51.999 -147v-300h-72v63c-18 -24 -41 -42.333 -69 -55s-59.667 -19 -95 -19c-50 0 -90.833 12.333 -122.5 37s-47.5 58 -47.5 100c0 41.333 16 74.333 48 99s74.333 37 127 37h154v42c0 40 -10.5 70.5 -31.5 91.5
s-49.833 31.5 -86.5 31.5c-29.333 0 -55.333 -6.5 -78 -19.5s-44 -32.5 -64 -58.5l-51 42c22 36 50.333 62.833 85 80.5s72.334 26.5 113.001 26.5c57.333 0 103.333 -17 138 -51zM297.999 70.5c22.667 11.667 40.832 27.833 54.499 48.5s20.5 43.334 20.5 68.001v12h-145
c-34 0 -60 -5.83301 -78 -17.5s-27 -28.834 -27 -51.501c0 -24.667 9.66699 -43.667 29 -57s43.333 -20 72 -20c26.667 0 51.334 5.83301 74.001 17.5zM179.997 590.499c-21.333 21 -32 46.833 -32 77.5s10.5 56.334 31.5 77.001s47.167 31 78.5 31
s57.666 -10.333 78.999 -31s32 -46.334 32 -77.001s-10.667 -56.5 -32 -77.5s-47.666 -31.5 -78.999 -31.5c-30.667 0 -56.667 10.5 -78 31.5zM294.497 631.999c9.66699 9.33301 14.499 21.333 14.499 36s-5 27 -15 37s-21.667 15 -35 15c-14 0 -26 -5 -36 -15
s-15 -22.333 -15 -37s4.83301 -26.667 14.5 -36s21.834 -14 36.501 -14c14 0 25.833 4.66699 35.5 14z" />
    <glyph glyph-name="ae" unicode="&#xe6;" horiz-adv-x="895" 
d="M455 211c6.66699 -46 26.3301 -82.666 58.9971 -109.999s72 -41 118 -41c54.667 0 103.667 21.667 147 65l46 -51c-24.667 -27.333 -53.667 -48.333 -87 -63s-69 -22 -107 -22c-45.333 0 -86.666 10.667 -123.999 32s-67 50 -89 86c-17.333 -37.333 -44 -66.333 -80 -87
s-76.667 -31 -122 -31c-51.333 0 -92.833 12.833 -124.5 38.5s-47.5 59.834 -47.5 102.501c0 43.333 16 78.166 48 104.499s74.333 39.5 127 39.5h154v30c0 40 -10.667 70.5 -32 91.5s-49.666 31.5 -84.999 31.5c-28.667 0 -54.5 -6.66699 -77.5 -20
s-44.167 -32.666 -63.5 -57.999l-51 42c22 35.333 50.333 62 85 80s72 27 112 27c39.333 0 73.5 -8.66699 102.5 -26s50.5 -42.666 64.5 -75.999c22 32 50 57 84 75s71.333 27 112 27s77.834 -9.33301 111.501 -28s60.167 -44.834 79.5 -78.501s29 -71.834 29 -114.501
c0 -12.667 -0.666992 -25.334 -2 -38.001s-3 -22 -5 -28h-382zM763.996 274.001c2 31.333 -3.33398 58.668 -16.001 82.001s-30.167 41.166 -52.5 53.499s-47.5 18.5 -75.5 18.5c-43.333 0 -80.166 -14.167 -110.499 -42.5s-48.5 -65.5 -54.5 -111.5h309zM297.995 71.5029
c22.667 11.667 40.834 27.501 54.501 47.501s20.5 42.333 20.5 67v25h-145c-70 0 -105 -24.333 -105 -73c0 -26.667 9.66699 -47.334 29 -62.001s43.666 -22 72.999 -22c26 0 50.333 5.83301 73 17.5z" />
    <glyph glyph-name="ccedilla" unicode="&#xe7;" horiz-adv-x="551" 
d="M176.5 23c-39 22.667 -69.835 53.498 -92.502 92.498s-34 81.833 -34 128.5s11.333 89.334 34 128.001s53.5 69.334 92.5 92.001s81.833 34 128.5 34c42.667 0 81.334 -9.5 116.001 -28.5s63 -44.833 85 -77.5l-55 -44c-39.333 52.667 -87.666 79 -144.999 79
c-33.333 0 -63.5 -8.16699 -90.5 -24.5s-48.167 -38.5 -63.5 -66.5s-23 -58.667 -23 -92c0 -34 7.66699 -65 23 -93s36.5 -50.167 63.5 -66.5s57.167 -24.5 90.5 -24.5c57.333 0 105.333 26 144 78l55 -43c-22 -32.667 -50.167 -58.5 -84.5 -77.5
s-72.833 -28.5 -115.5 -28.5c-46.667 0 -89.5 11.333 -128.5 34zM173.998 -181.002l0.000976562 55c20.667 -2.66699 39.334 -4 56.001 -4c23.333 0 42.166 5.33301 56.499 16s21.5 27 21.5 49c0 26.667 -11.333 51.334 -34 74.001l33 17c20 -10 36.167 -23.833 48.5 -41.5
s18.5 -37.834 18.5 -60.501c0 -32.667 -11.833 -60 -35.5 -82s-55.834 -33 -96.501 -33c-22 0 -44.667 3.33301 -68 10z" />
    <glyph glyph-name="egrave" unicode="&#xe8;" horiz-adv-x="571" 
d="M515 220h-385c4.66699 -48 23.667 -86.667 57 -116s74 -44 122 -44c55.333 0 105 22 149 66l45 -52c-25.333 -26.667 -54.5 -47.5 -87.5 -62.5s-68.833 -22.5 -107.5 -22.5c-48 0 -91.667 11.167 -131 33.5s-70.333 52.833 -93 91.5s-34 81.667 -34 129
c0 46.667 11 89.5 33 128.5s52 69.833 90 92.5s80 34 126 34c41.333 0 79 -9.33301 113 -28s60.667 -44.667 80 -78s29 -71.333 29 -114c0 -18.667 -2 -38 -6 -58zM191 389.5c-30 -25.667 -49.3311 -59.5 -57.998 -101.5h309c-0.666992 43.333 -14.834 77.5 -42.501 102.5
s-61.834 37.5 -102.501 37.5s-76 -12.833 -106 -38.5zM147.002 766v14h94l85 -214h-59z" />
    <glyph glyph-name="eacute" unicode="&#xe9;" horiz-adv-x="571" 
d="M515 220h-385c4.66699 -48 23.667 -86.667 57 -116s74 -44 122 -44c55.333 0 105 22 149 66l45 -52c-25.333 -26.667 -54.5 -47.5 -87.5 -62.5s-68.833 -22.5 -107.5 -22.5c-48 0 -91.667 11.167 -131 33.5s-70.333 52.833 -93 91.5s-34 81.667 -34 129
c0 46.667 11 89.5 33 128.5s52 69.833 90 92.5s80 34 126 34c41.333 0 79 -9.33301 113 -28s60.667 -44.667 80 -78s29 -71.333 29 -114c0 -18.667 -2 -38 -6 -58zM191 389.5c-30 -25.667 -49.3311 -59.5 -57.998 -101.5h309c-0.666992 43.333 -14.834 77.5 -42.501 102.5
s-61.834 37.5 -102.501 37.5s-76 -12.833 -106 -38.5zM354.002 780h94v-14l-120 -200h-59z" />
    <glyph glyph-name="ecircumflex" unicode="&#xea;" horiz-adv-x="571" 
d="M515 220h-385c4.66699 -48 23.667 -86.667 57 -116s74 -44 122 -44c55.333 0 105 22 149 66l45 -52c-25.333 -26.667 -54.5 -47.5 -87.5 -62.5s-68.833 -22.5 -107.5 -22.5c-48 0 -91.667 11.167 -131 33.5s-70.333 52.833 -93 91.5s-34 81.667 -34 129
c0 46.667 11 89.5 33 128.5s52 69.833 90 92.5s80 34 126 34c41.333 0 79 -9.33301 113 -28s60.667 -44.667 80 -78s29 -71.333 29 -114c0 -18.667 -2 -38 -6 -58zM191 389.5c-30 -25.667 -49.3311 -59.5 -57.998 -101.5h309c-0.666992 43.333 -14.834 77.5 -42.501 102.5
s-61.834 37.5 -102.501 37.5s-76 -12.833 -106 -38.5zM398.002 566l-100 128l-101 -128h-59l136 214h47l135 -214h-58z" />
    <glyph glyph-name="edieresis" unicode="&#xeb;" horiz-adv-x="571" 
d="M515 220h-385c4.66699 -48 23.667 -86.667 57 -116s74 -44 122 -44c55.333 0 105 22 149 66l45 -52c-25.333 -26.667 -54.5 -47.5 -87.5 -62.5s-68.833 -22.5 -107.5 -22.5c-48 0 -91.667 11.167 -131 33.5s-70.333 52.833 -93 91.5s-34 81.667 -34 129
c0 46.667 11 89.5 33 128.5s52 69.833 90 92.5s80 34 126 34c41.333 0 79 -9.33301 113 -28s60.667 -44.667 80 -78s29 -71.333 29 -114c0 -18.667 -2 -38 -6 -58zM191 389.5c-30 -25.667 -49.3311 -59.5 -57.998 -101.5h309c-0.666992 43.333 -14.834 77.5 -42.501 102.5
s-61.834 37.5 -102.501 37.5s-76 -12.833 -106 -38.5zM152.002 636c-11.333 10.667 -17 23 -17 37c0 14.667 5.66699 27.334 17 38.001s24 16 38 16c15.333 0 28.5 -5.33301 39.5 -16s16.5 -23.334 16.5 -38.001s-5.5 -27.167 -16.5 -37.5s-24.167 -15.5 -39.5 -15.5
c-14 0 -26.667 5.33301 -38 16zM364.002 636c-11.333 10.667 -17 23 -17 37c0 14.667 5.66699 27.334 17 38.001s24.333 16 39 16c15.333 0 28.333 -5.33301 39 -16s16 -23.334 16 -38.001s-5.33301 -27.167 -16 -37.5s-23.667 -15.5 -39 -15.5
c-14.667 0 -27.667 5.33301 -39 16z" />
    <glyph glyph-name="igrave" unicode="&#xec;" horiz-adv-x="246" 
d="M85 487h77v-487h-77v487zM5 766v14h94l55 -214h-59z" />
    <glyph glyph-name="iacute" unicode="&#xed;" horiz-adv-x="246" 
d="M85 487h77v-487h-77v487zM148 780h94v-14l-90 -200h-59z" />
    <glyph glyph-name="icircumflex" unicode="&#xee;" horiz-adv-x="246" 
d="M85 487h77v-487h-77v487zM225 566l-100 128l-101 -128h-59l136 214h47l135 -214h-58z" />
    <glyph glyph-name="idieresis" unicode="&#xef;" horiz-adv-x="246" 
d="M85 487h77v-487h-77v487zM-6.5 635.5c-11 10.333 -16.5 22.833 -16.5 37.5s5.5 27.334 16.5 38.001s23.833 16 38.5 16c15.333 0 28.5 -5.33301 39.5 -16s16.5 -23.334 16.5 -38.001s-5.5 -27.167 -16.5 -37.5s-24.167 -15.5 -39.5 -15.5
c-14.667 0 -27.5 5.16699 -38.5 15.5zM176 636c-11.333 10.667 -17 23 -17 37c0 14.667 5.66699 27.334 17 38.001s24.333 16 39 16c15.333 0 28.333 -5.33301 39 -16s16 -23.334 16 -38.001s-5.33301 -27.167 -16 -37.5s-23.667 -15.5 -39 -15.5
c-14.667 0 -27.667 5.33301 -39 16z" />
    <glyph glyph-name="eth" unicode="&#xf0;" horiz-adv-x="569" 
d="M470.5 372c13.667 -21.333 25.002 -44.5 34.002 -69.5s13.5 -51.833 13.5 -80.5c0 -43.333 -10 -82.833 -30 -118.5s-47.833 -63.667 -83.5 -84s-75.834 -30.5 -120.501 -30.5s-84.834 10 -120.501 30s-63.5 47.5 -83.5 82.5s-30 73.5 -30 115.5s10 80.167 30 114.5
s47.167 61.333 81.5 81s72.166 29.5 113.499 29.5c20.667 0 40.667 -2.66699 60 -8l-101 140l-149 -72l-27 57l138 66l-67 93l58 43l77 -104l154 74l28 -55l-145 -70l109 -147c26.667 -36.667 46.834 -65.667 60.501 -87zM363.502 80.5c23.667 13.667 42.167 32.333 55.5 56
s20 50.5 20 80.5c0 29.333 -6.66699 56 -20 80s-31.833 42.667 -55.5 56s-50.167 20 -79.5 20s-55.833 -6.83301 -79.5 -20.5s-42.167 -32.334 -55.5 -56.001s-20 -50.5 -20 -80.5c0 -45.333 14.667 -82.666 44 -111.999s66.333 -44 111 -44
c29.333 0 55.833 6.83301 79.5 20.5z" />
    <glyph glyph-name="ntilde" unicode="&#xf1;" horiz-adv-x="566" 
d="M440 445c32 -35.333 47.999 -81.667 47.999 -139v-306h-77v297c0 38.667 -10.833 70 -32.5 94s-51.167 36 -88.5 36s-68 -12.167 -92 -36.5s-36 -55.5 -36 -93.5v-297h-77v487h72v-52c18 20 39.833 35.5 65.5 46.5s53.834 16.5 84.501 16.5c56.667 0 101 -17.667 133 -53
zM321.999 602.999c-12 4.66699 -23.001 11 -33.001 19l-26 22c-2.66699 2 -6.66699 5.33301 -12 10s-10.333 8 -15 10s-9.66699 3 -15 3c-18.667 0 -28 -13.667 -28 -41v-17h-64c-0.666992 6 -1 14.333 -1 25c0 30 7.66699 54.833 23 74.5s36 29.5 62 29.5
c24.667 0 47.334 -8.66699 68.001 -26l26 -22c17.333 -15.333 31.333 -23 42 -23c18.667 0 28 13.667 28 41v17h64c0.666992 -6 1 -14.333 1 -25c0 -30 -7.66699 -54.833 -23 -74.5s-36 -29.5 -62 -29.5c-11.333 0 -23 2.33301 -35 7z" />
    <glyph glyph-name="ograve" unicode="&#xf2;" horiz-adv-x="610" 
d="M176 24c-38.667 22.667 -69.332 53.502 -91.999 92.502s-34 81.5 -34 127.5c0 46.667 11.333 89.5 34 128.5s53.5 69.667 92.5 92s81.833 33.5 128.5 33.5s89.5 -11.333 128.5 -34s69.833 -53.334 92.5 -92.001s34 -81.334 34 -128.001c0 -46 -11.333 -88.5 -34 -127.5
s-53.667 -69.833 -93 -92.5s-82.333 -34 -129 -34s-89.334 11.333 -128.001 34zM393.502 85.002c27 16 48.332 37.833 63.999 65.5s23.5 58.5 23.5 92.5c0 34.667 -7.66699 66 -23 94s-36.5 50 -63.5 66s-56.833 24 -89.5 24c-33.333 0 -63.333 -8 -90 -24
s-47.667 -38 -63 -66s-23 -59.333 -23 -94c0 -34 7.66699 -64.833 23 -92.5s36.333 -49.5 63 -65.5s56.334 -24 89.001 -24s62.5 8 89.5 24zM156.001 766.002v14h94l85 -214h-59z" />
    <glyph glyph-name="oacute" unicode="&#xf3;" horiz-adv-x="610" 
d="M176 24c-38.667 22.667 -69.332 53.502 -91.999 92.502s-34 81.5 -34 127.5c0 46.667 11.333 89.5 34 128.5s53.5 69.667 92.5 92s81.833 33.5 128.5 33.5s89.5 -11.333 128.5 -34s69.833 -53.334 92.5 -92.001s34 -81.334 34 -128.001c0 -46 -11.333 -88.5 -34 -127.5
s-53.667 -69.833 -93 -92.5s-82.333 -34 -129 -34s-89.334 11.333 -128.001 34zM393.502 85.002c27 16 48.332 37.833 63.999 65.5s23.5 58.5 23.5 92.5c0 34.667 -7.66699 66 -23 94s-36.5 50 -63.5 66s-56.833 24 -89.5 24c-33.333 0 -63.333 -8 -90 -24
s-47.667 -38 -63 -66s-23 -59.333 -23 -94c0 -34 7.66699 -64.833 23 -92.5s36.333 -49.5 63 -65.5s56.334 -24 89.001 -24s62.5 8 89.5 24zM363.001 780.002h94v-14l-120 -200h-59z" />
    <glyph glyph-name="ocircumflex" unicode="&#xf4;" horiz-adv-x="610" 
d="M176 24c-38.667 22.667 -69.332 53.502 -91.999 92.502s-34 81.5 -34 127.5c0 46.667 11.333 89.5 34 128.5s53.5 69.667 92.5 92s81.833 33.5 128.5 33.5s89.5 -11.333 128.5 -34s69.833 -53.334 92.5 -92.001s34 -81.334 34 -128.001c0 -46 -11.333 -88.5 -34 -127.5
s-53.667 -69.833 -93 -92.5s-82.333 -34 -129 -34s-89.334 11.333 -128.001 34zM393.502 85.002c27 16 48.332 37.833 63.999 65.5s23.5 58.5 23.5 92.5c0 34.667 -7.66699 66 -23 94s-36.5 50 -63.5 66s-56.833 24 -89.5 24c-33.333 0 -63.333 -8 -90 -24
s-47.667 -38 -63 -66s-23 -59.333 -23 -94c0 -34 7.66699 -64.833 23 -92.5s36.333 -49.5 63 -65.5s56.334 -24 89.001 -24s62.5 8 89.5 24zM406.001 566.002l-100 128l-101 -128h-59l136 214h47l135 -214h-58z" />
    <glyph glyph-name="otilde" unicode="&#xf5;" horiz-adv-x="610" 
d="M176 24c-38.667 22.667 -69.332 53.502 -91.999 92.502s-34 81.5 -34 127.5c0 46.667 11.333 89.5 34 128.5s53.5 69.667 92.5 92s81.833 33.5 128.5 33.5s89.5 -11.333 128.5 -34s69.833 -53.334 92.5 -92.001s34 -81.334 34 -128.001c0 -46 -11.333 -88.5 -34 -127.5
s-53.667 -69.833 -93 -92.5s-82.333 -34 -129 -34s-89.334 11.333 -128.001 34zM393.502 85.002c27 16 48.332 37.833 63.999 65.5s23.5 58.5 23.5 92.5c0 34.667 -7.66699 66 -23 94s-36.5 50 -63.5 66s-56.833 24 -89.5 24c-33.333 0 -63.333 -8 -90 -24
s-47.667 -38 -63 -66s-23 -59.333 -23 -94c0 -34 7.66699 -64.833 23 -92.5s36.333 -49.5 63 -65.5s56.334 -24 89.001 -24s62.5 8 89.5 24zM342.001 603.002c-12 4.66699 -23.001 11 -33.001 19l-26 22c-2.66699 2 -6.66699 5.33301 -12 10s-10.333 8 -15 10
s-9.66699 3 -15 3c-18.667 0 -28 -13.667 -28 -41v-17h-64c-0.666992 6 -1 14.333 -1 25c0 30 7.66699 54.833 23 74.5s36 29.5 62 29.5c24.667 0 47.334 -8.66699 68.001 -26l26 -22c17.333 -15.333 31.333 -23 42 -23c18.667 0 28 13.667 28 41v17h64
c0.666992 -6 1 -14.333 1 -25c0 -30 -7.66699 -54.833 -23 -74.5s-36 -29.5 -62 -29.5c-11.333 0 -23 2.33301 -35 7z" />
    <glyph glyph-name="odieresis" unicode="&#xf6;" horiz-adv-x="610" 
d="M176 24c-38.667 22.667 -69.332 53.502 -91.999 92.502s-34 81.5 -34 127.5c0 46.667 11.333 89.5 34 128.5s53.5 69.667 92.5 92s81.833 33.5 128.5 33.5s89.5 -11.333 128.5 -34s69.833 -53.334 92.5 -92.001s34 -81.334 34 -128.001c0 -46 -11.333 -88.5 -34 -127.5
s-53.667 -69.833 -93 -92.5s-82.333 -34 -129 -34s-89.334 11.333 -128.001 34zM393.502 85.002c27 16 48.332 37.833 63.999 65.5s23.5 58.5 23.5 92.5c0 34.667 -7.66699 66 -23 94s-36.5 50 -63.5 66s-56.833 24 -89.5 24c-33.333 0 -63.333 -8 -90 -24
s-47.667 -38 -63 -66s-23 -59.333 -23 -94c0 -34 7.66699 -64.833 23 -92.5s36.333 -49.5 63 -65.5s56.334 -24 89.001 -24s62.5 8 89.5 24zM160.001 636.002c-11.333 10.667 -17 23 -17 37c0 14.667 5.66699 27.334 17 38.001s24 16 38 16c15.333 0 28.5 -5.33301 39.5 -16
s16.5 -23.334 16.5 -38.001s-5.5 -27.167 -16.5 -37.5s-24.167 -15.5 -39.5 -15.5c-14 0 -26.667 5.33301 -38 16zM372.001 636.002c-11.333 10.667 -17 23 -17 37c0 14.667 5.66699 27.334 17 38.001s24.333 16 39 16c15.333 0 28.333 -5.33301 39 -16
s16 -23.334 16 -38.001s-5.33301 -27.167 -16 -37.5s-23.667 -15.5 -39 -15.5c-14.667 0 -27.667 5.33301 -39 16z" />
    <glyph glyph-name="divide" unicode="&#xf7;" 
d="M239 453.5c-10.667 10.333 -16 22.833 -16 37.5c0 15.333 5.33301 28.166 16 38.499s23.667 15.5 39 15.5s28.333 -5.16699 39 -15.5s16 -23.166 16 -38.499c0 -14.667 -5.33301 -27.167 -16 -37.5s-23.667 -15.5 -39 -15.5s-28.333 5.16699 -39 15.5zM56 349h447v-68
h-447v68zM239 97.5c-10.667 10.333 -16 22.833 -16 37.5c0 15.333 5.33301 28 16 38s23.667 15 39 15s28.333 -5 39 -15s16 -22.667 16 -38c0 -14.667 -5.33301 -27.167 -16 -37.5s-23.667 -15.5 -39 -15.5s-28.333 5.16699 -39 15.5z" />
    <glyph glyph-name="oslash" unicode="&#xf8;" horiz-adv-x="620" 
d="M513 398c34.667 -45.333 51.9971 -97 51.9971 -155c0 -46 -11.5 -88.5 -34.5 -127.5s-54.167 -69.833 -93.5 -92.5s-82 -34 -128 -34c-57.333 0 -108.666 17.333 -153.999 52l-58 -60l-48 48l59 59c-34.667 45.333 -52 97 -52 155c0 46.667 11.333 89.5 34 128.5
s53.334 69.833 92.001 92.5s81.334 34 128.001 34c58 0 109.667 -17.333 155 -52l59 58l48 -46zM216.997 405.5c-27.333 -16.333 -48.667 -38.668 -64 -67.001s-23 -60.166 -23 -95.499c0 -40 10 -75.667 30 -107l258 260c-32.667 22.667 -68.667 34 -108 34
c-34.667 0 -65.667 -8.16699 -93 -24.5zM401.496 79.998c27.667 16.667 49.5 39.332 65.5 67.999s24 60.334 24 95.001c0 40 -10 75.667 -30 107l-259 -259c30 -24 65.667 -36 107 -36c34 0 64.833 8.33301 92.5 25z" />
    <glyph glyph-name="ugrave" unicode="&#xf9;" 
d="M178 14.5c-30.667 17 -54.832 40.998 -72.499 71.998s-26.5 66.833 -26.5 107.5v293h76v-298c0 -39.333 12 -70.666 36 -93.999s54 -35 90 -35c35.333 0 64.833 11.833 88.5 35.5s35.5 54.834 35.5 93.501v298h77v-293c0 -40.667 -8.83301 -76.5 -26.5 -107.5
s-41.834 -55 -72.501 -72s-64.667 -25.5 -102 -25.5c-38 0 -72.333 8.5 -103 25.5zM130.002 765.998v14h94l85 -214h-59z" />
    <glyph glyph-name="uacute" unicode="&#xfa;" 
d="M178 14.5c-30.667 17 -54.832 40.998 -72.499 71.998s-26.5 66.833 -26.5 107.5v293h76v-298c0 -39.333 12 -70.666 36 -93.999s54 -35 90 -35c35.333 0 64.833 11.833 88.5 35.5s35.5 54.834 35.5 93.501v298h77v-293c0 -40.667 -8.83301 -76.5 -26.5 -107.5
s-41.834 -55 -72.501 -72s-64.667 -25.5 -102 -25.5c-38 0 -72.333 8.5 -103 25.5zM337.002 779.998h94v-14l-120 -200h-59z" />
    <glyph glyph-name="ucircumflex" unicode="&#xfb;" 
d="M178 14.5c-30.667 17 -54.832 40.998 -72.499 71.998s-26.5 66.833 -26.5 107.5v293h76v-298c0 -39.333 12 -70.666 36 -93.999s54 -35 90 -35c35.333 0 64.833 11.833 88.5 35.5s35.5 54.834 35.5 93.501v298h77v-293c0 -40.667 -8.83301 -76.5 -26.5 -107.5
s-41.834 -55 -72.501 -72s-64.667 -25.5 -102 -25.5c-38 0 -72.333 8.5 -103 25.5zM381.002 565.998l-100 128l-101 -128h-59l136 214h47l135 -214h-58z" />
    <glyph glyph-name="udieresis" unicode="&#xfc;" 
d="M178 14.5c-30.667 17 -54.832 40.998 -72.499 71.998s-26.5 66.833 -26.5 107.5v293h76v-298c0 -39.333 12 -70.666 36 -93.999s54 -35 90 -35c35.333 0 64.833 11.833 88.5 35.5s35.5 54.834 35.5 93.501v298h77v-293c0 -40.667 -8.83301 -76.5 -26.5 -107.5
s-41.834 -55 -72.501 -72s-64.667 -25.5 -102 -25.5c-38 0 -72.333 8.5 -103 25.5zM135.002 635.998c-11.333 10.667 -17 23 -17 37c0 14.667 5.66699 27.334 17 38.001s24 16 38 16c15.333 0 28.5 -5.33301 39.5 -16s16.5 -23.334 16.5 -38.001s-5.5 -27.167 -16.5 -37.5
s-24.167 -15.5 -39.5 -15.5c-14 0 -26.667 5.33301 -38 16zM347.002 635.998c-11.333 10.667 -17 23 -17 37c0 14.667 5.66699 27.334 17 38.001s24.333 16 39 16c15.333 0 28.333 -5.33301 39 -16s16 -23.334 16 -38.001s-5.33301 -27.167 -16 -37.5
s-23.667 -15.5 -39 -15.5c-14.667 0 -27.667 5.33301 -39 16z" />
    <glyph glyph-name="yacute" unicode="&#xfd;" horiz-adv-x="539" 
d="M513 487l-240.001 -554.998c-18.667 -42.667 -41.5 -73.834 -68.5 -93.501s-59.167 -29.5 -96.5 -29.5c-24.667 0 -49.667 3.33301 -75 10v65c25.333 -3.33301 45 -5 59 -5c25.333 0 46.833 5.66699 64.5 17s32.834 31.666 45.501 60.999l26 58l-202 472h83l161 -388
l161 388h82zM323.999 780.002h94v-14l-120 -200h-59z" />
    <glyph glyph-name="thorn" unicode="&#xfe;" horiz-adv-x="632" 
d="M465 464.5c36.667 -22.333 65.332 -52.832 85.999 -91.499s31 -81.667 31 -129s-10.5 -90.5 -31.5 -129.5s-49.833 -69.667 -86.5 -92s-77.667 -33.5 -123 -33.5c-36 0 -69.833 7.16699 -101.5 21.5s-57.5 34.166 -77.5 59.499v-250h-77v930h77v-334
c19.333 25.333 44.833 45.333 76.5 60s65.834 22 102.501 22c46 0 87.333 -11.167 124 -33.5zM418.498 83.501c26.333 15.667 46.999 37.5 61.999 65.5s22.5 59.333 22.5 94s-7.5 66 -22.5 94s-35.667 50 -62 66s-55.833 24 -88.5 24c-29.333 0 -56.833 -6.66699 -82.5 -20
s-46.5 -33.666 -62.5 -60.999s-24 -61.333 -24 -102s7.83301 -74.834 23.5 -102.501s36.334 -48.167 62.001 -61.5s53.5 -20 83.5 -20c32.667 0 62.167 7.83301 88.5 23.5z" />
    <glyph glyph-name="ydieresis" unicode="&#xff;" horiz-adv-x="539" 
d="M513 487l-240.001 -554.998c-18.667 -42.667 -41.5 -73.834 -68.5 -93.501s-59.167 -29.5 -96.5 -29.5c-24.667 0 -49.667 3.33301 -75 10v65c25.333 -3.33301 45 -5 59 -5c25.333 0 46.833 5.66699 64.5 17s32.834 31.666 45.501 60.999l26 58l-202 472h83l161 -388
l161 388h82zM121.999 636.002c-11.333 10.667 -17 23 -17 37c0 14.667 5.66699 27.334 17 38.001s24 16 38 16c15.333 0 28.5 -5.33301 39.5 -16s16.5 -23.334 16.5 -38.001s-5.5 -27.167 -16.5 -37.5s-24.167 -15.5 -39.5 -15.5c-14 0 -26.667 5.33301 -38 16z
M333.999 636.002c-11.333 10.667 -17 23 -17 37c0 14.667 5.66699 27.334 17 38.001s24.333 16 39 16c15.333 0 28.333 -5.33301 39 -16s16 -23.334 16 -38.001s-5.33301 -27.167 -16 -37.5s-23.667 -15.5 -39 -15.5c-14.667 0 -27.667 5.33301 -39 16z" />
    <glyph glyph-name="Amacron" unicode="&#x100;" horiz-adv-x="663" 
d="M493 134h-324l-56 -134h-82l286 671h29l286 -671h-83zM331 529l-132 -325h264zM185 833h295v-63h-295v63z" />
    <glyph glyph-name="amacron" unicode="&#x101;" horiz-adv-x="528" 
d="M398 447c34.667 -34 51.999 -83 51.999 -147v-300h-72v63c-18 -24 -41 -42.333 -69 -55s-59.667 -19 -95 -19c-50 0 -90.833 12.333 -122.5 37s-47.5 58 -47.5 100c0 41.333 16 74.333 48 99s74.333 37 127 37h154v42c0 40 -10.5 70.5 -31.5 91.5
s-49.833 31.5 -86.5 31.5c-29.333 0 -55.333 -6.5 -78 -19.5s-44 -32.5 -64 -58.5l-51 42c22 36 50.333 62.833 85 80.5s72.334 26.5 113.001 26.5c57.333 0 103.333 -17 138 -51zM297.999 70.5c22.667 11.667 40.832 27.833 54.499 48.5s20.5 43.334 20.5 68.001v12h-145
c-34 0 -60 -5.83301 -78 -17.5s-27 -28.834 -27 -51.501c0 -24.667 9.66699 -43.667 29 -57s43.333 -20 72 -20c26.667 0 51.334 5.83301 74.001 17.5zM121.997 703.999h275v-62h-275v62z" />
    <glyph glyph-name="Abreve" unicode="&#x102;" horiz-adv-x="663" 
d="M493 134h-324l-56 -134h-82l286 671h29l286 -671h-83zM331 529l-132 -325h264zM221.5 769.5c-27.667 29 -41.5 67.498 -41.5 115.498v25h63v-24c0 -30 8 -54 24 -72s37.333 -27 64 -27c27.333 0 49 8.83301 65 26.5s24 41.834 24 72.501v24h63v-25
c0 -47.333 -14.167 -85.666 -42.5 -114.999s-64.833 -44 -109.5 -44c-45.333 0 -81.833 14.5 -109.5 43.5z" />
    <glyph glyph-name="abreve" unicode="&#x103;" horiz-adv-x="528" 
d="M398 447c34.667 -34 51.999 -83 51.999 -147v-300h-72v63c-18 -24 -41 -42.333 -69 -55s-59.667 -19 -95 -19c-50 0 -90.833 12.333 -122.5 37s-47.5 58 -47.5 100c0 41.333 16 74.333 48 99s74.333 37 127 37h154v42c0 40 -10.5 70.5 -31.5 91.5
s-49.833 31.5 -86.5 31.5c-29.333 0 -55.333 -6.5 -78 -19.5s-44 -32.5 -64 -58.5l-51 42c22 36 50.333 62.833 85 80.5s72.334 26.5 113.001 26.5c57.333 0 103.333 -17 138 -51zM297.999 70.5c22.667 11.667 40.832 27.833 54.499 48.5s20.5 43.334 20.5 68.001v12h-145
c-34 0 -60 -5.83301 -78 -17.5s-27 -28.834 -27 -51.501c0 -24.667 9.66699 -43.667 29 -57s43.333 -20 72 -20c26.667 0 51.334 5.83301 74.001 17.5zM148.997 616.999c-28 29.333 -42 67.333 -42 114v31h63v-29c0 -30.667 8 -54.834 24 -72.501s37.333 -26.5 64 -26.5
c27.333 0 49 8.83301 65 26.5s24 41.834 24 72.501v29h63v-31c0 -47.333 -14 -85.5 -42 -114.5s-64.667 -43.5 -110 -43.5c-44.667 0 -81 14.667 -109 44z" />
    <glyph glyph-name="Aogonek" unicode="&#x104;" horiz-adv-x="663" 
d="M493 134h-324l-56 -134h-82l286 671h29l286 -671h-83zM331 529l-132 -325h264zM483.5 -167c-19.667 16 -29.499 36.998 -29.499 62.998c0 24.667 10.833 47 32.5 67s60.167 44 115.5 72l31 -35l-50 -33c-19.333 -13.333 -32.833 -23.666 -40.5 -30.999
s-11.5 -16.666 -11.5 -27.999c0 -12 4.16699 -21.167 12.5 -27.5s20.166 -9.5 35.499 -9.5c14 0 32 2.33301 54 7v-58c-23.333 -7.33301 -47.333 -11 -72 -11c-32 0 -57.833 8 -77.5 24z" />
    <glyph glyph-name="aogonek" unicode="&#x105;" horiz-adv-x="528" 
d="M398 447c34.667 -34 51.999 -83 51.999 -147v-300h-72v63c-18 -24 -41 -42.333 -69 -55s-59.667 -19 -95 -19c-50 0 -90.833 12.333 -122.5 37s-47.5 58 -47.5 100c0 41.333 16 74.333 48 99s74.333 37 127 37h154v42c0 40 -10.5 70.5 -31.5 91.5
s-49.833 31.5 -86.5 31.5c-29.333 0 -55.333 -6.5 -78 -19.5s-44 -32.5 -64 -58.5l-51 42c22 36 50.333 62.833 85 80.5s72.334 26.5 113.001 26.5c57.333 0 103.333 -17 138 -51zM297.999 70.5c22.667 11.667 40.832 27.833 54.499 48.5s20.5 43.334 20.5 68.001v12h-145
c-34 0 -60 -5.83301 -78 -17.5s-27 -28.834 -27 -51.501c0 -24.667 9.66699 -43.667 29 -57s43.333 -20 72 -20c26.667 0 51.334 5.83301 74.001 17.5zM300.497 -167.001c-19.667 16 -29.499 36.998 -29.499 62.998c0 24.667 10.833 47 32.5 67s60.167 44 115.5 72l31 -35
l-50 -33c-19.333 -13.333 -32.833 -23.666 -40.5 -30.999s-11.5 -16.666 -11.5 -27.999c0 -12 4.16699 -21.167 12.5 -27.5s20.166 -9.5 35.499 -9.5c14 0 32 2.33301 54 7v-58c-23.333 -7.33301 -47.333 -11 -72 -11c-32 0 -57.833 8 -77.5 24z" />
    <glyph glyph-name="Cacute" unicode="&#x106;" horiz-adv-x="715" 
d="M218 34c-52.667 30 -94.168 71 -124.501 123s-45.5 109.667 -45.5 173s15.167 121 45.5 173s71.833 93 124.5 123s110.334 45 173.001 45c58.667 0 112 -12.833 160 -38.5s86 -60.167 114 -103.5l-58 -46c-25.333 36.667 -56.166 65.167 -92.499 85.5
s-77.166 30.5 -122.499 30.5c-49.333 0 -94 -11.667 -134 -35s-71.5 -55.5 -94.5 -96.5s-34.5 -86.833 -34.5 -137.5s11.5 -96.5 34.5 -137.5s54.5 -73.167 94.5 -96.5s84.667 -35 134 -35c45.333 0 86.166 10.167 122.499 30.5s67.166 48.833 92.499 85.5l58 -46
c-27.333 -43.333 -65.166 -77.833 -113.499 -103.5s-101.833 -38.5 -160.5 -38.5c-62.667 0 -120.334 15 -173.001 45zM446.999 910h94v-14l-120 -172h-59z" />
    <glyph glyph-name="cacute" unicode="&#x107;" horiz-adv-x="551" 
d="M176.5 23c-39 22.667 -69.835 53.498 -92.502 92.498s-34 81.833 -34 128.5s11.333 89.334 34 128.001s53.5 69.334 92.5 92.001s81.833 34 128.5 34c42.667 0 81.334 -9.5 116.001 -28.5s63 -44.833 85 -77.5l-55 -44c-39.333 52.667 -87.666 79 -144.999 79
c-33.333 0 -63.5 -8.16699 -90.5 -24.5s-48.167 -38.5 -63.5 -66.5s-23 -58.667 -23 -92c0 -34 7.66699 -65 23 -93s36.5 -50.167 63.5 -66.5s57.167 -24.5 90.5 -24.5c57.333 0 105.333 26 144 78l55 -43c-22 -32.667 -50.167 -58.5 -84.5 -77.5
s-72.833 -28.5 -115.5 -28.5c-46.667 0 -89.5 11.333 -128.5 34zM361.998 779.998h94v-14l-120 -200h-59z" />
    <glyph glyph-name="Ccircumflex" unicode="&#x108;" horiz-adv-x="715" 
d="M218 34c-52.667 30 -94.168 71 -124.501 123s-45.5 109.667 -45.5 173s15.167 121 45.5 173s71.833 93 124.5 123s110.334 45 173.001 45c58.667 0 112 -12.833 160 -38.5s86 -60.167 114 -103.5l-58 -46c-25.333 36.667 -56.166 65.167 -92.499 85.5
s-77.166 30.5 -122.499 30.5c-49.333 0 -94 -11.667 -134 -35s-71.5 -55.5 -94.5 -96.5s-34.5 -86.833 -34.5 -137.5s11.5 -96.5 34.5 -137.5s54.5 -73.167 94.5 -96.5s84.667 -35 134 -35c45.333 0 86.166 10.167 122.499 30.5s67.166 48.833 92.499 85.5l58 -46
c-27.333 -43.333 -65.166 -77.833 -113.499 -103.5s-101.833 -38.5 -160.5 -38.5c-62.667 0 -120.334 15 -173.001 45zM500.999 724l-110 108l-111 -108h-60l147 186h47l147 -186h-60z" />
    <glyph glyph-name="ccircumflex" unicode="&#x109;" horiz-adv-x="551" 
d="M176.5 23c-39 22.667 -69.835 53.498 -92.502 92.498s-34 81.833 -34 128.5s11.333 89.334 34 128.001s53.5 69.334 92.5 92.001s81.833 34 128.5 34c42.667 0 81.334 -9.5 116.001 -28.5s63 -44.833 85 -77.5l-55 -44c-39.333 52.667 -87.666 79 -144.999 79
c-33.333 0 -63.5 -8.16699 -90.5 -24.5s-48.167 -38.5 -63.5 -66.5s-23 -58.667 -23 -92c0 -34 7.66699 -65 23 -93s36.5 -50.167 63.5 -66.5s57.167 -24.5 90.5 -24.5c57.333 0 105.333 26 144 78l55 -43c-22 -32.667 -50.167 -58.5 -84.5 -77.5
s-72.833 -28.5 -115.5 -28.5c-46.667 0 -89.5 11.333 -128.5 34zM404.998 565.998l-100 128l-101 -128h-59l136 214h47l135 -214h-58z" />
    <glyph glyph-name="Cdotaccent" unicode="&#x10a;" horiz-adv-x="715" 
d="M218 34c-52.667 30 -94.168 71 -124.501 123s-45.5 109.667 -45.5 173s15.167 121 45.5 173s71.833 93 124.5 123s110.334 45 173.001 45c58.667 0 112 -12.833 160 -38.5s86 -60.167 114 -103.5l-58 -46c-25.333 36.667 -56.166 65.167 -92.499 85.5
s-77.166 30.5 -122.499 30.5c-49.333 0 -94 -11.667 -134 -35s-71.5 -55.5 -94.5 -96.5s-34.5 -86.833 -34.5 -137.5s11.5 -96.5 34.5 -137.5s54.5 -73.167 94.5 -96.5s84.667 -35 134 -35c45.333 0 86.166 10.167 122.499 30.5s67.166 48.833 92.499 85.5l58 -46
c-27.333 -43.333 -65.166 -77.833 -113.499 -103.5s-101.833 -38.5 -160.5 -38.5c-62.667 0 -120.334 15 -173.001 45zM349.999 770c-11.333 10.667 -16.999 24 -16.999 40c0 15.333 5.66699 28.5 17 39.5s25 16.5 41 16.5c15.333 0 28.666 -5.5 39.999 -16.5
s17 -24.167 17 -39.5c0 -16 -5.5 -29.333 -16.5 -40s-24.5 -16 -40.5 -16s-29.667 5.33301 -41 16z" />
    <glyph glyph-name="cdotaccent" unicode="&#x10b;" horiz-adv-x="551" 
d="M176.5 23c-39 22.667 -69.835 53.498 -92.502 92.498s-34 81.833 -34 128.5s11.333 89.334 34 128.001s53.5 69.334 92.5 92.001s81.833 34 128.5 34c42.667 0 81.334 -9.5 116.001 -28.5s63 -44.833 85 -77.5l-55 -44c-39.333 52.667 -87.666 79 -144.999 79
c-33.333 0 -63.5 -8.16699 -90.5 -24.5s-48.167 -38.5 -63.5 -66.5s-23 -58.667 -23 -92c0 -34 7.66699 -65 23 -93s36.5 -50.167 63.5 -66.5s57.167 -24.5 90.5 -24.5c57.333 0 105.333 26 144 78l55 -43c-22 -32.667 -50.167 -58.5 -84.5 -77.5
s-72.833 -28.5 -115.5 -28.5c-46.667 0 -89.5 11.333 -128.5 34zM262.998 632.998c-11.333 10.667 -16.999 24 -16.999 40c0 15.333 5.66699 28.5 17 39.5s25 16.5 41 16.5c15.333 0 28.666 -5.5 39.999 -16.5s17 -24.167 17 -39.5c0 -16 -5.5 -29.333 -16.5 -40
s-24.5 -16 -40.5 -16s-29.667 5.33301 -41 16z" />
    <glyph glyph-name="Ccaron" unicode="&#x10c;" horiz-adv-x="715" 
d="M218 34c-52.667 30 -94.168 71 -124.501 123s-45.5 109.667 -45.5 173s15.167 121 45.5 173s71.833 93 124.5 123s110.334 45 173.001 45c58.667 0 112 -12.833 160 -38.5s86 -60.167 114 -103.5l-58 -46c-25.333 36.667 -56.166 65.167 -92.499 85.5
s-77.166 30.5 -122.499 30.5c-49.333 0 -94 -11.667 -134 -35s-71.5 -55.5 -94.5 -96.5s-34.5 -86.833 -34.5 -137.5s11.5 -96.5 34.5 -137.5s54.5 -73.167 94.5 -96.5s84.667 -35 134 -35c45.333 0 86.166 10.167 122.499 30.5s67.166 48.833 92.499 85.5l58 -46
c-27.333 -43.333 -65.166 -77.833 -113.499 -103.5s-101.833 -38.5 -160.5 -38.5c-62.667 0 -120.334 15 -173.001 45zM560.999 910l-147 -186h-47l-147 186h60l111 -108l110 108h60z" />
    <glyph glyph-name="ccaron" unicode="&#x10d;" horiz-adv-x="551" 
d="M176.5 23c-39 22.667 -69.835 53.498 -92.502 92.498s-34 81.833 -34 128.5s11.333 89.334 34 128.001s53.5 69.334 92.5 92.001s81.833 34 128.5 34c42.667 0 81.334 -9.5 116.001 -28.5s63 -44.833 85 -77.5l-55 -44c-39.333 52.667 -87.666 79 -144.999 79
c-33.333 0 -63.5 -8.16699 -90.5 -24.5s-48.167 -38.5 -63.5 -66.5s-23 -58.667 -23 -92c0 -34 7.66699 -65 23 -93s36.5 -50.167 63.5 -66.5s57.167 -24.5 90.5 -24.5c57.333 0 105.333 26 144 78l55 -43c-22 -32.667 -50.167 -58.5 -84.5 -77.5
s-72.833 -28.5 -115.5 -28.5c-46.667 0 -89.5 11.333 -128.5 34zM462.998 779.998l-135 -214h-47l-136 214h59l101 -128l100 128h58z" />
    <glyph glyph-name="Dcaron" unicode="&#x10e;" horiz-adv-x="694" 
d="M91 660h196c73.333 0 137 -14 191 -42s95.5 -66.833 124.5 -116.5s43.5 -106.5 43.5 -170.5c0 -63.333 -14.5 -120 -43.5 -170s-70.5 -89.333 -124.5 -118s-117.667 -43 -191 -43h-196v660zM286 70c57.333 0 107.167 11.333 149.5 34s74.5 53.667 96.5 93s33 84 33 134
c0 50.667 -11 95.5 -33 134.5s-54 69.5 -96 91.5s-92 33 -150 33h-117v-520h117zM455.001 910l-147 -186h-47l-147 186h60l111 -108l110 108h60z" />
    <glyph glyph-name="dcaron" unicode="&#x10f;" horiz-adv-x="744" 
d="M548 750v-750h-73v77c-18.667 -27.333 -44.5 -48.833 -77.5 -64.5s-68.5 -23.5 -106.5 -23.5c-45.333 0 -86.333 11.167 -123 33.5s-65.5 52.833 -86.5 91.5s-31.5 81.667 -31.5 129s10.5 90.5 31.5 129.5s49.833 69.667 86.5 92s77.667 33.5 123 33.5
c36.667 0 71 -7.33301 103 -22s57.667 -35 77 -61v335h77zM385 80c26 13.333 47 33.666 63 60.999s24 61.333 24 102s-8 74.834 -24 102.501s-37 48.167 -63 61.5s-53.667 20 -83 20c-32.667 0 -62.167 -7.83301 -88.5 -23.5s-47 -37.5 -62 -65.5s-22.5 -59.333 -22.5 -94
s7.5 -66 22.5 -94s35.667 -50 62 -66s55.833 -24 88.5 -24c29.333 0 57 6.66699 83 20zM661 750h83l-39 -211h-57z" />
    <glyph glyph-name="Dcroat" unicode="&#x110;" horiz-adv-x="694" 
d="M478 618c54 -28 95.5 -66.833 124.5 -116.5s43.5 -106.5 43.5 -170.5c0 -63.333 -14.5 -120 -43.5 -170s-70.5 -89.333 -124.5 -118s-117.667 -43 -191 -43h-196v274h-95v66h95v320h196c73.333 0 137 -14 191 -42zM435.5 104c42.333 22.667 74.501 53.667 96.501 93
s33 84 33 134c0 50.667 -11 95.5 -33 134.5s-54 69.5 -96 91.5s-92 33 -150 33h-117v-250h130v-66h-130v-204h117c57.333 0 107.166 11.333 149.499 34z" />
    <glyph glyph-name="dcroat" unicode="&#x111;" horiz-adv-x="634" 
d="M629 581l-82.999 -0.00292969v-581h-72v79c-19.333 -28 -45.833 -50 -79.5 -66s-69.5 -24 -107.5 -24c-44.667 0 -85 10.833 -121 32.5s-64.5 51.334 -85.5 89.001s-31.5 79.5 -31.5 125.5c0 46.667 10.333 88.834 31 126.501s49.167 67.334 85.5 89.001
s76.833 32.5 121.5 32.5c37.333 0 72.166 -7.5 104.499 -22.5s58.5 -35.833 78.5 -62.5v182h-219v64h219v105h76v-105h83v-64zM383.501 76.9971c25.667 12.667 46.5 32.333 62.5 59s24 60 24 100s-8 73.5 -24 100.5s-36.833 46.833 -62.5 59.5s-53.167 19 -82.5 19
c-32.667 0 -62.167 -7.66699 -88.5 -23s-47 -36.5 -62 -63.5s-22.5 -57.833 -22.5 -92.5c0 -34 7.5 -64.5 22.5 -91.5s35.667 -48.167 62 -63.5s55.833 -23 88.5 -23c29.333 0 56.833 6.33301 82.5 19z" />
    <glyph glyph-name="Emacron" unicode="&#x112;" horiz-adv-x="566" 
d="M91 660h423v-70h-345v-202h264v-70h-264v-248h357v-70h-435v660zM156 833h295v-63h-295v63z" />
    <glyph glyph-name="emacron" unicode="&#x113;" horiz-adv-x="571" 
d="M515 220h-385c4.66699 -48 23.667 -86.667 57 -116s74 -44 122 -44c55.333 0 105 22 149 66l45 -52c-25.333 -26.667 -54.5 -47.5 -87.5 -62.5s-68.833 -22.5 -107.5 -22.5c-48 0 -91.667 11.167 -131 33.5s-70.333 52.833 -93 91.5s-34 81.667 -34 129
c0 46.667 11 89.5 33 128.5s52 69.833 90 92.5s80 34 126 34c41.333 0 79 -9.33301 113 -28s60.667 -44.667 80 -78s29 -71.333 29 -114c0 -18.667 -2 -38 -6 -58zM191 389.5c-30 -25.667 -49.3311 -59.5 -57.998 -101.5h309c-0.666992 43.333 -14.834 77.5 -42.501 102.5
s-61.834 37.5 -102.501 37.5s-76 -12.833 -106 -38.5zM160.002 704h275v-62h-275v62z" />
    <glyph glyph-name="Ebreve" unicode="&#x114;" horiz-adv-x="566" 
d="M91 660h423v-70h-345v-202h264v-70h-264v-248h357v-70h-435v660zM192.5 769.5c-27.667 29 -41.5 67.498 -41.5 115.498v25h63v-24c0 -30 8 -54 24 -72s37.333 -27 64 -27c27.333 0 49 8.83301 65 26.5s24 41.834 24 72.501v24h63v-25
c0 -47.333 -14.167 -85.666 -42.5 -114.999s-64.833 -44 -109.5 -44c-45.333 0 -81.833 14.5 -109.5 43.5z" />
    <glyph glyph-name="ebreve" unicode="&#x115;" horiz-adv-x="571" 
d="M515 220h-385c4.66699 -48 23.667 -86.667 57 -116s74 -44 122 -44c55.333 0 105 22 149 66l45 -52c-25.333 -26.667 -54.5 -47.5 -87.5 -62.5s-68.833 -22.5 -107.5 -22.5c-48 0 -91.667 11.167 -131 33.5s-70.333 52.833 -93 91.5s-34 81.667 -34 129
c0 46.667 11 89.5 33 128.5s52 69.833 90 92.5s80 34 126 34c41.333 0 79 -9.33301 113 -28s60.667 -44.667 80 -78s29 -71.333 29 -114c0 -18.667 -2 -38 -6 -58zM191 389.5c-30 -25.667 -49.3311 -59.5 -57.998 -101.5h309c-0.666992 43.333 -14.834 77.5 -42.501 102.5
s-61.834 37.5 -102.501 37.5s-76 -12.833 -106 -38.5zM187.002 617c-28 29.333 -42 67.333 -42 114v31h63v-29c0 -30.667 8 -54.834 24 -72.501s37.333 -26.5 64 -26.5c27.333 0 49 8.83301 65 26.5s24 41.834 24 72.501v29h63v-31c0 -47.333 -14 -85.5 -42 -114.5
s-64.667 -43.5 -110 -43.5c-44.667 0 -81 14.667 -109 44z" />
    <glyph glyph-name="Edotaccent" unicode="&#x116;" horiz-adv-x="566" 
d="M91 660h423v-70h-345v-202h264v-70h-264v-248h357v-70h-435v660zM262 770c-11.333 10.667 -16.999 24 -16.999 40c0 15.333 5.66699 28.5 17 39.5s25 16.5 41 16.5c15.333 0 28.666 -5.5 39.999 -16.5s17 -24.167 17 -39.5c0 -16 -5.5 -29.333 -16.5 -40
s-24.5 -16 -40.5 -16s-29.667 5.33301 -41 16z" />
    <glyph glyph-name="edotaccent" unicode="&#x117;" horiz-adv-x="571" 
d="M515 220h-385c4.66699 -48 23.667 -86.667 57 -116s74 -44 122 -44c55.333 0 105 22 149 66l45 -52c-25.333 -26.667 -54.5 -47.5 -87.5 -62.5s-68.833 -22.5 -107.5 -22.5c-48 0 -91.667 11.167 -131 33.5s-70.333 52.833 -93 91.5s-34 81.667 -34 129
c0 46.667 11 89.5 33 128.5s52 69.833 90 92.5s80 34 126 34c41.333 0 79 -9.33301 113 -28s60.667 -44.667 80 -78s29 -71.333 29 -114c0 -18.667 -2 -38 -6 -58zM191 389.5c-30 -25.667 -49.3311 -59.5 -57.998 -101.5h309c-0.666992 43.333 -14.834 77.5 -42.501 102.5
s-61.834 37.5 -102.501 37.5s-76 -12.833 -106 -38.5zM256.002 633c-11.333 10.667 -16.999 24 -16.999 40c0 15.333 5.66699 28.5 17 39.5s25 16.5 41 16.5c15.333 0 28.666 -5.5 39.999 -16.5s17 -24.167 17 -39.5c0 -16 -5.5 -29.333 -16.5 -40s-24.5 -16 -40.5 -16
s-29.667 5.33301 -41 16z" />
    <glyph glyph-name="Eogonek" unicode="&#x118;" horiz-adv-x="566" 
d="M91 660h423v-70h-345v-202h264v-70h-264v-248h357v-70h-435v660zM376.5 -167c-19.667 16 -29.499 36.998 -29.499 62.998c0 24.667 10.833 47 32.5 67s60.167 44 115.5 72l31 -35l-50 -33c-19.333 -13.333 -32.833 -23.666 -40.5 -30.999s-11.5 -16.666 -11.5 -27.999
c0 -12 4.16699 -21.167 12.5 -27.5s20.166 -9.5 35.499 -9.5c14 0 32 2.33301 54 7v-58c-23.333 -7.33301 -47.333 -11 -72 -11c-32 0 -57.833 8 -77.5 24z" />
    <glyph glyph-name="eogonek" unicode="&#x119;" horiz-adv-x="571" 
d="M515 220h-385c4.66699 -48 23.667 -86.667 57 -116s74 -44 122 -44c55.333 0 105 22 149 66l45 -52c-25.333 -26.667 -54.5 -47.5 -87.5 -62.5s-68.833 -22.5 -107.5 -22.5c-48 0 -91.667 11.167 -131 33.5s-70.333 52.833 -93 91.5s-34 81.667 -34 129
c0 46.667 11 89.5 33 128.5s52 69.833 90 92.5s80 34 126 34c41.333 0 79 -9.33301 113 -28s60.667 -44.667 80 -78s29 -71.333 29 -114c0 -18.667 -2 -38 -6 -58zM191 389.5c-30 -25.667 -49.3311 -59.5 -57.998 -101.5h309c-0.666992 43.333 -14.834 77.5 -42.501 102.5
s-61.834 37.5 -102.501 37.5s-76 -12.833 -106 -38.5zM324.502 -167.5c-19.667 15.667 -29.5 36.8359 -29.5 63.5029c0 17.333 3.33301 33.166 10 47.499s18.667 31.166 36 50.499s44.333 46 81 80h80l-92 -98c-14 -15.333 -23.667 -27.333 -29 -36s-8 -19.334 -8 -32.001
c0 -24.667 15.667 -37 47 -37c14 0 32 2.33301 54 7v-58c-23.333 -7.33301 -47.333 -11 -72 -11c-32 0 -57.833 7.83301 -77.5 23.5z" />
    <glyph glyph-name="Ecaron" unicode="&#x11a;" horiz-adv-x="566" 
d="M91 660h423v-70h-345v-202h264v-70h-264v-248h357v-70h-435v660zM473 910l-147 -186h-47l-147 186h60l111 -108l110 108h60z" />
    <glyph glyph-name="ecaron" unicode="&#x11b;" horiz-adv-x="571" 
d="M515 220h-385c4.66699 -48 23.667 -86.667 57 -116s74 -44 122 -44c55.333 0 105 22 149 66l45 -52c-25.333 -26.667 -54.5 -47.5 -87.5 -62.5s-68.833 -22.5 -107.5 -22.5c-48 0 -91.667 11.167 -131 33.5s-70.333 52.833 -93 91.5s-34 81.667 -34 129
c0 46.667 11 89.5 33 128.5s52 69.833 90 92.5s80 34 126 34c41.333 0 79 -9.33301 113 -28s60.667 -44.667 80 -78s29 -71.333 29 -114c0 -18.667 -2 -38 -6 -58zM191 389.5c-30 -25.667 -49.3311 -59.5 -57.998 -101.5h309c-0.666992 43.333 -14.834 77.5 -42.501 102.5
s-61.834 37.5 -102.501 37.5s-76 -12.833 -106 -38.5zM456.002 780l-135 -214h-47l-136 214h59l101 -128l100 128h58z" />
    <glyph glyph-name="Gcircumflex" unicode="&#x11c;" horiz-adv-x="746" 
d="M217.5 34c-52.333 30 -93.668 71.0029 -124.001 123.003s-45.5 109.667 -45.5 173s15.167 121 45.5 173s71.666 93 123.999 123s110.166 45 173.499 45c56 0 107.167 -11.833 153.5 -35.5s84.833 -56.834 115.5 -99.501l-59 -46
c-25.333 34.667 -55.666 61.5 -90.999 80.5s-75 28.5 -119 28.5c-50 0 -95 -11.667 -135 -35s-71.167 -55.5 -93.5 -96.5s-33.5 -86.5 -33.5 -136.5c0 -50.667 11.333 -96.834 34 -138.501s54.334 -74.334 95.001 -98.001s86.334 -35.5 137.001 -35.5c48 0 91 10.667 129 32
s68.333 50 91 86v89h-225v70h303v-176c-29.333 -52 -70.833 -93.5 -124.5 -124.5s-112.834 -46.5 -177.501 -46.5c-63.333 0 -121.166 15 -173.499 45zM502.998 724.003l-110 108l-111 -108h-60l147 186h47l147 -186h-60z" />
    <glyph glyph-name="gcircumflex" unicode="&#x11d;" horiz-adv-x="637" 
d="M553 487l-0.00292969 -440c0 -74 -21.5 -132.167 -64.5 -174.5s-100.5 -63.5 -172.5 -63.5c-47.333 0 -90.5 8.83301 -129.5 26.5s-72.167 40.167 -99.5 67.5l45 54c27.333 -24 55.333 -42.833 84 -56.5s61.334 -20.5 98.001 -20.5c50.667 0 90.334 14 119.001 42
s43 68.333 43 121v43c-19.333 -25.333 -45.166 -45.166 -77.499 -59.499s-66.833 -21.5 -103.5 -21.5c-45.333 0 -86.166 10.667 -122.499 32s-64.833 50.666 -85.5 87.999s-31 79.333 -31 126s10.333 88.667 31 126s49.167 66.833 85.5 88.5s77.166 32.5 122.499 32.5
c38.667 0 74.5 -7.83301 107.5 -23.5s58.833 -37.5 77.5 -65.5v78h73zM390.497 95c25.667 12.667 46.5 32.167 62.5 58.5s24 58.833 24 97.5s-8 71 -24 97s-37 45.333 -63 58s-53.667 19 -83 19c-32.667 0 -62.167 -7.5 -88.5 -22.5s-47 -35.667 -62 -62
s-22.5 -56.5 -22.5 -90.5s7.5 -64.167 22.5 -90.5s35.667 -46.833 62 -61.5s55.833 -22 88.5 -22c30 0 57.833 6.33301 83.5 19zM411.997 566l-100 128l-101 -128h-59l136 214h47l135 -214h-58z" />
    <glyph glyph-name="Gbreve" unicode="&#x11e;" horiz-adv-x="746" 
d="M217.5 34c-52.333 30 -93.668 71.0029 -124.001 123.003s-45.5 109.667 -45.5 173s15.167 121 45.5 173s71.666 93 123.999 123s110.166 45 173.499 45c56 0 107.167 -11.833 153.5 -35.5s84.833 -56.834 115.5 -99.501l-59 -46
c-25.333 34.667 -55.666 61.5 -90.999 80.5s-75 28.5 -119 28.5c-50 0 -95 -11.667 -135 -35s-71.167 -55.5 -93.5 -96.5s-33.5 -86.5 -33.5 -136.5c0 -50.667 11.333 -96.834 34 -138.501s54.334 -74.334 95.001 -98.001s86.334 -35.5 137.001 -35.5c48 0 91 10.667 129 32
s68.333 50 91 86v89h-225v70h303v-176c-29.333 -52 -70.833 -93.5 -124.5 -124.5s-112.834 -46.5 -177.501 -46.5c-63.333 0 -121.166 15 -173.499 45zM282.498 769.503c-27.667 29 -41.5 67.498 -41.5 115.498v25h63v-24c0 -30 8 -54 24 -72s37.333 -27 64 -27
c27.333 0 49 8.83301 65 26.5s24 41.834 24 72.501v24h63v-25c0 -47.333 -14.167 -85.666 -42.5 -114.999s-64.833 -44 -109.5 -44c-45.333 0 -81.833 14.5 -109.5 43.5z" />
    <glyph glyph-name="gbreve" unicode="&#x11f;" horiz-adv-x="637" 
d="M553 487l-0.00292969 -440c0 -74 -21.5 -132.167 -64.5 -174.5s-100.5 -63.5 -172.5 -63.5c-47.333 0 -90.5 8.83301 -129.5 26.5s-72.167 40.167 -99.5 67.5l45 54c27.333 -24 55.333 -42.833 84 -56.5s61.334 -20.5 98.001 -20.5c50.667 0 90.334 14 119.001 42
s43 68.333 43 121v43c-19.333 -25.333 -45.166 -45.166 -77.499 -59.499s-66.833 -21.5 -103.5 -21.5c-45.333 0 -86.166 10.667 -122.499 32s-64.833 50.666 -85.5 87.999s-31 79.333 -31 126s10.333 88.667 31 126s49.167 66.833 85.5 88.5s77.166 32.5 122.499 32.5
c38.667 0 74.5 -7.83301 107.5 -23.5s58.833 -37.5 77.5 -65.5v78h73zM390.497 95c25.667 12.667 46.5 32.167 62.5 58.5s24 58.833 24 97.5s-8 71 -24 97s-37 45.333 -63 58s-53.667 19 -83 19c-32.667 0 -62.167 -7.5 -88.5 -22.5s-47 -35.667 -62 -62
s-22.5 -56.5 -22.5 -90.5s7.5 -64.167 22.5 -90.5s35.667 -46.833 62 -61.5s55.833 -22 88.5 -22c30 0 57.833 6.33301 83.5 19zM200.997 617c-28 29.333 -42 67.333 -42 114v31h63v-29c0 -30.667 8 -54.834 24 -72.501s37.333 -26.5 64 -26.5c27.333 0 49 8.83301 65 26.5
s24 41.834 24 72.501v29h63v-31c0 -47.333 -14 -85.5 -42 -114.5s-64.667 -43.5 -110 -43.5c-44.667 0 -81 14.667 -109 44z" />
    <glyph glyph-name="Gdotaccent" unicode="&#x120;" horiz-adv-x="746" 
d="M217.5 34c-52.333 30 -93.668 71.0029 -124.001 123.003s-45.5 109.667 -45.5 173s15.167 121 45.5 173s71.666 93 123.999 123s110.166 45 173.499 45c56 0 107.167 -11.833 153.5 -35.5s84.833 -56.834 115.5 -99.501l-59 -46
c-25.333 34.667 -55.666 61.5 -90.999 80.5s-75 28.5 -119 28.5c-50 0 -95 -11.667 -135 -35s-71.167 -55.5 -93.5 -96.5s-33.5 -86.5 -33.5 -136.5c0 -50.667 11.333 -96.834 34 -138.501s54.334 -74.334 95.001 -98.001s86.334 -35.5 137.001 -35.5c48 0 91 10.667 129 32
s68.333 50 91 86v89h-225v70h303v-176c-29.333 -52 -70.833 -93.5 -124.5 -124.5s-112.834 -46.5 -177.501 -46.5c-63.333 0 -121.166 15 -173.499 45zM351.998 770.003c-11.333 10.667 -16.999 24 -16.999 40c0 15.333 5.66699 28.5 17 39.5s25 16.5 41 16.5
c15.333 0 28.666 -5.5 39.999 -16.5s17 -24.167 17 -39.5c0 -16 -5.5 -29.333 -16.5 -40s-24.5 -16 -40.5 -16s-29.667 5.33301 -41 16z" />
    <glyph glyph-name="gdotaccent" unicode="&#x121;" horiz-adv-x="637" 
d="M553 487l-0.00292969 -440c0 -74 -21.5 -132.167 -64.5 -174.5s-100.5 -63.5 -172.5 -63.5c-47.333 0 -90.5 8.83301 -129.5 26.5s-72.167 40.167 -99.5 67.5l45 54c27.333 -24 55.333 -42.833 84 -56.5s61.334 -20.5 98.001 -20.5c50.667 0 90.334 14 119.001 42
s43 68.333 43 121v43c-19.333 -25.333 -45.166 -45.166 -77.499 -59.499s-66.833 -21.5 -103.5 -21.5c-45.333 0 -86.166 10.667 -122.499 32s-64.833 50.666 -85.5 87.999s-31 79.333 -31 126s10.333 88.667 31 126s49.167 66.833 85.5 88.5s77.166 32.5 122.499 32.5
c38.667 0 74.5 -7.83301 107.5 -23.5s58.833 -37.5 77.5 -65.5v78h73zM390.497 95c25.667 12.667 46.5 32.167 62.5 58.5s24 58.833 24 97.5s-8 71 -24 97s-37 45.333 -63 58s-53.667 19 -83 19c-32.667 0 -62.167 -7.5 -88.5 -22.5s-47 -35.667 -62 -62
s-22.5 -56.5 -22.5 -90.5s7.5 -64.167 22.5 -90.5s35.667 -46.833 62 -61.5s55.833 -22 88.5 -22c30 0 57.833 6.33301 83.5 19zM269.997 633c-11.333 10.667 -16.999 24 -16.999 40c0 15.333 5.66699 28.5 17 39.5s25 16.5 41 16.5c15.333 0 28.666 -5.5 39.999 -16.5
s17 -24.167 17 -39.5c0 -16 -5.5 -29.333 -16.5 -40s-24.5 -16 -40.5 -16s-29.667 5.33301 -41 16z" />
    <glyph glyph-name="uni0122" unicode="&#x122;" horiz-adv-x="746" 
d="M217.5 34c-52.333 30 -93.668 71.0029 -124.001 123.003s-45.5 109.667 -45.5 173s15.167 121 45.5 173s71.666 93 123.999 123s110.166 45 173.499 45c56 0 107.167 -11.833 153.5 -35.5s84.833 -56.834 115.5 -99.501l-59 -46
c-25.333 34.667 -55.666 61.5 -90.999 80.5s-75 28.5 -119 28.5c-50 0 -95 -11.667 -135 -35s-71.167 -55.5 -93.5 -96.5s-33.5 -86.5 -33.5 -136.5c0 -50.667 11.333 -96.834 34 -138.501s54.334 -74.334 95.001 -98.001s86.334 -35.5 137.001 -35.5c48 0 91 10.667 129 32
s68.333 50 91 86v89h-225v70h303v-176c-29.333 -52 -70.833 -93.5 -124.5 -124.5s-112.834 -46.5 -177.501 -46.5c-63.333 0 -121.166 15 -173.499 45zM353.998 -48.9971h76l-25 -171h-60z" />
    <glyph glyph-name="uni0123" unicode="&#x123;" horiz-adv-x="637" 
d="M553 487l-0.00292969 -440c0 -74 -21.5 -132.167 -64.5 -174.5s-100.5 -63.5 -172.5 -63.5c-47.333 0 -90.5 8.83301 -129.5 26.5s-72.167 40.167 -99.5 67.5l45 54c27.333 -24 55.333 -42.833 84 -56.5s61.334 -20.5 98.001 -20.5c50.667 0 90.334 14 119.001 42
s43 68.333 43 121v43c-19.333 -25.333 -45.166 -45.166 -77.499 -59.499s-66.833 -21.5 -103.5 -21.5c-45.333 0 -86.166 10.667 -122.499 32s-64.833 50.666 -85.5 87.999s-31 79.333 -31 126s10.333 88.667 31 126s49.167 66.833 85.5 88.5s77.166 32.5 122.499 32.5
c38.667 0 74.5 -7.83301 107.5 -23.5s58.833 -37.5 77.5 -65.5v78h73zM390.497 95c25.667 12.667 46.5 32.167 62.5 58.5s24 58.833 24 97.5s-8 71 -24 97s-37 45.333 -63 58s-53.667 19 -83 19c-32.667 0 -62.167 -7.5 -88.5 -22.5s-47 -35.667 -62 -62
s-22.5 -56.5 -22.5 -90.5s7.5 -64.167 22.5 -90.5s35.667 -46.833 62 -61.5s55.833 -22 88.5 -22c30 0 57.833 6.33301 83.5 19zM304.997 780h58l-14 -214h-76z" />
    <glyph glyph-name="Hcircumflex" unicode="&#x124;" horiz-adv-x="708" 
d="M91 660h78v-272h370v272h78v-660h-78v318h-370v-318h-78v660zM464 724l-110 108l-111 -108h-60l147 186h47l147 -186h-60z" />
    <glyph glyph-name="hcircumflex" unicode="&#x125;" horiz-adv-x="566" 
d="M440 445c32 -35.333 48 -81.668 48 -139.001v-306h-77v296c0 39.333 -10.833 71 -32.5 95s-51.167 36 -88.5 36s-68 -12.333 -92 -37s-36 -56 -36 -94v-296h-77v750h77v-318c16.667 20.667 37.5 36.834 62.5 48.501s52.833 17.5 83.5 17.5c56 0 100 -17.667 132 -53z
M272 813.998l-110 108l-111 -108h-60l147 186h47l147 -186h-60z" />
    <glyph glyph-name="Hbar" unicode="&#x126;" horiz-adv-x="719" 
d="M95 460h-99v66h99v134h78v-134h371v134h78v-134h100v-66h-100v-460h-78v253h-371v-253h-78v460zM544 324v136h-371v-136h371z" />
    <glyph glyph-name="hbar" unicode="&#x127;" horiz-adv-x="570" 
d="M443.5 431.5c32.333 -35 48.5 -81.1689 48.5 -138.502v-293h-77v284c0 38.667 -11 69.834 -33 93.501s-51.333 35.5 -88 35.5c-38 0 -69.167 -12.167 -93.5 -36.5s-36.5 -55.166 -36.5 -92.499v-284h-76v579h-83v68h83v103h76v-103h202v-68h-202v-162
c16.667 21.333 37.5 37.833 62.5 49.5s53.167 17.5 84.5 17.5c56 0 100.167 -17.5 132.5 -52.5z" />
    <glyph glyph-name="Itilde" unicode="&#x128;" horiz-adv-x="259" 
d="M91 660h78v-660h-78v660zM138 766l-33 20.001l-12.5 8c-6.33301 4 -12 7 -17 9s-9.5 3 -13.5 3c-9.33301 0 -16.666 -3.66699 -21.999 -11s-8 -16.333 -8 -27v-16h-64c-1.33301 9.33301 -2 17.666 -2 24.999c0 29.333 8 53.5 24 72.5s37 28.5 63 28.5
c22.667 0 46 -7.66699 70 -23l34 -22l12.5 -8.5c6.33301 -4.33301 12 -7.33301 17 -9s9.83301 -2.5 14.5 -2.5c9.33301 0 16.666 3.5 21.999 10.5s8 15.833 8 26.5v18h64c0.666992 -5.33301 1 -14 1 -26c0 -28.667 -7.83301 -52.5 -23.5 -71.5s-36.167 -28.5 -61.5 -28.5
c-22.667 0 -47 8 -73 24z" />
    <glyph glyph-name="itilde" unicode="&#x129;" horiz-adv-x="246" 
d="M85 487h77v-487h-77v487zM124 626l-19 18l-10.5 10c-5 4.66699 -9.33301 8 -13 10s-7.83398 3 -12.501 3c-18 0 -27 -13.667 -27 -41v-17h-64c-1.33301 6.66699 -2 14.667 -2 24c0 30 7.5 55 22.5 75s35.5 30 61.5 30c24 0 45.667 -9.66699 65 -29l19 -19
c8.66699 -8.66699 15.334 -14.667 20.001 -18s10 -5 16 -5c17.333 0 26 13.667 26 41v17h63c1.33301 -6.66699 2 -14.667 2 -24c0 -30 -7.33301 -55 -22 -75s-34.667 -30 -60 -30c-22 0 -43.667 10 -65 30z" />
    <glyph glyph-name="Imacron" unicode="&#x12a;" horiz-adv-x="259" 
d="M91 660h78v-660h-78v660zM-16 833h295v-63h-295v63z" />
    <glyph glyph-name="imacron" unicode="&#x12b;" horiz-adv-x="246" 
d="M85 487h77v-487h-77v487zM14 705h220v-64h-220v64z" />
    <glyph glyph-name="Ibreve" unicode="&#x12c;" horiz-adv-x="259" 
d="M91 660h78v-660h-78v660zM20.5 769.5c-27.667 29 -41.5 67.498 -41.5 115.498v25h63v-24c0 -30 8 -54 24 -72s37.333 -27 64 -27c27.333 0 49 8.83301 65 26.5s24 41.834 24 72.501v24h63v-25c0 -47.333 -14.167 -85.666 -42.5 -114.999s-64.833 -44 -109.5 -44
c-45.333 0 -81.833 14.5 -109.5 43.5z" />
    <glyph glyph-name="ibreve" unicode="&#x12d;" horiz-adv-x="246" 
d="M85 487h77v-487h-77v487zM14 617c-28 29.333 -42 67.333 -42 114v31h63v-29c0 -30.667 8 -54.834 24 -72.501s37.333 -26.5 64 -26.5c27.333 0 49 8.83301 65 26.5s24 41.834 24 72.501v29h63v-31c0 -47.333 -14 -85.5 -42 -114.5s-64.667 -43.5 -110 -43.5
c-44.667 0 -81 14.667 -109 44z" />
    <glyph glyph-name="Iogonek" unicode="&#x12e;" horiz-adv-x="259" 
d="M91 660h78v-660h-78v660zM19.5 -167c-19.667 16 -29.499 36.998 -29.499 62.998c0 24.667 10.833 47 32.5 67s60.167 44 115.5 72l31 -35l-50 -33c-19.333 -13.333 -32.833 -23.666 -40.5 -30.999s-11.5 -16.666 -11.5 -27.999c0 -12 4.16699 -21.167 12.5 -27.5
s20.166 -9.5 35.499 -9.5c14 0 32 2.33301 54 7v-58c-23.333 -7.33301 -47.333 -11 -72 -11c-32 0 -57.833 8 -77.5 24z" />
    <glyph glyph-name="iogonek" unicode="&#x12f;" horiz-adv-x="246" 
d="M85 487h77v-487h-77v487zM83 633c-11.333 10.667 -16.999 24 -16.999 40c0 15.333 5.66699 28.5 17 39.5s25 16.5 41 16.5c15.333 0 28.666 -5.5 39.999 -16.5s17 -24.167 17 -39.5c0 -16 -5.5 -29.333 -16.5 -40s-24.5 -16 -40.5 -16s-29.667 5.33301 -41 16z
M12.501 -167c-19.667 16 -29.499 36.998 -29.499 62.998c0 24.667 10.833 47 32.5 67s60.167 44 115.5 72l31 -35l-50 -33c-19.333 -13.333 -32.833 -23.666 -40.5 -30.999s-11.5 -16.666 -11.5 -27.999c0 -12 4.16699 -21.167 12.5 -27.5s20.166 -9.5 35.499 -9.5
c14 0 32 2.33301 54 7v-58c-23.333 -7.33301 -47.333 -11 -72 -11c-32 0 -57.833 8 -77.5 24z" />
    <glyph glyph-name="Idotaccent" unicode="&#x130;" horiz-adv-x="259" 
d="M91 660h78v-660h-78v660zM90 770c-11.333 10.667 -16.999 24 -16.999 40c0 15.333 5.66699 28.5 17 39.5s25 16.5 41 16.5c15.333 0 28.666 -5.5 39.999 -16.5s17 -24.167 17 -39.5c0 -16 -5.5 -29.333 -16.5 -40s-24.5 -16 -40.5 -16s-29.667 5.33301 -41 16z" />
    <glyph glyph-name="dotlessi" unicode="&#x131;" horiz-adv-x="246" 
d="M85 487h77v-487h-77v487z" />
    <glyph glyph-name="IJ" unicode="&#x132;" horiz-adv-x="633" 
d="M91 660h78v-660h-78v660zM283 0v67.001c27.333 -4 51.333 -6 72 -6c35.333 0 62.333 7.16699 81 21.5s28 40.166 28 77.499v500h78v-507c0 -55.333 -15.333 -96.5 -46 -123.5s-72.667 -40.5 -126 -40.5c-26 0 -55 3.66699 -87 11z" />
    <glyph glyph-name="ij" unicode="&#x133;" horiz-adv-x="492" 
d="M85 487h77v-487h-77v487zM83 633c-11.333 10.667 -16.999 24 -16.999 40c0 15.333 5.66699 28.5 17 39.5s25 16.5 41 16.5c15.333 0 28.666 -5.5 39.999 -16.5s17 -24.167 17 -39.5c0 -16 -5.5 -29.333 -16.5 -40s-24.5 -16 -40.5 -16s-29.667 5.33301 -41 16z
M186.001 -183v65c16.667 -2 31.667 -3 45 -3c32 0 56.667 7 74 21s26 38 26 72v515h77v-520c0 -53.333 -14.5 -93 -43.5 -119s-67.833 -39 -116.5 -39c-22 0 -42.667 2.66699 -62 8zM329.001 633c-11.333 10.667 -16.999 24 -16.999 40c0 15.333 5.66699 28.5 17 39.5
s25 16.5 41 16.5c15.333 0 28.666 -5.5 39.999 -16.5s17 -24.167 17 -39.5c0 -16 -5.5 -29.333 -16.5 -40s-24.5 -16 -40.5 -16s-29.667 5.33301 -41 16z" />
    <glyph glyph-name="Jcircumflex" unicode="&#x134;" horiz-adv-x="373" 
d="M24 0v67.001c27.333 -4 51.333 -6 72 -6c35.333 0 62.333 7.16699 81 21.5s28 40.166 28 77.499v500h78v-507c0 -55.333 -15.333 -96.5 -46 -123.5s-72.667 -40.5 -126 -40.5c-26 0 -55 3.66699 -87 11zM345 724.001l-110 108l-111 -108h-60l147 186h47l147 -186h-60z
" />
    <glyph glyph-name="jcircumflex" unicode="&#x135;" horiz-adv-x="246" 
d="M-60 -183v65c16.667 -2 31.667 -3 45 -3c32 0 56.667 7 74 21s26 38 26 72v515h77v-520c0 -53.333 -14.5 -93 -43.5 -119s-67.833 -39 -116.5 -39c-22 0 -42.667 2.66699 -62 8zM225 566l-100 128l-101 -128h-59l136 214h47l135 -214h-58z" />
    <glyph glyph-name="uni0136" unicode="&#x136;" horiz-adv-x="633" 
d="M91 660h78v-660h-78v660zM602 0h-99l-325 354l297 306h100l-295 -306zM265 -49h76l-25 -171h-60z" />
    <glyph glyph-name="uni0137" unicode="&#x137;" horiz-adv-x="506" 
d="M85 750h77v-750h-77v750zM493 0h-99l-224 274l203 213h101l-211 -214zM215 -49h76l-25 -171h-60z" />
    <glyph glyph-name="Lacute" unicode="&#x139;" horiz-adv-x="506" 
d="M91 660h78v-590h313v-70h-391v660zM185 910h94v-14l-120 -172h-59z" />
    <glyph glyph-name="lacute" unicode="&#x13a;" horiz-adv-x="246" 
d="M85 750h77v-750h-77v750zM179 1000h94v-14l-120 -172h-59z" />
    <glyph glyph-name="uni013B" unicode="&#x13b;" horiz-adv-x="506" 
d="M91 660h78v-590h313v-70h-391v660zM240 -49h76l-25 -171h-60z" />
    <glyph glyph-name="uni013C" unicode="&#x13c;" horiz-adv-x="246" 
d="M85 750h77v-750h-77v750zM85 -49h76l-25 -171h-60z" />
    <glyph glyph-name="Lcaron" unicode="&#x13d;" horiz-adv-x="506" 
d="M91 660h78v-590h313v-70h-391v660zM376 720h83l-39 -211h-57z" />
    <glyph glyph-name="lcaron" unicode="&#x13e;" horiz-adv-x="358" 
d="M85 750h77v-750h-77v750zM275 750h83l-39 -211h-57z" />
    <glyph glyph-name="Ldot" unicode="&#x13f;" horiz-adv-x="506" 
d="M91 660h78v-590h313v-70h-391v660zM343.5 323c-12.333 12 -18.5 27 -18.5 45s6.16699 33 18.5 45s27.166 18 44.499 18s32.166 -6 44.499 -18s18.5 -27 18.5 -45s-6.16699 -33 -18.5 -45s-27.166 -18 -44.499 -18s-32.166 6 -44.499 18z" />
    <glyph glyph-name="ldot" unicode="&#x140;" horiz-adv-x="299" 
d="M85 750h77v-750h-77v750zM231.5 269c-12.333 12 -18.5 27 -18.5 45s6.16699 33 18.5 45s27.166 18 44.499 18s32.166 -6 44.499 -18s18.5 -27 18.5 -45s-6.16699 -33 -18.5 -45s-27.166 -18 -44.499 -18s-32.166 6 -44.499 18z" />
    <glyph glyph-name="Lslash" unicode="&#x141;" horiz-adv-x="506" 
d="M482 70v-70h-391v254l-79 -35v72l79 35v334h78v-304l220 101v-74l-220 -100v-213h313z" />
    <glyph glyph-name="lslash" unicode="&#x142;" horiz-adv-x="360" 
d="M298 377l-87 -40v-337h-77v310l-78 -36v73l78 37v366h77v-340l87 40v-73z" />
    <glyph glyph-name="Nacute" unicode="&#x143;" horiz-adv-x="708" 
d="M617 660v-671h-28l-420 506v-495h-78v671h28l420 -507v496h78zM410 910h94v-14l-120 -172h-59z" />
    <glyph glyph-name="nacute" unicode="&#x144;" horiz-adv-x="566" 
d="M440 445c32 -35.333 47.999 -81.667 47.999 -139v-306h-77v297c0 38.667 -10.833 70 -32.5 94s-51.167 36 -88.5 36s-68 -12.167 -92 -36.5s-36 -55.5 -36 -93.5v-297h-77v487h72v-52c18 20 39.833 35.5 65.5 46.5s53.834 16.5 84.501 16.5c56.667 0 101 -17.667 133 -53
zM342.999 779.999h94v-14l-120 -200h-59z" />
    <glyph glyph-name="uni0145" unicode="&#x145;" horiz-adv-x="708" 
d="M617 660v-671h-28l-420 506v-495h-78v671h28l420 -507v496h78zM315 -49h76l-25 -171h-60z" />
    <glyph glyph-name="uni0146" unicode="&#x146;" horiz-adv-x="566" 
d="M440 445c32 -35.333 47.999 -81.667 47.999 -139v-306h-77v297c0 38.667 -10.833 70 -32.5 94s-51.167 36 -88.5 36s-68 -12.167 -92 -36.5s-36 -55.5 -36 -93.5v-297h-77v487h72v-52c18 20 39.833 35.5 65.5 46.5s53.834 16.5 84.501 16.5c56.667 0 101 -17.667 133 -53
zM245.999 -49.001h76l-25 -171h-60z" />
    <glyph glyph-name="Ncaron" unicode="&#x147;" horiz-adv-x="708" 
d="M617 660v-671h-28l-420 506v-495h-78v671h28l420 -507v496h78zM524 910l-147 -186h-47l-147 186h60l111 -108l110 108h60z" />
    <glyph glyph-name="ncaron" unicode="&#x148;" horiz-adv-x="566" 
d="M440 445c32 -35.333 47.999 -81.667 47.999 -139v-306h-77v297c0 38.667 -10.833 70 -32.5 94s-51.167 36 -88.5 36s-68 -12.167 -92 -36.5s-36 -55.5 -36 -93.5v-297h-77v487h72v-52c18 20 39.833 35.5 65.5 46.5s53.834 16.5 84.501 16.5c56.667 0 101 -17.667 133 -53
zM443.999 779.999l-135 -214h-47l-136 214h59l101 -128l100 128h58z" />
    <glyph glyph-name="Eng" unicode="&#x14a;" horiz-adv-x="708" 
d="M617 660l-0.000976562 -693c0 -53.333 -14.333 -93 -43 -119s-67.667 -39 -117 -39c-21.333 0 -41.666 2.66699 -60.999 8v65c17.333 -2 32.333 -3 45 -3c32 0 56.333 7 73 21s25 38 25 72v41l-370 474v-487h-78v671h28l420 -540v529h78z" />
    <glyph glyph-name="eng" unicode="&#x14b;" horiz-adv-x="566" 
d="M440 445c32 -35.333 47.999 -81.668 47.999 -139.001v-339c0 -53.333 -14.5 -93 -43.5 -119s-67.833 -39 -116.5 -39c-22 0 -42.667 2.66699 -62 8v65c17.333 -2 32 -3 44 -3c32.667 0 57.667 6.83301 75 20.5s26 37.834 26 72.501v324c0 39.333 -10.833 71 -32.5 95
s-51.167 36 -88.5 36s-68 -12.333 -92 -37s-36 -56 -36 -94v-296h-77v487h72v-52c18 20 39.833 35.5 65.5 46.5s53.834 16.5 84.501 16.5c56.667 0 101 -17.667 133 -53z" />
    <glyph glyph-name="Omacron" unicode="&#x14c;" horiz-adv-x="781" 
d="M217.5 34c-52.333 30 -93.666 71.167 -123.999 123.5s-45.5 109.833 -45.5 172.5c0 63.333 15.167 121 45.5 173s71.666 93 123.999 123s109.833 45 172.5 45c62 0 119.333 -15 172 -45s94.334 -71 125.001 -123s46 -109.667 46 -173s-15.333 -121 -46 -173
s-72.334 -93 -125.001 -123s-110 -45 -172 -45c-62.667 0 -120.167 15 -172.5 45zM524 96.5c40 23.667 71.333 56.001 94 97.001s34 86.833 34 137.5c0 50 -11.333 95.5 -34 136.5s-54 73.167 -94 96.5s-84.333 35 -133 35c-49.333 0 -94 -11.667 -134 -35
s-71.333 -55.333 -94 -96s-34 -86.334 -34 -137.001s11.333 -96.5 34 -137.5s54 -73.333 94 -97s84.667 -35.5 134 -35.5c48.667 0 93 11.833 133 35.5zM244 833.001h295v-63h-295v63z" />
    <glyph glyph-name="omacron" unicode="&#x14d;" horiz-adv-x="610" 
d="M176 24c-38.667 22.667 -69.332 53.502 -91.999 92.502s-34 81.5 -34 127.5c0 46.667 11.333 89.5 34 128.5s53.5 69.667 92.5 92s81.833 33.5 128.5 33.5s89.5 -11.333 128.5 -34s69.833 -53.334 92.5 -92.001s34 -81.334 34 -128.001c0 -46 -11.333 -88.5 -34 -127.5
s-53.667 -69.833 -93 -92.5s-82.333 -34 -129 -34s-89.334 11.333 -128.001 34zM393.502 85.002c27 16 48.332 37.833 63.999 65.5s23.5 58.5 23.5 92.5c0 34.667 -7.66699 66 -23 94s-36.5 50 -63.5 66s-56.833 24 -89.5 24c-33.333 0 -63.333 -8 -90 -24
s-47.667 -38 -63 -66s-23 -59.333 -23 -94c0 -34 7.66699 -64.833 23 -92.5s36.333 -49.5 63 -65.5s56.334 -24 89.001 -24s62.5 8 89.5 24zM168.001 704.002h275v-62h-275v62z" />
    <glyph glyph-name="Obreve" unicode="&#x14e;" horiz-adv-x="781" 
d="M217.5 34c-52.333 30 -93.666 71.167 -123.999 123.5s-45.5 109.833 -45.5 172.5c0 63.333 15.167 121 45.5 173s71.666 93 123.999 123s109.833 45 172.5 45c62 0 119.333 -15 172 -45s94.334 -71 125.001 -123s46 -109.667 46 -173s-15.333 -121 -46 -173
s-72.334 -93 -125.001 -123s-110 -45 -172 -45c-62.667 0 -120.167 15 -172.5 45zM524 96.5c40 23.667 71.333 56.001 94 97.001s34 86.833 34 137.5c0 50 -11.333 95.5 -34 136.5s-54 73.167 -94 96.5s-84.333 35 -133 35c-49.333 0 -94 -11.667 -134 -35
s-71.333 -55.333 -94 -96s-34 -86.334 -34 -137.001s11.333 -96.5 34 -137.5s54 -73.333 94 -97s84.667 -35.5 134 -35.5c48.667 0 93 11.833 133 35.5zM280.5 769.501c-27.667 29 -41.5 67.498 -41.5 115.498v25h63v-24c0 -30 8 -54 24 -72s37.333 -27 64 -27
c27.333 0 49 8.83301 65 26.5s24 41.834 24 72.501v24h63v-25c0 -47.333 -14.167 -85.666 -42.5 -114.999s-64.833 -44 -109.5 -44c-45.333 0 -81.833 14.5 -109.5 43.5z" />
    <glyph glyph-name="obreve" unicode="&#x14f;" horiz-adv-x="610" 
d="M176 24c-38.667 22.667 -69.332 53.502 -91.999 92.502s-34 81.5 -34 127.5c0 46.667 11.333 89.5 34 128.5s53.5 69.667 92.5 92s81.833 33.5 128.5 33.5s89.5 -11.333 128.5 -34s69.833 -53.334 92.5 -92.001s34 -81.334 34 -128.001c0 -46 -11.333 -88.5 -34 -127.5
s-53.667 -69.833 -93 -92.5s-82.333 -34 -129 -34s-89.334 11.333 -128.001 34zM393.502 85.002c27 16 48.332 37.833 63.999 65.5s23.5 58.5 23.5 92.5c0 34.667 -7.66699 66 -23 94s-36.5 50 -63.5 66s-56.833 24 -89.5 24c-33.333 0 -63.333 -8 -90 -24
s-47.667 -38 -63 -66s-23 -59.333 -23 -94c0 -34 7.66699 -64.833 23 -92.5s36.333 -49.5 63 -65.5s56.334 -24 89.001 -24s62.5 8 89.5 24zM195.001 617.002c-28 29.333 -42 67.333 -42 114v31h63v-29c0 -30.667 8 -54.834 24 -72.501s37.333 -26.5 64 -26.5
c27.333 0 49 8.83301 65 26.5s24 41.834 24 72.501v29h63v-31c0 -47.333 -14 -85.5 -42 -114.5s-64.667 -43.5 -110 -43.5c-44.667 0 -81 14.667 -109 44z" />
    <glyph glyph-name="Ohungarumlaut" unicode="&#x150;" horiz-adv-x="781" 
d="M217.5 34c-52.333 30 -93.666 71.167 -123.999 123.5s-45.5 109.833 -45.5 172.5c0 63.333 15.167 121 45.5 173s71.666 93 123.999 123s109.833 45 172.5 45c62 0 119.333 -15 172 -45s94.334 -71 125.001 -123s46 -109.667 46 -173s-15.333 -121 -46 -173
s-72.334 -93 -125.001 -123s-110 -45 -172 -45c-62.667 0 -120.167 15 -172.5 45zM524 96.5c40 23.667 71.333 56.001 94 97.001s34 86.833 34 137.5c0 50 -11.333 95.5 -34 136.5s-54 73.167 -94 96.5s-84.333 35 -133 35c-49.333 0 -94 -11.667 -134 -35
s-71.333 -55.333 -94 -96s-34 -86.334 -34 -137.001s11.333 -96.5 34 -137.5s54 -73.333 94 -97s84.667 -35.5 134 -35.5c48.667 0 93 11.833 133 35.5zM328 910.001h83v-14l-114 -172h-55zM547 910.001h83v-14l-114 -172h-55z" />
    <glyph glyph-name="ohungarumlaut" unicode="&#x151;" horiz-adv-x="610" 
d="M176 24c-38.667 22.667 -69.332 53.502 -91.999 92.502s-34 81.5 -34 127.5c0 46.667 11.333 89.5 34 128.5s53.5 69.667 92.5 92s81.833 33.5 128.5 33.5s89.5 -11.333 128.5 -34s69.833 -53.334 92.5 -92.001s34 -81.334 34 -128.001c0 -46 -11.333 -88.5 -34 -127.5
s-53.667 -69.833 -93 -92.5s-82.333 -34 -129 -34s-89.334 11.333 -128.001 34zM393.502 85.002c27 16 48.332 37.833 63.999 65.5s23.5 58.5 23.5 92.5c0 34.667 -7.66699 66 -23 94s-36.5 50 -63.5 66s-56.833 24 -89.5 24c-33.333 0 -63.333 -8 -90 -24
s-47.667 -38 -63 -66s-23 -59.333 -23 -94c0 -34 7.66699 -64.833 23 -92.5s36.333 -49.5 63 -65.5s56.334 -24 89.001 -24s62.5 8 89.5 24zM259.001 780.002h83v-14l-114 -200h-55zM458.001 780.002h83v-14l-114 -200h-55z" />
    <glyph glyph-name="OE" unicode="&#x152;" horiz-adv-x="1127" 
d="M1087 70l-0.00195312 -70.001h-435v125c-27.333 -42.667 -64.166 -76 -110.499 -100s-97.166 -36 -152.499 -36c-63.333 0 -121 15 -173 45s-93 71 -123 123s-45 109.667 -45 173s15.167 121 45.5 173s71.5 93 123.5 123s109.667 45 173 45c56 0 107 -12.167 153 -36.5
s82.333 -57.166 109 -98.499v124h423v-70h-345v-202h264v-70h-264v-248h357zM523.998 96.499c40 23.667 71.333 56 94 97s34 86.5 34 136.5s-11.333 95.5 -34 136.5s-54 73.333 -94 97s-84.667 35.5 -134 35.5s-93.833 -11.667 -133.5 -35s-70.834 -55.5 -93.501 -96.5
s-34 -86.833 -34 -137.5s11.333 -96.5 34 -137.5s53.834 -73.167 93.501 -96.5s84.167 -35 133.5 -35s94 11.833 134 35.5z" />
    <glyph glyph-name="oe" unicode="&#x153;" horiz-adv-x="981" 
d="M925 219l-377.999 0.000976562c4.66699 -48 23 -86.5 55 -115.5s71.667 -43.5 119 -43.5c54.667 0 103 21.667 145 65l47 -51c-25.333 -27.333 -54.833 -48.333 -88.5 -63s-68.834 -22 -105.501 -22c-44.667 0 -85.667 11 -123 33s-66.666 51.667 -87.999 89
c-20.667 -38 -48.834 -67.833 -84.501 -89.5s-76.167 -32.5 -121.5 -32.5c-46 0 -88.333 11.167 -127 33.5s-69.167 53 -91.5 92s-33.5 81.833 -33.5 128.5c0 47.333 11.333 90.5 34 129.5s53.334 69.667 92.001 92s81 33.5 127 33.5c45.333 0 85.833 -11 121.5 -33
s63.5 -52 83.5 -90c21.333 37.333 50 67 86 89s75.667 33 119 33c39.333 0 75.666 -9.33301 108.999 -28s59.833 -44.834 79.5 -78.501s29.5 -71.5 29.5 -113.5c0 -18.667 -2 -38 -6 -58zM389.501 84.001c25.667 16 45.666 38 59.999 66s21.5 59 21.5 93
c0 34.667 -7 66 -21 94s-33.833 50 -59.5 66s-54.834 24 -87.501 24c-33.333 0 -63.166 -8 -89.499 -24s-47 -38.167 -62 -66.5s-22.5 -59.5 -22.5 -93.5s7.5 -65 22.5 -93s35.667 -50 62 -66s55.833 -24 88.5 -24s61.834 8 87.501 24zM605.5 389.001
c-29 -25.333 -47.499 -59.333 -55.499 -102h302c-0.666992 43.333 -14.834 77.5 -42.501 102.5s-61.5 37.5 -101.5 37.5c-39.333 0 -73.5 -12.667 -102.5 -38z" />
    <glyph glyph-name="Racute" unicode="&#x154;" horiz-adv-x="622" 
d="M515 0l-205.001 277h-141v-277h-78v660h232c42.667 0 79.834 -8.16699 111.501 -24.5s56.167 -39 73.5 -68s26 -61.833 26 -98.5c0 -44.667 -12.333 -83.167 -37 -115.5s-58.667 -54.833 -102 -67.5l211 -286h-91zM168.999 347h151c42.667 0 75.5 11 98.5 33
s34.5 51.333 34.5 88c0 36 -11.667 65.333 -35 88s-56 34 -98 34h-151v-243zM317.999 910h94v-14l-120 -172h-59z" />
    <glyph glyph-name="racute" unicode="&#x155;" horiz-adv-x="362" 
d="M344 487l-0.000976562 -68.001h-29c-27.333 0 -52.666 -5.66699 -75.999 -17s-42 -27.666 -56 -48.999s-21 -47 -21 -77v-276h-77v487h72v-69c17.333 23.333 39.5 41.333 66.5 54s55.167 19 84.5 19c10.667 0 22.667 -1.33301 36 -4zM230.999 779.999h94v-14l-120 -200
h-59z" />
    <glyph glyph-name="uni0156" unicode="&#x156;" horiz-adv-x="622" 
d="M515 0l-205.001 277h-141v-277h-78v660h232c42.667 0 79.834 -8.16699 111.501 -24.5s56.167 -39 73.5 -68s26 -61.833 26 -98.5c0 -44.667 -12.333 -83.167 -37 -115.5s-58.667 -54.833 -102 -67.5l211 -286h-91zM168.999 347h151c42.667 0 75.5 11 98.5 33
s34.5 51.333 34.5 88c0 36 -11.667 65.333 -35 88s-56 34 -98 34h-151v-243zM272.999 -49h76l-25 -171h-60z" />
    <glyph glyph-name="uni0157" unicode="&#x157;" horiz-adv-x="362" 
d="M344 487l-0.000976562 -68.001h-29c-27.333 0 -52.666 -5.66699 -75.999 -17s-42 -27.666 -56 -48.999s-21 -47 -21 -77v-276h-77v487h72v-69c17.333 23.333 39.5 41.333 66.5 54s55.167 19 84.5 19c10.667 0 22.667 -1.33301 36 -4zM83.999 -49.001h76l-25 -171h-60z
" />
    <glyph glyph-name="Rcaron" unicode="&#x158;" horiz-adv-x="622" 
d="M515 0l-205.001 277h-141v-277h-78v660h232c42.667 0 79.834 -8.16699 111.501 -24.5s56.167 -39 73.5 -68s26 -61.833 26 -98.5c0 -44.667 -12.333 -83.167 -37 -115.5s-58.667 -54.833 -102 -67.5l211 -286h-91zM168.999 347h151c42.667 0 75.5 11 98.5 33
s34.5 51.333 34.5 88c0 36 -11.667 65.333 -35 88s-56 34 -98 34h-151v-243zM431.999 910l-147 -186h-47l-147 186h60l111 -108l110 108h60z" />
    <glyph glyph-name="rcaron" unicode="&#x159;" horiz-adv-x="362" 
d="M344 487l-0.000976562 -68.001h-29c-27.333 0 -52.666 -5.66699 -75.999 -17s-42 -27.666 -56 -48.999s-21 -47 -21 -77v-276h-77v487h72v-69c17.333 23.333 39.5 41.333 66.5 54s55.167 19 84.5 19c10.667 0 22.667 -1.33301 36 -4zM331.999 779.999l-135 -214h-47
l-136 214h59l101 -128l100 128h58z" />
    <glyph glyph-name="Sacute" unicode="&#x15a;" horiz-adv-x="558" 
d="M143.5 27c-42.333 25.333 -76.5 60.0029 -102.5 104.003l58 43c49.333 -75.333 110.666 -113 183.999 -113c39.333 0 71.333 10 96 30s37 46.667 37 80c0 19.333 -4.33301 35.666 -13 48.999s-20.5 24.666 -35.5 33.999s-35.5 20.333 -61.5 33l-74 35
c-45.333 21.333 -81.5 45.166 -108.5 71.499s-40.5 61.5 -40.5 105.5c0 34 9 64 27 90s42.167 46.167 72.5 60.5s63.5 21.5 99.5 21.5c44 0 84.167 -10.333 120.5 -31s65.166 -47.667 86.499 -81l-57 -43c-18 26.667 -40.167 47.167 -66.5 61.5s-54.5 21.5 -84.5 21.5
c-32.667 0 -60.334 -8.33301 -83.001 -25s-34 -40.334 -34 -71.001c0 -18.667 4.33301 -34.5 13 -47.5s19.834 -23.667 33.501 -32s33.5 -18.833 59.5 -31.5l73 -35c52 -25.333 90.667 -51.666 116 -78.999s38 -62.333 38 -105c0 -36 -9.16699 -68 -27.5 -96
s-43.666 -49.667 -75.999 -65s-68.833 -23 -109.5 -23c-51.333 0 -98.166 12.667 -140.499 38zM339 910.003h94v-14l-120 -172h-59z" />
    <glyph glyph-name="sacute" unicode="&#x15b;" horiz-adv-x="454" 
d="M119.5 15.5c-32.333 17.667 -59.165 40.502 -80.498 68.502l49 51c23.333 -24 45.666 -42.5 66.999 -55.5s45.666 -19.5 72.999 -19.5c26.667 0 48.834 6.16699 66.501 18.5s26.5 29.166 26.5 50.499c0 19.333 -6.66699 34.166 -20 44.499s-35 21.5 -65 33.5l-47 20
c-40.667 16.667 -71 35.167 -91 55.5s-30 46.833 -30 79.5c0 42.667 15.667 76 47 100s70.333 36 117 36c34 0 64.667 -6.83301 92 -20.5s51 -32.5 71 -56.5l-47 -48c-16.667 16.667 -35.167 29.834 -55.5 39.501s-41.833 14.5 -64.5 14.5c-24 0 -43.5 -5.33301 -58.5 -16
s-22.5 -25.667 -22.5 -45c0 -15.333 5.83301 -27.833 17.5 -37.5s32.167 -20.834 61.5 -33.501l45 -19c45.333 -19.333 78.166 -39.833 98.499 -61.5s30.5 -49.167 30.5 -82.5c0 -45.333 -16.5 -80.5 -49.5 -105.5s-73.5 -37.5 -121.5 -37.5
c-40.667 0 -77.167 8.83301 -109.5 26.5zM288.001 780.002h94v-14l-120 -200h-59z" />
    <glyph glyph-name="Scircumflex" unicode="&#x15c;" horiz-adv-x="558" 
d="M143.5 27c-42.333 25.333 -76.5 60.0029 -102.5 104.003l58 43c49.333 -75.333 110.666 -113 183.999 -113c39.333 0 71.333 10 96 30s37 46.667 37 80c0 19.333 -4.33301 35.666 -13 48.999s-20.5 24.666 -35.5 33.999s-35.5 20.333 -61.5 33l-74 35
c-45.333 21.333 -81.5 45.166 -108.5 71.499s-40.5 61.5 -40.5 105.5c0 34 9 64 27 90s42.167 46.167 72.5 60.5s63.5 21.5 99.5 21.5c44 0 84.167 -10.333 120.5 -31s65.166 -47.667 86.499 -81l-57 -43c-18 26.667 -40.167 47.167 -66.5 61.5s-54.5 21.5 -84.5 21.5
c-32.667 0 -60.334 -8.33301 -83.001 -25s-34 -40.334 -34 -71.001c0 -18.667 4.33301 -34.5 13 -47.5s19.834 -23.667 33.501 -32s33.5 -18.833 59.5 -31.5l73 -35c52 -25.333 90.667 -51.666 116 -78.999s38 -62.333 38 -105c0 -36 -9.16699 -68 -27.5 -96
s-43.666 -49.667 -75.999 -65s-68.833 -23 -109.5 -23c-51.333 0 -98.166 12.667 -140.499 38zM393 724.003l-110 108l-111 -108h-60l147 186h47l147 -186h-60z" />
    <glyph glyph-name="scircumflex" unicode="&#x15d;" horiz-adv-x="454" 
d="M119.5 15.5c-32.333 17.667 -59.165 40.502 -80.498 68.502l49 51c23.333 -24 45.666 -42.5 66.999 -55.5s45.666 -19.5 72.999 -19.5c26.667 0 48.834 6.16699 66.501 18.5s26.5 29.166 26.5 50.499c0 19.333 -6.66699 34.166 -20 44.499s-35 21.5 -65 33.5l-47 20
c-40.667 16.667 -71 35.167 -91 55.5s-30 46.833 -30 79.5c0 42.667 15.667 76 47 100s70.333 36 117 36c34 0 64.667 -6.83301 92 -20.5s51 -32.5 71 -56.5l-47 -48c-16.667 16.667 -35.167 29.834 -55.5 39.501s-41.833 14.5 -64.5 14.5c-24 0 -43.5 -5.33301 -58.5 -16
s-22.5 -25.667 -22.5 -45c0 -15.333 5.83301 -27.833 17.5 -37.5s32.167 -20.834 61.5 -33.501l45 -19c45.333 -19.333 78.166 -39.833 98.499 -61.5s30.5 -49.167 30.5 -82.5c0 -45.333 -16.5 -80.5 -49.5 -105.5s-73.5 -37.5 -121.5 -37.5
c-40.667 0 -77.167 8.83301 -109.5 26.5zM331.001 566.002l-100 128l-101 -128h-59l136 214h47l135 -214h-58z" />
    <glyph glyph-name="Scedilla" unicode="&#x15e;" horiz-adv-x="558" 
d="M143.5 27c-42.333 25.333 -76.5 60.0029 -102.5 104.003l58 43c49.333 -75.333 110.666 -113 183.999 -113c39.333 0 71.333 10 96 30s37 46.667 37 80c0 19.333 -4.33301 35.666 -13 48.999s-20.5 24.666 -35.5 33.999s-35.5 20.333 -61.5 33l-74 35
c-45.333 21.333 -81.5 45.166 -108.5 71.499s-40.5 61.5 -40.5 105.5c0 34 9 64 27 90s42.167 46.167 72.5 60.5s63.5 21.5 99.5 21.5c44 0 84.167 -10.333 120.5 -31s65.166 -47.667 86.499 -81l-57 -43c-18 26.667 -40.167 47.167 -66.5 61.5s-54.5 21.5 -84.5 21.5
c-32.667 0 -60.334 -8.33301 -83.001 -25s-34 -40.334 -34 -71.001c0 -18.667 4.33301 -34.5 13 -47.5s19.834 -23.667 33.501 -32s33.5 -18.833 59.5 -31.5l73 -35c52 -25.333 90.667 -51.666 116 -78.999s38 -62.333 38 -105c0 -36 -9.16699 -68 -27.5 -96
s-43.666 -49.667 -75.999 -65s-68.833 -23 -109.5 -23c-51.333 0 -98.166 12.667 -140.499 38zM162 -180.997l0.000976562 55c20.667 -2.66699 39.334 -4 56.001 -4c23.333 0 42.166 5.33301 56.499 16s21.5 27 21.5 49c0 26.667 -11.333 51.334 -34 74.001l33 17
c20 -10 36.167 -23.833 48.5 -41.5s18.5 -37.834 18.5 -60.501c0 -32.667 -11.833 -60 -35.5 -82s-55.834 -33 -96.501 -33c-22 0 -44.667 3.33301 -68 10z" />
    <glyph glyph-name="scedilla" unicode="&#x15f;" horiz-adv-x="454" 
d="M119.5 15.5c-32.333 17.667 -59.165 40.502 -80.498 68.502l49 51c23.333 -24 45.666 -42.5 66.999 -55.5s45.666 -19.5 72.999 -19.5c26.667 0 48.834 6.16699 66.501 18.5s26.5 29.166 26.5 50.499c0 19.333 -6.66699 34.166 -20 44.499s-35 21.5 -65 33.5l-47 20
c-40.667 16.667 -71 35.167 -91 55.5s-30 46.833 -30 79.5c0 42.667 15.667 76 47 100s70.333 36 117 36c34 0 64.667 -6.83301 92 -20.5s51 -32.5 71 -56.5l-47 -48c-16.667 16.667 -35.167 29.834 -55.5 39.501s-41.833 14.5 -64.5 14.5c-24 0 -43.5 -5.33301 -58.5 -16
s-22.5 -25.667 -22.5 -45c0 -15.333 5.83301 -27.833 17.5 -37.5s32.167 -20.834 61.5 -33.501l45 -19c45.333 -19.333 78.166 -39.833 98.499 -61.5s30.5 -49.167 30.5 -82.5c0 -45.333 -16.5 -80.5 -49.5 -105.5s-73.5 -37.5 -121.5 -37.5
c-40.667 0 -77.167 8.83301 -109.5 26.5zM112.001 -180.998l0.000976562 55c20.667 -2.66699 39.334 -4 56.001 -4c23.333 0 42.166 5.33301 56.499 16s21.5 27 21.5 49c0 26.667 -11.333 51.334 -34 74.001l33 17c20 -10 36.167 -23.833 48.5 -41.5
s18.5 -37.834 18.5 -60.501c0 -32.667 -11.833 -60 -35.5 -82s-55.834 -33 -96.501 -33c-22 0 -44.667 3.33301 -68 10z" />
    <glyph glyph-name="Scaron" unicode="&#x160;" horiz-adv-x="558" 
d="M143.5 27c-42.333 25.333 -76.5 60.0029 -102.5 104.003l58 43c49.333 -75.333 110.666 -113 183.999 -113c39.333 0 71.333 10 96 30s37 46.667 37 80c0 19.333 -4.33301 35.666 -13 48.999s-20.5 24.666 -35.5 33.999s-35.5 20.333 -61.5 33l-74 35
c-45.333 21.333 -81.5 45.166 -108.5 71.499s-40.5 61.5 -40.5 105.5c0 34 9 64 27 90s42.167 46.167 72.5 60.5s63.5 21.5 99.5 21.5c44 0 84.167 -10.333 120.5 -31s65.166 -47.667 86.499 -81l-57 -43c-18 26.667 -40.167 47.167 -66.5 61.5s-54.5 21.5 -84.5 21.5
c-32.667 0 -60.334 -8.33301 -83.001 -25s-34 -40.334 -34 -71.001c0 -18.667 4.33301 -34.5 13 -47.5s19.834 -23.667 33.501 -32s33.5 -18.833 59.5 -31.5l73 -35c52 -25.333 90.667 -51.666 116 -78.999s38 -62.333 38 -105c0 -36 -9.16699 -68 -27.5 -96
s-43.666 -49.667 -75.999 -65s-68.833 -23 -109.5 -23c-51.333 0 -98.166 12.667 -140.499 38zM453 910.003l-147 -186h-47l-147 186h60l111 -108l110 108h60z" />
    <glyph glyph-name="scaron" unicode="&#x161;" horiz-adv-x="454" 
d="M119.5 15.5c-32.333 17.667 -59.165 40.502 -80.498 68.502l49 51c23.333 -24 45.666 -42.5 66.999 -55.5s45.666 -19.5 72.999 -19.5c26.667 0 48.834 6.16699 66.501 18.5s26.5 29.166 26.5 50.499c0 19.333 -6.66699 34.166 -20 44.499s-35 21.5 -65 33.5l-47 20
c-40.667 16.667 -71 35.167 -91 55.5s-30 46.833 -30 79.5c0 42.667 15.667 76 47 100s70.333 36 117 36c34 0 64.667 -6.83301 92 -20.5s51 -32.5 71 -56.5l-47 -48c-16.667 16.667 -35.167 29.834 -55.5 39.501s-41.833 14.5 -64.5 14.5c-24 0 -43.5 -5.33301 -58.5 -16
s-22.5 -25.667 -22.5 -45c0 -15.333 5.83301 -27.833 17.5 -37.5s32.167 -20.834 61.5 -33.501l45 -19c45.333 -19.333 78.166 -39.833 98.499 -61.5s30.5 -49.167 30.5 -82.5c0 -45.333 -16.5 -80.5 -49.5 -105.5s-73.5 -37.5 -121.5 -37.5
c-40.667 0 -77.167 8.83301 -109.5 26.5zM389.001 780.002l-135 -214h-47l-136 214h59l101 -128l100 128h58z" />
    <glyph glyph-name="uni0162" unicode="&#x162;" horiz-adv-x="581" 
d="M251 590h-232v70h543v-70h-233v-590h-78v590zM161 -181l0.000976562 55c20.667 -2.66699 39.334 -4 56.001 -4c23.333 0 42.166 5.33301 56.499 16s21.5 27 21.5 49c0 26.667 -11.333 51.334 -34 74.001l33 17c20 -10 36.167 -23.833 48.5 -41.5
s18.5 -37.834 18.5 -60.501c0 -32.667 -11.833 -60 -35.5 -82s-55.834 -33 -96.501 -33c-22 0 -44.667 3.33301 -68 10z" />
    <glyph glyph-name="uni0163" unicode="&#x163;" horiz-adv-x="381" 
d="M351 65l-0.000976562 -64.999c-30.667 -7.33301 -57.667 -11 -81 -11c-50.667 0 -90.667 13 -120 39s-44 65.667 -44 119v271h-82v69h82v133h77v-133h152v-69h-152v-266c0 -34.667 8.83301 -58.834 26.5 -72.501s43.167 -20.5 76.5 -20.5c18.667 0 40.334 2 65.001 6z
M92.999 -180.999l0.000976562 55c20.667 -2.66699 39.334 -4 56.001 -4c23.333 0 42.166 5.33301 56.499 16s21.5 27 21.5 49c0 26.667 -11.333 51.334 -34 74.001l33 17c20 -10 36.167 -23.833 48.5 -41.5s18.5 -37.834 18.5 -60.501c0 -32.667 -11.833 -60 -35.5 -82
s-55.834 -33 -96.501 -33c-22 0 -44.667 3.33301 -68 10z" />
    <glyph glyph-name="Tcaron" unicode="&#x164;" horiz-adv-x="581" 
d="M251 590h-232v70h543v-70h-233v-590h-78v590zM461 910l-147 -186h-47l-147 186h60l111 -108l110 108h60z" />
    <glyph glyph-name="tcaron" unicode="&#x165;" horiz-adv-x="381" 
d="M351 65l-0.000976562 -64.999c-30.667 -7.33301 -57.667 -11 -81 -11c-50.667 0 -90.667 13 -120 39s-44 65.667 -44 119v271h-82v69h82v133h77v-133h152v-69h-152v-266c0 -34.667 8.83301 -58.834 26.5 -72.501s43.167 -20.5 76.5 -20.5c18.667 0 40.334 2 65.001 6z
M290.999 750.001h83l-39 -211h-57z" />
    <glyph glyph-name="Tbar" unicode="&#x166;" horiz-adv-x="581" 
d="M251 260h-195v66h195v264h-232v70h543v-70h-233v-264h196v-66h-196v-260h-78v260z" />
    <glyph glyph-name="tbar" unicode="&#x167;" horiz-adv-x="394" 
d="M360 65v-65c-29.333 -7.33301 -56.333 -11 -81 -11c-50 0 -89.667 13 -119 39s-44 65.667 -44 119v72h-83v66h83v135h-83v67h83v133h76v-133h152v-67h-152v-135h152v-66h-152v-67c0 -34 8.66699 -58 26 -72s42.333 -21 75 -21c20 0 42.333 2 67 6z" />
    <glyph glyph-name="Utilde" unicode="&#x168;" horiz-adv-x="689" 
d="M208.5 21c-39.667 21.333 -70.667 52.5 -93 93.5s-33.5 90.167 -33.5 147.5v398h78v-403c0 -64 17.167 -112.667 51.5 -146s78.833 -50 133.5 -50c54 0 98 16.667 132 50s51 82 51 146v403h78v-398c0 -57.333 -11.167 -106.5 -33.5 -147.5s-53.333 -72.167 -93 -93.5
s-84.5 -32 -134.5 -32c-51.333 0 -96.833 10.667 -136.5 32zM351 766l-33 20.001l-12.5 8c-6.33301 4 -12 7 -17 9s-9.5 3 -13.5 3c-9.33301 0 -16.666 -3.66699 -21.999 -11s-8 -16.333 -8 -27v-16h-64c-1.33301 9.33301 -2 17.666 -2 24.999c0 29.333 8 53.5 24 72.5
s37 28.5 63 28.5c22.667 0 46 -7.66699 70 -23l34 -22l12.5 -8.5c6.33301 -4.33301 12 -7.33301 17 -9s9.83301 -2.5 14.5 -2.5c9.33301 0 16.666 3.5 21.999 10.5s8 15.833 8 26.5v18h64c0.666992 -5.33301 1 -14 1 -26c0 -28.667 -7.83301 -52.5 -23.5 -71.5
s-36.167 -28.5 -61.5 -28.5c-22.667 0 -47 8 -73 24z" />
    <glyph glyph-name="utilde" unicode="&#x169;" 
d="M178 14.5c-30.667 17 -54.832 40.998 -72.499 71.998s-26.5 66.833 -26.5 107.5v293h76v-298c0 -39.333 12 -70.666 36 -93.999s54 -35 90 -35c35.333 0 64.833 11.833 88.5 35.5s35.5 54.834 35.5 93.501v298h77v-293c0 -40.667 -8.83301 -76.5 -26.5 -107.5
s-41.834 -55 -72.501 -72s-64.667 -25.5 -102 -25.5c-38 0 -72.333 8.5 -103 25.5zM317.002 602.998c-12 4.66699 -23.001 11 -33.001 19l-26 22c-2.66699 2 -6.66699 5.33301 -12 10s-10.333 8 -15 10s-9.66699 3 -15 3c-18.667 0 -28 -13.667 -28 -41v-17h-64
c-0.666992 6 -1 14.333 -1 25c0 30 7.66699 54.833 23 74.5s36 29.5 62 29.5c24.667 0 47.334 -8.66699 68.001 -26l26 -22c17.333 -15.333 31.333 -23 42 -23c18.667 0 28 13.667 28 41v17h64c0.666992 -6 1 -14.333 1 -25c0 -30 -7.66699 -54.833 -23 -74.5
s-36 -29.5 -62 -29.5c-11.333 0 -23 2.33301 -35 7z" />
    <glyph glyph-name="Umacron" unicode="&#x16a;" horiz-adv-x="689" 
d="M208.5 21c-39.667 21.333 -70.667 52.5 -93 93.5s-33.5 90.167 -33.5 147.5v398h78v-403c0 -64 17.167 -112.667 51.5 -146s78.833 -50 133.5 -50c54 0 98 16.667 132 50s51 82 51 146v403h78v-398c0 -57.333 -11.167 -106.5 -33.5 -147.5s-53.333 -72.167 -93 -93.5
s-84.5 -32 -134.5 -32c-51.333 0 -96.833 10.667 -136.5 32zM197 833h295v-63h-295v63z" />
    <glyph glyph-name="umacron" unicode="&#x16b;" 
d="M178 14.5c-30.667 17 -54.832 40.998 -72.499 71.998s-26.5 66.833 -26.5 107.5v293h76v-298c0 -39.333 12 -70.666 36 -93.999s54 -35 90 -35c35.333 0 64.833 11.833 88.5 35.5s35.5 54.834 35.5 93.501v298h77v-293c0 -40.667 -8.83301 -76.5 -26.5 -107.5
s-41.834 -55 -72.501 -72s-64.667 -25.5 -102 -25.5c-38 0 -72.333 8.5 -103 25.5zM143.002 703.998h275v-62h-275v62z" />
    <glyph glyph-name="Ubreve" unicode="&#x16c;" horiz-adv-x="689" 
d="M208.5 21c-39.667 21.333 -70.667 52.5 -93 93.5s-33.5 90.167 -33.5 147.5v398h78v-403c0 -64 17.167 -112.667 51.5 -146s78.833 -50 133.5 -50c54 0 98 16.667 132 50s51 82 51 146v403h78v-398c0 -57.333 -11.167 -106.5 -33.5 -147.5s-53.333 -72.167 -93 -93.5
s-84.5 -32 -134.5 -32c-51.333 0 -96.833 10.667 -136.5 32zM233.5 769.5c-27.667 29 -41.5 67.498 -41.5 115.498v25h63v-24c0 -30 8 -54 24 -72s37.333 -27 64 -27c27.333 0 49 8.83301 65 26.5s24 41.834 24 72.501v24h63v-25c0 -47.333 -14.167 -85.666 -42.5 -114.999
s-64.833 -44 -109.5 -44c-45.333 0 -81.833 14.5 -109.5 43.5z" />
    <glyph glyph-name="ubreve" unicode="&#x16d;" 
d="M178 14.5c-30.667 17 -54.832 40.998 -72.499 71.998s-26.5 66.833 -26.5 107.5v293h76v-298c0 -39.333 12 -70.666 36 -93.999s54 -35 90 -35c35.333 0 64.833 11.833 88.5 35.5s35.5 54.834 35.5 93.501v298h77v-293c0 -40.667 -8.83301 -76.5 -26.5 -107.5
s-41.834 -55 -72.501 -72s-64.667 -25.5 -102 -25.5c-38 0 -72.333 8.5 -103 25.5zM170.002 616.998c-28 29.333 -42 67.333 -42 114v31h63v-29c0 -30.667 8 -54.834 24 -72.501s37.333 -26.5 64 -26.5c27.333 0 49 8.83301 65 26.5s24 41.834 24 72.501v29h63v-31
c0 -47.333 -14 -85.5 -42 -114.5s-64.667 -43.5 -110 -43.5c-44.667 0 -81 14.667 -109 44z" />
    <glyph glyph-name="Uring" unicode="&#x16e;" horiz-adv-x="689" 
d="M208.5 21c-39.667 21.333 -70.667 52.5 -93 93.5s-33.5 90.167 -33.5 147.5v398h78v-403c0 -64 17.167 -112.667 51.5 -146s78.833 -50 133.5 -50c54 0 98 16.667 132 50s51 82 51 146v403h78v-398c0 -57.333 -11.167 -106.5 -33.5 -147.5s-53.333 -72.167 -93 -93.5
s-84.5 -32 -134.5 -32c-51.333 0 -96.833 10.667 -136.5 32zM264.5 729.5c-21 21 -31.5 46.5 -31.5 76.5s10.5 55.5 31.5 76.5s47.167 31.5 78.5 31.5c32 0 58.5 -10.5 79.5 -31.5s31.5 -46.5 31.5 -76.5s-10.5 -55.5 -31.5 -76.5s-47.5 -31.5 -79.5 -31.5
c-31.333 0 -57.5 10.5 -78.5 31.5zM379.5 770.5c9.66699 9.66699 14.501 21.5 14.501 35.5c0 14.667 -4.83301 26.834 -14.5 36.501s-21.5 14.5 -35.5 14.5c-14.667 0 -26.834 -4.83301 -36.501 -14.5s-14.5 -21.834 -14.5 -36.501c0 -14 5 -25.833 15 -35.5
s22 -14.5 36 -14.5s25.833 4.83301 35.5 14.5z" />
    <glyph glyph-name="uring" unicode="&#x16f;" 
d="M178 14.5c-30.667 17 -54.832 40.998 -72.499 71.998s-26.5 66.833 -26.5 107.5v293h76v-298c0 -39.333 12 -70.666 36 -93.999s54 -35 90 -35c35.333 0 64.833 11.833 88.5 35.5s35.5 54.834 35.5 93.501v298h77v-293c0 -40.667 -8.83301 -76.5 -26.5 -107.5
s-41.834 -55 -72.501 -72s-64.667 -25.5 -102 -25.5c-38 0 -72.333 8.5 -103 25.5zM201.002 590.498c-21.333 21 -32 46.833 -32 77.5s10.5 56.334 31.5 77.001s47.167 31 78.5 31s57.666 -10.333 78.999 -31s32 -46.334 32 -77.001s-10.667 -56.5 -32 -77.5
s-47.666 -31.5 -78.999 -31.5c-30.667 0 -56.667 10.5 -78 31.5zM315.502 631.998c9.66699 9.33301 14.499 21.333 14.499 36s-5 27 -15 37s-21.667 15 -35 15c-14 0 -26 -5 -36 -15s-15 -22.333 -15 -37s4.83301 -26.667 14.5 -36s21.834 -14 36.501 -14
c14 0 25.833 4.66699 35.5 14z" />
    <glyph glyph-name="Uhungarumlaut" unicode="&#x170;" horiz-adv-x="689" 
d="M208.5 21c-39.667 21.333 -70.667 52.5 -93 93.5s-33.5 90.167 -33.5 147.5v398h78v-403c0 -64 17.167 -112.667 51.5 -146s78.833 -50 133.5 -50c54 0 98 16.667 132 50s51 82 51 146v403h78v-398c0 -57.333 -11.167 -106.5 -33.5 -147.5s-53.333 -72.167 -93 -93.5
s-84.5 -32 -134.5 -32c-51.333 0 -96.833 10.667 -136.5 32zM281 910h83v-14l-114 -172h-55zM500 910h83v-14l-114 -172h-55z" />
    <glyph glyph-name="uhungarumlaut" unicode="&#x171;" 
d="M178 14.5c-30.667 17 -54.832 40.998 -72.499 71.998s-26.5 66.833 -26.5 107.5v293h76v-298c0 -39.333 12 -70.666 36 -93.999s54 -35 90 -35c35.333 0 64.833 11.833 88.5 35.5s35.5 54.834 35.5 93.501v298h77v-293c0 -40.667 -8.83301 -76.5 -26.5 -107.5
s-41.834 -55 -72.501 -72s-64.667 -25.5 -102 -25.5c-38 0 -72.333 8.5 -103 25.5zM234.002 779.998h83v-14l-114 -200h-55zM433.002 779.998h83v-14l-114 -200h-55z" />
    <glyph glyph-name="Uogonek" unicode="&#x172;" horiz-adv-x="689" 
d="M208.5 21c-39.667 21.333 -70.667 52.5 -93 93.5s-33.5 90.167 -33.5 147.5v398h78v-403c0 -64 17.167 -112.667 51.5 -146s78.833 -50 133.5 -50c54 0 98 16.667 132 50s51 82 51 146v403h78v-398c0 -57.333 -11.167 -106.5 -33.5 -147.5s-53.333 -72.167 -93 -93.5
s-84.5 -32 -134.5 -32c-51.333 0 -96.833 10.667 -136.5 32zM365.5 -167.5c-19.667 15.667 -29.5 36.8359 -29.5 63.5029c0 17.333 3.33301 33.166 10 47.499s18.667 31.166 36 50.499s44.333 46 81 80h80l-92 -98c-14 -15.333 -23.667 -27.333 -29 -36
s-8 -19.334 -8 -32.001c0 -24.667 15.667 -37 47 -37c14 0 32 2.33301 54 7v-58c-23.333 -7.33301 -47.333 -11 -72 -11c-32 0 -57.833 7.83301 -77.5 23.5z" />
    <glyph glyph-name="uogonek" unicode="&#x173;" 
d="M482 487v-293c0 -33.333 -4.83301 -61.333 -14.5 -84s-21.5 -41.334 -35.5 -56.001s-39 -38 -75 -70c-18 -16.667 -30.667 -30 -38 -40s-11 -21.333 -11 -34c0 -14 4.66699 -24.5 14 -31.5s22 -10.5 38 -10.5c14.667 0 32.334 2.33301 53.001 7v-53
c-27.333 -8.66699 -52 -13 -74 -13c-31.333 0 -56.5 7.16699 -75.5 21.5s-28.5 35.166 -28.5 62.499c0 34.667 19 66.667 57 96h-11c-38 0 -72.333 8.5 -103 25.5s-54.834 41 -72.501 72s-26.5 66.833 -26.5 107.5v293h76v-298c0 -39.333 12 -70.666 36 -93.999
s54 -35 90 -35c35.333 0 64.833 11.833 88.5 35.5s35.5 54.834 35.5 93.501v298h77z" />
    <glyph glyph-name="Wcircumflex" unicode="&#x174;" horiz-adv-x="1066" 
d="M1020 660l-250 -671h-28l-209 524l-209 -524h-28l-251 671h86l182 -503l206 514h28l206 -513l182 502h85zM643 724l-110 108l-111 -108h-60l147 186h47l147 -186h-60z" />
    <glyph glyph-name="wcircumflex" unicode="&#x175;" horiz-adv-x="851" 
d="M824 487l-205 -498h-28l-166 368l-165 -368h-27l-207 498h82l141 -361l162 372h29l164 -369l138 358h82zM524 566l-100 128l-101 -128h-59l136 214h47l135 -214h-58z" />
    <glyph glyph-name="Ycircumflex" unicode="&#x176;" horiz-adv-x="616" 
d="M347 273v-273h-78v273l-229 387h88l180 -310l181 310h87zM415 724l-110 108l-111 -108h-60l147 186h47l147 -186h-60z" />
    <glyph glyph-name="ycircumflex" unicode="&#x177;" horiz-adv-x="539" 
d="M513 487l-240.001 -554.998c-18.667 -42.667 -41.5 -73.834 -68.5 -93.501s-59.167 -29.5 -96.5 -29.5c-24.667 0 -49.667 3.33301 -75 10v65c25.333 -3.33301 45 -5 59 -5c25.333 0 46.833 5.66699 64.5 17s32.834 31.666 45.501 60.999l26 58l-202 472h83l161 -388
l161 388h82zM367.999 566.002l-100 128l-101 -128h-59l136 214h47l135 -214h-58z" />
    <glyph glyph-name="Ydieresis" unicode="&#x178;" horiz-adv-x="616" 
d="M347 273v-273h-78v273l-229 387h88l180 -310l181 310h87zM149.5 772.5c-11 10.333 -16.5 22.833 -16.5 37.5s5.5 27.167 16.5 37.5s23.833 15.5 38.5 15.5c15.333 0 28.333 -5.16699 39 -15.5s16 -22.833 16 -37.5s-5.33301 -27.167 -16 -37.5s-23.667 -15.5 -39 -15.5
c-14.667 0 -27.5 5.16699 -38.5 15.5zM382.5 771.5c-11 10.333 -16.5 22.833 -16.5 37.5s5.5 27.334 16.5 38.001s23.833 16 38.5 16c15.333 0 28.333 -5.33301 39 -16s16 -23.334 16 -38.001s-5.33301 -27.167 -16 -37.5s-23.667 -15.5 -39 -15.5
c-14.667 0 -27.5 5.16699 -38.5 15.5z" />
    <glyph glyph-name="Zacute" unicode="&#x179;" horiz-adv-x="589" 
d="M555 70v-70h-523v23l398 567h-355v70h479v-23l-400 -567h401zM356 910h94v-14l-120 -172h-59z" />
    <glyph glyph-name="zacute" unicode="&#x17a;" horiz-adv-x="454" 
d="M427 68v-68h-400v23l278 395h-255v69h374v-23l-279 -396h282zM295 780h94v-14l-120 -200h-59z" />
    <glyph glyph-name="Zdotaccent" unicode="&#x17b;" horiz-adv-x="589" 
d="M555 70v-70h-523v23l398 567h-355v70h479v-23l-400 -567h401zM259 770c-11.333 10.667 -16.999 24 -16.999 40c0 15.333 5.66699 28.5 17 39.5s25 16.5 41 16.5c15.333 0 28.666 -5.5 39.999 -16.5s17 -24.167 17 -39.5c0 -16 -5.5 -29.333 -16.5 -40
s-24.5 -16 -40.5 -16s-29.667 5.33301 -41 16z" />
    <glyph glyph-name="zdotaccent" unicode="&#x17c;" horiz-adv-x="454" 
d="M427 68v-68h-400v23l278 395h-255v69h374v-23l-279 -396h282zM196 633c-11.333 10.667 -16.999 24 -16.999 40c0 15.333 5.66699 28.5 17 39.5s25 16.5 41 16.5c15.333 0 28.666 -5.5 39.999 -16.5s17 -24.167 17 -39.5c0 -16 -5.5 -29.333 -16.5 -40
s-24.5 -16 -40.5 -16s-29.667 5.33301 -41 16z" />
    <glyph glyph-name="Zcaron" unicode="&#x17d;" horiz-adv-x="589" 
d="M555 70v-70h-523v23l398 567h-355v70h479v-23l-400 -567h401zM470 910l-147 -186h-47l-147 186h60l111 -108l110 108h60z" />
    <glyph glyph-name="zcaron" unicode="&#x17e;" horiz-adv-x="454" 
d="M427 68v-68h-400v23l278 395h-255v69h374v-23l-279 -396h282zM396 780l-135 -214h-47l-136 214h59l101 -128l100 128h58z" />
    <glyph glyph-name="uni018F" unicode="&#x18f;" horiz-adv-x="731" 
d="M526.5 626c49 -30 87.335 -70.833 115.002 -122.5s41.5 -108.834 41.5 -171.501c0 -63.333 -14.167 -121.166 -42.5 -173.499s-67.333 -93.666 -117 -123.999s-105.167 -45.5 -166.5 -45.5c-56 0 -107.5 12.167 -154.5 36.5s-84.5 58.666 -112.5 102.999
s-42 95.5 -42 153.5c0 19.333 2 43 6 71h547c-2.66699 48 -14.5 90.5 -35.5 127.5s-49.333 66 -85 87s-75.834 31.5 -120.501 31.5c-46.667 0 -89.334 -9.66699 -128.001 -29s-71 -46.666 -97 -81.999l-54 45c31.333 43.333 71 77.166 119 101.499s101.667 36.5 161 36.5
c61.333 0 116.5 -15 165.5 -45zM519.502 122.5c43 41 69.5 94.499 79.5 160.499h-473c-1.33301 -45.333 8.5 -84.666 29.5 -117.999s49.667 -59 86 -77s75.833 -27 118.5 -27c63.333 0 116.5 20.5 159.5 61.5z" />
    <glyph glyph-name="florin" unicode="&#x192;" horiz-adv-x="443" 
d="M437 663l0.000976562 -64c-22.667 1.33301 -37.334 2 -44.001 2c-32 0 -56.167 -7 -72.5 -21s-26.833 -38 -31.5 -72l-13 -109h104v-69h-113l-37 -306c-12.667 -104.667 -68 -157 -166 -157c-19.333 0 -39 2.33301 -59 7v65c16.667 -2 31.334 -3 44.001 -3
c32 0 56.333 7.16699 73 21.5s27.334 38.5 32.001 72.5l37 300h-98v69h106l14 114c13.333 105.333 68.666 158 165.999 158c21.333 0 40.666 -2.66699 57.999 -8z" />
    <glyph glyph-name="uni01D4" unicode="&#x1d4;" 
d="M178 14.5c-30.667 17 -54.832 40.998 -72.499 71.998s-26.5 66.833 -26.5 107.5v293h76v-298c0 -39.333 12 -70.666 36 -93.999s54 -35 90 -35c35.333 0 64.833 11.833 88.5 35.5s35.5 54.834 35.5 93.501v298h77v-293c0 -40.667 -8.83301 -76.5 -26.5 -107.5
s-41.834 -55 -72.501 -72s-64.667 -25.5 -102 -25.5c-38 0 -72.333 8.5 -103 25.5zM439.002 779.998l-135 -214h-47l-136 214h59l101 -128l100 128h58z" />
    <glyph glyph-name="AEacute" unicode="&#x1fc;" horiz-adv-x="821" 
d="M781 70v-70h-314l-23 134h-276l-71 -134h-84l344 660h412v-70h-322l34 -202h208v-70h-196l42 -248h246zM205 204h227l-55 337zM473 910h94v-14l-120 -172h-59z" />
    <glyph glyph-name="aeacute" unicode="&#x1fd;" horiz-adv-x="895" 
d="M455 211c6.66699 -46 26.3301 -82.666 58.9971 -109.999s72 -41 118 -41c54.667 0 103.667 21.667 147 65l46 -51c-24.667 -27.333 -53.667 -48.333 -87 -63s-69 -22 -107 -22c-45.333 0 -86.666 10.667 -123.999 32s-67 50 -89 86c-17.333 -37.333 -44 -66.333 -80 -87
s-76.667 -31 -122 -31c-51.333 0 -92.833 12.833 -124.5 38.5s-47.5 59.834 -47.5 102.501c0 43.333 16 78.166 48 104.499s74.333 39.5 127 39.5h154v30c0 40 -10.667 70.5 -32 91.5s-49.666 31.5 -84.999 31.5c-28.667 0 -54.5 -6.66699 -77.5 -20
s-44.167 -32.666 -63.5 -57.999l-51 42c22 35.333 50.333 62 85 80s72 27 112 27c39.333 0 73.5 -8.66699 102.5 -26s50.5 -42.666 64.5 -75.999c22 32 50 57 84 75s71.333 27 112 27s77.834 -9.33301 111.501 -28s60.167 -44.834 79.5 -78.501s29 -71.834 29 -114.501
c0 -12.667 -0.666992 -25.334 -2 -38.001s-3 -22 -5 -28h-382zM763.996 274.001c2 31.333 -3.33398 58.668 -16.001 82.001s-30.167 41.166 -52.5 53.499s-47.5 18.5 -75.5 18.5c-43.333 0 -80.166 -14.167 -110.499 -42.5s-48.5 -65.5 -54.5 -111.5h309zM297.995 71.5029
c22.667 11.667 40.834 27.501 54.501 47.501s20.5 42.333 20.5 67v25h-145c-70 0 -105 -24.333 -105 -73c0 -26.667 9.66699 -47.334 29 -62.001s43.666 -22 72.999 -22c26 0 50.333 5.83301 73 17.5zM483.995 780.004h94v-14l-120 -200h-59z" />
    <glyph glyph-name="Oslashacute" unicode="&#x1fe;" horiz-adv-x="781" 
d="M656 548c24.667 -30 43.6689 -63.5 57.002 -100.5s20 -76.167 20 -117.5c0 -63.333 -15.333 -121 -46 -173s-72.334 -93 -125.001 -123s-110 -45 -172 -45c-40.667 0 -79.5 6.5 -116.5 19.5s-70.5 31.5 -100.5 55.5l-83 -83l-48 48l83 83
c-24.667 30 -43.667 63.5 -57 100.5s-20 76.167 -20 117.5c0 63.333 15.167 121 45.5 173s71.666 93 123.999 123s109.833 45 172.5 45c40.667 0 79.5 -6.66699 116.5 -20s70.5 -32 100.5 -56l84 84l48 -48zM255.502 566.5c-40.333 -23.667 -72.001 -56.168 -95.001 -97.501
s-34.5 -87.333 -34.5 -138c0 -63.333 17.333 -118.666 52 -165.999l379 379c-47.333 38.667 -102.666 58 -165.999 58c-50 0 -95.167 -11.833 -135.5 -35.5zM525.501 93.999c40.333 24 72.001 56.832 95.001 98.499s34.5 87.834 34.5 138.501
c0 62.667 -17.333 117.667 -52 165l-379 -381c47.333 -38 103 -57 167 -57c49.333 0 94.166 12 134.499 36zM447.002 909.998h94v-14l-120 -172h-59z" />
    <glyph glyph-name="oslashacute" unicode="&#x1ff;" horiz-adv-x="620" 
d="M513 398c34.667 -45.333 51.9971 -97 51.9971 -155c0 -46 -11.5 -88.5 -34.5 -127.5s-54.167 -69.833 -93.5 -92.5s-82 -34 -128 -34c-57.333 0 -108.666 17.333 -153.999 52l-58 -60l-48 48l59 59c-34.667 45.333 -52 97 -52 155c0 46.667 11.333 89.5 34 128.5
s53.334 69.833 92.001 92.5s81.334 34 128.001 34c58 0 109.667 -17.333 155 -52l59 58l48 -46zM216.997 405.5c-27.333 -16.333 -48.667 -38.668 -64 -67.001s-23 -60.166 -23 -95.499c0 -40 10 -75.667 30 -107l258 260c-32.667 22.667 -68.667 34 -108 34
c-34.667 0 -65.667 -8.16699 -93 -24.5zM401.496 79.998c27.667 16.667 49.5 39.332 65.5 67.999s24 60.334 24 95.001c0 40 -10 75.667 -30 107l-259 -259c30 -24 65.667 -36 107 -36c34 0 64.833 8.33301 92.5 25zM368.996 779.996h94v-14l-120 -200h-59z" />
    <glyph glyph-name="uni0218" unicode="&#x218;" horiz-adv-x="558" 
d="M143.5 27c-42.333 25.333 -76.5 60.0029 -102.5 104.003l58 43c49.333 -75.333 110.666 -113 183.999 -113c39.333 0 71.333 10 96 30s37 46.667 37 80c0 19.333 -4.33301 35.666 -13 48.999s-20.5 24.666 -35.5 33.999s-35.5 20.333 -61.5 33l-74 35
c-45.333 21.333 -81.5 45.166 -108.5 71.499s-40.5 61.5 -40.5 105.5c0 34 9 64 27 90s42.167 46.167 72.5 60.5s63.5 21.5 99.5 21.5c44 0 84.167 -10.333 120.5 -31s65.166 -47.667 86.499 -81l-57 -43c-18 26.667 -40.167 47.167 -66.5 61.5s-54.5 21.5 -84.5 21.5
c-32.667 0 -60.334 -8.33301 -83.001 -25s-34 -40.334 -34 -71.001c0 -18.667 4.33301 -34.5 13 -47.5s19.834 -23.667 33.501 -32s33.5 -18.833 59.5 -31.5l73 -35c52 -25.333 90.667 -51.666 116 -78.999s38 -62.333 38 -105c0 -36 -9.16699 -68 -27.5 -96
s-43.666 -49.667 -75.999 -65s-68.833 -23 -109.5 -23c-51.333 0 -98.166 12.667 -140.499 38zM253 -48.9971h76l-25 -171h-60z" />
    <glyph glyph-name="uni0219" unicode="&#x219;" horiz-adv-x="454" 
d="M119.5 15.5c-32.333 17.667 -59.165 40.502 -80.498 68.502l49 51c23.333 -24 45.666 -42.5 66.999 -55.5s45.666 -19.5 72.999 -19.5c26.667 0 48.834 6.16699 66.501 18.5s26.5 29.166 26.5 50.499c0 19.333 -6.66699 34.166 -20 44.499s-35 21.5 -65 33.5l-47 20
c-40.667 16.667 -71 35.167 -91 55.5s-30 46.833 -30 79.5c0 42.667 15.667 76 47 100s70.333 36 117 36c34 0 64.667 -6.83301 92 -20.5s51 -32.5 71 -56.5l-47 -48c-16.667 16.667 -35.167 29.834 -55.5 39.501s-41.833 14.5 -64.5 14.5c-24 0 -43.5 -5.33301 -58.5 -16
s-22.5 -25.667 -22.5 -45c0 -15.333 5.83301 -27.833 17.5 -37.5s32.167 -20.834 61.5 -33.501l45 -19c45.333 -19.333 78.166 -39.833 98.499 -61.5s30.5 -49.167 30.5 -82.5c0 -45.333 -16.5 -80.5 -49.5 -105.5s-73.5 -37.5 -121.5 -37.5
c-40.667 0 -77.167 8.83301 -109.5 26.5zM203.001 -48.998h76l-25 -171h-60z" />
    <glyph glyph-name="uni021A" unicode="&#x21a;" horiz-adv-x="581" 
d="M251 590h-232v70h543v-70h-233v-590h-78v590zM252 -49h76l-25 -171h-60z" />
    <glyph glyph-name="uni021B" unicode="&#x21b;" horiz-adv-x="381" 
d="M351 65l-0.000976562 -64.999c-30.667 -7.33301 -57.667 -11 -81 -11c-50.667 0 -90.667 13 -120 39s-44 65.667 -44 119v271h-82v69h82v133h77v-133h152v-69h-152v-266c0 -34.667 8.83301 -58.834 26.5 -72.501s43.167 -20.5 76.5 -20.5c18.667 0 40.334 2 65.001 6z
M182.999 -48.999h76l-25 -171h-60z" />
    <glyph glyph-name="uni0237" unicode="&#x237;" horiz-adv-x="246" 
d="M-60 -183v65c16.667 -2 31.667 -3 45 -3c32 0 56.667 7 74 21s26 38 26 72v515h77v-520c0 -53.333 -14.5 -93 -43.5 -119s-67.833 -39 -116.5 -39c-22 0 -42.667 2.66699 -62 8z" />
    <glyph glyph-name="uni0259" unicode="&#x259;" horiz-adv-x="571" 
d="M399.5 464.5c38.333 -22.333 68.1709 -52.832 89.5039 -91.499s32 -81.667 32 -129s-10.333 -90.333 -31 -129s-49.334 -69.334 -86.001 -92.001s-78.334 -34 -125.001 -34c-42.667 0 -81.334 9.33301 -116.001 28s-62.167 44.667 -82.5 78s-30.5 71.333 -30.5 114
c0 18.667 2 38 6 58h385c-4.66699 48.667 -22.5 87.5 -53.5 116.5s-70.5 43.5 -118.5 43.5c-60 0 -112 -22 -156 -66l-45 52c25.333 27.333 55.166 48.333 89.499 63s71.833 22 112.5 22c48 0 91.167 -11.167 129.5 -33.5zM385.005 96.501
c28 25.667 45.667 59.832 53 102.499h-308c1.33301 -43.333 16.333 -77.666 45 -102.999s64 -38 106 -38c41.333 0 76 12.833 104 38.5z" />
    <glyph glyph-name="circumflex" unicode="&#x2c6;" horiz-adv-x="600" 
d="M401 566l-100 128l-101 -128h-59l136 214h47l135 -214h-58z" />
    <glyph glyph-name="caron" unicode="&#x2c7;" horiz-adv-x="600" 
d="M459 780l-135 -214h-47l-136 214h59l101 -128l100 128h58z" />
    <glyph glyph-name="breve" unicode="&#x2d8;" horiz-adv-x="600" 
d="M190 617c-28 29.333 -42 67.333 -42 114v31h63v-29c0 -30.667 8 -54.834 24 -72.501s37.333 -26.5 64 -26.5c27.333 0 49 8.83301 65 26.5s24 41.834 24 72.501v29h63v-31c0 -47.333 -14 -85.5 -42 -114.5s-64.667 -43.5 -110 -43.5c-44.667 0 -81 14.667 -109 44z" />
    <glyph glyph-name="dotaccent" unicode="&#x2d9;" horiz-adv-x="600" 
d="M259 633c-11.333 10.667 -16.999 24 -16.999 40c0 15.333 5.66699 28.5 17 39.5s25 16.5 41 16.5c15.333 0 28.666 -5.5 39.999 -16.5s17 -24.167 17 -39.5c0 -16 -5.5 -29.333 -16.5 -40s-24.5 -16 -40.5 -16s-29.667 5.33301 -41 16z" />
    <glyph glyph-name="ring" unicode="&#x2da;" horiz-adv-x="600" 
d="M221 590.5c-21.333 21 -32 46.833 -32 77.5s10.5 56.334 31.5 77.001s47.167 31 78.5 31s57.666 -10.333 78.999 -31s32 -46.334 32 -77.001s-10.667 -56.5 -32 -77.5s-47.666 -31.5 -78.999 -31.5c-30.667 0 -56.667 10.5 -78 31.5zM335.5 632
c9.66699 9.33301 14.499 21.333 14.499 36s-5 27 -15 37s-21.667 15 -35 15c-14 0 -26 -5 -36 -15s-15 -22.333 -15 -37s4.83301 -26.667 14.5 -36s21.834 -14 36.501 -14c14 0 25.833 4.66699 35.5 14z" />
    <glyph glyph-name="ogonek" unicode="&#x2db;" horiz-adv-x="600" 
d="M240.5 -167c-19.667 16 -29.499 36.998 -29.499 62.998c0 24.667 10.833 47 32.5 67s60.167 44 115.5 72l31 -35l-50 -33c-19.333 -13.333 -32.833 -23.666 -40.5 -30.999s-11.5 -16.666 -11.5 -27.999c0 -12 4.16699 -21.167 12.5 -27.5s20.166 -9.5 35.499 -9.5
c14 0 32 2.33301 54 7v-58c-23.333 -7.33301 -47.333 -11 -72 -11c-32 0 -57.833 8 -77.5 24z" />
    <glyph glyph-name="tilde" unicode="&#x2dc;" horiz-adv-x="600" 
d="M337 603c-12 4.66699 -23.001 11 -33.001 19l-26 22c-2.66699 2 -6.66699 5.33301 -12 10s-10.333 8 -15 10s-9.66699 3 -15 3c-18.667 0 -28 -13.667 -28 -41v-17h-64c-0.666992 6 -1 14.333 -1 25c0 30 7.66699 54.833 23 74.5s36 29.5 62 29.5
c24.667 0 47.334 -8.66699 68.001 -26l26 -22c17.333 -15.333 31.333 -23 42 -23c18.667 0 28 13.667 28 41v17h64c0.666992 -6 1 -14.333 1 -25c0 -30 -7.66699 -54.833 -23 -74.5s-36 -29.5 -62 -29.5c-11.333 0 -23 2.33301 -35 7z" />
    <glyph glyph-name="hungarumlaut" unicode="&#x2dd;" horiz-adv-x="600" 
d="M202 780h83v-14l-114 -200h-55zM401 780h83v-14l-114 -200h-55z" />
    <glyph glyph-name="gravecomb" unicode="&#x300;" horiz-adv-x="0" 
d="M-340 766v14h94l85 -214h-59z" />
    <glyph glyph-name="acutecomb" unicode="&#x301;" horiz-adv-x="0" 
d="M-255 780h94v-14l-120 -200h-59z" />
    <glyph glyph-name="uni0302" unicode="&#x302;" horiz-adv-x="0" 
d="M-149 566l-100 128l-101 -128h-59l136 214h47l135 -214h-58z" />
    <glyph glyph-name="tildecomb" unicode="&#x303;" horiz-adv-x="0" 
d="M-213 603c-12 4.66699 -23.001 11 -33.001 19l-26 22c-2.66699 2 -6.66699 5.33301 -12 10s-10.333 8 -15 10s-9.66699 3 -15 3c-18.667 0 -28 -13.667 -28 -41v-17h-64c-0.666992 6 -1 14.333 -1 25c0 30 7.66699 54.833 23 74.5s36 29.5 62 29.5
c24.667 0 47.334 -8.66699 68.001 -26l26 -22c17.333 -15.333 31.333 -23 42 -23c18.667 0 28 13.667 28 41v17h64c0.666992 -6 1 -14.333 1 -25c0 -30 -7.66699 -54.833 -23 -74.5s-36 -29.5 -62 -29.5c-11.333 0 -23 2.33301 -35 7z" />
    <glyph glyph-name="uni0304" unicode="&#x304;" horiz-adv-x="0" 
d="M-387 704h275v-62h-275v62z" />
    <glyph glyph-name="uni0306" unicode="&#x306;" horiz-adv-x="0" 
d="M-360 617c-28 29.333 -42 67.333 -42 114v31h63v-29c0 -30.667 8 -54.834 24 -72.501s37.333 -26.5 64 -26.5c27.333 0 49 8.83301 65 26.5s24 41.834 24 72.501v29h63v-31c0 -47.333 -14 -85.5 -42 -114.5s-64.667 -43.5 -110 -43.5c-44.667 0 -81 14.667 -109 44z" />
    <glyph glyph-name="uni0307" unicode="&#x307;" horiz-adv-x="0" 
d="M-291 633c-11.333 10.667 -16.999 24 -16.999 40c0 15.333 5.66699 28.5 17 39.5s25 16.5 41 16.5c15.333 0 28.666 -5.5 39.999 -16.5s17 -24.167 17 -39.5c0 -16 -5.5 -29.333 -16.5 -40s-24.5 -16 -40.5 -16s-29.667 5.33301 -41 16z" />
    <glyph glyph-name="uni0308" unicode="&#x308;" horiz-adv-x="0" 
d="M-395 636c-11.333 10.667 -17 23 -17 37c0 14.667 5.66699 27.334 17 38.001s24 16 38 16c15.333 0 28.5 -5.33301 39.5 -16s16.5 -23.334 16.5 -38.001s-5.5 -27.167 -16.5 -37.5s-24.167 -15.5 -39.5 -15.5c-14 0 -26.667 5.33301 -38 16zM-183 636
c-11.333 10.667 -17 23 -17 37c0 14.667 5.66699 27.334 17 38.001s24.333 16 39 16c15.333 0 28.333 -5.33301 39 -16s16 -23.334 16 -38.001s-5.33301 -27.167 -16 -37.5s-23.667 -15.5 -39 -15.5c-14.667 0 -27.667 5.33301 -39 16z" />
    <glyph glyph-name="uni030A" unicode="&#x30a;" horiz-adv-x="0" 
d="M-329 590.5c-21.333 21 -32 46.833 -32 77.5s10.5 56.334 31.5 77.001s47.167 31 78.5 31s57.666 -10.333 78.999 -31s32 -46.334 32 -77.001s-10.667 -56.5 -32 -77.5s-47.666 -31.5 -78.999 -31.5c-30.667 0 -56.667 10.5 -78 31.5zM-214.5 632
c9.66699 9.33301 14.499 21.333 14.499 36s-5 27 -15 37s-21.667 15 -35 15c-14 0 -26 -5 -36 -15s-15 -22.333 -15 -37s4.83301 -26.667 14.5 -36s21.834 -14 36.501 -14c14 0 25.833 4.66699 35.5 14z" />
    <glyph glyph-name="uni030B" unicode="&#x30b;" horiz-adv-x="0" 
d="M-348 780h83v-14l-114 -200h-55zM-149 780h83v-14l-114 -200h-55z" />
    <glyph glyph-name="uni030C" unicode="&#x30c;" horiz-adv-x="0" 
d="M-91 780l-135 -214h-47l-136 214h59l101 -128l100 128h58z" />
    <glyph glyph-name="uni0326" unicode="&#x326;" horiz-adv-x="0" 
d="M-284 -49h76l-25 -171h-60z" />
    <glyph glyph-name="uni0327" unicode="&#x327;" horiz-adv-x="0" 
d="M-350 -181l0.000976562 55c20.667 -2.66699 39.334 -4 56.001 -4c23.333 0 42.166 5.33301 56.499 16s21.5 27 21.5 49c0 26.667 -11.333 51.334 -34 74.001l33 17c20 -10 36.167 -23.833 48.5 -41.5s18.5 -37.834 18.5 -60.501c0 -32.667 -11.833 -60 -35.5 -82
s-55.834 -33 -96.501 -33c-22 0 -44.667 3.33301 -68 10z" />
    <glyph glyph-name="uni0328" unicode="&#x328;" horiz-adv-x="0" 
d="M-309.5 -167c-19.667 16 -29.499 36.998 -29.499 62.998c0 24.667 10.833 47 32.5 67s60.167 44 115.5 72l31 -35l-50 -33c-19.333 -13.333 -32.833 -23.666 -40.5 -30.999s-11.5 -16.666 -11.5 -27.999c0 -12 4.16699 -21.167 12.5 -27.5s20.166 -9.5 35.499 -9.5
c14 0 32 2.33301 54 7v-58c-23.333 -7.33301 -47.333 -11 -72 -11c-32 0 -57.833 8 -77.5 24z" />
    <glyph glyph-name="tonos" unicode="&#x384;" horiz-adv-x="500" 
d="M218 780h93v-14l-63 -200h-60z" />
    <glyph glyph-name="dieresistonos" unicode="&#x385;" horiz-adv-x="500" 
d="M229 780h93v-14l-74 -200h-58zM60 636c-11.333 10.667 -17 22.998 -17 36.998c0 14.667 5.66699 27.334 17 38.001s24 16 38 16c15.333 0 28.333 -5.16699 39 -15.5s16 -23.166 16 -38.499c0 -14.667 -5.33301 -27.167 -16 -37.5s-23.667 -15.5 -39 -15.5
c-14 0 -26.667 5.33301 -38 16zM362 635.498c-10.667 10.333 -16 22.833 -16 37.5s5.33301 27.334 16 38.001s23.667 16 39 16s28.333 -5.33301 39 -16s16 -23.334 16 -38.001s-5.33301 -27.167 -16 -37.5s-23.667 -15.5 -39 -15.5s-28.333 5.16699 -39 15.5z" />
    <glyph glyph-name="Alphatonos" unicode="&#x386;" horiz-adv-x="663" 
d="M493 134h-324l-56 -134h-82l286 671h29l286 -671h-83zM331 529l-132 -325h264zM49 660h83l-39 -211h-57z" />
    <glyph glyph-name="anoteleia" unicode="&#x387;" horiz-adv-x="280" 
d="M95.5 269c-12.333 12 -18.5 27 -18.5 45s6.16699 33 18.5 45s27.166 18 44.499 18s32.166 -6 44.499 -18s18.5 -27 18.5 -45s-6.16699 -33 -18.5 -45s-27.166 -18 -44.499 -18s-32.166 6 -44.499 18z" />
    <glyph glyph-name="Epsilontonos" unicode="&#x388;" horiz-adv-x="566" 
d="M91 660h423v-70h-345v-202h264v-70h-264v-248h357v-70h-435v660zM-83 660h83l-39 -211h-57z" />
    <glyph glyph-name="Etatonos" unicode="&#x389;" horiz-adv-x="708" 
d="M91 660h78v-272h370v272h78v-660h-78v318h-370v-318h-78v660zM-83 660h83l-39 -211h-57z" />
    <glyph glyph-name="Iotatonos" unicode="&#x38a;" horiz-adv-x="259" 
d="M91 660h78v-660h-78v660zM-83 660h83l-39 -211h-57z" />
    <glyph glyph-name="Omicrontonos" unicode="&#x38c;" horiz-adv-x="781" 
d="M217.5 34c-52.333 30 -93.666 71.167 -123.999 123.5s-45.5 109.833 -45.5 172.5c0 63.333 15.167 121 45.5 173s71.666 93 123.999 123s109.833 45 172.5 45c62 0 119.333 -15 172 -45s94.334 -71 125.001 -123s46 -109.667 46 -173s-15.333 -121 -46 -173
s-72.334 -93 -125.001 -123s-110 -45 -172 -45c-62.667 0 -120.167 15 -172.5 45zM524 96.5c40 23.667 71.333 56.001 94 97.001s34 86.833 34 137.5c0 50 -11.333 95.5 -34 136.5s-54 73.167 -94 96.5s-84.333 35 -133 35c-49.333 0 -94 -11.667 -134 -35
s-71.333 -55.333 -94 -96s-34 -86.334 -34 -137.001s11.333 -96.5 34 -137.5s54 -73.333 94 -97s84.667 -35.5 134 -35.5c48.667 0 93 11.833 133 35.5zM-35 660.001h83l-39 -211h-57z" />
    <glyph glyph-name="Upsilontonos" unicode="&#x38e;" horiz-adv-x="616" 
d="M347 273v-273h-78v273l-229 387h88l180 -310l181 310h87zM-104 660h83l-39 -211h-57z" />
    <glyph glyph-name="Omegatonos" unicode="&#x38f;" horiz-adv-x="791" 
d="M698 193.5c-26.667 -44.333 -67.3281 -85.501 -121.995 -123.501h152v-70h-269v70c65.333 30.667 114.666 68.667 147.999 114s50 97.333 50 156c0 49.333 -11.333 93.666 -34 132.999s-53.834 70.166 -93.501 92.499s-84.5 33.5 -134.5 33.5s-94.833 -11 -134.5 -33
s-70.667 -52.667 -93 -92s-33.5 -83.666 -33.5 -132.999c0 -58.667 16.667 -110.667 50 -156s82.666 -83.666 147.999 -114.999v-70h-269v70h150c-106.667 71.333 -160 162.333 -160 273c0 61.333 15 117 45 167s71 89.333 123 118s110 43 174 43
c63.333 0 121.166 -14.5 173.499 -43.5s93.666 -68.5 123.999 -118.5s45.5 -105.333 45.5 -166c0 -55.333 -13.333 -105.166 -40 -149.499zM-34.9941 659.999h83l-39 -211h-57z" />
    <glyph glyph-name="iotadieresistonos" unicode="&#x390;" horiz-adv-x="311" 
d="M118 28c-24 26 -36.001 64.334 -36.001 115.001v344h77v-335c0 -32.667 6.5 -56.334 19.5 -71.001s33.833 -22 62.5 -22c18.667 0 40.334 2 65.001 6v-65c-30.667 -7.33301 -57.667 -11 -81 -11c-47.333 0 -83 13 -107 39zM106.999 780.001h93v-14l-74 -200h-58z
M-62.001 636.001c-11.333 10.667 -17 22.998 -17 36.998c0 14.667 5.66699 27.334 17 38.001s24 16 38 16c15.333 0 28.333 -5.16699 39 -15.5s16 -23.166 16 -38.499c0 -14.667 -5.33301 -27.167 -16 -37.5s-23.667 -15.5 -39 -15.5c-14 0 -26.667 5.33301 -38 16z
M239.999 635.499c-10.667 10.333 -16 22.833 -16 37.5s5.33301 27.334 16 38.001s23.667 16 39 16s28.333 -5.33301 39 -16s16 -23.334 16 -38.001s-5.33301 -27.167 -16 -37.5s-23.667 -15.5 -39 -15.5s-28.333 5.16699 -39 15.5z" />
    <glyph glyph-name="Alpha" unicode="&#x391;" horiz-adv-x="663" 
d="M493 134h-324l-56 -134h-82l286 671h29l286 -671h-83zM331 529l-132 -325h264z" />
    <glyph glyph-name="Beta" unicode="&#x392;" horiz-adv-x="616" 
d="M538 299.5c22.667 -30.333 34.001 -66.832 34.001 -109.499c0 -36.667 -8.33301 -69.334 -25 -98.001s-40.834 -51.167 -72.501 -67.5s-68.834 -24.5 -111.501 -24.5h-272v660h227c57.333 0 103 -15.667 137 -47s51 -71.333 51 -120c0 -27.333 -5.5 -52 -16.5 -74
s-26.5 -40.667 -46.5 -56c40.667 -12 72.334 -33.167 95.001 -63.5zM169.001 590.001v-204.999h141c37.333 0 66 9.33301 86 28s30 43.667 30 75s-9.83301 56.166 -29.5 74.499s-48.5 27.5 -86.5 27.5h-141zM456.001 103.502c24 22.333 36 51.833 36 88.5
s-12 66.167 -36 88.5s-57.667 33.5 -101 33.5h-186v-244h186c43.333 0 77 11.167 101 33.5z" />
    <glyph glyph-name="Gamma" unicode="&#x393;" horiz-adv-x="506" 
d="M91 660h391v-70h-313v-590h-78v660z" />
    <glyph glyph-name="uni0394" unicode="&#x394;" horiz-adv-x="663" 
d="M623 23v-23h-583v23l277 648h29zM331 517l-188 -447h377z" />
    <glyph glyph-name="Epsilon" unicode="&#x395;" horiz-adv-x="566" 
d="M91 660h423v-70h-345v-202h264v-70h-264v-248h357v-70h-435v660z" />
    <glyph glyph-name="Zeta" unicode="&#x396;" horiz-adv-x="589" 
d="M555 70v-70h-523v23l398 567h-355v70h479v-23l-400 -567h401z" />
    <glyph glyph-name="Eta" unicode="&#x397;" horiz-adv-x="708" 
d="M91 660h78v-272h370v272h78v-660h-78v318h-370v-318h-78v660z" />
    <glyph glyph-name="Theta" unicode="&#x398;" horiz-adv-x="781" 
d="M217.5 34c-52.333 30 -93.666 71.167 -123.999 123.5s-45.5 109.833 -45.5 172.5c0 63.333 15.167 121 45.5 173s71.666 93 123.999 123s109.833 45 172.5 45c62 0 119.333 -15 172 -45s94.334 -71 125.001 -123s46 -109.667 46 -173s-15.333 -121 -46 -173
s-72.334 -93 -125.001 -123s-110 -45 -172 -45c-62.667 0 -120.167 15 -172.5 45zM526 93.5c40.667 23.667 72.5 56.3281 95.5 97.9951s34.5 87.834 34.5 138.501s-11.5 96.834 -34.5 138.501s-54.833 74.334 -95.5 98.001s-86 35.5 -136 35.5s-95 -11.833 -135 -35.5
s-71.5 -56.167 -94.5 -97.5s-34.5 -87.666 -34.5 -138.999s11.5 -97.666 34.5 -138.999s54.5 -73.833 94.5 -97.5s85 -35.5 135 -35.5s95.333 11.833 136 35.5zM232 362.994h317v-70h-317v70z" />
    <glyph glyph-name="Iota" unicode="&#x399;" horiz-adv-x="259" 
d="M91 660h78v-660h-78v660z" />
    <glyph glyph-name="Kappa" unicode="&#x39a;" horiz-adv-x="633" 
d="M91 660h78v-660h-78v660zM602 0h-99l-325 354l297 306h100l-295 -306z" />
    <glyph glyph-name="Lambda" unicode="&#x39b;" horiz-adv-x="663" 
d="M549 0l-218 518l-218 -518h-82l286 671h29l286 -671h-83z" />
    <glyph glyph-name="Mu" unicode="&#x39c;" horiz-adv-x="789" 
d="M698 671v-671h-78v473l-211 -286h-28l-212 288v-475h-78v671h28l275 -381l277 381h27z" />
    <glyph glyph-name="Nu" unicode="&#x39d;" horiz-adv-x="708" 
d="M617 660v-671h-28l-420 506v-495h-78v671h28l420 -507v496h78z" />
    <glyph glyph-name="Xi" unicode="&#x39e;" horiz-adv-x="615" 
d="M40 660h535v-70h-535v70zM108 368h401v-70h-401v70zM40 70h535v-70h-535v70z" />
    <glyph glyph-name="Omicron" unicode="&#x39f;" horiz-adv-x="781" 
d="M217.5 34c-52.333 30 -93.666 71.167 -123.999 123.5s-45.5 109.833 -45.5 172.5c0 63.333 15.167 121 45.5 173s71.666 93 123.999 123s109.833 45 172.5 45c62 0 119.333 -15 172 -45s94.334 -71 125.001 -123s46 -109.667 46 -173s-15.333 -121 -46 -173
s-72.334 -93 -125.001 -123s-110 -45 -172 -45c-62.667 0 -120.167 15 -172.5 45zM524 96.5c40 23.667 71.333 56.001 94 97.001s34 86.833 34 137.5c0 50 -11.333 95.5 -34 136.5s-54 73.167 -94 96.5s-84.333 35 -133 35c-49.333 0 -94 -11.667 -134 -35
s-71.333 -55.333 -94 -96s-34 -86.334 -34 -137.001s11.333 -96.5 34 -137.5s54 -73.333 94 -97s84.667 -35.5 134 -35.5c48.667 0 93 11.833 133 35.5z" />
    <glyph glyph-name="Pi" unicode="&#x3a0;" horiz-adv-x="682" 
d="M91 660h500v-660h-78v590h-344v-590h-78v660z" />
    <glyph glyph-name="Rho" unicode="&#x3a1;" horiz-adv-x="573" 
d="M91 660l232 -0.00195312c42.667 0 79.834 -8.16699 111.501 -24.5s56.167 -39 73.5 -68s26 -61.833 26 -98.5c0 -37.333 -8.66699 -70.666 -26 -99.999s-41.833 -52.166 -73.5 -68.499s-68.834 -24.5 -111.501 -24.5h-154v-276h-78v660zM321 345.998
c42 0 74.5 11.167 97.5 33.5s34.5 51.833 34.5 88.5c0 36 -11.5 65.333 -34.5 88s-55.5 34 -97.5 34h-152v-244h152z" />
    <glyph glyph-name="Sigma" unicode="&#x3a3;" horiz-adv-x="574" 
d="M534 70v-70h-469v23l236 315l-236 299v23h457v-70h-333l192 -243v-16l-195 -261h348z" />
    <glyph glyph-name="Tau" unicode="&#x3a4;" horiz-adv-x="581" 
d="M251 590h-232v70h543v-70h-233v-590h-78v590z" />
    <glyph glyph-name="Upsilon" unicode="&#x3a5;" horiz-adv-x="616" 
d="M347 273v-273h-78v273l-229 387h88l180 -310l181 310h87z" />
    <glyph glyph-name="Phi" unicode="&#x3a6;" horiz-adv-x="799" 
d="M710.5 171c-27 -47.333 -64.335 -84.5 -112.002 -111.5s-101.167 -40.5 -160.5 -40.5v-61h-78v61c-59.333 0 -112.666 13.5 -159.999 40.5s-84.5 64.167 -111.5 111.5s-40.5 100.666 -40.5 159.999c0 58.667 13.333 111.5 40 158.5s63.834 84 111.501 111
s101.167 40.5 160.5 40.5v60h78v-60c60 0 113.667 -13.5 161 -40.5s84.5 -64 111.5 -111s40.5 -99.833 40.5 -158.5c0 -59.333 -13.5 -112.666 -40.5 -159.999zM158.498 204.5c19.667 -36.333 47 -64.667 82 -85s74.833 -30.5 119.5 -30.5v481
c-44.667 0 -84.5 -10.333 -119.5 -31s-62.333 -49.167 -82 -85.5s-29.5 -77.833 -29.5 -124.5s9.83301 -88.167 29.5 -124.5zM557.498 119.999c35 20.667 62.5 49.167 82.5 85.5s30 77.5 30 123.5c0 46.667 -10 88.167 -30 124.5s-47.5 64.833 -82.5 85.5
s-74.833 31 -119.5 31v-481c44.667 0 84.5 10.333 119.5 31z" />
    <glyph glyph-name="Chi" unicode="&#x3a7;" horiz-adv-x="599" 
d="M478 0l-178 271l-179 -271h-91l227 338l-211 322h90l164 -257l163 257h90l-208 -323l224 -337h-91z" />
    <glyph glyph-name="Psi" unicode="&#x3a8;" horiz-adv-x="760" 
d="M341 152c-86.667 10.667 -154.5 42 -203.5 94s-73.5 122.333 -73.5 211v203h78v-207c0 -65.333 18.167 -118.666 54.5 -159.999s84.5 -64 144.5 -68v435h78v-435c60 4 108.167 26.667 144.5 68s54.5 94.666 54.5 159.999v207h78v-203c0 -88.667 -24.5 -159 -73.5 -211
s-116.833 -83.333 -203.5 -94v-152h-78v152z" />
    <glyph glyph-name="uni03A9" unicode="&#x3a9;" horiz-adv-x="791" 
d="M698 193.5c-26.667 -44.333 -67.3281 -85.501 -121.995 -123.501h152v-70h-269v70c65.333 30.667 114.666 68.667 147.999 114s50 97.333 50 156c0 49.333 -11.333 93.666 -34 132.999s-53.834 70.166 -93.501 92.499s-84.5 33.5 -134.5 33.5s-94.833 -11 -134.5 -33
s-70.667 -52.667 -93 -92s-33.5 -83.666 -33.5 -132.999c0 -58.667 16.667 -110.667 50 -156s82.666 -83.666 147.999 -114.999v-70h-269v70h150c-106.667 71.333 -160 162.333 -160 273c0 61.333 15 117 45 167s71 89.333 123 118s110 43 174 43
c63.333 0 121.166 -14.5 173.499 -43.5s93.666 -68.5 123.999 -118.5s45.5 -105.333 45.5 -166c0 -55.333 -13.333 -105.166 -40 -149.499z" />
    <glyph glyph-name="Iotadieresis" unicode="&#x3aa;" horiz-adv-x="259" 
d="M91 660h78v-660h-78v660zM-24.5 772.5c-11 10.333 -16.5 22.833 -16.5 37.5s5.5 27.167 16.5 37.5s23.833 15.5 38.5 15.5c15.333 0 28.333 -5.16699 39 -15.5s16 -22.833 16 -37.5s-5.33301 -27.167 -16 -37.5s-23.667 -15.5 -39 -15.5
c-14.667 0 -27.5 5.16699 -38.5 15.5zM208.5 771.5c-11 10.333 -16.5 22.833 -16.5 37.5s5.5 27.334 16.5 38.001s23.833 16 38.5 16c15.333 0 28.333 -5.33301 39 -16s16 -23.334 16 -38.001s-5.33301 -27.167 -16 -37.5s-23.667 -15.5 -39 -15.5
c-14.667 0 -27.5 5.16699 -38.5 15.5z" />
    <glyph glyph-name="Upsilondieresis" unicode="&#x3ab;" horiz-adv-x="616" 
d="M347 273v-273h-78v273l-229 387h88l180 -310l181 310h87zM152.5 772.5c-11 10.333 -16.5 22.833 -16.5 37.5s5.5 27.167 16.5 37.5s23.833 15.5 38.5 15.5c15.333 0 28.333 -5.16699 39 -15.5s16 -22.833 16 -37.5s-5.33301 -27.167 -16 -37.5s-23.667 -15.5 -39 -15.5
c-14.667 0 -27.5 5.16699 -38.5 15.5zM385.5 771.5c-11 10.333 -16.5 22.833 -16.5 37.5s5.5 27.334 16.5 38.001s23.833 16 38.5 16c15.333 0 28.333 -5.33301 39 -16s16 -23.334 16 -38.001s-5.33301 -27.167 -16 -37.5s-23.667 -15.5 -39 -15.5
c-14.667 0 -27.5 5.16699 -38.5 15.5z" />
    <glyph glyph-name="alphatonos" unicode="&#x3ac;" horiz-adv-x="644" 
d="M623 65l-0.00195312 -65c-20 -4.66699 -37.667 -7 -53 -7c-56.667 0 -90.667 28.333 -102 85c-18.667 -28 -44 -49.833 -76 -65.5s-67 -23.5 -105 -23.5c-44.667 0 -85.167 11.167 -121.5 33.5s-64.666 53 -84.999 92s-30.5 82.167 -30.5 129.5s10.167 90.333 30.5 129
s48.5 69.167 84.5 91.5s76.667 33.5 122 33.5c38.667 0 74.5 -8.5 107.5 -25.5s58.833 -40.167 77.5 -69.5c0.666992 14 2.33398 42 5.00098 84h73c-6.66699 -100.667 -10 -178 -10 -232v-122c0 -47.333 17.667 -71 53 -71c6 0 16 1 30 3zM378.998 80.5
c25.333 13.667 45.833 34.334 61.5 62.001s23.5 61.167 23.5 100.5s-7.66699 72.833 -23 100.5s-35.666 48.5 -60.999 62.5s-53 21 -83 21c-32 0 -60.833 -8 -86.5 -24s-45.667 -37.833 -60 -65.5s-21.5 -58.834 -21.5 -93.501s7.16699 -66 21.5 -94s34.333 -50 60 -66
s54.5 -24 86.5 -24c29.333 0 56.666 6.83301 81.999 20.5zM281.998 780h93v-14l-63 -200h-60z" />
    <glyph glyph-name="epsilontonos" unicode="&#x3ad;" horiz-adv-x="508" 
d="M462 83c-45.333 -62.667 -114.999 -94 -208.999 -94c-134.667 0 -202 46 -202 138c0 31.333 8.16699 57.666 24.5 78.999s39.5 36 69.5 44c-23.333 10 -41.166 24.667 -53.499 44s-18.5 42 -18.5 68c0 42.667 16 76 48 100s77.333 36 136 36
c44.667 0 83.667 -7.16699 117 -21.5s60 -35.5 80 -63.5l-52 -46c-17.333 20.667 -37 35.834 -59 45.501s-49 14.5 -81 14.5c-73.333 0 -110 -26 -110 -78c0 -46.667 32 -70 96 -70h101v-68h-99c-42.667 0 -73.334 -5.83301 -92.001 -17.5s-28 -29.834 -28 -54.501
c0 -28 9.16699 -48.167 27.5 -60.5s50.166 -18.5 95.499 -18.5c37.333 0 68 5.33301 92 16s45.667 28.334 65 53.001zM247.001 780h93v-14l-63 -200h-60z" />
    <glyph glyph-name="etatonos" unicode="&#x3ae;" horiz-adv-x="586" 
d="M458.5 446c33 -34.667 49.499 -81.333 49.499 -140v-486h-77v476c0 39.333 -11.167 71 -33.5 95s-51.5 36 -87.5 36c-38 0 -69 -12.333 -93 -37s-36 -56 -36 -94v-296h-76v354c0 46 -18.333 69 -55 69l-29 -1v65c18.667 4.66699 36.667 7 54 7
c48.667 0 80.334 -21.667 95.001 -65c18 22 40.5 39 67.5 51s56.5 18 88.5 18c55.333 0 99.5 -17.333 132.5 -52zM298.999 780.001h93v-14l-63 -200h-60z" />
    <glyph glyph-name="iotatonos" unicode="&#x3af;" horiz-adv-x="311" 
d="M118 28c-24 26 -36.001 64.334 -36.001 115.001v344h77v-335c0 -32.667 6.5 -56.334 19.5 -71.001s33.833 -22 62.5 -22c18.667 0 40.334 2 65.001 6v-65c-30.667 -7.33301 -57.667 -11 -81 -11c-47.333 0 -83 13 -107 39zM110.999 780.001h93v-14l-63 -200h-60z" />
    <glyph glyph-name="upsilondieresistonos" unicode="&#x3b0;" horiz-adv-x="567" 
d="M134.5 46.5c-37 38.333 -55.5 89.5 -55.5 153.5v287h77v-291c0 -41.333 11.667 -74.5 35 -99.5s54.333 -37.5 93 -37.5c38 0 68.833 12.667 92.5 38s35.5 58.333 35.5 99v291h77v-287c0 -64 -18.667 -115.167 -56 -153.5s-87 -57.5 -149 -57.5
c-62.667 0 -112.5 19.167 -149.5 57.5zM264 780h93v-14l-74 -200h-58zM95 636c-11.333 10.667 -17 22.998 -17 36.998c0 14.667 5.66699 27.334 17 38.001s24 16 38 16c15.333 0 28.333 -5.16699 39 -15.5s16 -23.166 16 -38.499c0 -14.667 -5.33301 -27.167 -16 -37.5
s-23.667 -15.5 -39 -15.5c-14 0 -26.667 5.33301 -38 16zM397 635.498c-10.667 10.333 -16 22.833 -16 37.5s5.33301 27.334 16 38.001s23.667 16 39 16s28.333 -5.33301 39 -16s16 -23.334 16 -38.001s-5.33301 -27.167 -16 -37.5s-23.667 -15.5 -39 -15.5
s-28.333 5.16699 -39 15.5z" />
    <glyph glyph-name="alpha" unicode="&#x3b1;" horiz-adv-x="644" 
d="M623 65l-0.00195312 -65c-20 -4.66699 -37.667 -7 -53 -7c-56.667 0 -90.667 28.333 -102 85c-18.667 -28 -44 -49.833 -76 -65.5s-67 -23.5 -105 -23.5c-44.667 0 -85.167 11.167 -121.5 33.5s-64.666 53 -84.999 92s-30.5 82.167 -30.5 129.5s10.167 90.333 30.5 129
s48.5 69.167 84.5 91.5s76.667 33.5 122 33.5c38.667 0 74.5 -8.5 107.5 -25.5s58.833 -40.167 77.5 -69.5c0.666992 14 2.33398 42 5.00098 84h73c-6.66699 -100.667 -10 -178 -10 -232v-122c0 -47.333 17.667 -71 53 -71c6 0 16 1 30 3zM378.998 80.5
c25.333 13.667 45.833 34.334 61.5 62.001s23.5 61.167 23.5 100.5s-7.66699 72.833 -23 100.5s-35.666 48.5 -60.999 62.5s-53 21 -83 21c-32 0 -60.833 -8 -86.5 -24s-45.667 -37.833 -60 -65.5s-21.5 -58.834 -21.5 -93.501s7.16699 -66 21.5 -94s34.333 -50 60 -66
s54.5 -24 86.5 -24c29.333 0 56.666 6.83301 81.999 20.5z" />
    <glyph glyph-name="beta" unicode="&#x3b2;" horiz-adv-x="610" 
d="M520.5 344.5c26.333 -36.333 39.5 -79.501 39.5 -129.501c0 -43.333 -10 -82.166 -30 -116.499s-47.667 -61.166 -83 -80.499s-75.333 -29 -120 -29c-30.667 0 -60.167 5.16699 -88.5 15.5s-53.833 25.166 -76.5 44.499v-229h-77v734c0 40 9.16699 76 27.5 108
s43.833 56.833 76.5 74.5s70 26.5 112 26.5c38.667 0 73.334 -7.83301 104.001 -23.5s54.5 -37.5 71.5 -65.5s25.5 -60 25.5 -96c0 -35.333 -7.83301 -66.5 -23.5 -93.5s-37.834 -48.167 -66.501 -63.5c46 -14.667 82.167 -40.167 108.5 -76.5zM436 103.499
c30 29 45 66.833 45 113.5c0 47.333 -15.333 85.5 -46 114.5s-71 43.5 -121 43.5h-62v68h47c38 0 68.167 11.5 90.5 34.5s33.5 54.167 33.5 93.5c0 35.333 -11.667 64.333 -35 87s-53 34 -89 34c-40.667 0 -73.667 -13.333 -99 -40s-38 -60.667 -38 -102v-419
c20 -22.667 43.5 -40.167 70.5 -52.5s55.833 -18.5 86.5 -18.5c48 0 87 14.5 117 43.5z" />
    <glyph glyph-name="gamma" unicode="&#x3b3;" horiz-adv-x="557" 
d="M317 -19v-161h-76v161l-215 506h82l171 -406l170 406h82z" />
    <glyph glyph-name="delta" unicode="&#x3b4;" horiz-adv-x="596" 
d="M520 344c17.333 -33.333 26 -68.999 26 -106.999c0 -45.333 -11 -87 -33 -125s-52.167 -68 -90.5 -90s-80.166 -33 -125.499 -33s-87 11 -125 33s-67.833 52 -89.5 90s-32.5 79.667 -32.5 125c0 44.667 10.833 85.667 32.5 123s51.167 66.666 88.5 87.999
s78.666 32 123.999 32h10l-244 247v23h445v-73h-290l217 -220c40.667 -42 69.667 -79.667 87 -113zM420 108.001c31.333 32 47 73.667 47 125c0 34 -7.33301 64.5 -22 91.5s-35.167 48.167 -61.5 63.5s-55.833 23 -88.5 23c-49.333 0 -89.333 -16.333 -120 -49
s-46 -75 -46 -127c0 -52.667 15.5 -95 46.5 -127s71.833 -48 122.5 -48c50 0 90.667 16 122 48z" />
    <glyph glyph-name="epsilon" unicode="&#x3b5;" horiz-adv-x="508" 
d="M462 83c-45.333 -62.667 -114.999 -94 -208.999 -94c-134.667 0 -202 46 -202 138c0 31.333 8.16699 57.666 24.5 78.999s39.5 36 69.5 44c-23.333 10 -41.166 24.667 -53.499 44s-18.5 42 -18.5 68c0 42.667 16 76 48 100s77.333 36 136 36
c44.667 0 83.667 -7.16699 117 -21.5s60 -35.5 80 -63.5l-52 -46c-17.333 20.667 -37 35.834 -59 45.501s-49 14.5 -81 14.5c-73.333 0 -110 -26 -110 -78c0 -46.667 32 -70 96 -70h101v-68h-99c-42.667 0 -73.334 -5.83301 -92.001 -17.5s-28 -29.834 -28 -54.501
c0 -28 9.16699 -48.167 27.5 -60.5s50.166 -18.5 95.499 -18.5c37.333 0 68 5.33301 92 16s45.667 28.334 65 53.001z" />
    <glyph glyph-name="zeta" unicode="&#x3b6;" horiz-adv-x="455" 
d="M256 443c-48 -68 -81.3359 -119 -100.003 -153s-28 -64.667 -28 -92c0 -34.667 10.833 -62.167 32.5 -82.5s56.167 -35.833 103.5 -46.5l39 -8c42.667 -8.66699 74.834 -25.667 96.501 -51s32.5 -56.666 32.5 -93.999c0 -32.667 -8 -64.667 -24 -96h-77
c15.333 28 23 55.667 23 83s-7.66699 48.333 -23 63s-38.666 25 -69.999 31l-40 8c-56 11.333 -98.5 33.5 -127.5 66.5s-43.5 73.5 -43.5 121.5c0 24.667 4.83301 49.667 14.5 75s24.334 53.666 44.001 84.999s49.167 75 88.5 131l136 194h-280v72h402v-23z" />
    <glyph glyph-name="eta" unicode="&#x3b7;" horiz-adv-x="586" 
d="M458.5 446c33 -34.667 49.499 -81.333 49.499 -140v-486h-77v476c0 39.333 -11.167 71 -33.5 95s-51.5 36 -87.5 36c-38 0 -69 -12.333 -93 -37s-36 -56 -36 -94v-296h-76v354c0 46 -18.333 69 -55 69l-29 -1v65c18.667 4.66699 36.667 7 54 7
c48.667 0 80.334 -21.667 95.001 -65c18 22 40.5 39 67.5 51s56.5 18 88.5 18c55.333 0 99.5 -17.333 132.5 -52z" />
    <glyph glyph-name="theta" unicode="&#x3b8;" horiz-adv-x="617" 
d="M498 662.5c46 -65.667 69 -161.167 69 -286.5s-23 -221.166 -69 -287.499s-109 -99.5 -189 -99.5s-143 33.167 -189 99.5s-69 162.166 -69 287.499s23 220.833 69 286.5s109 98.5 189 98.5s143 -32.833 189 -98.5zM184 620.5c-31.333 -46.333 -49 -114.833 -53 -205.5
h356c-4 90.667 -21.833 159.167 -53.5 205.5s-73.167 69.5 -124.5 69.5c-52 0 -93.667 -23.167 -125 -69.5zM434 131c32 48 49.667 118.333 53 211h-356c3.33301 -92.667 20.833 -163 52.5 -211s73.5 -72 125.5 -72c51.333 0 93 24 125 72z" />
    <glyph glyph-name="iota" unicode="&#x3b9;" horiz-adv-x="311" 
d="M118 28c-24 26 -36.001 64.334 -36.001 115.001v344h77v-335c0 -32.667 6.5 -56.334 19.5 -71.001s33.833 -22 62.5 -22c18.667 0 40.334 2 65.001 6v-65c-30.667 -7.33301 -57.667 -11 -81 -11c-47.333 0 -83 13 -107 39z" />
    <glyph glyph-name="kappa" unicode="&#x3ba;" horiz-adv-x="508" 
d="M85 487h77v-487h-77v487zM495 0h-97l-226 264l210 223h99l-213 -222z" />
    <glyph glyph-name="lambda" unicode="&#x3bb;" horiz-adv-x="548" 
d="M535 64v-64c-12.667 -4 -25.667 -6 -39 -6c-24.667 0 -44.667 6.66699 -60 20s-28.333 35.333 -39 66l-122 329l-176 -409h-82l222 500l-37 106c-11.333 30.667 -24 52.5 -38 65.5s-32.667 19.5 -56 19.5c-12 0 -28 -1 -48 -3v65c18 5.33301 38.333 8 61 8
c35.333 0 64.5 -10 87.5 -30s43.167 -52.667 60.5 -98l193 -520c6.66699 -17.333 14 -29.833 22 -37.5s17.667 -11.5 29 -11.5h22z" />
    <glyph glyph-name="uni03BC" unicode="&#x3bc;" horiz-adv-x="592" 
d="M571 65l-0.00195312 -65c-20 -4.66699 -37.333 -7 -52 -7c-46.667 0 -78 19.667 -94 59c-15.333 -20 -34.5 -35.5 -57.5 -46.5s-48.5 -16.5 -76.5 -16.5c-26.667 0 -51 5 -73 15s-40.667 24 -56 42v-226h-77v667h77v-291c0 -39.333 11.5 -71.833 34.5 -97.5
s52.833 -38.5 89.5 -38.5s66.667 12.833 90 38.5s35 58.167 35 97.5v291h77v-351c0 -25.333 4.33301 -44 13 -56s22.334 -18 41.001 -18c6.66699 0 16.334 1 29.001 3z" />
    <glyph glyph-name="nu" unicode="&#x3bd;" horiz-adv-x="539" 
d="M513 487l-229 -498h-28l-230 498h82l162 -367l161 367h82z" />
    <glyph glyph-name="xi" unicode="&#x3be;" horiz-adv-x="471" 
d="M204 640c-23.333 -25.333 -35 -55.3369 -35 -90.0039c0 -34 11 -63.833 33 -89.5s51.667 -38.5 89 -38.5h119v-70h-119c-46 0 -83 -12.833 -111 -38.5s-42 -60.5 -42 -104.5c0 -38.667 11.833 -69.667 35.5 -93s60.167 -40 109.5 -50l41 -8
c42.667 -8.66699 74.5 -24.5 95.5 -47.5s31.5 -54.5 31.5 -94.5c0 -33.333 -8 -65.333 -24 -96h-76c14.667 31.333 22 58.666 22 81.999c0 27.333 -7 48.333 -21 63s-37 24.334 -69 29.001l-43 7c-56.667 8.66699 -101 30.834 -133 66.501s-48 79.834 -48 132.501
c0 45.333 11.5 84.5 34.5 117.5s55.167 57.167 96.5 72.5c-32 14.667 -56.333 35 -73 61s-25 54.333 -25 85c0 28.667 5.66699 55.334 17 80.001s28 45.334 50 62.001h-94v72h386v-72h-148c-42.667 0 -75.667 -12.667 -99 -38z" />
    <glyph glyph-name="omicron" unicode="&#x3bf;" horiz-adv-x="610" 
d="M176 24c-38.667 22.667 -69.332 53.502 -91.999 92.502s-34 81.5 -34 127.5c0 46.667 11.333 89.5 34 128.5s53.5 69.667 92.5 92s81.833 33.5 128.5 33.5s89.5 -11.333 128.5 -34s69.833 -53.334 92.5 -92.001s34 -81.334 34 -128.001c0 -46 -11.333 -88.5 -34 -127.5
s-53.667 -69.833 -93 -92.5s-82.333 -34 -129 -34s-89.334 11.333 -128.001 34zM393.502 85.002c27 16 48.332 37.833 63.999 65.5s23.5 58.5 23.5 92.5c0 34.667 -7.66699 66 -23 94s-36.5 50 -63.5 66s-56.833 24 -89.5 24c-33.333 0 -63.333 -8 -90 -24
s-47.667 -38 -63 -66s-23 -59.333 -23 -94c0 -34 7.66699 -64.833 23 -92.5s36.333 -49.5 63 -65.5s56.334 -24 89.001 -24s62.5 8 89.5 24z" />
    <glyph glyph-name="pi" unicode="&#x3c0;" horiz-adv-x="592" 
d="M102 414h-79v73h545v-73h-78v-414h-76v414h-235v-414h-77v414z" />
    <glyph glyph-name="rho" unicode="&#x3c1;" horiz-adv-x="621" 
d="M450 465.5c38 -21.667 67.666 -51.834 88.999 -90.501s32 -82.334 32 -131.001c0 -48 -10.333 -91.333 -31 -130s-49.167 -69.167 -85.5 -91.5s-76.833 -33.5 -121.5 -33.5c-36.667 0 -70.667 7.33301 -102 22s-56.666 34.667 -75.999 60v-251h-76v421
c0 50.667 10 95.334 30 134.001s48.333 68.834 85 90.501s79 32.5 127 32.5s91 -10.833 129 -32.5zM408.999 84c26 16 46.333 37.832 61 65.499s22 58.834 22 93.501s-7.33301 66 -22 94s-35.167 50 -61.5 66s-55.833 24 -88.5 24c-50.667 0 -91 -16.833 -121 -50.5
s-45 -78.5 -45 -134.5c0 -54 15.5 -97.833 46.5 -131.5s71.167 -50.5 120.5 -50.5c32.667 0 62 8 88 24z" />
    <glyph glyph-name="uni03C2" unicode="&#x3c2;" horiz-adv-x="526" 
d="M373 -98c0 25.333 -6.5 44.832 -19.5 58.499s-34.5 24.5 -64.5 32.5l-51 13c-62 16 -108.833 44.667 -140.5 86s-47.5 92 -47.5 152c0 48.667 10.333 92.334 31 131.001s49.5 68.834 86.5 90.501s79.167 32.5 126.5 32.5c44 0 83.667 -9.33301 119 -28
s64.333 -45.667 87 -81l-55 -44c-40.667 54.667 -90.334 82 -149.001 82c-32 0 -60.667 -7.83301 -86 -23.5s-45.166 -37.167 -59.499 -64.5s-21.5 -58 -21.5 -92c0 -92.667 50 -151.667 150 -177l52 -13c80.667 -20 121 -67 121 -141c0 -32 -8 -64 -24 -96h-76
c14 29.333 21 56.666 21 81.999z" />
    <glyph glyph-name="sigma" unicode="&#x3c3;" horiz-adv-x="634" 
d="M620 414h-147c25.333 -21.333 45 -47.333 59 -78s21 -63.667 21 -99c0 -46 -11 -88 -33 -126s-52.333 -67.833 -91 -89.5s-81.334 -32.5 -128.001 -32.5s-89.167 11 -127.5 33s-68.5 52.333 -90.5 91s-33 81.667 -33 129c0 46.667 11 88.667 33 126s52.333 66.5 91 87.5
s82.334 31.5 131.001 31.5h315v-73zM389.5 84c26.333 16 46.999 37.999 61.999 65.999s22.5 59 22.5 93c0 33.333 -7.33301 63.333 -22 90s-35 47.334 -61 62.001s-55.667 22 -89 22s-63.166 -7.5 -89.499 -22.5s-46.833 -35.667 -61.5 -62s-22 -56.5 -22 -90.5
s7.5 -64.833 22.5 -92.5s35.5 -49.5 61.5 -65.5s55.333 -24 88 -24s62.167 8 88.5 24z" />
    <glyph glyph-name="tau" unicode="&#x3c4;" horiz-adv-x="478" 
d="M258 414v-262.001c0 -31.333 8.16699 -54.666 24.5 -69.999s41.5 -23 75.5 -23c20 0 42.333 2 67 6v-65c-29.333 -7.33301 -56 -11 -80 -11c-52.667 0 -93 13.667 -121 41s-42 66.333 -42 117v267h-165v73h431v-73h-190z" />
    <glyph glyph-name="upsilon" unicode="&#x3c5;" horiz-adv-x="567" 
d="M134.5 46.5c-37 38.333 -55.5 89.5 -55.5 153.5v287h77v-291c0 -41.333 11.667 -74.5 35 -99.5s54.333 -37.5 93 -37.5c38 0 68.833 12.667 92.5 38s35.5 58.333 35.5 99v291h77v-287c0 -64 -18.667 -115.167 -56 -153.5s-87 -57.5 -149 -57.5
c-62.667 0 -112.5 19.167 -149.5 57.5z" />
    <glyph glyph-name="phi" unicode="&#x3c6;" horiz-adv-x="747" 
d="M659 113.5c-25.333 -37.667 -59.666 -67.168 -102.999 -88.501s-91.666 -33.333 -144.999 -36v-169h-77v170c-53.333 2.66699 -101.5 14.5 -144.5 35.5s-77 50.333 -102 88s-37.5 80.834 -37.5 129.501s12.5 91.667 37.5 129s59 66.5 102 87.5s91.167 32.833 144.5 35.5
v165h77v-164c53.333 -2.66699 101.666 -14.667 144.999 -36s77.666 -50.666 102.999 -87.999s38 -80.333 38 -129s-12.667 -91.834 -38 -129.501zM561 110.499c40 32.333 60 76.168 60 131.501s-20 99.333 -60 132s-90.667 50.667 -152 54v-371
c61.333 3.33301 112 21.166 152 53.499zM186 110.501c39.333 -32.333 89.333 -50.168 150 -53.501v371c-60.667 -3.33301 -110.667 -21.5 -150 -54.5s-59 -76.833 -59 -131.5c0 -55.333 19.667 -99.166 59 -131.499z" />
    <glyph glyph-name="chi" unicode="&#x3c7;" horiz-adv-x="488" 
d="M482 -116v-64c-15.333 -4 -30.666 -6 -45.999 -6c-24.667 0 -45.334 6.16699 -62.001 18.5s-31.334 32.5 -44.001 60.5l-93 196l-127 -269h-85l168 344l-96 213c-7.33301 15.333 -15.166 26.833 -23.499 34.5s-20.833 11.5 -37.5 11.5c-12.667 0 -23 -0.333008 -31 -1v65
c16 4 32.333 6 49 6c28 0 49.333 -6.33301 64 -19s28.334 -33 41.001 -61l80 -180l123 254h84l-165 -329l109 -229c9.33301 -18.667 18.166 -31 26.499 -37s20.833 -9 37.5 -9c12.667 0 22 0.333008 28 1z" />
    <glyph glyph-name="psi" unicode="&#x3c8;" horiz-adv-x="739" 
d="M331 -11c-49.333 0 -93.002 10.833 -131.002 32.5s-67.667 51.834 -89 90.501s-32 82.667 -32 132v243h76v-237c0 -36 7.66699 -68.5 23 -97.5s36.5 -51.833 63.5 -68.5s56.833 -25 89.5 -25v601h77v-601c32.667 0 62.5 8.33301 89.5 25s48.333 39.5 64 68.5
s23.5 61.5 23.5 97.5v237h76v-243c0 -49.333 -10.667 -93.333 -32 -132s-51.166 -68.834 -89.499 -90.501s-82.166 -32.5 -131.499 -32.5v-169h-77v169z" />
    <glyph glyph-name="omega" unicode="&#x3c9;" horiz-adv-x="784" 
d="M690.5 397c29 -44.667 43.5 -99.3369 43.5 -164.004c0 -74.667 -17.833 -134 -53.5 -178s-84.167 -66 -145.5 -66c-33.333 0 -62.166 7 -86.499 21s-43.166 34.333 -56.499 61c-12.667 -26.667 -31.334 -47 -56.001 -61s-53.667 -21 -87 -21
c-61.333 0 -109.833 22 -145.5 66s-53.5 103.333 -53.5 178c0 64.667 14.5 119.334 43.5 164.001s70.833 76.667 125.5 96l28 -68c-79.333 -38 -119 -102.333 -119 -193c0 -52.667 11.167 -94.5 33.5 -125.5s52.166 -46.5 89.499 -46.5c32.667 0 58.334 11.333 77.001 34
s28 53.334 28 92.001v138h73v-138c0 -39.333 9.16699 -70.166 27.5 -92.499s43.833 -33.5 76.5 -33.5c37.333 0 67.166 15.333 89.499 46s33.5 72.334 33.5 125.001c0 46.667 -9.66699 86 -29 118s-49 57.333 -89 76l27 68c54.667 -19.333 96.5 -51.333 125.5 -96z" />
    <glyph glyph-name="iotadieresis" unicode="&#x3ca;" horiz-adv-x="311" 
d="M118 28c-24 26 -36.001 64.334 -36.001 115.001v344h77v-335c0 -32.667 6.5 -56.334 19.5 -71.001s33.833 -22 62.5 -22c18.667 0 40.334 2 65.001 6v-65c-30.667 -7.33301 -57.667 -11 -81 -11c-47.333 0 -83 13 -107 39zM-9.50098 635.501
c-11 10.333 -16.5 22.833 -16.5 37.5s5.5 27.334 16.5 38.001s23.833 16 38.5 16c15.333 0 28.5 -5.33301 39.5 -16s16.5 -23.334 16.5 -38.001s-5.5 -27.167 -16.5 -37.5s-24.167 -15.5 -39.5 -15.5c-14.667 0 -27.5 5.16699 -38.5 15.5zM172.999 636.001
c-11.333 10.667 -17 23 -17 37c0 14.667 5.66699 27.334 17 38.001s24.333 16 39 16c15.333 0 28.333 -5.33301 39 -16s16 -23.334 16 -38.001s-5.33301 -27.167 -16 -37.5s-23.667 -15.5 -39 -15.5c-14.667 0 -27.667 5.33301 -39 16z" />
    </font>
</defs>
</svg>
