<svg aria-hidden="true" style="position:absolute;width:0;height:0" xmlns="http://www.w3.org/2000/svg" overflow="hidden"><defs><symbol id="icon-phone" viewBox="0 0 32 32"><path d="M27.247 21.071l-3.951-.451a3.094 3.094 0 00-2.551.886l-2.862 2.862A23.403 23.403 0 017.632 14.117l2.878-2.878a3.096 3.096 0 00.887-2.551l-.451-3.92a3.115 3.115 0 00-3.095-2.753H5.16c-1.758 0-3.22 1.462-3.111 3.22.824 13.284 11.449 23.893 24.718 24.718 1.758.109 3.22-1.353 3.22-3.111v-2.691c.015-1.571-1.167-2.893-2.738-3.08z"/></symbol><symbol id="icon-pointer-down" viewBox="0 0 23 32"><path d="M11.908.594a1.092 1.092 0 00-1.092 1.092v25.736L3.95 20.554A1.093 1.093 0 002.404 22.1l8.729 8.729a1.085 1.085 0 001.19.237c.132-.055.253-.135.354-.237l8.729-8.729a1.09 1.09 0 00.32-.773 1.093 1.093 0 00-1.866-.773l-6.866 6.868V1.686A1.092 1.092 0 0011.902.594z"/></symbol><symbol id="icon-pointer-left" viewBox="0 0 18 32"><path d="M18.4 2.144L4.313 16 18.4 29.856 16.224 32 0 15.992 16.224 0 18.4 2.144z"/></symbol><symbol id="icon-cross" viewBox="0 0 32 32"><path d="M18.41 16L30.872 3.539a1.713 1.713 0 00-.089-2.321 1.708 1.708 0 00-2.321-.089L16 13.591 3.538 1.112a1.713 1.713 0 00-2.321.089 1.708 1.708 0 00-.089 2.321L13.59 16.001 1.111 28.463a1.713 1.713 0 00-.596 1.233A1.708 1.708 0 001.6 31.353a1.71 1.71 0 001.923-.479l12.479-12.462 12.462 12.462a1.713 1.713 0 002.321-.089 1.712 1.712 0 00.089-2.321L18.412 16.002z"/></symbol><symbol id="icon-pointer-right" viewBox="0 0 18 32"><path d="M0 29.856L14.087 16 0 2.144 2.176 0 18.4 16.008 2.176 32 0 29.856z"/></symbol><symbol id="icon-burger" viewBox="0 0 57 32"><path d="M56.889 1.778c0 .982-.796 1.778-1.778 1.778H1.778a1.778 1.778 0 110-3.556h53.333c.982 0 1.778.796 1.778 1.778zm0 28.444c0 .982-.796 1.778-1.778 1.778H1.778a1.778 1.778 0 110-3.556h53.333c.982 0 1.778.796 1.778 1.778zm0-14.236c0 .974-.789 1.764-1.764 1.764H1.763a1.764 1.764 0 010-3.528h53.362c.974 0 1.764.79 1.764 1.764z"/></symbol><symbol id="icon-triangle-down" viewBox="0 0 48 32"><path d="M26.446 29.102a3.2 3.2 0 01-4.891 0L2.115 6.064C.359 3.983 1.838.8 4.561.8h38.88c2.722 0 4.201 3.183 2.445 5.264l-19.44 23.038z"/></symbol><symbol id="icon-paper-clip" viewBox="0 0 35 32"><path d="M6.3 32c-1.489 0-2.811-.559-3.967-1.677C1.111 29.14.5 27.705.5 26.017s.611-3.124 1.833-4.307L21.5 2.033c.978-.968 2.106-1.591 3.383-1.871s2.572-.204 3.883.226 2.522 1.172 3.633 2.226c.356.366.683.769.983 1.21s.544.903.733 1.387a8.796 8.796 0 01.583 3.145c-.044 2.28-.844 4.183-2.4 5.71l-14.5 14.903c-.2.215-.444.328-.733.339s-.539-.081-.75-.274c-.211-.193-.322-.435-.333-.726s.083-.543.283-.758l14.5-14.903c1.178-1.161 1.778-2.602 1.8-4.323s-.544-3.129-1.7-4.226c-.711-.71-1.5-1.247-2.367-1.613s-1.8-.484-2.8-.355c-1 .129-1.889.57-2.667 1.323L3.864 23.13c-.822.796-1.233 1.753-1.233 2.871s.411 2.075 1.233 2.871c.378.366.789.64 1.233.823s.911.253 1.4.21c.978-.043 1.889-.484 2.733-1.323l15.233-15.677a4.621 4.621 0 00.634-.758c.111-.161.2-.333.267-.516s.111-.366.133-.548-.011-.371-.1-.565a1.821 1.821 0 00-.4-.548c-.422-.43-.833-.624-1.233-.581-.422.043-.9.312-1.433.806L10.864 22.001c-.133.129-.289.22-.467.274s-.361.059-.55.016-.35-.129-.483-.258c-.222-.193-.333-.43-.333-.71s.1-.527.3-.742L20.798 8.742c.911-.86 1.833-1.333 2.767-1.419 1.067-.086 2.044.301 2.933 1.161.844.796 1.217 1.731 1.117 2.806s-.639 2.086-1.617 3.032l-15.233 15.71c-1.244 1.204-2.633 1.85-4.167 1.936-.044 0-.094.005-.15.016s-.106.016-.15.016z"/></symbol><symbol id="icon-triangle-up" viewBox="0 0 48 32"><path d="M21.554 2.898a3.2 3.2 0 014.891 0l19.44 23.038c1.756 2.081.276 5.264-2.446 5.264H4.559c-2.722 0-4.201-3.183-2.446-5.264l19.44-23.038z"/></symbol></defs></svg>